<?xml version="1.0" encoding="utf-8" standalone="no"?>
<!DOCTYPE svg PUBLIC "-//W3C//DTD SVG 1.1//EN"
  "http://www.w3.org/Graphics/SVG/1.1/DTD/svg11.dtd">
<!-- Created with matplotlib (http://matplotlib.org/) -->
<svg height="432pt" version="1.1" viewBox="0 0 1080 432" width="1080pt" xmlns="http://www.w3.org/2000/svg" xmlns:xlink="http://www.w3.org/1999/xlink">
 <defs>
  <style type="text/css">
*{stroke-linecap:butt;stroke-linejoin:round;}
  </style>
 </defs>
 <g id="figure_1">
  <g id="patch_1">
   <path d="M 0 432 
L 1080 432 
L 1080 0 
L 0 0 
z
" style="fill:#ffffff;"/>
  </g>
  <g id="axes_1">
   <g id="patch_2">
    <path d="M 135 378 
L 972 378 
L 972 51.84 
L 135 51.84 
z
" style="fill:#ffffff;"/>
   </g>
   <g id="matplotlib.axis_1">
    <g id="xtick_1">
     <g id="line2d_1">
      <path clip-path="url(#p8d12dc0a82)" d="M 135 378 
L 135 51.84 
" style="fill:none;stroke:#00ccff;stroke-linecap:round;stroke-width:0.8;"/>
     </g>
     <g id="line2d_2"/>
     <g id="text_1">
      <!-- 31610 -->
      <defs>
       <path d="M 5.078125 53.609375 
Q 7.90625 60.296875 12.21875 63.9375 
Q 16.546875 67.578125 23 67.578125 
Q 30.953125 67.578125 35.203125 62.40625 
Q 38.421875 58.546875 38.421875 54.15625 
Q 38.421875 46.921875 29.34375 39.203125 
Q 35.453125 36.8125 38.578125 32.375 
Q 41.703125 27.9375 41.703125 21.921875 
Q 41.703125 13.328125 36.234375 7.03125 
Q 29.109375 -1.171875 15.578125 -1.171875 
Q 8.890625 -1.171875 6.46875 0.484375 
Q 4.046875 2.15625 4.046875 4.046875 
Q 4.046875 5.46875 5.1875 6.546875 
Q 6.34375 7.625 7.953125 7.625 
Q 9.1875 7.625 10.453125 7.234375 
Q 11.28125 6.984375 14.203125 5.4375 
Q 17.140625 3.90625 18.265625 3.609375 
Q 20.0625 3.078125 22.125 3.078125 
Q 27.09375 3.078125 30.78125 6.9375 
Q 34.46875 10.796875 34.46875 16.0625 
Q 34.46875 19.921875 32.765625 23.578125 
Q 31.5 26.3125 29.984375 27.734375 
Q 27.875 29.6875 24.21875 31.265625 
Q 20.5625 32.859375 16.75 32.859375 
L 15.1875 32.859375 
L 15.1875 34.328125 
Q 19.046875 34.8125 22.921875 37.109375 
Q 26.8125 39.40625 28.5625 42.625 
Q 30.328125 45.84375 30.328125 49.703125 
Q 30.328125 54.734375 27.171875 57.828125 
Q 24.03125 60.9375 19.34375 60.9375 
Q 11.765625 60.9375 6.6875 52.828125 
z
" id="TimesNewRomanPSMT-33"/>
       <path d="M 11.71875 59.71875 
L 27.828125 67.578125 
L 29.4375 67.578125 
L 29.4375 11.671875 
Q 29.4375 6.109375 29.90625 4.734375 
Q 30.375 3.375 31.828125 2.640625 
Q 33.296875 1.90625 37.796875 1.8125 
L 37.796875 0 
L 12.890625 0 
L 12.890625 1.8125 
Q 17.578125 1.90625 18.9375 2.609375 
Q 20.3125 3.328125 20.84375 4.515625 
Q 21.390625 5.71875 21.390625 11.671875 
L 21.390625 47.40625 
Q 21.390625 54.640625 20.90625 56.6875 
Q 20.5625 58.25 19.65625 58.984375 
Q 18.75 59.71875 17.484375 59.71875 
Q 15.671875 59.71875 12.453125 58.203125 
z
" id="TimesNewRomanPSMT-31"/>
       <path d="M 44.828125 67.578125 
L 44.828125 65.765625 
Q 38.375 65.140625 34.296875 63.203125 
Q 30.21875 61.28125 26.234375 57.328125 
Q 22.265625 53.375 19.65625 48.515625 
Q 17.046875 43.65625 15.28125 36.96875 
Q 22.3125 41.796875 29.390625 41.796875 
Q 36.1875 41.796875 41.15625 36.328125 
Q 46.140625 30.859375 46.140625 22.265625 
Q 46.140625 13.96875 41.109375 7.125 
Q 35.0625 -1.171875 25.09375 -1.171875 
Q 18.3125 -1.171875 13.578125 3.328125 
Q 4.296875 12.0625 4.296875 25.984375 
Q 4.296875 34.859375 7.859375 42.859375 
Q 11.421875 50.875 18.03125 57.078125 
Q 24.65625 63.28125 30.703125 65.421875 
Q 36.765625 67.578125 42 67.578125 
z
M 14.453125 33.40625 
Q 13.578125 26.8125 13.578125 22.75 
Q 13.578125 18.0625 15.3125 12.5625 
Q 17.046875 7.078125 20.453125 3.859375 
Q 22.953125 1.5625 26.515625 1.5625 
Q 30.765625 1.5625 34.109375 5.5625 
Q 37.453125 9.578125 37.453125 17 
Q 37.453125 25.34375 34.125 31.4375 
Q 30.8125 37.546875 24.703125 37.546875 
Q 22.859375 37.546875 20.734375 36.765625 
Q 18.609375 35.984375 14.453125 33.40625 
z
" id="TimesNewRomanPSMT-36"/>
       <path d="M 3.609375 32.71875 
Q 3.609375 44.046875 7.03125 52.21875 
Q 10.453125 60.40625 16.109375 64.40625 
Q 20.515625 67.578125 25.203125 67.578125 
Q 32.8125 67.578125 38.875 59.8125 
Q 46.4375 50.203125 46.4375 33.734375 
Q 46.4375 22.21875 43.109375 14.15625 
Q 39.796875 6.109375 34.640625 2.46875 
Q 29.5 -1.171875 24.703125 -1.171875 
Q 15.234375 -1.171875 8.9375 10.015625 
Q 3.609375 19.4375 3.609375 32.71875 
z
M 13.1875 31.5 
Q 13.1875 17.828125 16.546875 9.1875 
Q 19.34375 1.90625 24.859375 1.90625 
Q 27.484375 1.90625 30.3125 4.265625 
Q 33.15625 6.640625 34.625 12.203125 
Q 36.859375 20.609375 36.859375 35.890625 
Q 36.859375 47.21875 34.515625 54.78125 
Q 32.765625 60.40625 29.984375 62.75 
Q 27.984375 64.359375 25.140625 64.359375 
Q 21.828125 64.359375 19.234375 61.375 
Q 15.71875 57.328125 14.453125 48.625 
Q 13.1875 39.9375 13.1875 31.5 
z
" id="TimesNewRomanPSMT-30"/>
      </defs>
      <g style="fill:#262626;" transform="translate(122.5 388.44375)scale(0.1 -0.1)">
       <use xlink:href="#TimesNewRomanPSMT-33"/>
       <use x="50" xlink:href="#TimesNewRomanPSMT-31"/>
       <use x="100" xlink:href="#TimesNewRomanPSMT-36"/>
       <use x="150" xlink:href="#TimesNewRomanPSMT-31"/>
       <use x="200" xlink:href="#TimesNewRomanPSMT-30"/>
      </g>
     </g>
    </g>
    <g id="xtick_2">
     <g id="line2d_3">
      <path clip-path="url(#p8d12dc0a82)" d="M 261.818182 378 
L 261.818182 51.84 
" style="fill:none;stroke:#00ccff;stroke-linecap:round;stroke-width:0.8;"/>
     </g>
     <g id="line2d_4"/>
     <g id="text_2">
      <!-- 31620 -->
      <defs>
       <path d="M 45.84375 12.75 
L 41.21875 0 
L 2.15625 0 
L 2.15625 1.8125 
Q 19.390625 17.53125 26.421875 27.484375 
Q 33.453125 37.453125 33.453125 45.703125 
Q 33.453125 52 29.59375 56.046875 
Q 25.734375 60.109375 20.359375 60.109375 
Q 15.484375 60.109375 11.59375 57.25 
Q 7.71875 54.390625 5.859375 48.875 
L 4.046875 48.875 
Q 5.28125 57.90625 10.328125 62.734375 
Q 15.375 67.578125 22.953125 67.578125 
Q 31 67.578125 36.390625 62.40625 
Q 41.796875 57.234375 41.796875 50.203125 
Q 41.796875 45.171875 39.453125 40.140625 
Q 35.84375 32.234375 27.734375 23.390625 
Q 15.578125 10.109375 12.546875 7.375 
L 29.828125 7.375 
Q 35.109375 7.375 37.234375 7.765625 
Q 39.359375 8.15625 41.0625 9.34375 
Q 42.78125 10.546875 44.046875 12.75 
z
" id="TimesNewRomanPSMT-32"/>
      </defs>
      <g style="fill:#262626;" transform="translate(249.318182 388.44375)scale(0.1 -0.1)">
       <use xlink:href="#TimesNewRomanPSMT-33"/>
       <use x="50" xlink:href="#TimesNewRomanPSMT-31"/>
       <use x="100" xlink:href="#TimesNewRomanPSMT-36"/>
       <use x="150" xlink:href="#TimesNewRomanPSMT-32"/>
       <use x="200" xlink:href="#TimesNewRomanPSMT-30"/>
      </g>
     </g>
    </g>
    <g id="xtick_3">
     <g id="line2d_5">
      <path clip-path="url(#p8d12dc0a82)" d="M 388.636364 378 
L 388.636364 51.84 
" style="fill:none;stroke:#00ccff;stroke-linecap:round;stroke-width:0.8;"/>
     </g>
     <g id="line2d_6"/>
     <g id="text_3">
      <!-- 31630 -->
      <g style="fill:#262626;" transform="translate(376.136364 388.44375)scale(0.1 -0.1)">
       <use xlink:href="#TimesNewRomanPSMT-33"/>
       <use x="50" xlink:href="#TimesNewRomanPSMT-31"/>
       <use x="100" xlink:href="#TimesNewRomanPSMT-36"/>
       <use x="150" xlink:href="#TimesNewRomanPSMT-33"/>
       <use x="200" xlink:href="#TimesNewRomanPSMT-30"/>
      </g>
     </g>
    </g>
    <g id="xtick_4">
     <g id="line2d_7">
      <path clip-path="url(#p8d12dc0a82)" d="M 515.454545 378 
L 515.454545 51.84 
" style="fill:none;stroke:#00ccff;stroke-linecap:round;stroke-width:0.8;"/>
     </g>
     <g id="line2d_8"/>
     <g id="text_4">
      <!-- 31640 -->
      <defs>
       <path d="M 46.53125 24.421875 
L 46.53125 17.484375 
L 37.640625 17.484375 
L 37.640625 0 
L 29.59375 0 
L 29.59375 17.484375 
L 1.5625 17.484375 
L 1.5625 23.734375 
L 32.28125 67.578125 
L 37.640625 67.578125 
L 37.640625 24.421875 
z
M 29.59375 24.421875 
L 29.59375 57.28125 
L 6.34375 24.421875 
z
" id="TimesNewRomanPSMT-34"/>
      </defs>
      <g style="fill:#262626;" transform="translate(502.954545 388.44375)scale(0.1 -0.1)">
       <use xlink:href="#TimesNewRomanPSMT-33"/>
       <use x="50" xlink:href="#TimesNewRomanPSMT-31"/>
       <use x="100" xlink:href="#TimesNewRomanPSMT-36"/>
       <use x="150" xlink:href="#TimesNewRomanPSMT-34"/>
       <use x="200" xlink:href="#TimesNewRomanPSMT-30"/>
      </g>
     </g>
    </g>
    <g id="xtick_5">
     <g id="line2d_9">
      <path clip-path="url(#p8d12dc0a82)" d="M 642.272727 378 
L 642.272727 51.84 
" style="fill:none;stroke:#00ccff;stroke-linecap:round;stroke-width:0.8;"/>
     </g>
     <g id="line2d_10"/>
     <g id="text_5">
      <!-- 31650 -->
      <defs>
       <path d="M 43.40625 66.21875 
L 39.59375 57.90625 
L 19.671875 57.90625 
L 15.328125 49.03125 
Q 28.265625 47.125 35.84375 39.40625 
Q 42.328125 32.765625 42.328125 23.78125 
Q 42.328125 18.5625 40.203125 14.109375 
Q 38.09375 9.671875 34.859375 6.546875 
Q 31.640625 3.421875 27.6875 1.515625 
Q 22.078125 -1.171875 16.15625 -1.171875 
Q 10.203125 -1.171875 7.484375 0.84375 
Q 4.78125 2.875 4.78125 5.328125 
Q 4.78125 6.6875 5.90625 7.734375 
Q 7.03125 8.796875 8.734375 8.796875 
Q 10.015625 8.796875 10.96875 8.40625 
Q 11.921875 8.015625 14.203125 6.390625 
Q 17.875 3.859375 21.625 3.859375 
Q 27.34375 3.859375 31.65625 8.171875 
Q 35.984375 12.5 35.984375 18.703125 
Q 35.984375 24.703125 32.125 29.90625 
Q 28.265625 35.109375 21.484375 37.9375 
Q 16.15625 40.140625 6.984375 40.484375 
L 19.671875 66.21875 
z
" id="TimesNewRomanPSMT-35"/>
      </defs>
      <g style="fill:#262626;" transform="translate(629.772727 388.44375)scale(0.1 -0.1)">
       <use xlink:href="#TimesNewRomanPSMT-33"/>
       <use x="50" xlink:href="#TimesNewRomanPSMT-31"/>
       <use x="100" xlink:href="#TimesNewRomanPSMT-36"/>
       <use x="150" xlink:href="#TimesNewRomanPSMT-35"/>
       <use x="200" xlink:href="#TimesNewRomanPSMT-30"/>
      </g>
     </g>
    </g>
    <g id="xtick_6">
     <g id="line2d_11">
      <path clip-path="url(#p8d12dc0a82)" d="M 769.090909 378 
L 769.090909 51.84 
" style="fill:none;stroke:#00ccff;stroke-linecap:round;stroke-width:0.8;"/>
     </g>
     <g id="line2d_12"/>
     <g id="text_6">
      <!-- 31660 -->
      <g style="fill:#262626;" transform="translate(756.590909 388.44375)scale(0.1 -0.1)">
       <use xlink:href="#TimesNewRomanPSMT-33"/>
       <use x="50" xlink:href="#TimesNewRomanPSMT-31"/>
       <use x="100" xlink:href="#TimesNewRomanPSMT-36"/>
       <use x="150" xlink:href="#TimesNewRomanPSMT-36"/>
       <use x="200" xlink:href="#TimesNewRomanPSMT-30"/>
      </g>
     </g>
    </g>
    <g id="xtick_7">
     <g id="line2d_13">
      <path clip-path="url(#p8d12dc0a82)" d="M 895.909091 378 
L 895.909091 51.84 
" style="fill:none;stroke:#00ccff;stroke-linecap:round;stroke-width:0.8;"/>
     </g>
     <g id="line2d_14"/>
     <g id="text_7">
      <!-- 31670 -->
      <defs>
       <path d="M 10.0625 66.21875 
L 45.5625 66.21875 
L 45.5625 64.359375 
L 23.484375 -1.375 
L 18.015625 -1.375 
L 37.796875 58.25 
L 19.578125 58.25 
Q 14.0625 58.25 11.71875 56.9375 
Q 7.625 54.6875 5.125 50 
L 3.71875 50.53125 
z
" id="TimesNewRomanPSMT-37"/>
      </defs>
      <g style="fill:#262626;" transform="translate(883.409091 388.44375)scale(0.1 -0.1)">
       <use xlink:href="#TimesNewRomanPSMT-33"/>
       <use x="50" xlink:href="#TimesNewRomanPSMT-31"/>
       <use x="100" xlink:href="#TimesNewRomanPSMT-36"/>
       <use x="150" xlink:href="#TimesNewRomanPSMT-37"/>
       <use x="200" xlink:href="#TimesNewRomanPSMT-30"/>
      </g>
     </g>
    </g>
    <g id="text_8">
     <!-- Time (s) -->
     <defs>
      <path d="M 57.859375 66.21875 
L 58.59375 50.6875 
L 56.734375 50.6875 
Q 56.203125 54.78125 55.28125 56.546875 
Q 53.765625 59.375 51.25 60.71875 
Q 48.734375 62.0625 44.625 62.0625 
L 35.296875 62.0625 
L 35.296875 11.46875 
Q 35.296875 5.375 36.625 3.859375 
Q 38.484375 1.8125 42.328125 1.8125 
L 44.625 1.8125 
L 44.625 0 
L 16.546875 0 
L 16.546875 1.8125 
L 18.890625 1.8125 
Q 23.09375 1.8125 24.859375 4.34375 
Q 25.921875 5.90625 25.921875 11.46875 
L 25.921875 62.0625 
L 17.96875 62.0625 
Q 13.328125 62.0625 11.375 61.375 
Q 8.84375 60.453125 7.03125 57.8125 
Q 5.21875 55.171875 4.890625 50.6875 
L 3.03125 50.6875 
L 3.8125 66.21875 
z
" id="TimesNewRomanPSMT-54"/>
      <path d="M 14.5 69.4375 
Q 16.546875 69.4375 17.984375 67.984375 
Q 19.4375 66.546875 19.4375 64.5 
Q 19.4375 62.453125 17.984375 60.984375 
Q 16.546875 59.515625 14.5 59.515625 
Q 12.453125 59.515625 10.984375 60.984375 
Q 9.515625 62.453125 9.515625 64.5 
Q 9.515625 66.546875 10.953125 67.984375 
Q 12.40625 69.4375 14.5 69.4375 
z
M 18.5625 46.046875 
L 18.5625 10.109375 
Q 18.5625 5.90625 19.171875 4.515625 
Q 19.78125 3.125 20.96875 2.4375 
Q 22.171875 1.765625 25.34375 1.765625 
L 25.34375 0 
L 3.609375 0 
L 3.609375 1.765625 
Q 6.890625 1.765625 8 2.390625 
Q 9.125 3.03125 9.78125 4.484375 
Q 10.453125 5.953125 10.453125 10.109375 
L 10.453125 27.34375 
Q 10.453125 34.625 10.015625 36.765625 
Q 9.671875 38.328125 8.9375 38.9375 
Q 8.203125 39.546875 6.9375 39.546875 
Q 5.5625 39.546875 3.609375 38.8125 
L 2.9375 40.578125 
L 16.40625 46.046875 
z
" id="TimesNewRomanPSMT-69"/>
      <path d="M 16.40625 36.53125 
Q 21.296875 41.40625 22.171875 42.140625 
Q 24.359375 44 26.890625 45.015625 
Q 29.4375 46.046875 31.9375 46.046875 
Q 36.140625 46.046875 39.15625 43.59375 
Q 42.1875 41.15625 43.21875 36.53125 
Q 48.25 42.390625 51.703125 44.21875 
Q 55.171875 46.046875 58.84375 46.046875 
Q 62.40625 46.046875 65.15625 44.21875 
Q 67.921875 42.390625 69.53125 38.234375 
Q 70.609375 35.40625 70.609375 29.34375 
L 70.609375 10.109375 
Q 70.609375 5.90625 71.234375 4.34375 
Q 71.734375 3.265625 73.046875 2.515625 
Q 74.359375 1.765625 77.34375 1.765625 
L 77.34375 0 
L 55.28125 0 
L 55.28125 1.765625 
L 56.203125 1.765625 
Q 59.078125 1.765625 60.6875 2.875 
Q 61.8125 3.65625 62.3125 5.375 
Q 62.5 6.203125 62.5 10.109375 
L 62.5 29.34375 
Q 62.5 34.8125 61.1875 37.0625 
Q 59.28125 40.1875 55.078125 40.1875 
Q 52.484375 40.1875 49.875 38.890625 
Q 47.265625 37.59375 43.5625 34.078125 
L 43.453125 33.546875 
L 43.5625 31.453125 
L 43.5625 10.109375 
Q 43.5625 5.515625 44.0625 4.390625 
Q 44.578125 3.265625 45.984375 2.515625 
Q 47.40625 1.765625 50.828125 1.765625 
L 50.828125 0 
L 28.21875 0 
L 28.21875 1.765625 
Q 31.9375 1.765625 33.328125 2.640625 
Q 34.71875 3.515625 35.25 5.28125 
Q 35.5 6.109375 35.5 10.109375 
L 35.5 29.34375 
Q 35.5 34.8125 33.890625 37.203125 
Q 31.734375 40.328125 27.875 40.328125 
Q 25.25 40.328125 22.65625 38.921875 
Q 18.609375 36.765625 16.40625 34.078125 
L 16.40625 10.109375 
Q 16.40625 5.71875 17.015625 4.390625 
Q 17.625 3.078125 18.8125 2.421875 
Q 20.015625 1.765625 23.6875 1.765625 
L 23.6875 0 
L 1.5625 0 
L 1.5625 1.765625 
Q 4.640625 1.765625 5.859375 2.421875 
Q 7.078125 3.078125 7.703125 4.515625 
Q 8.34375 5.953125 8.34375 10.109375 
L 8.34375 27.203125 
Q 8.34375 34.578125 7.90625 36.71875 
Q 7.5625 38.328125 6.828125 38.9375 
Q 6.109375 39.546875 4.828125 39.546875 
Q 3.46875 39.546875 1.5625 38.8125 
L 0.828125 40.578125 
L 14.3125 46.046875 
L 16.40625 46.046875 
z
" id="TimesNewRomanPSMT-6d"/>
      <path d="M 10.640625 27.875 
Q 10.59375 17.921875 15.484375 12.25 
Q 20.359375 6.59375 26.953125 6.59375 
Q 31.34375 6.59375 34.59375 9 
Q 37.84375 11.421875 40.046875 17.28125 
L 41.546875 16.3125 
Q 40.53125 9.625 35.59375 4.125 
Q 30.671875 -1.375 23.25 -1.375 
Q 15.1875 -1.375 9.453125 4.90625 
Q 3.71875 11.1875 3.71875 21.78125 
Q 3.71875 33.25 9.59375 39.671875 
Q 15.484375 46.09375 24.359375 46.09375 
Q 31.890625 46.09375 36.71875 41.140625 
Q 41.546875 36.1875 41.546875 27.875 
z
M 10.640625 30.71875 
L 31.34375 30.71875 
Q 31.109375 35.015625 30.328125 36.765625 
Q 29.109375 39.5 26.6875 41.0625 
Q 24.265625 42.625 21.625 42.625 
Q 17.578125 42.625 14.375 39.46875 
Q 11.1875 36.328125 10.640625 30.71875 
z
" id="TimesNewRomanPSMT-65"/>
      <path id="TimesNewRomanPSMT-20"/>
      <path d="M 31.0625 -19.578125 
L 31.0625 -21.390625 
Q 23.6875 -17.671875 18.75 -12.703125 
Q 11.71875 -5.609375 7.90625 4 
Q 4.109375 13.625 4.109375 23.96875 
Q 4.109375 39.109375 11.578125 51.578125 
Q 19.046875 64.0625 31.0625 69.4375 
L 31.0625 67.390625 
Q 25.046875 64.0625 21.1875 58.296875 
Q 17.328125 52.546875 15.421875 43.703125 
Q 13.53125 34.859375 13.53125 25.25 
Q 13.53125 14.796875 15.140625 6.25 
Q 16.40625 -0.484375 18.203125 -4.5625 
Q 20.015625 -8.640625 23.0625 -12.390625 
Q 26.125 -16.15625 31.0625 -19.578125 
z
" id="TimesNewRomanPSMT-28"/>
      <path d="M 32.03125 46.046875 
L 32.03125 30.8125 
L 30.421875 30.8125 
Q 28.5625 37.984375 25.65625 40.578125 
Q 22.75 43.171875 18.265625 43.171875 
Q 14.84375 43.171875 12.734375 41.359375 
Q 10.640625 39.546875 10.640625 37.359375 
Q 10.640625 34.625 12.203125 32.671875 
Q 13.71875 30.671875 18.359375 28.421875 
L 25.484375 24.953125 
Q 35.40625 20.125 35.40625 12.203125 
Q 35.40625 6.109375 30.78125 2.359375 
Q 26.171875 -1.375 20.453125 -1.375 
Q 16.359375 -1.375 11.078125 0.09375 
Q 9.46875 0.59375 8.453125 0.59375 
Q 7.328125 0.59375 6.6875 -0.6875 
L 5.078125 -0.6875 
L 5.078125 15.28125 
L 6.6875 15.28125 
Q 8.0625 8.453125 11.90625 4.984375 
Q 15.765625 1.515625 20.5625 1.515625 
Q 23.921875 1.515625 26.046875 3.484375 
Q 28.171875 5.46875 28.171875 8.25 
Q 28.171875 11.625 25.796875 13.921875 
Q 23.4375 16.21875 16.359375 19.734375 
Q 9.28125 23.25 7.078125 26.078125 
Q 4.890625 28.859375 4.890625 33.109375 
Q 4.890625 38.625 8.671875 42.328125 
Q 12.453125 46.046875 18.453125 46.046875 
Q 21.09375 46.046875 24.859375 44.921875 
Q 27.34375 44.1875 28.171875 44.1875 
Q 28.953125 44.1875 29.390625 44.53125 
Q 29.828125 44.875 30.421875 46.046875 
z
" id="TimesNewRomanPSMT-73"/>
      <path d="M 2.25 67.390625 
L 2.25 69.4375 
Q 9.671875 65.765625 14.59375 60.796875 
Q 21.578125 53.65625 25.390625 44.0625 
Q 29.203125 34.46875 29.203125 24.078125 
Q 29.203125 8.9375 21.75 -3.53125 
Q 14.3125 -16.015625 2.25 -21.390625 
L 2.25 -19.578125 
Q 8.25 -16.21875 12.125 -10.46875 
Q 16.015625 -4.734375 17.890625 4.125 
Q 19.78125 12.984375 19.78125 22.609375 
Q 19.78125 33.015625 18.171875 41.609375 
Q 16.9375 48.34375 15.109375 52.390625 
Q 13.28125 56.453125 10.25 60.203125 
Q 7.234375 63.96875 2.25 67.390625 
z
" id="TimesNewRomanPSMT-29"/>
     </defs>
     <g style="fill:#262626;" transform="translate(536.425 401.526563)scale(0.1 -0.1)">
      <use xlink:href="#TimesNewRomanPSMT-54"/>
      <use x="61.037109" xlink:href="#TimesNewRomanPSMT-69"/>
      <use x="88.820312" xlink:href="#TimesNewRomanPSMT-6d"/>
      <use x="166.603516" xlink:href="#TimesNewRomanPSMT-65"/>
      <use x="210.988281" xlink:href="#TimesNewRomanPSMT-20"/>
      <use x="235.988281" xlink:href="#TimesNewRomanPSMT-28"/>
      <use x="269.289062" xlink:href="#TimesNewRomanPSMT-73"/>
      <use x="308.205078" xlink:href="#TimesNewRomanPSMT-29"/>
     </g>
    </g>
   </g>
   <g id="matplotlib.axis_2">
    <g id="ytick_1">
     <g id="line2d_15">
      <path clip-path="url(#p8d12dc0a82)" d="M 135 378 
L 972 378 
" style="fill:none;stroke:#00ccff;stroke-linecap:round;stroke-width:0.8;"/>
     </g>
     <g id="line2d_16"/>
     <g id="text_9">
      <!-- −0.4 -->
      <defs>
       <path d="M 54.4375 31.25 
L 1.8125 31.25 
L 1.8125 35.25 
L 54.4375 35.25 
z
" id="TimesNewRomanPSMT-2212"/>
       <path d="M 12.5 9.46875 
Q 14.796875 9.46875 16.359375 7.875 
Q 17.921875 6.296875 17.921875 4.046875 
Q 17.921875 1.8125 16.328125 0.21875 
Q 14.75 -1.375 12.5 -1.375 
Q 10.25 -1.375 8.65625 0.21875 
Q 7.078125 1.8125 7.078125 4.046875 
Q 7.078125 6.34375 8.65625 7.90625 
Q 10.25 9.46875 12.5 9.46875 
z
" id="TimesNewRomanPSMT-2e"/>
      </defs>
      <g style="fill:#262626;" transform="translate(113.360938 381.471875)scale(0.1 -0.1)">
       <use xlink:href="#TimesNewRomanPSMT-2212"/>
       <use x="56.396484" xlink:href="#TimesNewRomanPSMT-30"/>
       <use x="106.396484" xlink:href="#TimesNewRomanPSMT-2e"/>
       <use x="131.396484" xlink:href="#TimesNewRomanPSMT-34"/>
      </g>
     </g>
    </g>
    <g id="ytick_2">
     <g id="line2d_17">
      <path clip-path="url(#p8d12dc0a82)" d="M 135 334.512 
L 972 334.512 
" style="fill:none;stroke:#00ccff;stroke-linecap:round;stroke-width:0.8;"/>
     </g>
     <g id="line2d_18"/>
     <g id="text_10">
      <!-- −0.2 -->
      <g style="fill:#262626;" transform="translate(113.360938 337.983875)scale(0.1 -0.1)">
       <use xlink:href="#TimesNewRomanPSMT-2212"/>
       <use x="56.396484" xlink:href="#TimesNewRomanPSMT-30"/>
       <use x="106.396484" xlink:href="#TimesNewRomanPSMT-2e"/>
       <use x="131.396484" xlink:href="#TimesNewRomanPSMT-32"/>
      </g>
     </g>
    </g>
    <g id="ytick_3">
     <g id="line2d_19">
      <path clip-path="url(#p8d12dc0a82)" d="M 135 291.024 
L 972 291.024 
" style="fill:none;stroke:#00ccff;stroke-linecap:round;stroke-width:0.8;"/>
     </g>
     <g id="line2d_20"/>
     <g id="text_11">
      <!-- 0.0 -->
      <g style="fill:#262626;" transform="translate(119 294.495875)scale(0.1 -0.1)">
       <use xlink:href="#TimesNewRomanPSMT-30"/>
       <use x="50" xlink:href="#TimesNewRomanPSMT-2e"/>
       <use x="75" xlink:href="#TimesNewRomanPSMT-30"/>
      </g>
     </g>
    </g>
    <g id="ytick_4">
     <g id="line2d_21">
      <path clip-path="url(#p8d12dc0a82)" d="M 135 247.536 
L 972 247.536 
" style="fill:none;stroke:#00ccff;stroke-linecap:round;stroke-width:0.8;"/>
     </g>
     <g id="line2d_22"/>
     <g id="text_12">
      <!-- 0.2 -->
      <g style="fill:#262626;" transform="translate(119 251.007875)scale(0.1 -0.1)">
       <use xlink:href="#TimesNewRomanPSMT-30"/>
       <use x="50" xlink:href="#TimesNewRomanPSMT-2e"/>
       <use x="75" xlink:href="#TimesNewRomanPSMT-32"/>
      </g>
     </g>
    </g>
    <g id="ytick_5">
     <g id="line2d_23">
      <path clip-path="url(#p8d12dc0a82)" d="M 135 204.048 
L 972 204.048 
" style="fill:none;stroke:#00ccff;stroke-linecap:round;stroke-width:0.8;"/>
     </g>
     <g id="line2d_24"/>
     <g id="text_13">
      <!-- 0.4 -->
      <g style="fill:#262626;" transform="translate(119 207.519875)scale(0.1 -0.1)">
       <use xlink:href="#TimesNewRomanPSMT-30"/>
       <use x="50" xlink:href="#TimesNewRomanPSMT-2e"/>
       <use x="75" xlink:href="#TimesNewRomanPSMT-34"/>
      </g>
     </g>
    </g>
    <g id="ytick_6">
     <g id="line2d_25">
      <path clip-path="url(#p8d12dc0a82)" d="M 135 160.56 
L 972 160.56 
" style="fill:none;stroke:#00ccff;stroke-linecap:round;stroke-width:0.8;"/>
     </g>
     <g id="line2d_26"/>
     <g id="text_14">
      <!-- 0.6 -->
      <g style="fill:#262626;" transform="translate(119 164.031875)scale(0.1 -0.1)">
       <use xlink:href="#TimesNewRomanPSMT-30"/>
       <use x="50" xlink:href="#TimesNewRomanPSMT-2e"/>
       <use x="75" xlink:href="#TimesNewRomanPSMT-36"/>
      </g>
     </g>
    </g>
    <g id="ytick_7">
     <g id="line2d_27">
      <path clip-path="url(#p8d12dc0a82)" d="M 135 117.072 
L 972 117.072 
" style="fill:none;stroke:#00ccff;stroke-linecap:round;stroke-width:0.8;"/>
     </g>
     <g id="line2d_28"/>
     <g id="text_15">
      <!-- 0.8 -->
      <defs>
       <path d="M 19.1875 33.34375 
Q 11.328125 39.796875 9.046875 43.703125 
Q 6.78125 47.609375 6.78125 51.8125 
Q 6.78125 58.25 11.765625 62.90625 
Q 16.75 67.578125 25 67.578125 
Q 33.015625 67.578125 37.890625 63.234375 
Q 42.78125 58.890625 42.78125 53.328125 
Q 42.78125 49.609375 40.140625 45.75 
Q 37.5 41.890625 29.15625 36.671875 
Q 37.75 30.03125 40.53125 26.21875 
Q 44.234375 21.234375 44.234375 15.71875 
Q 44.234375 8.734375 38.90625 3.78125 
Q 33.59375 -1.171875 24.953125 -1.171875 
Q 15.53125 -1.171875 10.25 4.734375 
Q 6.0625 9.46875 6.0625 15.09375 
Q 6.0625 19.484375 9.015625 23.796875 
Q 11.96875 28.125 19.1875 33.34375 
z
M 26.859375 38.578125 
Q 32.71875 43.84375 34.28125 46.890625 
Q 35.84375 49.953125 35.84375 53.8125 
Q 35.84375 58.9375 32.953125 61.84375 
Q 30.078125 64.75 25.09375 64.75 
Q 20.125 64.75 17 61.859375 
Q 13.875 58.984375 13.875 55.125 
Q 13.875 52.59375 15.15625 50.046875 
Q 16.453125 47.515625 18.84375 45.21875 
z
M 21.484375 31.5 
Q 17.4375 28.078125 15.484375 24.046875 
Q 13.53125 20.015625 13.53125 15.328125 
Q 13.53125 9.03125 16.96875 5.25 
Q 20.40625 1.46875 25.734375 1.46875 
Q 31 1.46875 34.171875 4.4375 
Q 37.359375 7.421875 37.359375 11.671875 
Q 37.359375 15.1875 35.5 17.96875 
Q 32.03125 23.140625 21.484375 31.5 
z
" id="TimesNewRomanPSMT-38"/>
      </defs>
      <g style="fill:#262626;" transform="translate(119 120.543875)scale(0.1 -0.1)">
       <use xlink:href="#TimesNewRomanPSMT-30"/>
       <use x="50" xlink:href="#TimesNewRomanPSMT-2e"/>
       <use x="75" xlink:href="#TimesNewRomanPSMT-38"/>
      </g>
     </g>
    </g>
    <g id="ytick_8">
     <g id="line2d_29">
      <path clip-path="url(#p8d12dc0a82)" d="M 135 73.584 
L 972 73.584 
" style="fill:none;stroke:#00ccff;stroke-linecap:round;stroke-width:0.8;"/>
     </g>
     <g id="line2d_30"/>
     <g id="text_16">
      <!-- 1.0 -->
      <g style="fill:#262626;" transform="translate(119 77.055875)scale(0.1 -0.1)">
       <use xlink:href="#TimesNewRomanPSMT-31"/>
       <use x="50" xlink:href="#TimesNewRomanPSMT-2e"/>
       <use x="75" xlink:href="#TimesNewRomanPSMT-30"/>
      </g>
     </g>
    </g>
    <g id="text_17">
     <!-- Normalized Eye Velocity -->
     <defs>
      <path d="M -1.3125 66.21875 
L 16.65625 66.21875 
L 57.125 16.546875 
L 57.125 54.734375 
Q 57.125 60.84375 55.765625 62.359375 
Q 53.953125 64.40625 50.046875 64.40625 
L 47.75 64.40625 
L 47.75 66.21875 
L 70.796875 66.21875 
L 70.796875 64.40625 
L 68.453125 64.40625 
Q 64.265625 64.40625 62.5 61.859375 
Q 61.421875 60.296875 61.421875 54.734375 
L 61.421875 -1.078125 
L 59.671875 -1.078125 
L 16.015625 52.25 
L 16.015625 11.46875 
Q 16.015625 5.375 17.328125 3.859375 
Q 19.1875 1.8125 23.046875 1.8125 
L 25.390625 1.8125 
L 25.390625 0 
L 2.34375 0 
L 2.34375 1.8125 
L 4.640625 1.8125 
Q 8.890625 1.8125 10.640625 4.34375 
Q 11.71875 5.90625 11.71875 11.46875 
L 11.71875 57.515625 
Q 8.84375 60.890625 7.34375 61.953125 
Q 5.859375 63.03125 2.984375 63.96875 
Q 1.5625 64.40625 -1.3125 64.40625 
z
" id="TimesNewRomanPSMT-4e"/>
      <path d="M 25 46.046875 
Q 35.15625 46.046875 41.3125 38.328125 
Q 46.53125 31.734375 46.53125 23.1875 
Q 46.53125 17.1875 43.640625 11.03125 
Q 40.765625 4.890625 35.71875 1.75 
Q 30.671875 -1.375 24.46875 -1.375 
Q 14.359375 -1.375 8.40625 6.6875 
Q 3.375 13.484375 3.375 21.921875 
Q 3.375 28.078125 6.421875 34.15625 
Q 9.46875 40.234375 14.453125 43.140625 
Q 19.4375 46.046875 25 46.046875 
z
M 23.484375 42.875 
Q 20.90625 42.875 18.28125 41.328125 
Q 15.671875 39.796875 14.0625 35.9375 
Q 12.453125 32.078125 12.453125 26.03125 
Q 12.453125 16.265625 16.328125 9.171875 
Q 20.21875 2.09375 26.5625 2.09375 
Q 31.296875 2.09375 34.375 6 
Q 37.453125 9.90625 37.453125 19.4375 
Q 37.453125 31.34375 32.328125 38.1875 
Q 28.859375 42.875 23.484375 42.875 
z
" id="TimesNewRomanPSMT-6f"/>
      <path d="M 16.21875 46.046875 
L 16.21875 35.984375 
Q 21.828125 46.046875 27.734375 46.046875 
Q 30.421875 46.046875 32.171875 44.40625 
Q 33.9375 42.78125 33.9375 40.625 
Q 33.9375 38.71875 32.65625 37.390625 
Q 31.390625 36.078125 29.640625 36.078125 
Q 27.9375 36.078125 25.8125 37.765625 
Q 23.6875 39.453125 22.65625 39.453125 
Q 21.78125 39.453125 20.75 38.484375 
Q 18.5625 36.46875 16.21875 31.890625 
L 16.21875 10.453125 
Q 16.21875 6.734375 17.140625 4.828125 
Q 17.78125 3.515625 19.390625 2.640625 
Q 21 1.765625 24.03125 1.765625 
L 24.03125 0 
L 1.125 0 
L 1.125 1.765625 
Q 4.546875 1.765625 6.203125 2.828125 
Q 7.421875 3.609375 7.90625 5.328125 
Q 8.15625 6.15625 8.15625 10.0625 
L 8.15625 27.390625 
Q 8.15625 35.203125 7.828125 36.6875 
Q 7.515625 38.1875 6.65625 38.859375 
Q 5.8125 39.546875 4.546875 39.546875 
Q 3.03125 39.546875 1.125 38.8125 
L 0.640625 40.578125 
L 14.15625 46.046875 
z
" id="TimesNewRomanPSMT-72"/>
      <path d="M 28.46875 6.453125 
Q 21.578125 1.125 19.828125 0.296875 
Q 17.1875 -0.921875 14.203125 -0.921875 
Q 9.578125 -0.921875 6.5625 2.25 
Q 3.5625 5.421875 3.5625 10.59375 
Q 3.5625 13.875 5.03125 16.265625 
Q 7.03125 19.578125 11.984375 22.5 
Q 16.9375 25.4375 28.46875 29.640625 
L 28.46875 31.390625 
Q 28.46875 38.09375 26.34375 40.578125 
Q 24.21875 43.0625 20.171875 43.0625 
Q 17.09375 43.0625 15.28125 41.40625 
Q 13.421875 39.75 13.421875 37.59375 
L 13.53125 34.765625 
Q 13.53125 32.515625 12.375 31.296875 
Q 11.234375 30.078125 9.375 30.078125 
Q 7.5625 30.078125 6.421875 31.34375 
Q 5.28125 32.625 5.28125 34.8125 
Q 5.28125 39.015625 9.578125 42.53125 
Q 13.875 46.046875 21.625 46.046875 
Q 27.59375 46.046875 31.390625 44.046875 
Q 34.28125 42.53125 35.640625 39.3125 
Q 36.53125 37.203125 36.53125 30.71875 
L 36.53125 15.53125 
Q 36.53125 9.125 36.765625 7.6875 
Q 37.015625 6.25 37.578125 5.765625 
Q 38.140625 5.28125 38.875 5.28125 
Q 39.65625 5.28125 40.234375 5.609375 
Q 41.265625 6.25 44.1875 9.1875 
L 44.1875 6.453125 
Q 38.71875 -0.875 33.734375 -0.875 
Q 31.34375 -0.875 29.921875 0.78125 
Q 28.515625 2.4375 28.46875 6.453125 
z
M 28.46875 9.625 
L 28.46875 26.65625 
Q 21.09375 23.734375 18.953125 22.515625 
Q 15.09375 20.359375 13.421875 18.015625 
Q 11.765625 15.671875 11.765625 12.890625 
Q 11.765625 9.375 13.859375 7.046875 
Q 15.96875 4.734375 18.703125 4.734375 
Q 22.40625 4.734375 28.46875 9.625 
z
" id="TimesNewRomanPSMT-61"/>
      <path d="M 18.5 69.4375 
L 18.5 10.109375 
Q 18.5 5.90625 19.109375 4.53125 
Q 19.734375 3.171875 21 2.46875 
Q 22.265625 1.765625 25.734375 1.765625 
L 25.734375 0 
L 3.8125 0 
L 3.8125 1.765625 
Q 6.890625 1.765625 8 2.390625 
Q 9.125 3.03125 9.765625 4.484375 
Q 10.40625 5.953125 10.40625 10.109375 
L 10.40625 50.734375 
Q 10.40625 58.296875 10.0625 60.03125 
Q 9.71875 61.765625 8.953125 62.390625 
Q 8.203125 63.03125 7.03125 63.03125 
Q 5.765625 63.03125 3.8125 62.25 
L 2.984375 63.96875 
L 16.3125 69.4375 
z
" id="TimesNewRomanPSMT-6c"/>
      <path d="M 42 13.71875 
L 41.453125 0 
L 2 0 
L 2 1.765625 
L 31.6875 41.3125 
L 17.046875 41.3125 
Q 12.3125 41.3125 10.84375 40.703125 
Q 9.375 40.09375 8.453125 38.375 
Q 7.125 35.9375 6.9375 32.328125 
L 4.984375 32.328125 
L 5.28125 44.734375 
L 42.78125 44.734375 
L 42.78125 42.921875 
L 12.796875 3.265625 
L 29.109375 3.265625 
Q 34.234375 3.265625 36.0625 4.125 
Q 37.890625 4.984375 39.015625 7.125 
Q 39.796875 8.6875 40.328125 13.71875 
z
" id="TimesNewRomanPSMT-7a"/>
      <path d="M 34.71875 5.03125 
Q 31.453125 1.609375 28.328125 0.109375 
Q 25.203125 -1.375 21.578125 -1.375 
Q 14.265625 -1.375 8.796875 4.75 
Q 3.328125 10.890625 3.328125 20.515625 
Q 3.328125 30.125 9.375 38.109375 
Q 15.4375 46.09375 24.953125 46.09375 
Q 30.859375 46.09375 34.71875 42.328125 
L 34.71875 50.59375 
Q 34.71875 58.25 34.34375 60 
Q 33.984375 61.765625 33.203125 62.390625 
Q 32.421875 63.03125 31.25 63.03125 
Q 29.984375 63.03125 27.875 62.25 
L 27.25 63.96875 
L 40.578125 69.4375 
L 42.78125 69.4375 
L 42.78125 17.71875 
Q 42.78125 9.859375 43.140625 8.125 
Q 43.5 6.390625 44.3125 5.703125 
Q 45.125 5.03125 46.1875 5.03125 
Q 47.515625 5.03125 49.703125 5.859375 
L 50.25 4.15625 
L 36.96875 -1.375 
L 34.71875 -1.375 
z
M 34.71875 8.453125 
L 34.71875 31.5 
Q 34.421875 34.8125 32.953125 37.546875 
Q 31.5 40.28125 29.078125 41.671875 
Q 26.65625 43.0625 24.359375 43.0625 
Q 20.0625 43.0625 16.703125 39.203125 
Q 12.25 34.125 12.25 24.359375 
Q 12.25 14.5 16.546875 9.25 
Q 20.84375 4 26.125 4 
Q 30.5625 4 34.71875 8.453125 
z
" id="TimesNewRomanPSMT-64"/>
      <path d="M 20.90625 62.59375 
L 20.90625 36.421875 
L 35.453125 36.421875 
Q 41.109375 36.421875 43.015625 38.140625 
Q 45.5625 40.375 45.84375 46.046875 
L 47.65625 46.046875 
L 47.65625 23 
L 45.84375 23 
Q 45.171875 27.828125 44.484375 29.203125 
Q 43.609375 30.90625 41.59375 31.875 
Q 39.59375 32.859375 35.453125 32.859375 
L 20.90625 32.859375 
L 20.90625 11.03125 
Q 20.90625 6.640625 21.296875 5.6875 
Q 21.6875 4.734375 22.65625 4.171875 
Q 23.640625 3.609375 26.375 3.609375 
L 37.59375 3.609375 
Q 43.21875 3.609375 45.75 4.390625 
Q 48.296875 5.171875 50.640625 7.46875 
Q 53.65625 10.5 56.84375 16.609375 
L 58.796875 16.609375 
L 53.078125 0 
L 2.046875 0 
L 2.046875 1.8125 
L 4.390625 1.8125 
Q 6.734375 1.8125 8.84375 2.9375 
Q 10.40625 3.71875 10.96875 5.28125 
Q 11.53125 6.84375 11.53125 11.671875 
L 11.53125 54.6875 
Q 11.53125 60.984375 10.25 62.453125 
Q 8.5 64.40625 4.390625 64.40625 
L 2.046875 64.40625 
L 2.046875 66.21875 
L 53.078125 66.21875 
L 53.8125 51.703125 
L 51.90625 51.703125 
Q 50.875 56.9375 49.625 58.890625 
Q 48.390625 60.84375 45.953125 61.859375 
Q 44 62.59375 39.0625 62.59375 
z
" id="TimesNewRomanPSMT-45"/>
      <path d="M 0.59375 44.734375 
L 21.4375 44.734375 
L 21.4375 42.921875 
L 20.40625 42.921875 
Q 18.21875 42.921875 17.109375 41.96875 
Q 16.015625 41.015625 16.015625 39.59375 
Q 16.015625 37.703125 17.625 34.328125 
L 28.515625 11.765625 
L 38.53125 36.46875 
Q 39.359375 38.484375 39.359375 40.4375 
Q 39.359375 41.3125 39.015625 41.75 
Q 38.625 42.28125 37.796875 42.59375 
Q 36.96875 42.921875 34.859375 42.921875 
L 34.859375 44.734375 
L 49.421875 44.734375 
L 49.421875 42.921875 
Q 47.609375 42.71875 46.625 42.125 
Q 45.65625 41.546875 44.484375 39.9375 
Q 44.046875 39.265625 42.828125 36.1875 
L 24.609375 -8.453125 
Q 21.96875 -14.9375 17.6875 -18.25 
Q 13.421875 -21.578125 9.46875 -21.578125 
Q 6.59375 -21.578125 4.734375 -19.921875 
Q 2.875 -18.265625 2.875 -16.109375 
Q 2.875 -14.0625 4.21875 -12.8125 
Q 5.5625 -11.578125 7.90625 -11.578125 
Q 9.515625 -11.578125 12.3125 -12.640625 
Q 14.265625 -13.375 14.75 -13.375 
Q 16.21875 -13.375 17.9375 -11.859375 
Q 19.671875 -10.359375 21.4375 -6 
L 24.609375 1.765625 
L 8.546875 35.5 
Q 7.8125 37.015625 6.203125 39.265625 
Q 4.984375 40.96875 4.203125 41.546875 
Q 3.078125 42.328125 0.59375 42.921875 
z
" id="TimesNewRomanPSMT-79"/>
      <path d="M 71 66.21875 
L 71 64.40625 
Q 67.484375 63.765625 65.671875 62.15625 
Q 63.09375 59.765625 61.078125 54.828125 
L 37.984375 -1.515625 
L 36.1875 -1.515625 
L 11.375 55.5625 
Q 9.46875 59.96875 8.6875 60.9375 
Q 7.46875 62.453125 5.6875 63.296875 
Q 3.90625 64.15625 0.875 64.40625 
L 0.875 66.21875 
L 27.9375 66.21875 
L 27.9375 64.40625 
Q 23.34375 63.96875 21.96875 62.84375 
Q 20.609375 61.71875 20.609375 59.96875 
Q 20.609375 57.515625 22.859375 52.34375 
L 39.703125 13.53125 
L 55.328125 51.859375 
Q 57.625 57.515625 57.625 59.71875 
Q 57.625 61.140625 56.203125 62.421875 
Q 54.78125 63.71875 51.421875 64.265625 
Q 51.171875 64.3125 50.59375 64.40625 
L 50.59375 66.21875 
z
" id="TimesNewRomanPSMT-56"/>
      <path d="M 41.109375 17 
Q 39.3125 8.15625 34.03125 3.390625 
Q 28.765625 -1.375 22.359375 -1.375 
Q 14.75 -1.375 9.078125 5.015625 
Q 3.421875 11.421875 3.421875 22.3125 
Q 3.421875 32.859375 9.6875 39.453125 
Q 15.96875 46.046875 24.75 46.046875 
Q 31.34375 46.046875 35.59375 42.546875 
Q 39.84375 39.0625 39.84375 35.296875 
Q 39.84375 33.453125 38.640625 32.296875 
Q 37.453125 31.15625 35.296875 31.15625 
Q 32.421875 31.15625 30.953125 33.015625 
Q 30.125 34.03125 29.859375 36.90625 
Q 29.59375 39.796875 27.875 41.3125 
Q 26.171875 42.78125 23.140625 42.78125 
Q 18.265625 42.78125 15.28125 39.15625 
Q 11.328125 34.375 11.328125 26.515625 
Q 11.328125 18.5 15.25 12.375 
Q 19.1875 6.25 25.875 6.25 
Q 30.671875 6.25 34.46875 9.515625 
Q 37.15625 11.765625 39.703125 17.671875 
z
" id="TimesNewRomanPSMT-63"/>
      <path d="M 16.109375 59.421875 
L 16.109375 44.734375 
L 26.5625 44.734375 
L 26.5625 41.3125 
L 16.109375 41.3125 
L 16.109375 12.3125 
Q 16.109375 7.953125 17.359375 6.4375 
Q 18.609375 4.9375 20.5625 4.9375 
Q 22.171875 4.9375 23.6875 5.9375 
Q 25.203125 6.9375 26.03125 8.890625 
L 27.9375 8.890625 
Q 26.21875 4.109375 23.09375 1.6875 
Q 19.96875 -0.734375 16.65625 -0.734375 
Q 14.40625 -0.734375 12.25 0.515625 
Q 10.109375 1.765625 9.078125 4.078125 
Q 8.0625 6.390625 8.0625 11.234375 
L 8.0625 41.3125 
L 0.984375 41.3125 
L 0.984375 42.921875 
Q 3.65625 44 6.46875 46.5625 
Q 9.28125 49.125 11.46875 52.640625 
Q 12.59375 54.5 14.59375 59.421875 
z
" id="TimesNewRomanPSMT-74"/>
     </defs>
     <g style="fill:#262626;" transform="translate(107.203125 266.002813)rotate(-90)scale(0.1 -0.1)">
      <use xlink:href="#TimesNewRomanPSMT-4e"/>
      <use x="72.216797" xlink:href="#TimesNewRomanPSMT-6f"/>
      <use x="122.216797" xlink:href="#TimesNewRomanPSMT-72"/>
      <use x="155.517578" xlink:href="#TimesNewRomanPSMT-6d"/>
      <use x="233.300781" xlink:href="#TimesNewRomanPSMT-61"/>
      <use x="277.685547" xlink:href="#TimesNewRomanPSMT-6c"/>
      <use x="305.46875" xlink:href="#TimesNewRomanPSMT-69"/>
      <use x="333.251953" xlink:href="#TimesNewRomanPSMT-7a"/>
      <use x="377.636719" xlink:href="#TimesNewRomanPSMT-65"/>
      <use x="422.021484" xlink:href="#TimesNewRomanPSMT-64"/>
      <use x="472.021484" xlink:href="#TimesNewRomanPSMT-20"/>
      <use x="497.021484" xlink:href="#TimesNewRomanPSMT-45"/>
      <use x="558.105469" xlink:href="#TimesNewRomanPSMT-79"/>
      <use x="608.105469" xlink:href="#TimesNewRomanPSMT-65"/>
      <use x="652.490234" xlink:href="#TimesNewRomanPSMT-20"/>
      <use x="677.474609" xlink:href="#TimesNewRomanPSMT-56"/>
      <use x="749.519531" xlink:href="#TimesNewRomanPSMT-65"/>
      <use x="793.904297" xlink:href="#TimesNewRomanPSMT-6c"/>
      <use x="821.6875" xlink:href="#TimesNewRomanPSMT-6f"/>
      <use x="871.6875" xlink:href="#TimesNewRomanPSMT-63"/>
      <use x="916.072266" xlink:href="#TimesNewRomanPSMT-69"/>
      <use x="943.855469" xlink:href="#TimesNewRomanPSMT-74"/>
      <use x="971.638672" xlink:href="#TimesNewRomanPSMT-79"/>
     </g>
    </g>
   </g>
   <g id="line2d_31">
    <path clip-path="url(#p8d12dc0a82)" d="M 134.93738 290.210407 
L 136.205566 290.068939 
L 137.473751 290.225992 
L 138.741937 290.019955 
L 140.010123 290.116468 
L 141.278308 289.998044 
L 142.546494 290.197953 
L 147.619236 290.12033 
L 148.887422 290.086529 
L 150.155608 290.203654 
L 155.22835 290.196526 
L 156.496536 290.032467 
L 157.764721 290.115917 
L 159.032907 290.03047 
L 160.301093 290.231758 
L 161.569278 290.113005 
L 162.837464 290.225548 
L 164.10565 290.137984 
L 165.373835 290.254262 
L 166.642021 290.124068 
L 167.910206 290.217672 
L 174.251135 290.080678 
L 175.51932 290.163651 
L 176.787506 290.120389 
L 178.055691 290.273198 
L 179.323877 290.196591 
L 180.592063 290.239015 
L 181.860248 290.085353 
L 184.39662 290.173992 
L 185.664805 290.111643 
L 186.932991 290.196081 
L 188.201177 290.106664 
L 189.469362 290.281899 
L 190.737548 290.167534 
L 198.346662 290.235364 
L 199.614847 290.044115 
L 200.883033 290.253436 
L 202.151218 290.055033 
L 205.955775 290.262025 
L 208.492147 290.528316 
L 209.760332 283.487739 
L 211.028518 269.131114 
L 213.564889 229.405417 
L 214.833075 213.361548 
L 218.637632 159.873625 
L 219.905817 145.998843 
L 221.174003 134.00979 
L 222.442189 117.160402 
L 223.710374 107.653006 
L 224.97856 99.960305 
L 226.246746 98.147273 
L 227.514931 93.524481 
L 228.783117 90.699475 
L 231.319488 100.351321 
L 232.587674 107.57919 
L 233.855859 99.287987 
L 235.124045 90.177917 
L 236.392231 86.935098 
L 237.660416 90.779832 
L 238.928602 95.418629 
L 240.196787 93.858314 
L 241.464973 90.964484 
L 242.733159 86.798277 
L 244.001344 86.290608 
L 245.26953 93.95023 
L 246.537716 99.24201 
L 247.805901 98.910467 
L 249.074087 95.959099 
L 250.342273 95.35236 
L 251.610458 95.37547 
L 252.878644 94.939101 
L 254.146829 89.609609 
L 255.415015 85.014706 
L 256.683201 83.681089 
L 257.951386 88.861856 
L 259.219572 92.935301 
L 260.487758 89.279778 
L 261.755943 91.506957 
L 263.024129 94.022083 
L 264.292314 94.097253 
L 266.828686 75.775748 
L 269.365057 95.617111 
L 270.633243 96.337832 
L 271.901428 84.336965 
L 273.169614 82.981146 
L 274.4378 86.228202 
L 275.705985 94.062781 
L 276.974171 94.781434 
L 278.242356 89.741729 
L 279.510542 85.299792 
L 280.778728 78.931493 
L 282.046913 89.833709 
L 283.315099 90.776999 
L 284.583285 94.883218 
L 285.85147 86.454204 
L 287.119656 82.804358 
L 288.387841 79.591556 
L 289.656027 81.943392 
L 290.924213 86.808094 
L 292.192398 95.207495 
L 293.460584 99.083446 
L 294.72877 100.334561 
L 295.996955 95.564378 
L 297.265141 87.344484 
L 298.533327 80.254661 
L 299.801512 80.091901 
L 301.069698 77.95091 
L 302.337883 73.745903 
L 303.606069 64.691111 
L 304.874255 67.902431 
L 306.14244 81.269011 
L 307.410626 100.029738 
L 308.678812 112.095209 
L 309.946997 106.270004 
L 311.215183 94.821548 
L 312.483368 96.723275 
L 315.01974 128.375813 
L 316.287925 130.231156 
L 317.556111 131.332078 
L 318.824297 131.99417 
L 321.360668 131.866573 
L 322.628854 133.486533 
L 323.897039 132.677511 
L 325.165225 130.012448 
L 326.43341 129.411145 
L 327.701596 133.479623 
L 328.969782 134.023107 
L 330.237967 133.866263 
L 331.506153 136.208299 
L 332.774339 135.120349 
L 334.042524 128.627266 
L 335.31071 126.193022 
L 336.578895 130.493614 
L 337.847081 136.229631 
L 339.115267 136.270663 
L 341.651638 135.783101 
L 344.188009 126.18457 
L 345.456195 128.216312 
L 346.724381 131.046703 
L 347.992566 133.053403 
L 349.260752 130.408546 
L 350.528937 134.497121 
L 351.797123 134.85571 
L 354.333494 126.361738 
L 355.60168 129.01297 
L 356.869866 134.394464 
L 358.138051 138.171685 
L 360.674423 133.759274 
L 361.942608 132.385499 
L 363.210794 130.523933 
L 364.478979 132.267667 
L 365.747165 133.37481 
L 367.015351 137.078192 
L 368.283536 133.75119 
L 369.551722 133.164126 
L 370.819908 133.161399 
L 372.088093 135.583505 
L 373.356279 133.165621 
L 374.624464 130.989421 
L 375.89265 130.515234 
L 377.160836 134.372198 
L 378.429021 133.329939 
L 379.697207 134.213222 
L 380.965393 132.287743 
L 382.233578 135.948168 
L 383.501764 135.402303 
L 384.76995 136.116287 
L 386.038135 131.510331 
L 387.306321 133.286313 
L 388.574506 134.422957 
L 389.842692 138.07213 
L 391.110878 136.904469 
L 392.379063 134.614548 
L 393.647249 131.307601 
L 394.915435 129.590281 
L 396.18362 132.550305 
L 397.451806 132.84741 
L 398.719991 135.880163 
L 399.988177 135.508756 
L 401.256363 137.332045 
L 402.524548 133.90896 
L 403.792734 133.42018 
L 406.329105 136.451747 
L 407.597291 131.785057 
L 408.865477 133.527165 
L 410.133662 137.890331 
L 411.401848 142.936062 
L 412.670033 154.31642 
L 413.938219 169.625557 
L 415.206405 192.760611 
L 416.47459 208.136515 
L 417.742776 221.767884 
L 419.010962 232.726799 
L 420.279147 241.836422 
L 421.547333 249.351573 
L 422.815518 255.666207 
L 424.083704 260.583636 
L 425.35189 263.963765 
L 426.620075 267.750305 
L 427.888261 270.358569 
L 429.156447 274.247342 
L 430.424632 276.099941 
L 431.692818 277.715743 
L 432.961004 278.772277 
L 435.497375 282.260542 
L 436.76556 282.73288 
L 438.033746 283.453083 
L 440.570117 285.298609 
L 441.838303 285.753819 
L 443.106489 285.9723 
L 445.64286 285.935024 
L 446.911045 286.507943 
L 448.179231 287.239927 
L 449.447417 287.163273 
L 450.715602 286.7888 
L 451.983788 287.470956 
L 453.251974 287.794129 
L 454.520159 287.345082 
L 455.788345 287.389497 
L 457.056531 287.283173 
L 458.324716 287.744958 
L 459.592902 287.444993 
L 460.861087 287.835582 
L 462.129273 287.384593 
L 463.397459 287.629349 
L 464.665644 287.60793 
L 465.93383 288.293633 
L 467.202016 287.603195 
L 468.470201 287.760317 
L 469.738387 288.053021 
L 472.274758 288.147699 
L 473.542944 287.639391 
L 476.079315 287.66102 
L 477.347501 287.36212 
L 478.615686 288.289977 
L 479.883872 287.880241 
L 481.152058 288.476399 
L 482.420243 287.696124 
L 483.688429 288.057846 
L 484.956614 288.120313 
L 486.2248 287.575896 
L 487.492986 287.734515 
L 488.761171 287.745785 
L 490.029357 288.354461 
L 491.297543 287.720816 
L 493.833914 287.899775 
L 495.1021 288.409619 
L 496.370285 287.74146 
L 497.638471 287.86256 
L 498.906656 287.388691 
L 500.174842 287.494429 
L 501.443028 288.0272 
L 502.711213 287.375859 
L 503.979399 288.08144 
L 505.247585 287.588235 
L 506.51577 287.409933 
L 507.783956 286.947031 
L 510.320327 287.15378 
L 511.588513 286.160419 
L 512.856698 285.373051 
L 514.124884 285.420211 
L 515.39307 286.503455 
L 517.929441 287.2113 
L 519.197627 287.45194 
L 520.465812 288.088791 
L 521.733998 289.00801 
L 524.270369 289.773936 
L 525.538555 290.091617 
L 526.80674 290.008771 
L 528.074926 290.1978 
L 529.343112 289.978785 
L 530.611297 290.1791 
L 531.879483 290.046505 
L 533.147668 290.163048 
L 534.415854 290.0845 
L 535.68404 290.268747 
L 536.952225 290.02348 
L 538.220411 290.089432 
L 539.488597 290.034832 
L 540.756782 290.153045 
L 544.561339 290.157544 
L 545.829525 290.227528 
L 549.634082 290.102307 
L 550.902267 290.115084 
L 552.170453 290.27449 
L 555.97501 290.116964 
L 558.511381 290.210811 
L 562.315938 290.068495 
L 563.584124 290.229803 
L 564.852309 290.097532 
L 566.120495 290.215144 
L 567.388681 290.067257 
L 568.656866 290.282439 
L 569.925052 290.182722 
L 571.193237 290.22857 
L 572.461423 290.01964 
L 573.729609 290.097676 
L 574.997794 290.021248 
L 576.26598 290.18062 
L 577.534166 290.178632 
L 578.802351 290.317108 
L 582.606908 290.037599 
L 583.875094 290.197612 
L 585.143279 290.12537 
L 586.411465 290.272362 
L 587.679651 290.178278 
L 588.947836 290.222408 
L 590.216022 290.121648 
L 591.484208 290.197804 
L 592.752393 290.090165 
L 596.55695 290.258075 
L 597.825136 290.147203 
L 600.361507 290.126755 
L 601.629693 290.291924 
L 602.897878 290.046103 
L 604.166064 290.135359 
L 605.434249 290.112215 
L 606.702435 290.217888 
L 607.970621 290.104673 
L 611.775178 290.273956 
L 613.043363 290.134082 
L 614.311549 290.262641 
L 615.579735 283.171214 
L 616.84792 267.916559 
L 620.652477 208.998745 
L 621.920663 192.718017 
L 623.188848 180.44848 
L 624.457034 166.330438 
L 626.993405 121.299271 
L 628.261591 110.622193 
L 629.529777 113.228926 
L 630.797962 112.623278 
L 632.066148 105.344032 
L 633.334333 91.984907 
L 634.602519 92.004563 
L 635.870705 95.34715 
L 637.13889 103.451254 
L 638.407076 104.07707 
L 639.675262 106.705216 
L 640.943447 100.811545 
L 642.211633 92.023147 
L 643.479818 84.026685 
L 644.748004 89.447412 
L 646.01619 101.071045 
L 647.284375 108.328821 
L 648.552561 105.074763 
L 651.088932 87.407973 
L 652.357118 81.50406 
L 653.625304 81.418637 
L 654.893489 87.75658 
L 656.161675 97.910718 
L 657.42986 98.377029 
L 658.698046 93.013973 
L 659.966232 81.173242 
L 661.234417 82.664274 
L 662.502603 90.923163 
L 663.770789 100.375808 
L 665.038974 101.692948 
L 666.30716 89.76413 
L 667.575345 82.405911 
L 668.843531 85.325556 
L 670.111717 94.928773 
L 671.379902 97.203968 
L 672.648088 86.227492 
L 673.916274 82.980183 
L 675.184459 86.59923 
L 676.452645 95.02003 
L 677.720831 94.918967 
L 678.989016 90.676719 
L 680.257202 81.45031 
L 681.525387 86.95976 
L 682.793573 89.471463 
L 684.061759 98.292604 
L 685.329944 92.453165 
L 686.59813 95.046722 
L 687.866316 86.468125 
L 689.134501 81.342348 
L 690.402687 74.531229 
L 691.670872 80.985005 
L 692.939058 89.710007 
L 694.207244 94.242448 
L 695.475429 92.217918 
L 696.743615 85.701905 
L 698.011801 79.799376 
L 699.279986 86.749378 
L 700.548172 91.992845 
L 701.816358 95.879091 
L 703.084543 82.387503 
L 704.352729 78.630265 
L 705.620914 85.420395 
L 706.8891 96.686903 
L 708.157286 87.453314 
L 709.425471 76.22759 
L 710.693657 72.905735 
L 711.961843 87.862512 
L 713.230028 93.23868 
L 714.498214 91.022138 
L 715.766399 87.472384 
L 717.034585 93.915142 
L 718.302771 106.061421 
L 719.570956 121.091227 
L 720.839142 126.756373 
L 722.107328 126.732793 
L 723.375513 123.491069 
L 725.911885 134.805564 
L 727.18007 138.224835 
L 728.448256 135.340326 
L 729.716441 136.161236 
L 730.984627 134.872504 
L 732.252813 134.490806 
L 733.520998 133.22264 
L 736.05737 136.120169 
L 737.325555 135.721484 
L 739.861926 127.742806 
L 741.130112 126.368784 
L 742.398298 132.148076 
L 743.666483 133.974077 
L 744.934669 131.933736 
L 746.202855 128.157185 
L 747.47104 128.002189 
L 748.739226 128.972695 
L 750.007412 132.879536 
L 751.275597 133.221389 
L 752.543783 137.112762 
L 753.811968 132.565904 
L 755.080154 134.431199 
L 756.34834 130.698322 
L 757.616525 129.532357 
L 758.884711 129.448183 
L 760.152897 133.963699 
L 761.421082 136.406252 
L 762.689268 132.36001 
L 763.957453 126.938049 
L 765.225639 130.150351 
L 766.493825 132.239446 
L 767.76201 135.570363 
L 770.298382 133.632397 
L 771.566567 134.114627 
L 772.834753 129.944311 
L 774.102939 130.824102 
L 775.371124 131.528161 
L 776.63931 136.395466 
L 777.907495 133.716536 
L 779.175681 129.100589 
L 780.443867 128.683191 
L 781.712052 134.881579 
L 782.980238 137.484684 
L 784.248424 135.691142 
L 785.516609 134.769672 
L 786.784795 134.971797 
L 788.052981 134.816433 
L 789.321166 129.938165 
L 790.589352 132.142323 
L 791.857537 132.822849 
L 793.125723 135.149568 
L 794.393909 134.576492 
L 795.662094 132.851797 
L 796.93028 132.36809 
L 798.198466 133.226612 
L 799.466651 134.772018 
L 800.734837 133.268378 
L 802.003022 129.18037 
L 803.271208 129.231476 
L 804.539394 135.130338 
L 805.807579 137.115776 
L 807.075765 133.298905 
L 808.343951 131.456584 
L 809.612136 131.841023 
L 810.880322 136.286285 
L 812.148508 134.47963 
L 813.416693 130.703091 
L 814.684879 130.766382 
L 815.953064 133.995216 
L 817.22125 138.819862 
L 818.489436 151.836102 
L 819.757621 169.297239 
L 821.025807 192.831246 
L 822.293993 208.007846 
L 823.562178 221.765006 
L 824.830364 232.80529 
L 826.098549 242.046487 
L 827.366735 249.847972 
L 828.634921 256.146972 
L 829.903106 260.576315 
L 831.171292 264.271252 
L 833.707663 270.929902 
L 837.51222 278.295741 
L 838.780406 280.163599 
L 840.048591 281.202892 
L 841.316777 282.407254 
L 842.584963 283.312958 
L 843.853148 283.506772 
L 845.121334 284.290103 
L 846.38952 284.763037 
L 847.657705 286.10558 
L 848.925891 285.662306 
L 850.194076 285.807331 
L 851.462262 286.127998 
L 852.730448 286.162684 
L 853.998633 287.15519 
L 855.266819 286.175784 
L 856.535005 287.452192 
L 857.80319 287.122069 
L 859.071376 287.407404 
L 861.607747 286.848021 
L 862.875933 287.872597 
L 864.144118 287.64541 
L 865.412304 287.674592 
L 867.948675 287.976729 
L 869.216861 288.526495 
L 870.485047 288.317008 
L 871.753232 287.759954 
L 873.021418 287.6219 
L 874.289603 287.050251 
L 875.557789 287.840528 
L 876.825975 287.916913 
L 878.09416 288.288437 
L 879.362346 287.676273 
L 881.898717 287.84271 
L 883.166903 287.700953 
L 884.435089 287.797902 
L 885.703274 287.319997 
L 886.97146 287.782697 
L 888.239645 287.458006 
L 889.507831 287.937687 
L 892.044202 288.343974 
L 893.312388 287.952663 
L 895.848759 288.381855 
L 898.38513 288.388079 
L 899.653316 287.283012 
L 900.921502 287.79328 
L 902.189687 287.517252 
L 903.457873 288.254454 
L 904.726059 287.934275 
L 905.994244 287.787384 
L 907.26243 287.875156 
L 909.798801 287.614728 
L 911.066987 287.328084 
L 912.335172 287.208056 
L 913.603358 287.759299 
L 914.871544 288.120983 
L 916.139729 288.086321 
L 917.407915 287.045481 
L 919.944286 286.22777 
L 921.212472 285.224138 
L 922.480658 285.431841 
L 923.748843 285.097618 
L 925.017029 287.037234 
L 928.821586 288.177629 
L 930.089771 288.148133 
L 931.357957 289.511986 
L 932.626143 289.639297 
L 933.894328 290.191791 
L 940.235256 290.245141 
L 941.503442 290.096875 
L 942.771628 290.208558 
L 944.039813 290.008982 
L 945.307999 290.207781 
L 946.576185 289.935654 
L 947.84437 290.157989 
L 949.112556 289.960969 
L 950.380741 290.2452 
L 952.917113 290.163621 
L 956.72167 290.201217 
L 963.062598 290.119533 
L 964.330783 290.049049 
L 965.598969 290.180024 
L 970.671712 290.123734 
L 971.939897 290.102385 
L 973.208083 290.274883 
L 973.208083 290.274883 
" style="fill:none;stroke:#0000ff;stroke-linecap:round;stroke-width:1.5;"/>
   </g>
   <g id="line2d_32">
    <path clip-path="url(#p8d12dc0a82)" d="M 134.93738 291.024 
L 211.028518 291.024 
L 212.296704 73.584 
L 413.938219 73.584 
L 415.206405 291.024 
L 616.84792 291.024 
L 618.116106 73.584 
L 819.757621 73.584 
L 821.025807 291.024 
L 973.208083 291.024 
L 973.208083 291.024 
" style="fill:none;stroke:#808080;stroke-linecap:round;stroke-width:1.5;"/>
   </g>
   <g id="line2d_33">
    <path clip-path="url(#p8d12dc0a82)" d="M 134.93738 290.211378 
L 136.205566 290.069754 
L 137.473751 290.226678 
L 138.741937 290.02053 
L 140.010123 290.116952 
L 141.278308 289.99845 
L 142.546494 290.198295 
L 147.619236 290.120499 
L 148.887422 290.086671 
L 150.155608 290.203774 
L 155.22835 290.196585 
L 156.496536 290.032518 
L 157.764721 290.115959 
L 159.032907 290.030505 
L 160.301093 290.231788 
L 161.569278 290.11303 
L 162.837464 290.225569 
L 164.10565 290.138001 
L 165.373835 290.254277 
L 166.642021 290.12408 
L 167.910206 290.217682 
L 174.251135 290.080682 
L 175.51932 290.163654 
L 176.787506 290.120392 
L 178.055691 290.273201 
L 179.323877 290.196594 
L 180.592063 290.239017 
L 181.860248 290.085354 
L 184.39662 290.173994 
L 185.664805 290.111644 
L 186.932991 290.196082 
L 188.201177 290.106665 
L 189.469362 290.281899 
L 190.737548 290.167535 
L 198.346662 290.235364 
L 199.614847 290.044115 
L 200.883033 290.253436 
L 202.151218 290.055034 
L 205.955775 290.262025 
L 209.760332 290.735739 
L 211.028518 289.715434 
L 212.296704 287.481887 
L 213.564889 283.938674 
L 214.833075 280.913484 
L 216.10126 273.530236 
L 217.369446 264.848769 
L 218.637632 255.263454 
L 219.905817 247.870299 
L 221.174003 241.325813 
L 222.442189 229.049861 
L 223.710374 223.384152 
L 224.97856 218.918467 
L 226.246746 219.816129 
L 227.514931 217.47032 
L 228.783117 216.557981 
L 230.051302 223.188485 
L 231.319488 229.166042 
L 232.587674 237.527556 
L 233.855859 230.188614 
L 235.124045 221.878443 
L 236.392231 219.30754 
L 237.660416 223.716684 
L 238.928602 228.829584 
L 240.196787 227.667516 
L 241.464973 225.108215 
L 242.733159 221.223011 
L 244.001344 220.951384 
L 245.26953 228.809282 
L 246.537716 234.267613 
L 247.805901 234.075974 
L 249.074087 231.242125 
L 250.342273 230.734102 
L 251.610458 230.840133 
L 252.878644 230.473418 
L 254.146829 225.202435 
L 255.415015 220.65668 
L 256.683201 219.364347 
L 257.951386 224.579793 
L 259.219572 228.682368 
L 260.487758 225.051314 
L 261.755943 227.299048 
L 263.024129 229.831439 
L 264.292314 229.921112 
L 266.828686 211.622023 
L 269.365057 231.479203 
L 270.633243 232.205989 
L 271.901428 220.210217 
L 273.169614 218.858678 
L 274.4378 222.109329 
L 275.705985 229.946927 
L 276.974171 230.668117 
L 278.242356 225.630543 
L 279.510542 221.190395 
L 280.778728 214.8236 
L 282.046913 225.727079 
L 283.315099 226.67143 
L 284.583285 230.778539 
L 285.85147 222.350275 
L 287.119656 218.701057 
L 288.387841 215.488783 
L 289.656027 217.841062 
L 290.924213 222.706137 
L 292.192398 231.105851 
L 293.460584 234.982066 
L 294.72877 236.233402 
L 295.996955 231.463404 
L 297.265141 223.243666 
L 298.533327 216.153973 
L 299.801512 215.991323 
L 301.069698 213.850425 
L 302.337883 209.645496 
L 303.606069 200.590768 
L 304.874255 203.802144 
L 306.14244 217.168769 
L 307.410626 235.929535 
L 308.678812 247.995038 
L 309.946997 242.169861 
L 311.215183 230.721428 
L 312.483368 232.623174 
L 315.01974 264.275742 
L 316.287925 266.131096 
L 317.556111 267.232028 
L 318.824297 267.894128 
L 321.360668 267.766543 
L 322.628854 269.386508 
L 323.897039 268.57749 
L 325.165225 265.912431 
L 326.43341 265.31113 
L 327.701596 269.37961 
L 328.969782 269.923097 
L 330.237967 269.766254 
L 331.506153 272.108292 
L 332.774339 271.020343 
L 334.042524 264.527261 
L 335.31071 262.093017 
L 336.578895 266.39361 
L 337.847081 272.129628 
L 339.115267 272.17066 
L 341.651638 271.6831 
L 344.188009 262.084569 
L 345.456195 264.116311 
L 346.724381 266.946702 
L 347.992566 268.953402 
L 349.260752 266.308545 
L 350.528937 270.39712 
L 351.797123 270.755709 
L 354.333494 262.261738 
L 355.60168 264.91297 
L 356.869866 270.294464 
L 358.138051 274.071685 
L 360.674423 269.659274 
L 361.942608 268.285498 
L 363.210794 266.423933 
L 364.478979 268.167667 
L 365.747165 269.27481 
L 367.015351 272.978192 
L 368.283536 269.65119 
L 369.551722 269.064126 
L 370.819908 269.061399 
L 372.088093 271.483505 
L 373.356279 269.065621 
L 374.624464 266.889421 
L 375.89265 266.415234 
L 377.160836 270.272198 
L 378.429021 269.229939 
L 379.697207 270.113222 
L 380.965393 268.187743 
L 382.233578 271.848168 
L 383.501764 271.302303 
L 384.76995 272.016287 
L 386.038135 267.410331 
L 387.306321 269.186313 
L 388.574506 270.322957 
L 389.842692 273.97213 
L 391.110878 272.804469 
L 392.379063 270.514548 
L 393.647249 267.207601 
L 394.915435 265.490281 
L 396.18362 268.450305 
L 397.451806 268.74741 
L 398.719991 271.780163 
L 399.988177 271.408756 
L 401.256363 273.232045 
L 402.524548 269.80896 
L 403.792734 269.32018 
L 406.329105 272.351747 
L 407.597291 267.685057 
L 408.865477 269.427165 
L 410.133662 273.790331 
L 411.401848 278.836062 
L 412.670033 282.96842 
L 413.938219 284.941237 
L 415.206405 289.625782 
L 416.47459 289.503258 
L 417.742776 290.115949 
L 420.279147 290.062816 
L 422.815518 289.694751 
L 424.083704 289.167613 
L 425.35189 287.974306 
L 426.620075 287.919159 
L 427.888261 287.300407 
L 429.156447 288.478486 
L 430.424632 288.054102 
L 431.692818 287.757238 
L 432.961004 287.207132 
L 434.229189 287.547661 
L 435.497375 288.212176 
L 436.76556 287.732253 
L 438.033746 287.652556 
L 440.570117 288.261758 
L 441.838303 288.242863 
L 443.106489 288.063097 
L 444.374674 287.676345 
L 445.64286 287.41029 
L 446.911045 287.747167 
L 448.179231 288.280875 
L 449.447417 288.037669 
L 450.715602 287.523293 
L 451.983788 288.08793 
L 453.251974 288.312387 
L 454.520159 287.780419 
L 455.788345 287.75518 
L 457.056531 287.590347 
L 458.324716 288.002984 
L 459.592902 287.661735 
L 460.861087 288.017645 
L 462.129273 287.537526 
L 463.397459 287.757813 
L 464.665644 287.71584 
L 465.93383 288.384277 
L 467.202016 287.679336 
L 468.470201 287.824275 
L 469.738387 288.106746 
L 472.274758 288.185607 
L 473.542944 287.671234 
L 476.079315 287.683488 
L 477.347501 287.380993 
L 478.615686 288.30583 
L 479.883872 287.893558 
L 481.152058 288.487586 
L 482.420243 287.705521 
L 483.688429 288.065739 
L 484.956614 288.126943 
L 486.2248 287.581465 
L 487.492986 287.739193 
L 488.761171 287.749714 
L 490.029357 288.357762 
L 491.297543 287.723589 
L 493.833914 287.901732 
L 495.1021 288.411262 
L 496.370285 287.742841 
L 497.638471 287.86372 
L 498.906656 287.389665 
L 500.174842 287.495247 
L 501.443028 288.027887 
L 502.711213 287.376437 
L 503.979399 288.081925 
L 505.247585 287.588643 
L 506.51577 287.410275 
L 507.783956 286.947319 
L 510.320327 287.153983 
L 511.588513 286.160589 
L 512.856698 285.373194 
L 514.124884 285.420331 
L 515.39307 286.503556 
L 517.929441 287.211371 
L 519.197627 287.452 
L 520.465812 288.088841 
L 521.733998 289.008052 
L 524.270369 289.773966 
L 525.538555 290.091642 
L 526.80674 290.008792 
L 528.074926 290.197817 
L 529.343112 289.9788 
L 530.611297 290.179113 
L 531.879483 290.046515 
L 533.147668 290.163056 
L 534.415854 290.084508 
L 535.68404 290.268753 
L 536.952225 290.023485 
L 538.220411 290.089437 
L 539.488597 290.034836 
L 540.756782 290.153048 
L 544.561339 290.157546 
L 545.829525 290.22753 
L 549.634082 290.102308 
L 550.902267 290.115084 
L 552.170453 290.27449 
L 555.97501 290.116964 
L 558.511381 290.210811 
L 562.315938 290.068495 
L 563.584124 290.229803 
L 564.852309 290.097532 
L 566.120495 290.215144 
L 567.388681 290.067257 
L 568.656866 290.282439 
L 569.925052 290.182722 
L 571.193237 290.22857 
L 572.461423 290.01964 
L 573.729609 290.097676 
L 574.997794 290.021248 
L 576.26598 290.18062 
L 577.534166 290.178632 
L 578.802351 290.317108 
L 582.606908 290.0376 
L 583.875094 290.197612 
L 585.143279 290.12537 
L 586.411465 290.272362 
L 587.679651 290.178278 
L 588.947836 290.222408 
L 590.216022 290.121648 
L 591.484208 290.197804 
L 592.752393 290.090165 
L 596.55695 290.258075 
L 597.825136 290.147203 
L 600.361507 290.126755 
L 601.629693 290.291924 
L 602.897878 290.046103 
L 604.166064 290.135359 
L 605.434249 290.112215 
L 606.702435 290.217888 
L 607.970621 290.104673 
L 611.775178 290.273956 
L 613.043363 290.134082 
L 615.579735 290.419214 
L 616.84792 288.500879 
L 618.116106 286.938607 
L 619.384291 283.106324 
L 620.652477 276.55068 
L 621.920663 271.205643 
L 623.188848 268.122086 
L 624.457034 261.720267 
L 626.993405 228.615294 
L 628.261591 222.511653 
L 629.529777 228.960071 
L 630.797962 231.581441 
L 632.066148 227.012889 
L 633.334333 215.930746 
L 634.602519 217.863068 
L 635.870705 222.812294 
L 637.13889 232.265975 
L 638.407076 234.025436 
L 639.675262 237.605843 
L 640.943447 232.512072 
L 643.479818 216.963536 
L 644.748004 222.858368 
L 646.01619 234.880248 
L 647.284375 242.472551 
L 648.552561 239.499496 
L 651.088932 222.267025 
L 652.357118 216.529663 
L 653.625304 216.584144 
L 654.893489 223.039605 
L 656.161675 233.29246 
L 657.42986 233.841692 
L 658.698046 228.54829 
L 659.966232 216.766068 
L 661.234417 218.306249 
L 662.502603 226.606421 
L 663.770789 236.093745 
L 665.038974 237.440015 
L 666.30716 225.535667 
L 667.575345 218.198001 
L 668.843531 221.134912 
L 670.111717 230.752632 
L 671.379902 233.04001 
L 672.648088 222.073767 
L 673.916274 218.835054 
L 675.184459 222.461321 
L 676.452645 230.888187 
L 677.720831 230.792219 
L 678.989016 226.554251 
L 680.257202 217.331436 
L 681.525387 222.843907 
L 682.793573 225.358146 
L 684.061759 234.181418 
L 685.329944 228.343768 
L 686.59813 230.938829 
L 687.866316 222.361495 
L 689.134501 217.236779 
L 690.402687 210.42655 
L 691.670872 216.881076 
L 692.939058 225.606706 
L 694.207244 230.139675 
L 695.475429 228.115589 
L 696.743615 221.599948 
L 698.011801 215.697732 
L 699.279986 222.647998 
L 700.548172 227.891685 
L 701.816358 231.778117 
L 703.084543 218.286684 
L 704.352729 214.529577 
L 705.620914 221.319817 
L 706.8891 232.586418 
L 708.157286 223.352907 
L 709.425471 212.127247 
L 710.693657 208.805448 
L 711.961843 223.76227 
L 713.230028 229.138478 
L 714.498214 226.921968 
L 715.766399 223.37224 
L 717.034585 229.815021 
L 718.302771 241.96132 
L 719.570956 256.991142 
L 720.839142 262.656302 
L 722.107328 262.632733 
L 723.375513 259.391019 
L 725.911885 270.705529 
L 727.18007 274.124805 
L 728.448256 271.240301 
L 729.716441 272.061215 
L 730.984627 270.772486 
L 732.252813 270.390791 
L 733.520998 269.122628 
L 736.05737 272.02016 
L 737.325555 271.621477 
L 739.861926 263.642801 
L 741.130112 262.26878 
L 742.398298 268.048072 
L 743.666483 269.874073 
L 744.934669 267.833733 
L 746.202855 264.057183 
L 747.47104 263.902187 
L 748.739226 264.872693 
L 750.007412 268.779535 
L 751.275597 269.121388 
L 752.543783 273.012761 
L 753.811968 268.465903 
L 755.080154 270.331198 
L 756.34834 266.598322 
L 757.616525 265.432357 
L 758.884711 265.348182 
L 760.152897 269.863699 
L 761.421082 272.306252 
L 762.689268 268.26001 
L 763.957453 262.838049 
L 765.225639 266.050351 
L 766.493825 268.139446 
L 767.76201 271.470363 
L 770.298382 269.532397 
L 771.566567 270.014627 
L 772.834753 265.844311 
L 774.102939 266.724102 
L 775.371124 267.428161 
L 776.63931 272.295466 
L 777.907495 269.616536 
L 779.175681 265.000589 
L 780.443867 264.583191 
L 781.712052 270.781579 
L 782.980238 273.384684 
L 784.248424 271.591142 
L 785.516609 270.669672 
L 786.784795 270.871797 
L 788.052981 270.716433 
L 789.321166 265.838164 
L 790.589352 268.042323 
L 791.857537 268.722849 
L 793.125723 271.049568 
L 794.393909 270.476492 
L 795.662094 268.751797 
L 796.93028 268.26809 
L 798.198466 269.126612 
L 799.466651 270.672018 
L 800.734837 269.168378 
L 802.003022 265.08037 
L 803.271208 265.131476 
L 804.539394 271.030338 
L 805.807579 273.015776 
L 807.075765 269.198905 
L 808.343951 267.356584 
L 809.612136 267.741023 
L 810.880322 272.186285 
L 812.148508 270.37963 
L 813.416693 266.603091 
L 814.684879 266.666382 
L 815.953064 269.895216 
L 817.22125 274.719862 
L 818.489436 280.488102 
L 819.757621 284.612919 
L 821.025807 289.696418 
L 822.293993 289.37459 
L 823.562178 290.113071 
L 827.366735 290.358144 
L 828.634921 290.175516 
L 831.171292 288.281792 
L 832.439478 287.75935 
L 833.707663 287.871739 
L 834.975849 287.584678 
L 836.244035 287.851778 
L 837.51222 288.337236 
L 838.780406 288.598455 
L 840.048591 288.288171 
L 841.316777 288.358888 
L 842.584963 288.312331 
L 843.853148 287.706245 
L 845.121334 287.81766 
L 846.38952 287.726185 
L 847.657705 288.594624 
L 848.925891 287.753103 
L 850.194076 287.563601 
L 851.462262 287.603265 
L 852.730448 287.401908 
L 853.998633 288.196138 
L 855.266819 287.05018 
L 856.535005 288.186685 
L 857.80319 287.739043 
L 859.071376 287.925662 
L 861.607747 287.213704 
L 862.875933 288.17977 
L 864.144118 287.903436 
L 865.412304 287.891333 
L 867.948675 288.129662 
L 869.216861 288.654959 
L 870.485047 288.424917 
L 871.753232 287.850598 
L 873.021418 287.698041 
L 874.289603 287.11421 
L 875.557789 287.894253 
L 876.825975 287.962042 
L 878.09416 288.326345 
L 879.362346 287.708116 
L 881.898717 287.865178 
L 883.166903 287.719826 
L 884.435089 287.813756 
L 885.703274 287.333314 
L 886.97146 287.793883 
L 888.239645 287.467402 
L 889.507831 287.94558 
L 892.044202 288.349543 
L 893.312388 287.957342 
L 895.848759 288.385156 
L 898.38513 288.390408 
L 899.653316 287.284968 
L 900.921502 287.794923 
L 902.189687 287.518633 
L 903.457873 288.255613 
L 904.726059 287.935249 
L 905.994244 287.788202 
L 907.26243 287.875844 
L 909.798801 287.615213 
L 911.066987 287.328491 
L 912.335172 287.208399 
L 913.603358 287.759586 
L 914.871544 288.121224 
L 916.139729 288.086524 
L 917.407915 287.045651 
L 919.944286 286.22789 
L 921.212472 285.224239 
L 922.480658 285.431925 
L 923.748843 285.097689 
L 925.017029 287.037294 
L 928.821586 288.177664 
L 930.089771 288.148163 
L 931.357957 289.512011 
L 932.626143 289.639318 
L 933.894328 290.191808 
L 940.235256 290.245148 
L 941.503442 290.096881 
L 942.771628 290.208563 
L 944.039813 290.008986 
L 945.307999 290.207785 
L 946.576185 289.935657 
L 947.84437 290.157992 
L 949.112556 289.960972 
L 950.380741 290.245202 
L 952.917113 290.163623 
L 956.72167 290.201218 
L 963.062598 290.119533 
L 964.330783 290.049049 
L 965.598969 290.180024 
L 970.671712 290.123734 
L 971.939897 290.102385 
L 973.208083 290.274883 
L 973.208083 290.274883 
" style="fill:none;stroke:#ff0000;stroke-linecap:round;stroke-width:1.5;"/>
   </g>
   <g id="line2d_34">
    <path clip-path="url(#p8d12dc0a82)" d="M 134.93738 291.949575 
L 136.205566 291.837593 
L 137.473751 291.979061 
L 138.741937 291.822008 
L 140.010123 292.028045 
L 141.278308 291.931532 
L 142.546494 292.049956 
L 143.814679 291.850047 
L 148.887422 291.92767 
L 150.155608 291.961471 
L 151.423793 291.844346 
L 156.496536 291.851474 
L 157.764721 292.015533 
L 159.032907 291.932083 
L 160.301093 292.01753 
L 161.569278 291.816242 
L 162.837464 291.934995 
L 164.10565 291.822452 
L 165.373835 291.910016 
L 166.642021 291.793738 
L 167.910206 291.923932 
L 169.178392 291.830328 
L 175.51932 291.967322 
L 176.787506 291.884349 
L 178.055691 291.927611 
L 179.323877 291.774802 
L 180.592063 291.851409 
L 181.860248 291.808985 
L 183.128434 291.962647 
L 185.664805 291.874008 
L 186.932991 291.936357 
L 188.201177 291.851919 
L 189.469362 291.941336 
L 190.737548 291.766101 
L 192.005733 291.880466 
L 199.614847 291.812636 
L 200.883033 292.003885 
L 202.151218 291.794564 
L 203.419404 291.992967 
L 207.223961 291.785975 
L 208.492147 291.606858 
L 209.760332 219.039684 
L 211.028518 153.600261 
L 212.296704 95.476886 
L 214.833075 135.202583 
L 216.10126 151.246452 
L 219.905817 204.734375 
L 221.174003 218.609157 
L 222.442189 230.59821 
L 223.710374 247.447598 
L 224.97856 256.954994 
L 226.246746 264.647695 
L 227.514931 266.460727 
L 228.783117 271.083519 
L 230.051302 273.908525 
L 232.587674 264.256679 
L 233.855859 257.02881 
L 235.124045 265.320013 
L 236.392231 274.430083 
L 237.660416 277.672902 
L 238.928602 273.828168 
L 240.196787 269.189371 
L 241.464973 270.749686 
L 242.733159 273.643516 
L 244.001344 277.809723 
L 245.26953 278.317392 
L 246.537716 270.65777 
L 247.805901 265.36599 
L 249.074087 265.697533 
L 250.342273 268.648901 
L 251.610458 269.25564 
L 252.878644 269.23253 
L 254.146829 269.668899 
L 255.415015 274.998391 
L 256.683201 279.593294 
L 257.951386 280.926911 
L 259.219572 275.746144 
L 260.487758 271.672699 
L 261.755943 275.328222 
L 263.024129 273.101043 
L 264.292314 270.585917 
L 265.5605 270.510747 
L 268.096871 288.832252 
L 270.633243 268.990889 
L 271.901428 268.270168 
L 273.169614 280.271035 
L 274.4378 281.626854 
L 275.705985 278.379798 
L 276.974171 270.545219 
L 278.242356 269.826566 
L 279.510542 274.866271 
L 280.778728 279.308208 
L 282.046913 285.676507 
L 283.315099 274.774291 
L 284.583285 273.831001 
L 285.85147 269.724782 
L 287.119656 278.153796 
L 288.387841 281.803642 
L 289.656027 285.016444 
L 290.924213 282.664608 
L 292.192398 277.799906 
L 293.460584 269.400505 
L 294.72877 265.524554 
L 295.996955 264.273439 
L 297.265141 269.043622 
L 298.533327 277.263516 
L 299.801512 284.353339 
L 301.069698 284.516099 
L 302.337883 286.65709 
L 303.606069 290.862097 
L 304.874255 299.916889 
L 306.14244 296.705569 
L 307.410626 283.338989 
L 308.678812 264.578262 
L 309.946997 252.512791 
L 311.215183 258.337996 
L 312.483368 269.786452 
L 313.751554 267.884725 
L 316.287925 236.232187 
L 317.556111 234.376844 
L 318.824297 233.275922 
L 320.092482 232.61383 
L 322.628854 232.741427 
L 323.897039 231.121467 
L 325.165225 231.930489 
L 326.43341 234.595552 
L 327.701596 235.196855 
L 328.969782 231.128377 
L 330.237967 230.584893 
L 331.506153 230.741737 
L 332.774339 228.399701 
L 334.042524 229.487651 
L 335.31071 235.980734 
L 336.578895 238.414978 
L 337.847081 234.114386 
L 339.115267 228.378369 
L 340.383452 228.337337 
L 342.919824 228.824899 
L 345.456195 238.42343 
L 346.724381 236.391688 
L 347.992566 233.561297 
L 349.260752 231.554597 
L 350.528937 234.199454 
L 351.797123 230.110879 
L 353.065309 229.75229 
L 355.60168 238.246262 
L 356.869866 235.59503 
L 358.138051 230.213536 
L 359.406237 226.436315 
L 361.942608 230.848726 
L 363.210794 232.222501 
L 364.478979 234.084067 
L 365.747165 232.340333 
L 367.015351 231.23319 
L 368.283536 227.529808 
L 369.551722 230.85681 
L 370.819908 231.443874 
L 372.088093 231.446601 
L 373.356279 229.024495 
L 374.624464 231.442379 
L 375.89265 233.618579 
L 377.160836 234.092766 
L 378.429021 230.235802 
L 379.697207 231.278061 
L 380.965393 230.394778 
L 382.233578 232.320257 
L 383.501764 228.659832 
L 384.76995 229.205697 
L 386.038135 228.491713 
L 387.306321 233.097669 
L 388.574506 231.321687 
L 389.842692 230.185043 
L 391.110878 226.53587 
L 392.379063 227.703531 
L 393.647249 229.993452 
L 394.915435 233.300399 
L 396.18362 235.017719 
L 397.451806 232.057695 
L 398.719991 231.76059 
L 399.988177 228.727837 
L 401.256363 229.099244 
L 402.524548 227.275955 
L 403.792734 230.69904 
L 405.06092 231.18782 
L 407.597291 228.156253 
L 408.865477 232.822943 
L 410.133662 231.080835 
L 411.401848 226.717669 
L 412.670033 294.151938 
L 415.206405 412.422443 
L 416.47459 389.287389 
L 417.742776 373.911485 
L 419.010962 360.280116 
L 420.279147 349.321201 
L 421.547333 340.211578 
L 422.815518 332.696427 
L 424.083704 326.381793 
L 425.35189 321.464364 
L 426.620075 318.084235 
L 427.888261 314.297695 
L 429.156447 311.689431 
L 430.424632 307.800658 
L 431.692818 305.948059 
L 432.961004 304.332257 
L 434.229189 303.275723 
L 436.76556 299.787458 
L 438.033746 299.31512 
L 439.301932 298.594917 
L 441.838303 296.749391 
L 443.106489 296.294181 
L 444.374674 296.0757 
L 446.911045 296.112976 
L 448.179231 295.540057 
L 449.447417 294.808073 
L 450.715602 294.884727 
L 451.983788 295.2592 
L 453.251974 294.577044 
L 454.520159 294.253871 
L 455.788345 294.702918 
L 457.056531 294.658503 
L 458.324716 294.764827 
L 459.592902 294.303042 
L 460.861087 294.603007 
L 462.129273 294.212418 
L 463.397459 294.663407 
L 464.665644 294.418651 
L 465.93383 294.44007 
L 467.202016 293.754367 
L 468.470201 294.444805 
L 469.738387 294.287683 
L 471.006572 293.994979 
L 473.542944 293.900301 
L 474.811129 294.408609 
L 477.347501 294.38698 
L 478.615686 294.68588 
L 479.883872 293.758023 
L 481.152058 294.167759 
L 482.420243 293.571601 
L 483.688429 294.351876 
L 484.956614 293.990154 
L 486.2248 293.927687 
L 487.492986 294.472104 
L 488.761171 294.313485 
L 490.029357 294.302215 
L 491.297543 293.693539 
L 492.565728 294.327184 
L 495.1021 294.148225 
L 496.370285 293.638381 
L 497.638471 294.30654 
L 498.906656 294.18544 
L 500.174842 294.659309 
L 501.443028 294.553571 
L 502.711213 294.0208 
L 503.979399 294.672141 
L 505.247585 293.96656 
L 506.51577 294.459765 
L 507.783956 294.638067 
L 509.052141 295.100969 
L 511.588513 294.89422 
L 512.856698 295.887581 
L 514.124884 296.674949 
L 515.39307 296.627789 
L 516.661255 295.544545 
L 519.197627 294.8367 
L 520.465812 294.59606 
L 521.733998 293.959209 
L 523.002183 293.03999 
L 525.538555 292.274064 
L 526.80674 291.956383 
L 528.074926 292.039229 
L 529.343112 291.8502 
L 530.611297 292.069215 
L 531.879483 291.8689 
L 533.147668 292.001495 
L 534.415854 291.884952 
L 535.68404 291.9635 
L 536.952225 291.779253 
L 538.220411 292.02452 
L 539.488597 291.958568 
L 540.756782 292.013168 
L 542.024968 291.894955 
L 545.829525 291.890456 
L 547.09771 291.820472 
L 550.902267 291.945693 
L 552.170453 291.932916 
L 553.438639 291.77351 
L 557.243195 291.931036 
L 559.779567 291.837189 
L 563.584124 291.979505 
L 564.852309 291.818197 
L 566.120495 291.950468 
L 567.388681 291.832856 
L 568.656866 291.980743 
L 569.925052 291.765561 
L 571.193237 291.865278 
L 572.461423 291.81943 
L 573.729609 292.02836 
L 574.997794 291.950324 
L 576.26598 292.026752 
L 577.534166 291.86738 
L 578.802351 291.869368 
L 580.070537 291.730892 
L 583.875094 292.010401 
L 585.143279 291.850388 
L 586.411465 291.92263 
L 587.679651 291.775638 
L 588.947836 291.869722 
L 590.216022 291.825592 
L 591.484208 291.926352 
L 592.752393 291.850196 
L 594.020579 291.957835 
L 597.825136 291.789925 
L 599.093321 291.900797 
L 601.629693 291.921245 
L 602.897878 291.756076 
L 604.166064 292.001897 
L 605.434249 291.912641 
L 606.702435 291.935785 
L 607.970621 291.830112 
L 609.238806 291.943327 
L 613.043363 291.774044 
L 614.311549 291.913918 
L 615.579735 219.305359 
L 616.84792 153.916786 
L 618.116106 96.691441 
L 621.920663 155.609255 
L 623.188848 171.889983 
L 624.457034 184.15952 
L 625.72522 198.277562 
L 628.261591 243.308729 
L 629.529777 253.985807 
L 630.797962 251.379074 
L 632.066148 251.984722 
L 633.334333 259.263968 
L 634.602519 272.623093 
L 635.870705 272.603437 
L 637.13889 269.26085 
L 638.407076 261.156746 
L 639.675262 260.53093 
L 640.943447 257.902784 
L 642.211633 263.796455 
L 643.479818 272.584853 
L 644.748004 280.581315 
L 646.01619 275.160588 
L 647.284375 263.536955 
L 648.552561 256.279179 
L 649.820747 259.533237 
L 652.357118 277.200027 
L 653.625304 283.10394 
L 654.893489 283.189363 
L 656.161675 276.85142 
L 657.42986 266.697282 
L 658.698046 266.230971 
L 659.966232 271.594027 
L 661.234417 283.434758 
L 662.502603 281.943726 
L 663.770789 273.684837 
L 665.038974 264.232192 
L 666.30716 262.915052 
L 667.575345 274.84387 
L 668.843531 282.202089 
L 670.111717 279.282444 
L 671.379902 269.679227 
L 672.648088 267.404032 
L 673.916274 278.380508 
L 675.184459 281.627817 
L 676.452645 278.00877 
L 677.720831 269.58797 
L 678.989016 269.689033 
L 680.257202 273.931281 
L 681.525387 283.15769 
L 682.793573 277.64824 
L 684.061759 275.136537 
L 685.329944 266.315396 
L 686.59813 272.154835 
L 687.866316 269.561278 
L 689.134501 278.139875 
L 690.402687 283.265652 
L 691.670872 290.076771 
L 692.939058 283.622995 
L 694.207244 274.897993 
L 695.475429 270.365552 
L 696.743615 272.390082 
L 698.011801 278.906095 
L 699.279986 284.808624 
L 700.548172 277.858622 
L 701.816358 272.615155 
L 703.084543 268.728909 
L 704.352729 282.220497 
L 705.620914 285.977735 
L 706.8891 279.187605 
L 708.157286 267.921097 
L 709.425471 277.154686 
L 710.693657 288.38041 
L 711.961843 291.702265 
L 713.230028 276.745488 
L 714.498214 271.36932 
L 715.766399 273.585862 
L 717.034585 277.135616 
L 718.302771 270.692858 
L 719.570956 258.546579 
L 720.839142 243.516773 
L 722.107328 237.851627 
L 723.375513 237.875207 
L 724.643699 241.116931 
L 727.18007 229.802436 
L 728.448256 226.383165 
L 729.716441 229.267674 
L 730.984627 228.446764 
L 732.252813 229.735496 
L 733.520998 230.117194 
L 734.789184 231.38536 
L 737.325555 228.487831 
L 738.593741 228.886516 
L 741.130112 236.865194 
L 742.398298 238.239216 
L 743.666483 232.459924 
L 744.934669 230.633923 
L 746.202855 232.674264 
L 747.47104 236.450815 
L 748.739226 236.605811 
L 750.007412 235.635305 
L 751.275597 231.728464 
L 752.543783 231.386611 
L 753.811968 227.495238 
L 755.080154 232.042096 
L 756.34834 230.176801 
L 757.616525 233.909678 
L 758.884711 235.075643 
L 760.152897 235.159817 
L 761.421082 230.644301 
L 762.689268 228.201748 
L 763.957453 232.24799 
L 765.225639 237.669951 
L 766.493825 234.457649 
L 767.76201 232.368554 
L 769.030196 229.037637 
L 771.566567 230.975603 
L 772.834753 230.493373 
L 774.102939 234.663689 
L 775.371124 233.783898 
L 776.63931 233.079839 
L 777.907495 228.212534 
L 779.175681 230.891464 
L 780.443867 235.507411 
L 781.712052 235.924809 
L 782.980238 229.726421 
L 784.248424 227.123316 
L 785.516609 228.916858 
L 786.784795 229.838328 
L 788.052981 229.636203 
L 789.321166 229.791567 
L 790.589352 234.669835 
L 791.857537 232.465677 
L 793.125723 231.785151 
L 794.393909 229.458432 
L 795.662094 230.031508 
L 796.93028 231.756203 
L 798.198466 232.23991 
L 799.466651 231.381388 
L 800.734837 229.835982 
L 802.003022 231.339622 
L 803.271208 235.42763 
L 804.539394 235.376524 
L 805.807579 229.477662 
L 807.075765 227.492224 
L 808.343951 231.309095 
L 809.612136 233.151416 
L 810.880322 232.766977 
L 812.148508 228.321715 
L 813.416693 230.12837 
L 814.684879 233.904909 
L 815.953064 233.841618 
L 817.22125 230.612784 
L 818.489436 298.268138 
L 821.025807 412.750761 
L 822.293993 389.216754 
L 823.562178 374.040154 
L 824.830364 360.282994 
L 826.098549 349.24271 
L 827.366735 340.001513 
L 828.634921 332.200028 
L 829.903106 325.901028 
L 831.171292 321.471685 
L 832.439478 317.776748 
L 834.975849 311.118098 
L 838.780406 303.752259 
L 840.048591 301.884401 
L 841.316777 300.845108 
L 842.584963 299.640746 
L 843.853148 298.735042 
L 845.121334 298.541228 
L 846.38952 297.757897 
L 847.657705 297.284963 
L 848.925891 295.94242 
L 850.194076 296.385694 
L 851.462262 296.240669 
L 852.730448 295.920002 
L 853.998633 295.885316 
L 855.266819 294.89281 
L 856.535005 295.872216 
L 857.80319 294.595808 
L 859.071376 294.925931 
L 860.339562 294.640596 
L 862.875933 295.199979 
L 864.144118 294.175403 
L 865.412304 294.40259 
L 866.68049 294.373408 
L 869.216861 294.071271 
L 870.485047 293.521505 
L 871.753232 293.730992 
L 873.021418 294.288046 
L 874.289603 294.4261 
L 875.557789 294.997749 
L 876.825975 294.207472 
L 878.09416 294.131087 
L 879.362346 293.759563 
L 880.630532 294.371727 
L 883.166903 294.20529 
L 884.435089 294.347047 
L 885.703274 294.250098 
L 886.97146 294.728003 
L 888.239645 294.265303 
L 889.507831 294.589994 
L 890.776017 294.110313 
L 893.312388 293.704026 
L 894.580574 294.095337 
L 897.116945 293.666145 
L 899.653316 293.659921 
L 900.921502 294.764988 
L 902.189687 294.25472 
L 903.457873 294.530748 
L 904.726059 293.793546 
L 905.994244 294.113725 
L 907.26243 294.260616 
L 908.530616 294.172844 
L 911.066987 294.433272 
L 912.335172 294.719916 
L 913.603358 294.839944 
L 914.871544 294.288701 
L 916.139729 293.927017 
L 917.407915 293.961679 
L 918.676101 295.002519 
L 921.212472 295.82023 
L 922.480658 296.823862 
L 923.748843 296.616159 
L 925.017029 296.950382 
L 926.285214 295.010766 
L 930.089771 293.870371 
L 931.357957 293.899867 
L 932.626143 292.536014 
L 933.894328 292.408703 
L 935.162514 291.856209 
L 941.503442 291.802859 
L 942.771628 291.951125 
L 944.039813 291.839442 
L 945.307999 292.039018 
L 946.576185 291.840219 
L 947.84437 292.112346 
L 949.112556 291.890011 
L 950.380741 292.087031 
L 951.648927 291.8028 
L 954.185298 291.884379 
L 957.989855 291.846783 
L 964.330783 291.928467 
L 965.598969 291.998951 
L 966.867155 291.867976 
L 971.939897 291.924266 
L 973.208083 291.945615 
L 973.208083 291.945615 
" style="fill:none;stroke:#8dd35f;stroke-linecap:round;stroke-width:1.5;"/>
   </g>
   <g id="patch_3">
    <path d="M 135 378 
L 135 51.84 
" style="fill:none;stroke:#262626;stroke-linecap:square;stroke-linejoin:miter;stroke-width:1.25;"/>
   </g>
   <g id="patch_4">
    <path d="M 972 378 
L 972 51.84 
" style="fill:none;stroke:#262626;stroke-linecap:square;stroke-linejoin:miter;stroke-width:1.25;"/>
   </g>
   <g id="patch_5">
    <path d="M 135 378 
L 972 378 
" style="fill:none;stroke:#262626;stroke-linecap:square;stroke-linejoin:miter;stroke-width:1.25;"/>
   </g>
   <g id="patch_6">
    <path d="M 135 51.84 
L 972 51.84 
" style="fill:none;stroke:#262626;stroke-linecap:square;stroke-linejoin:miter;stroke-width:1.25;"/>
   </g>
  </g>
 </g>
 <defs>
  <clipPath id="p8d12dc0a82">
   <rect height="326.16" width="837" x="135" y="51.84"/>
  </clipPath>
 </defs>
</svg>
