<?xml version="1.0" encoding="utf-8" standalone="no"?>
<!DOCTYPE svg PUBLIC "-//W3C//DTD SVG 1.1//EN"
  "http://www.w3.org/Graphics/SVG/1.1/DTD/svg11.dtd">
<!-- Created with matplotlib (http://matplotlib.org/) -->
<svg height="288pt" version="1.1" viewBox="0 0 360 288" width="360pt" xmlns="http://www.w3.org/2000/svg" xmlns:xlink="http://www.w3.org/1999/xlink">
 <defs>
  <style type="text/css">
*{stroke-linecap:butt;stroke-linejoin:round;}
  </style>
 </defs>
 <g id="figure_1">
  <g id="patch_1">
   <path d="M 0 288 
L 360 288 
L 360 0 
L 0 0 
z
" style="fill:#ffffff;"/>
  </g>
  <g id="axes_1">
   <g id="patch_2">
    <path d="M 45 252 
L 324 252 
L 324 34.56 
L 45 34.56 
z
" style="fill:#ffffff;"/>
   </g>
   <g id="matplotlib.axis_1">
    <g id="xtick_1">
     <g id="line2d_1">
      <path clip-path="url(#p20264440f1)" d="M 57.681818 252 
L 57.681818 34.56 
" style="fill:none;stroke:#cccccc;stroke-linecap:round;stroke-width:0.8;"/>
     </g>
     <g id="line2d_2"/>
     <g id="text_1">
      <!-- 0 -->
      <defs>
       <path d="M 3.609375 32.71875 
Q 3.609375 44.046875 7.03125 52.21875 
Q 10.453125 60.40625 16.109375 64.40625 
Q 20.515625 67.578125 25.203125 67.578125 
Q 32.8125 67.578125 38.875 59.8125 
Q 46.4375 50.203125 46.4375 33.734375 
Q 46.4375 22.21875 43.109375 14.15625 
Q 39.796875 6.109375 34.640625 2.46875 
Q 29.5 -1.171875 24.703125 -1.171875 
Q 15.234375 -1.171875 8.9375 10.015625 
Q 3.609375 19.4375 3.609375 32.71875 
z
M 13.1875 31.5 
Q 13.1875 17.828125 16.546875 9.1875 
Q 19.34375 1.90625 24.859375 1.90625 
Q 27.484375 1.90625 30.3125 4.265625 
Q 33.15625 6.640625 34.625 12.203125 
Q 36.859375 20.609375 36.859375 35.890625 
Q 36.859375 47.21875 34.515625 54.78125 
Q 32.765625 60.40625 29.984375 62.75 
Q 27.984375 64.359375 25.140625 64.359375 
Q 21.828125 64.359375 19.234375 61.375 
Q 15.71875 57.328125 14.453125 48.625 
Q 13.1875 39.9375 13.1875 31.5 
z
" id="TimesNewRomanPSMT-30"/>
      </defs>
      <g style="fill:#262626;" transform="translate(55.181818 262.44375)scale(0.1 -0.1)">
       <use xlink:href="#TimesNewRomanPSMT-30"/>
      </g>
     </g>
    </g>
    <g id="xtick_2">
     <g id="line2d_3">
      <path clip-path="url(#p20264440f1)" d="M 101.900152 252 
L 101.900152 34.56 
" style="fill:none;stroke:#cccccc;stroke-linecap:round;stroke-width:0.8;"/>
     </g>
     <g id="line2d_4"/>
     <g id="text_2">
      <!-- 500 -->
      <defs>
       <path d="M 43.40625 66.21875 
L 39.59375 57.90625 
L 19.671875 57.90625 
L 15.328125 49.03125 
Q 28.265625 47.125 35.84375 39.40625 
Q 42.328125 32.765625 42.328125 23.78125 
Q 42.328125 18.5625 40.203125 14.109375 
Q 38.09375 9.671875 34.859375 6.546875 
Q 31.640625 3.421875 27.6875 1.515625 
Q 22.078125 -1.171875 16.15625 -1.171875 
Q 10.203125 -1.171875 7.484375 0.84375 
Q 4.78125 2.875 4.78125 5.328125 
Q 4.78125 6.6875 5.90625 7.734375 
Q 7.03125 8.796875 8.734375 8.796875 
Q 10.015625 8.796875 10.96875 8.40625 
Q 11.921875 8.015625 14.203125 6.390625 
Q 17.875 3.859375 21.625 3.859375 
Q 27.34375 3.859375 31.65625 8.171875 
Q 35.984375 12.5 35.984375 18.703125 
Q 35.984375 24.703125 32.125 29.90625 
Q 28.265625 35.109375 21.484375 37.9375 
Q 16.15625 40.140625 6.984375 40.484375 
L 19.671875 66.21875 
z
" id="TimesNewRomanPSMT-35"/>
      </defs>
      <g style="fill:#262626;" transform="translate(94.400152 262.44375)scale(0.1 -0.1)">
       <use xlink:href="#TimesNewRomanPSMT-35"/>
       <use x="50" xlink:href="#TimesNewRomanPSMT-30"/>
       <use x="100" xlink:href="#TimesNewRomanPSMT-30"/>
      </g>
     </g>
    </g>
    <g id="xtick_3">
     <g id="line2d_5">
      <path clip-path="url(#p20264440f1)" d="M 146.118486 252 
L 146.118486 34.56 
" style="fill:none;stroke:#cccccc;stroke-linecap:round;stroke-width:0.8;"/>
     </g>
     <g id="line2d_6"/>
     <g id="text_3">
      <!-- 1000 -->
      <defs>
       <path d="M 11.71875 59.71875 
L 27.828125 67.578125 
L 29.4375 67.578125 
L 29.4375 11.671875 
Q 29.4375 6.109375 29.90625 4.734375 
Q 30.375 3.375 31.828125 2.640625 
Q 33.296875 1.90625 37.796875 1.8125 
L 37.796875 0 
L 12.890625 0 
L 12.890625 1.8125 
Q 17.578125 1.90625 18.9375 2.609375 
Q 20.3125 3.328125 20.84375 4.515625 
Q 21.390625 5.71875 21.390625 11.671875 
L 21.390625 47.40625 
Q 21.390625 54.640625 20.90625 56.6875 
Q 20.5625 58.25 19.65625 58.984375 
Q 18.75 59.71875 17.484375 59.71875 
Q 15.671875 59.71875 12.453125 58.203125 
z
" id="TimesNewRomanPSMT-31"/>
      </defs>
      <g style="fill:#262626;" transform="translate(136.118486 262.44375)scale(0.1 -0.1)">
       <use xlink:href="#TimesNewRomanPSMT-31"/>
       <use x="50" xlink:href="#TimesNewRomanPSMT-30"/>
       <use x="100" xlink:href="#TimesNewRomanPSMT-30"/>
       <use x="150" xlink:href="#TimesNewRomanPSMT-30"/>
      </g>
     </g>
    </g>
    <g id="xtick_4">
     <g id="line2d_7">
      <path clip-path="url(#p20264440f1)" d="M 190.33682 252 
L 190.33682 34.56 
" style="fill:none;stroke:#cccccc;stroke-linecap:round;stroke-width:0.8;"/>
     </g>
     <g id="line2d_8"/>
     <g id="text_4">
      <!-- 1500 -->
      <g style="fill:#262626;" transform="translate(180.33682 262.44375)scale(0.1 -0.1)">
       <use xlink:href="#TimesNewRomanPSMT-31"/>
       <use x="50" xlink:href="#TimesNewRomanPSMT-35"/>
       <use x="100" xlink:href="#TimesNewRomanPSMT-30"/>
       <use x="150" xlink:href="#TimesNewRomanPSMT-30"/>
      </g>
     </g>
    </g>
    <g id="xtick_5">
     <g id="line2d_9">
      <path clip-path="url(#p20264440f1)" d="M 234.555154 252 
L 234.555154 34.56 
" style="fill:none;stroke:#cccccc;stroke-linecap:round;stroke-width:0.8;"/>
     </g>
     <g id="line2d_10"/>
     <g id="text_5">
      <!-- 2000 -->
      <defs>
       <path d="M 45.84375 12.75 
L 41.21875 0 
L 2.15625 0 
L 2.15625 1.8125 
Q 19.390625 17.53125 26.421875 27.484375 
Q 33.453125 37.453125 33.453125 45.703125 
Q 33.453125 52 29.59375 56.046875 
Q 25.734375 60.109375 20.359375 60.109375 
Q 15.484375 60.109375 11.59375 57.25 
Q 7.71875 54.390625 5.859375 48.875 
L 4.046875 48.875 
Q 5.28125 57.90625 10.328125 62.734375 
Q 15.375 67.578125 22.953125 67.578125 
Q 31 67.578125 36.390625 62.40625 
Q 41.796875 57.234375 41.796875 50.203125 
Q 41.796875 45.171875 39.453125 40.140625 
Q 35.84375 32.234375 27.734375 23.390625 
Q 15.578125 10.109375 12.546875 7.375 
L 29.828125 7.375 
Q 35.109375 7.375 37.234375 7.765625 
Q 39.359375 8.15625 41.0625 9.34375 
Q 42.78125 10.546875 44.046875 12.75 
z
" id="TimesNewRomanPSMT-32"/>
      </defs>
      <g style="fill:#262626;" transform="translate(224.555154 262.44375)scale(0.1 -0.1)">
       <use xlink:href="#TimesNewRomanPSMT-32"/>
       <use x="50" xlink:href="#TimesNewRomanPSMT-30"/>
       <use x="100" xlink:href="#TimesNewRomanPSMT-30"/>
       <use x="150" xlink:href="#TimesNewRomanPSMT-30"/>
      </g>
     </g>
    </g>
    <g id="xtick_6">
     <g id="line2d_11">
      <path clip-path="url(#p20264440f1)" d="M 278.773488 252 
L 278.773488 34.56 
" style="fill:none;stroke:#cccccc;stroke-linecap:round;stroke-width:0.8;"/>
     </g>
     <g id="line2d_12"/>
     <g id="text_6">
      <!-- 2500 -->
      <g style="fill:#262626;" transform="translate(268.773488 262.44375)scale(0.1 -0.1)">
       <use xlink:href="#TimesNewRomanPSMT-32"/>
       <use x="50" xlink:href="#TimesNewRomanPSMT-35"/>
       <use x="100" xlink:href="#TimesNewRomanPSMT-30"/>
       <use x="150" xlink:href="#TimesNewRomanPSMT-30"/>
      </g>
     </g>
    </g>
    <g id="xtick_7">
     <g id="line2d_13">
      <path clip-path="url(#p20264440f1)" d="M 322.991822 252 
L 322.991822 34.56 
" style="fill:none;stroke:#cccccc;stroke-linecap:round;stroke-width:0.8;"/>
     </g>
     <g id="line2d_14"/>
     <g id="text_7">
      <!-- 3000 -->
      <defs>
       <path d="M 5.078125 53.609375 
Q 7.90625 60.296875 12.21875 63.9375 
Q 16.546875 67.578125 23 67.578125 
Q 30.953125 67.578125 35.203125 62.40625 
Q 38.421875 58.546875 38.421875 54.15625 
Q 38.421875 46.921875 29.34375 39.203125 
Q 35.453125 36.8125 38.578125 32.375 
Q 41.703125 27.9375 41.703125 21.921875 
Q 41.703125 13.328125 36.234375 7.03125 
Q 29.109375 -1.171875 15.578125 -1.171875 
Q 8.890625 -1.171875 6.46875 0.484375 
Q 4.046875 2.15625 4.046875 4.046875 
Q 4.046875 5.46875 5.1875 6.546875 
Q 6.34375 7.625 7.953125 7.625 
Q 9.1875 7.625 10.453125 7.234375 
Q 11.28125 6.984375 14.203125 5.4375 
Q 17.140625 3.90625 18.265625 3.609375 
Q 20.0625 3.078125 22.125 3.078125 
Q 27.09375 3.078125 30.78125 6.9375 
Q 34.46875 10.796875 34.46875 16.0625 
Q 34.46875 19.921875 32.765625 23.578125 
Q 31.5 26.3125 29.984375 27.734375 
Q 27.875 29.6875 24.21875 31.265625 
Q 20.5625 32.859375 16.75 32.859375 
L 15.1875 32.859375 
L 15.1875 34.328125 
Q 19.046875 34.8125 22.921875 37.109375 
Q 26.8125 39.40625 28.5625 42.625 
Q 30.328125 45.84375 30.328125 49.703125 
Q 30.328125 54.734375 27.171875 57.828125 
Q 24.03125 60.9375 19.34375 60.9375 
Q 11.765625 60.9375 6.6875 52.828125 
z
" id="TimesNewRomanPSMT-33"/>
      </defs>
      <g style="fill:#262626;" transform="translate(312.991822 262.44375)scale(0.1 -0.1)">
       <use xlink:href="#TimesNewRomanPSMT-33"/>
       <use x="50" xlink:href="#TimesNewRomanPSMT-30"/>
       <use x="100" xlink:href="#TimesNewRomanPSMT-30"/>
       <use x="150" xlink:href="#TimesNewRomanPSMT-30"/>
      </g>
     </g>
    </g>
    <g id="text_8">
     <!-- Cycle No. -->
     <defs>
      <path d="M 60.203125 67.71875 
L 61.71875 45.21875 
L 60.203125 45.21875 
Q 57.171875 55.328125 51.5625 59.765625 
Q 45.953125 64.203125 38.09375 64.203125 
Q 31.5 64.203125 26.171875 60.859375 
Q 20.84375 57.515625 17.796875 50.1875 
Q 14.75 42.875 14.75 31.984375 
Q 14.75 23 17.625 16.40625 
Q 20.515625 9.8125 26.296875 6.296875 
Q 32.078125 2.78125 39.5 2.78125 
Q 45.953125 2.78125 50.875 5.53125 
Q 55.8125 8.296875 61.71875 16.5 
L 63.234375 15.53125 
Q 58.25 6.6875 51.609375 2.578125 
Q 44.96875 -1.515625 35.84375 -1.515625 
Q 19.390625 -1.515625 10.359375 10.6875 
Q 3.609375 19.78125 3.609375 32.078125 
Q 3.609375 42 8.046875 50.296875 
Q 12.5 58.59375 20.28125 63.15625 
Q 28.078125 67.71875 37.3125 67.71875 
Q 44.484375 67.71875 51.46875 64.203125 
Q 53.515625 63.140625 54.390625 63.140625 
Q 55.71875 63.140625 56.6875 64.0625 
Q 57.953125 65.375 58.5 67.71875 
z
" id="TimesNewRomanPSMT-43"/>
      <path d="M 0.59375 44.734375 
L 21.4375 44.734375 
L 21.4375 42.921875 
L 20.40625 42.921875 
Q 18.21875 42.921875 17.109375 41.96875 
Q 16.015625 41.015625 16.015625 39.59375 
Q 16.015625 37.703125 17.625 34.328125 
L 28.515625 11.765625 
L 38.53125 36.46875 
Q 39.359375 38.484375 39.359375 40.4375 
Q 39.359375 41.3125 39.015625 41.75 
Q 38.625 42.28125 37.796875 42.59375 
Q 36.96875 42.921875 34.859375 42.921875 
L 34.859375 44.734375 
L 49.421875 44.734375 
L 49.421875 42.921875 
Q 47.609375 42.71875 46.625 42.125 
Q 45.65625 41.546875 44.484375 39.9375 
Q 44.046875 39.265625 42.828125 36.1875 
L 24.609375 -8.453125 
Q 21.96875 -14.9375 17.6875 -18.25 
Q 13.421875 -21.578125 9.46875 -21.578125 
Q 6.59375 -21.578125 4.734375 -19.921875 
Q 2.875 -18.265625 2.875 -16.109375 
Q 2.875 -14.0625 4.21875 -12.8125 
Q 5.5625 -11.578125 7.90625 -11.578125 
Q 9.515625 -11.578125 12.3125 -12.640625 
Q 14.265625 -13.375 14.75 -13.375 
Q 16.21875 -13.375 17.9375 -11.859375 
Q 19.671875 -10.359375 21.4375 -6 
L 24.609375 1.765625 
L 8.546875 35.5 
Q 7.8125 37.015625 6.203125 39.265625 
Q 4.984375 40.96875 4.203125 41.546875 
Q 3.078125 42.328125 0.59375 42.921875 
z
" id="TimesNewRomanPSMT-79"/>
      <path d="M 41.109375 17 
Q 39.3125 8.15625 34.03125 3.390625 
Q 28.765625 -1.375 22.359375 -1.375 
Q 14.75 -1.375 9.078125 5.015625 
Q 3.421875 11.421875 3.421875 22.3125 
Q 3.421875 32.859375 9.6875 39.453125 
Q 15.96875 46.046875 24.75 46.046875 
Q 31.34375 46.046875 35.59375 42.546875 
Q 39.84375 39.0625 39.84375 35.296875 
Q 39.84375 33.453125 38.640625 32.296875 
Q 37.453125 31.15625 35.296875 31.15625 
Q 32.421875 31.15625 30.953125 33.015625 
Q 30.125 34.03125 29.859375 36.90625 
Q 29.59375 39.796875 27.875 41.3125 
Q 26.171875 42.78125 23.140625 42.78125 
Q 18.265625 42.78125 15.28125 39.15625 
Q 11.328125 34.375 11.328125 26.515625 
Q 11.328125 18.5 15.25 12.375 
Q 19.1875 6.25 25.875 6.25 
Q 30.671875 6.25 34.46875 9.515625 
Q 37.15625 11.765625 39.703125 17.671875 
z
" id="TimesNewRomanPSMT-63"/>
      <path d="M 18.5 69.4375 
L 18.5 10.109375 
Q 18.5 5.90625 19.109375 4.53125 
Q 19.734375 3.171875 21 2.46875 
Q 22.265625 1.765625 25.734375 1.765625 
L 25.734375 0 
L 3.8125 0 
L 3.8125 1.765625 
Q 6.890625 1.765625 8 2.390625 
Q 9.125 3.03125 9.765625 4.484375 
Q 10.40625 5.953125 10.40625 10.109375 
L 10.40625 50.734375 
Q 10.40625 58.296875 10.0625 60.03125 
Q 9.71875 61.765625 8.953125 62.390625 
Q 8.203125 63.03125 7.03125 63.03125 
Q 5.765625 63.03125 3.8125 62.25 
L 2.984375 63.96875 
L 16.3125 69.4375 
z
" id="TimesNewRomanPSMT-6c"/>
      <path d="M 10.640625 27.875 
Q 10.59375 17.921875 15.484375 12.25 
Q 20.359375 6.59375 26.953125 6.59375 
Q 31.34375 6.59375 34.59375 9 
Q 37.84375 11.421875 40.046875 17.28125 
L 41.546875 16.3125 
Q 40.53125 9.625 35.59375 4.125 
Q 30.671875 -1.375 23.25 -1.375 
Q 15.1875 -1.375 9.453125 4.90625 
Q 3.71875 11.1875 3.71875 21.78125 
Q 3.71875 33.25 9.59375 39.671875 
Q 15.484375 46.09375 24.359375 46.09375 
Q 31.890625 46.09375 36.71875 41.140625 
Q 41.546875 36.1875 41.546875 27.875 
z
M 10.640625 30.71875 
L 31.34375 30.71875 
Q 31.109375 35.015625 30.328125 36.765625 
Q 29.109375 39.5 26.6875 41.0625 
Q 24.265625 42.625 21.625 42.625 
Q 17.578125 42.625 14.375 39.46875 
Q 11.1875 36.328125 10.640625 30.71875 
z
" id="TimesNewRomanPSMT-65"/>
      <path id="TimesNewRomanPSMT-20"/>
      <path d="M -1.3125 66.21875 
L 16.65625 66.21875 
L 57.125 16.546875 
L 57.125 54.734375 
Q 57.125 60.84375 55.765625 62.359375 
Q 53.953125 64.40625 50.046875 64.40625 
L 47.75 64.40625 
L 47.75 66.21875 
L 70.796875 66.21875 
L 70.796875 64.40625 
L 68.453125 64.40625 
Q 64.265625 64.40625 62.5 61.859375 
Q 61.421875 60.296875 61.421875 54.734375 
L 61.421875 -1.078125 
L 59.671875 -1.078125 
L 16.015625 52.25 
L 16.015625 11.46875 
Q 16.015625 5.375 17.328125 3.859375 
Q 19.1875 1.8125 23.046875 1.8125 
L 25.390625 1.8125 
L 25.390625 0 
L 2.34375 0 
L 2.34375 1.8125 
L 4.640625 1.8125 
Q 8.890625 1.8125 10.640625 4.34375 
Q 11.71875 5.90625 11.71875 11.46875 
L 11.71875 57.515625 
Q 8.84375 60.890625 7.34375 61.953125 
Q 5.859375 63.03125 2.984375 63.96875 
Q 1.5625 64.40625 -1.3125 64.40625 
z
" id="TimesNewRomanPSMT-4e"/>
      <path d="M 25 46.046875 
Q 35.15625 46.046875 41.3125 38.328125 
Q 46.53125 31.734375 46.53125 23.1875 
Q 46.53125 17.1875 43.640625 11.03125 
Q 40.765625 4.890625 35.71875 1.75 
Q 30.671875 -1.375 24.46875 -1.375 
Q 14.359375 -1.375 8.40625 6.6875 
Q 3.375 13.484375 3.375 21.921875 
Q 3.375 28.078125 6.421875 34.15625 
Q 9.46875 40.234375 14.453125 43.140625 
Q 19.4375 46.046875 25 46.046875 
z
M 23.484375 42.875 
Q 20.90625 42.875 18.28125 41.328125 
Q 15.671875 39.796875 14.0625 35.9375 
Q 12.453125 32.078125 12.453125 26.03125 
Q 12.453125 16.265625 16.328125 9.171875 
Q 20.21875 2.09375 26.5625 2.09375 
Q 31.296875 2.09375 34.375 6 
Q 37.453125 9.90625 37.453125 19.4375 
Q 37.453125 31.34375 32.328125 38.1875 
Q 28.859375 42.875 23.484375 42.875 
z
" id="TimesNewRomanPSMT-6f"/>
      <path d="M 12.5 9.46875 
Q 14.796875 9.46875 16.359375 7.875 
Q 17.921875 6.296875 17.921875 4.046875 
Q 17.921875 1.8125 16.328125 0.21875 
Q 14.75 -1.375 12.5 -1.375 
Q 10.25 -1.375 8.65625 0.21875 
Q 7.078125 1.8125 7.078125 4.046875 
Q 7.078125 6.34375 8.65625 7.90625 
Q 10.25 9.46875 12.5 9.46875 
z
" id="TimesNewRomanPSMT-2e"/>
     </defs>
     <g style="fill:#262626;" transform="translate(164.225781 275.526563)scale(0.1 -0.1)">
      <use xlink:href="#TimesNewRomanPSMT-43"/>
      <use x="66.699219" xlink:href="#TimesNewRomanPSMT-79"/>
      <use x="116.699219" xlink:href="#TimesNewRomanPSMT-63"/>
      <use x="161.083984" xlink:href="#TimesNewRomanPSMT-6c"/>
      <use x="188.867188" xlink:href="#TimesNewRomanPSMT-65"/>
      <use x="233.251953" xlink:href="#TimesNewRomanPSMT-20"/>
      <use x="258.251953" xlink:href="#TimesNewRomanPSMT-4e"/>
      <use x="330.46875" xlink:href="#TimesNewRomanPSMT-6f"/>
      <use x="380.46875" xlink:href="#TimesNewRomanPSMT-2e"/>
     </g>
    </g>
   </g>
   <g id="matplotlib.axis_2">
    <g id="ytick_1">
     <g id="line2d_15">
      <path clip-path="url(#p20264440f1)" d="M 45 229.506207 
L 324 229.506207 
" style="fill:none;stroke:#cccccc;stroke-linecap:round;stroke-width:0.8;"/>
     </g>
     <g id="line2d_16"/>
     <g id="text_9">
      <!-- 0.014 -->
      <defs>
       <path d="M 46.53125 24.421875 
L 46.53125 17.484375 
L 37.640625 17.484375 
L 37.640625 0 
L 29.59375 0 
L 29.59375 17.484375 
L 1.5625 17.484375 
L 1.5625 23.734375 
L 32.28125 67.578125 
L 37.640625 67.578125 
L 37.640625 24.421875 
z
M 29.59375 24.421875 
L 29.59375 57.28125 
L 6.34375 24.421875 
z
" id="TimesNewRomanPSMT-34"/>
      </defs>
      <g style="fill:#262626;" transform="translate(19 232.978082)scale(0.1 -0.1)">
       <use xlink:href="#TimesNewRomanPSMT-30"/>
       <use x="50" xlink:href="#TimesNewRomanPSMT-2e"/>
       <use x="75" xlink:href="#TimesNewRomanPSMT-30"/>
       <use x="125" xlink:href="#TimesNewRomanPSMT-31"/>
       <use x="175" xlink:href="#TimesNewRomanPSMT-34"/>
      </g>
     </g>
    </g>
    <g id="ytick_2">
     <g id="line2d_17">
      <path clip-path="url(#p20264440f1)" d="M 45 199.514483 
L 324 199.514483 
" style="fill:none;stroke:#cccccc;stroke-linecap:round;stroke-width:0.8;"/>
     </g>
     <g id="line2d_18"/>
     <g id="text_10">
      <!-- 0.016 -->
      <defs>
       <path d="M 44.828125 67.578125 
L 44.828125 65.765625 
Q 38.375 65.140625 34.296875 63.203125 
Q 30.21875 61.28125 26.234375 57.328125 
Q 22.265625 53.375 19.65625 48.515625 
Q 17.046875 43.65625 15.28125 36.96875 
Q 22.3125 41.796875 29.390625 41.796875 
Q 36.1875 41.796875 41.15625 36.328125 
Q 46.140625 30.859375 46.140625 22.265625 
Q 46.140625 13.96875 41.109375 7.125 
Q 35.0625 -1.171875 25.09375 -1.171875 
Q 18.3125 -1.171875 13.578125 3.328125 
Q 4.296875 12.0625 4.296875 25.984375 
Q 4.296875 34.859375 7.859375 42.859375 
Q 11.421875 50.875 18.03125 57.078125 
Q 24.65625 63.28125 30.703125 65.421875 
Q 36.765625 67.578125 42 67.578125 
z
M 14.453125 33.40625 
Q 13.578125 26.8125 13.578125 22.75 
Q 13.578125 18.0625 15.3125 12.5625 
Q 17.046875 7.078125 20.453125 3.859375 
Q 22.953125 1.5625 26.515625 1.5625 
Q 30.765625 1.5625 34.109375 5.5625 
Q 37.453125 9.578125 37.453125 17 
Q 37.453125 25.34375 34.125 31.4375 
Q 30.8125 37.546875 24.703125 37.546875 
Q 22.859375 37.546875 20.734375 36.765625 
Q 18.609375 35.984375 14.453125 33.40625 
z
" id="TimesNewRomanPSMT-36"/>
      </defs>
      <g style="fill:#262626;" transform="translate(19 202.986358)scale(0.1 -0.1)">
       <use xlink:href="#TimesNewRomanPSMT-30"/>
       <use x="50" xlink:href="#TimesNewRomanPSMT-2e"/>
       <use x="75" xlink:href="#TimesNewRomanPSMT-30"/>
       <use x="125" xlink:href="#TimesNewRomanPSMT-31"/>
       <use x="175" xlink:href="#TimesNewRomanPSMT-36"/>
      </g>
     </g>
    </g>
    <g id="ytick_3">
     <g id="line2d_19">
      <path clip-path="url(#p20264440f1)" d="M 45 169.522759 
L 324 169.522759 
" style="fill:none;stroke:#cccccc;stroke-linecap:round;stroke-width:0.8;"/>
     </g>
     <g id="line2d_20"/>
     <g id="text_11">
      <!-- 0.018 -->
      <defs>
       <path d="M 19.1875 33.34375 
Q 11.328125 39.796875 9.046875 43.703125 
Q 6.78125 47.609375 6.78125 51.8125 
Q 6.78125 58.25 11.765625 62.90625 
Q 16.75 67.578125 25 67.578125 
Q 33.015625 67.578125 37.890625 63.234375 
Q 42.78125 58.890625 42.78125 53.328125 
Q 42.78125 49.609375 40.140625 45.75 
Q 37.5 41.890625 29.15625 36.671875 
Q 37.75 30.03125 40.53125 26.21875 
Q 44.234375 21.234375 44.234375 15.71875 
Q 44.234375 8.734375 38.90625 3.78125 
Q 33.59375 -1.171875 24.953125 -1.171875 
Q 15.53125 -1.171875 10.25 4.734375 
Q 6.0625 9.46875 6.0625 15.09375 
Q 6.0625 19.484375 9.015625 23.796875 
Q 11.96875 28.125 19.1875 33.34375 
z
M 26.859375 38.578125 
Q 32.71875 43.84375 34.28125 46.890625 
Q 35.84375 49.953125 35.84375 53.8125 
Q 35.84375 58.9375 32.953125 61.84375 
Q 30.078125 64.75 25.09375 64.75 
Q 20.125 64.75 17 61.859375 
Q 13.875 58.984375 13.875 55.125 
Q 13.875 52.59375 15.15625 50.046875 
Q 16.453125 47.515625 18.84375 45.21875 
z
M 21.484375 31.5 
Q 17.4375 28.078125 15.484375 24.046875 
Q 13.53125 20.015625 13.53125 15.328125 
Q 13.53125 9.03125 16.96875 5.25 
Q 20.40625 1.46875 25.734375 1.46875 
Q 31 1.46875 34.171875 4.4375 
Q 37.359375 7.421875 37.359375 11.671875 
Q 37.359375 15.1875 35.5 17.96875 
Q 32.03125 23.140625 21.484375 31.5 
z
" id="TimesNewRomanPSMT-38"/>
      </defs>
      <g style="fill:#262626;" transform="translate(19 172.994634)scale(0.1 -0.1)">
       <use xlink:href="#TimesNewRomanPSMT-30"/>
       <use x="50" xlink:href="#TimesNewRomanPSMT-2e"/>
       <use x="75" xlink:href="#TimesNewRomanPSMT-30"/>
       <use x="125" xlink:href="#TimesNewRomanPSMT-31"/>
       <use x="175" xlink:href="#TimesNewRomanPSMT-38"/>
      </g>
     </g>
    </g>
    <g id="ytick_4">
     <g id="line2d_21">
      <path clip-path="url(#p20264440f1)" d="M 45 139.531034 
L 324 139.531034 
" style="fill:none;stroke:#cccccc;stroke-linecap:round;stroke-width:0.8;"/>
     </g>
     <g id="line2d_22"/>
     <g id="text_12">
      <!-- 0.020 -->
      <g style="fill:#262626;" transform="translate(19 143.002909)scale(0.1 -0.1)">
       <use xlink:href="#TimesNewRomanPSMT-30"/>
       <use x="50" xlink:href="#TimesNewRomanPSMT-2e"/>
       <use x="75" xlink:href="#TimesNewRomanPSMT-30"/>
       <use x="125" xlink:href="#TimesNewRomanPSMT-32"/>
       <use x="175" xlink:href="#TimesNewRomanPSMT-30"/>
      </g>
     </g>
    </g>
    <g id="ytick_5">
     <g id="line2d_23">
      <path clip-path="url(#p20264440f1)" d="M 45 109.53931 
L 324 109.53931 
" style="fill:none;stroke:#cccccc;stroke-linecap:round;stroke-width:0.8;"/>
     </g>
     <g id="line2d_24"/>
     <g id="text_13">
      <!-- 0.022 -->
      <g style="fill:#262626;" transform="translate(19 113.011185)scale(0.1 -0.1)">
       <use xlink:href="#TimesNewRomanPSMT-30"/>
       <use x="50" xlink:href="#TimesNewRomanPSMT-2e"/>
       <use x="75" xlink:href="#TimesNewRomanPSMT-30"/>
       <use x="125" xlink:href="#TimesNewRomanPSMT-32"/>
       <use x="175" xlink:href="#TimesNewRomanPSMT-32"/>
      </g>
     </g>
    </g>
    <g id="ytick_6">
     <g id="line2d_25">
      <path clip-path="url(#p20264440f1)" d="M 45 79.547586 
L 324 79.547586 
" style="fill:none;stroke:#cccccc;stroke-linecap:round;stroke-width:0.8;"/>
     </g>
     <g id="line2d_26"/>
     <g id="text_14">
      <!-- 0.024 -->
      <g style="fill:#262626;" transform="translate(19 83.019461)scale(0.1 -0.1)">
       <use xlink:href="#TimesNewRomanPSMT-30"/>
       <use x="50" xlink:href="#TimesNewRomanPSMT-2e"/>
       <use x="75" xlink:href="#TimesNewRomanPSMT-30"/>
       <use x="125" xlink:href="#TimesNewRomanPSMT-32"/>
       <use x="175" xlink:href="#TimesNewRomanPSMT-34"/>
      </g>
     </g>
    </g>
    <g id="ytick_7">
     <g id="line2d_27">
      <path clip-path="url(#p20264440f1)" d="M 45 49.555862 
L 324 49.555862 
" style="fill:none;stroke:#cccccc;stroke-linecap:round;stroke-width:0.8;"/>
     </g>
     <g id="line2d_28"/>
     <g id="text_15">
      <!-- 0.026 -->
      <g style="fill:#262626;" transform="translate(19 53.027737)scale(0.1 -0.1)">
       <use xlink:href="#TimesNewRomanPSMT-30"/>
       <use x="50" xlink:href="#TimesNewRomanPSMT-2e"/>
       <use x="75" xlink:href="#TimesNewRomanPSMT-30"/>
       <use x="125" xlink:href="#TimesNewRomanPSMT-32"/>
       <use x="175" xlink:href="#TimesNewRomanPSMT-36"/>
      </g>
     </g>
    </g>
    <g id="text_16">
     <!-- RSE -->
     <defs>
      <path d="M 67.578125 0 
L 49.90625 0 
L 27.484375 30.953125 
Q 25 30.859375 23.4375 30.859375 
Q 22.796875 30.859375 22.0625 30.875 
Q 21.34375 30.90625 20.5625 30.953125 
L 20.5625 11.71875 
Q 20.5625 5.46875 21.921875 3.953125 
Q 23.78125 1.8125 27.484375 1.8125 
L 30.078125 1.8125 
L 30.078125 0 
L 1.703125 0 
L 1.703125 1.8125 
L 4.203125 1.8125 
Q 8.40625 1.8125 10.203125 4.546875 
Q 11.234375 6.0625 11.234375 11.71875 
L 11.234375 54.5 
Q 11.234375 60.75 9.859375 62.25 
Q 7.953125 64.40625 4.203125 64.40625 
L 1.703125 64.40625 
L 1.703125 66.21875 
L 25.828125 66.21875 
Q 36.375 66.21875 41.375 64.671875 
Q 46.390625 63.140625 49.875 59.015625 
Q 53.375 54.890625 53.375 49.171875 
Q 53.375 43.0625 49.390625 38.5625 
Q 45.40625 34.078125 37.0625 32.234375 
L 50.734375 13.234375 
Q 55.421875 6.6875 58.78125 4.53125 
Q 62.15625 2.390625 67.578125 1.8125 
z
M 20.5625 34.03125 
Q 21.484375 34.03125 22.171875 34 
Q 22.859375 33.984375 23.296875 33.984375 
Q 32.765625 33.984375 37.578125 38.078125 
Q 42.390625 42.1875 42.390625 48.53125 
Q 42.390625 54.734375 38.5 58.609375 
Q 34.625 62.5 28.21875 62.5 
Q 25.390625 62.5 20.5625 61.578125 
z
" id="TimesNewRomanPSMT-52"/>
      <path d="M 45.84375 67.71875 
L 45.84375 44.828125 
L 44.046875 44.828125 
Q 43.171875 51.421875 40.890625 55.328125 
Q 38.625 59.234375 34.421875 61.515625 
Q 30.21875 63.8125 25.734375 63.8125 
Q 20.65625 63.8125 17.328125 60.71875 
Q 14.015625 57.625 14.015625 53.65625 
Q 14.015625 50.640625 16.109375 48.140625 
Q 19.140625 44.484375 30.515625 38.375 
Q 39.796875 33.40625 43.1875 30.734375 
Q 46.578125 28.078125 48.40625 24.453125 
Q 50.25 20.84375 50.25 16.890625 
Q 50.25 9.375 44.40625 3.921875 
Q 38.578125 -1.515625 29.390625 -1.515625 
Q 26.515625 -1.515625 23.96875 -1.078125 
Q 22.46875 -0.828125 17.703125 0.703125 
Q 12.9375 2.25 11.671875 2.25 
Q 10.453125 2.25 9.734375 1.515625 
Q 9.03125 0.78125 8.6875 -1.515625 
L 6.890625 -1.515625 
L 6.890625 21.1875 
L 8.6875 21.1875 
Q 9.96875 14.0625 12.109375 10.515625 
Q 14.265625 6.984375 18.671875 4.640625 
Q 23.09375 2.296875 28.375 2.296875 
Q 34.46875 2.296875 38 5.515625 
Q 41.546875 8.734375 41.546875 13.140625 
Q 41.546875 15.578125 40.203125 18.0625 
Q 38.875 20.5625 36.03125 22.703125 
Q 34.125 24.171875 25.625 28.921875 
Q 17.140625 33.6875 13.546875 36.515625 
Q 9.96875 39.359375 8.109375 42.765625 
Q 6.25 46.1875 6.25 50.296875 
Q 6.25 57.421875 11.71875 62.5625 
Q 17.1875 67.71875 25.640625 67.71875 
Q 30.90625 67.71875 36.8125 65.140625 
Q 39.546875 63.921875 40.671875 63.921875 
Q 41.9375 63.921875 42.75 64.671875 
Q 43.5625 65.4375 44.046875 67.71875 
z
" id="TimesNewRomanPSMT-53"/>
      <path d="M 20.90625 62.59375 
L 20.90625 36.421875 
L 35.453125 36.421875 
Q 41.109375 36.421875 43.015625 38.140625 
Q 45.5625 40.375 45.84375 46.046875 
L 47.65625 46.046875 
L 47.65625 23 
L 45.84375 23 
Q 45.171875 27.828125 44.484375 29.203125 
Q 43.609375 30.90625 41.59375 31.875 
Q 39.59375 32.859375 35.453125 32.859375 
L 20.90625 32.859375 
L 20.90625 11.03125 
Q 20.90625 6.640625 21.296875 5.6875 
Q 21.6875 4.734375 22.65625 4.171875 
Q 23.640625 3.609375 26.375 3.609375 
L 37.59375 3.609375 
Q 43.21875 3.609375 45.75 4.390625 
Q 48.296875 5.171875 50.640625 7.46875 
Q 53.65625 10.5 56.84375 16.609375 
L 58.796875 16.609375 
L 53.078125 0 
L 2.046875 0 
L 2.046875 1.8125 
L 4.390625 1.8125 
Q 6.734375 1.8125 8.84375 2.9375 
Q 10.40625 3.71875 10.96875 5.28125 
Q 11.53125 6.84375 11.53125 11.671875 
L 11.53125 54.6875 
Q 11.53125 60.984375 10.25 62.453125 
Q 8.5 64.40625 4.390625 64.40625 
L 2.046875 64.40625 
L 2.046875 66.21875 
L 53.078125 66.21875 
L 53.8125 51.703125 
L 51.90625 51.703125 
Q 50.875 56.9375 49.625 58.890625 
Q 48.390625 60.84375 45.953125 61.859375 
Q 44 62.59375 39.0625 62.59375 
z
" id="TimesNewRomanPSMT-45"/>
     </defs>
     <g style="fill:#262626;" transform="translate(12.860938 152.449531)rotate(-90)scale(0.1 -0.1)">
      <use xlink:href="#TimesNewRomanPSMT-52"/>
      <use x="66.699219" xlink:href="#TimesNewRomanPSMT-53"/>
      <use x="122.314453" xlink:href="#TimesNewRomanPSMT-45"/>
     </g>
    </g>
   </g>
   <g id="line2d_29">
    <path clip-path="url(#p20264440f1)" d="M 57.681818 16.15105 
L 57.858692 34.232918 
L 58.919932 67.090959 
L 59.450552 78.211806 
L 59.538988 78.755393 
L 59.715862 81.065909 
L 60.334918 87.886936 
L 60.423355 87.721039 
L 60.600228 90.227644 
L 60.777102 92.079604 
L 60.953975 93.575141 
L 61.130848 95.005875 
L 61.219285 95.447861 
L 61.396158 97.475245 
L 61.484595 97.272599 
L 61.749905 100.344249 
L 61.838342 99.31767 
L 62.192088 104.12388 
L 62.280525 103.272493 
L 62.545835 108.070195 
L 62.634272 107.418012 
L 62.899582 108.807258 
L 62.988018 108.09367 
L 63.253328 113.152835 
L 63.341765 112.312692 
L 63.430202 112.30896 
L 63.518638 111.788697 
L 63.783948 114.620106 
L 63.872385 114.191522 
L 63.960822 117.462723 
L 64.049258 114.456319 
L 64.137695 114.975645 
L 64.226132 115.714708 
L 64.403005 119.761141 
L 64.491442 116.914132 
L 64.579878 121.79649 
L 64.668315 117.699083 
L 64.845188 123.495229 
L 64.933625 121.594967 
L 65.022062 122.3396 
L 65.110498 120.681735 
L 65.198935 122.204391 
L 65.287372 119.561906 
L 65.375808 120.128629 
L 65.552682 123.937642 
L 65.729555 122.149961 
L 65.817992 127.399272 
L 66.083302 122.755718 
L 66.260175 128.758543 
L 66.348612 132.05553 
L 66.437048 127.952258 
L 66.525485 129.518774 
L 66.702358 126.12799 
L 66.790795 128.219545 
L 66.879232 127.682496 
L 66.967668 128.946356 
L 67.144542 126.711918 
L 67.409852 130.02102 
L 67.498288 127.985665 
L 67.675162 134.293135 
L 67.763598 132.038424 
L 67.852035 126.641582 
L 68.028908 130.460487 
L 68.117345 129.591939 
L 68.382655 131.542432 
L 68.559528 128.611324 
L 68.824838 133.791586 
L 69.001712 131.174976 
L 69.090148 137.694459 
L 69.178585 135.689613 
L 69.267022 129.279398 
L 69.443895 131.689501 
L 69.532332 137.141822 
L 69.620768 130.913384 
L 69.709205 136.462884 
L 69.797642 133.054693 
L 69.886078 133.759536 
L 70.151388 125.539196 
L 70.328262 133.047948 
L 70.416698 130.191346 
L 70.505135 132.596253 
L 70.593572 131.810163 
L 70.682008 132.073345 
L 70.858882 128.435555 
L 70.947318 128.617713 
L 71.035755 130.631511 
L 71.124192 130.289876 
L 71.212628 129.542328 
L 71.301065 129.948458 
L 71.477938 125.460129 
L 71.654812 128.101908 
L 71.743248 132.233451 
L 71.920122 127.535966 
L 72.008558 127.674721 
L 72.096995 126.336179 
L 72.362305 128.843211 
L 72.450742 128.187984 
L 72.539178 132.195784 
L 72.716052 127.584416 
L 72.804488 130.717248 
L 72.892925 128.456844 
L 72.981362 134.051739 
L 73.246672 129.347429 
L 73.600418 133.803781 
L 73.777292 132.645277 
L 73.865728 125.938191 
L 73.954165 130.944527 
L 74.042602 128.373647 
L 74.307912 133.992343 
L 74.396348 131.749386 
L 74.484785 136.787658 
L 74.750095 129.648805 
L 74.838532 134.035425 
L 74.926968 133.085769 
L 75.015405 133.415705 
L 75.192278 132.449701 
L 75.280715 137.84464 
L 75.457588 132.683035 
L 75.546025 141.090706 
L 75.634462 134.610362 
L 75.722898 135.614303 
L 75.811335 133.021747 
L 75.899772 140.469279 
L 76.076645 133.023115 
L 76.253518 135.15542 
L 76.341955 135.005741 
L 76.430392 131.810707 
L 76.607265 137.021239 
L 76.695702 136.442638 
L 76.784138 133.04162 
L 76.872575 142.795311 
L 77.137885 132.678347 
L 77.226322 140.483483 
L 77.403195 135.283942 
L 77.491632 139.810189 
L 77.668505 134.858526 
L 77.756942 135.479961 
L 77.845378 134.433547 
L 77.933815 140.003654 
L 78.022252 135.86486 
L 78.199125 143.933709 
L 78.375998 135.142841 
L 78.464435 142.561387 
L 78.552872 139.578296 
L 78.641308 143.09528 
L 78.729745 136.127093 
L 78.818182 137.689543 
L 78.906618 139.414242 
L 78.995055 139.28398 
L 79.083492 138.076408 
L 79.171928 138.950922 
L 79.260365 138.383069 
L 79.348802 142.439045 
L 79.437238 140.306932 
L 79.614112 143.490765 
L 79.790985 137.860962 
L 79.879422 139.723069 
L 79.967859 139.407652 
L 80.056295 139.056847 
L 80.144732 143.054516 
L 80.321605 138.77542 
L 80.498479 143.778561 
L 80.586915 142.600141 
L 80.763789 145.33131 
L 80.852225 141.703367 
L 80.940662 145.842923 
L 81.117535 139.697904 
L 81.205972 144.632521 
L 81.294409 141.000988 
L 81.382845 142.077077 
L 81.559719 146.118277 
L 81.736592 140.924022 
L 81.825029 144.977275 
L 81.913465 144.774882 
L 82.001902 145.093257 
L 82.267212 142.13201 
L 82.355649 148.116639 
L 82.532522 142.922233 
L 82.709395 147.037924 
L 82.797832 142.744708 
L 82.974705 147.935902 
L 83.151579 142.450745 
L 83.240015 146.799817 
L 83.328452 146.572852 
L 83.505325 148.448442 
L 83.682199 145.109576 
L 83.770635 147.955363 
L 83.859072 147.569363 
L 83.947509 145.690095 
L 84.035945 145.911434 
L 84.212819 148.717176 
L 84.301255 150.530159 
L 84.389692 143.756859 
L 84.478129 148.196759 
L 84.566565 147.893026 
L 84.655002 148.630886 
L 84.743439 142.040885 
L 84.831875 147.89548 
L 84.920312 145.515764 
L 85.185622 150.909556 
L 85.274059 149.508251 
L 85.362495 145.333357 
L 85.450932 149.801139 
L 85.539369 146.999591 
L 85.627805 150.384441 
L 85.804679 145.402274 
L 85.893115 152.623664 
L 85.981552 151.766737 
L 86.069989 151.429574 
L 86.158425 144.005795 
L 86.246862 152.50018 
L 86.423735 149.560704 
L 86.600609 151.000756 
L 86.689045 149.631324 
L 86.777482 150.520448 
L 86.865919 147.376984 
L 86.954355 151.339542 
L 87.042792 148.026632 
L 87.219665 151.75406 
L 87.308102 154.774369 
L 87.396539 148.014891 
L 87.484975 149.01167 
L 87.573412 150.151202 
L 87.661849 149.092229 
L 87.750285 154.874301 
L 87.838722 149.941486 
L 87.927159 155.198044 
L 88.015595 153.828345 
L 88.104032 154.285262 
L 88.192469 152.340134 
L 88.280905 153.355315 
L 88.457779 152.415694 
L 88.546215 155.563952 
L 88.634652 154.796575 
L 88.723089 154.631505 
L 88.811525 153.275131 
L 88.899962 154.036825 
L 88.988399 150.178888 
L 89.076835 153.082268 
L 89.165272 152.673368 
L 89.342145 154.729417 
L 89.430582 150.468534 
L 89.519019 153.541005 
L 89.607455 153.252887 
L 89.695892 154.047884 
L 89.784329 153.221521 
L 89.872765 157.529723 
L 89.961202 153.094144 
L 90.049639 153.105956 
L 90.138075 153.719639 
L 90.226512 152.286897 
L 90.314949 153.258499 
L 90.580259 151.457767 
L 90.668695 156.405868 
L 90.757132 153.771418 
L 90.934005 156.854523 
L 91.110879 156.005299 
L 91.199315 152.021546 
L 91.376189 155.868476 
L 91.464625 152.495104 
L 91.553062 156.850053 
L 91.641499 153.87183 
L 91.729935 154.718095 
L 91.818372 157.23884 
L 91.906809 153.758638 
L 91.995245 154.088209 
L 92.083682 159.464586 
L 92.172119 159.319989 
L 92.348992 157.695213 
L 92.437429 154.642871 
L 92.525865 158.348511 
L 92.702739 156.17702 
L 92.879612 156.881276 
L 92.968049 151.822996 
L 93.056485 152.38766 
L 93.144922 157.442403 
L 93.233359 153.846978 
L 93.321795 158.250233 
L 93.410232 155.974018 
L 93.498669 156.195668 
L 93.587105 157.353976 
L 93.675542 160.419466 
L 93.852415 158.130023 
L 93.940852 160.923388 
L 94.029289 157.204323 
L 94.117725 160.657207 
L 94.206162 160.566254 
L 94.294599 158.355498 
L 94.383035 160.081078 
L 94.471472 156.160799 
L 94.559909 160.528903 
L 94.648345 159.672401 
L 94.736782 160.938658 
L 94.825219 158.104388 
L 95.002092 163.682613 
L 95.178965 157.744165 
L 95.267402 160.102455 
L 95.444275 155.663322 
L 95.709585 161.29942 
L 95.798022 156.32119 
L 95.886459 159.419437 
L 95.974895 159.074247 
L 96.063332 160.946566 
L 96.240205 158.796526 
L 96.417079 159.891131 
L 96.505515 157.962154 
L 96.593952 163.666172 
L 96.682389 158.261665 
L 96.770825 164.483451 
L 96.859262 158.358277 
L 97.036135 164.264114 
L 97.124572 161.184435 
L 97.213009 162.58963 
L 97.301445 160.562379 
L 97.389882 162.326009 
L 97.478319 160.166494 
L 97.566755 163.733347 
L 97.655192 161.725638 
L 97.743629 163.788373 
L 97.920502 158.313802 
L 98.008939 164.440767 
L 98.097375 157.513556 
L 98.274249 162.428627 
L 98.539559 158.695781 
L 98.627995 162.386477 
L 98.716432 159.731699 
L 98.804869 165.13306 
L 98.893305 160.017544 
L 98.981742 163.575114 
L 99.158615 161.545503 
L 99.247052 165.072529 
L 99.335489 161.325883 
L 99.512362 165.360222 
L 99.600799 164.237865 
L 99.689235 166.974995 
L 99.866109 160.954411 
L 99.954545 161.513106 
L 100.042982 165.988966 
L 100.308292 161.482369 
L 100.396729 168.015323 
L 100.573602 165.413557 
L 100.662039 167.698208 
L 100.750475 163.326471 
L 100.838912 165.698976 
L 100.927349 162.423845 
L 101.015785 166.330592 
L 101.369532 160.481356 
L 101.546405 165.307144 
L 101.634842 166.904505 
L 101.723279 162.85651 
L 101.900152 166.270971 
L 101.988589 165.608215 
L 102.077025 162.176049 
L 102.165462 165.653567 
L 102.253899 163.36925 
L 102.342335 164.669801 
L 102.519209 168.790397 
L 102.607645 169.514936 
L 102.784519 163.781039 
L 102.961392 169.197402 
L 103.138266 166.286788 
L 103.226702 165.563008 
L 103.315139 169.005795 
L 103.403576 163.435298 
L 103.492012 163.739012 
L 103.580449 162.306207 
L 103.668886 166.093291 
L 103.757322 164.948219 
L 103.845759 167.317889 
L 103.934196 163.678383 
L 104.111069 167.852899 
L 104.287942 162.781174 
L 104.553252 168.830142 
L 104.641689 168.896058 
L 104.730126 169.319081 
L 104.995436 163.394231 
L 105.083872 169.232991 
L 105.172309 162.740748 
L 105.349182 167.656832 
L 105.526056 170.639823 
L 105.614492 170.235207 
L 105.791366 167.516633 
L 105.879802 167.962605 
L 106.056676 166.73999 
L 106.145112 164.192074 
L 106.233549 171.388335 
L 106.321986 167.134796 
L 106.498859 168.93449 
L 106.587296 167.771302 
L 106.675732 169.068378 
L 106.764169 166.619333 
L 106.852606 167.339716 
L 107.029479 169.908562 
L 107.117916 169.993262 
L 107.206352 168.419059 
L 107.383226 171.105106 
L 107.471662 170.092366 
L 107.560099 170.92566 
L 107.648536 166.105603 
L 107.736972 172.255098 
L 107.825409 169.328369 
L 107.913846 174.347717 
L 108.090719 171.158649 
L 108.179156 170.372964 
L 108.267592 167.640782 
L 108.356029 170.990184 
L 108.444466 169.872926 
L 108.532902 174.483548 
L 108.709776 167.160743 
L 108.798212 172.042818 
L 108.886649 169.806332 
L 108.975086 174.627995 
L 109.063522 168.640487 
L 109.151959 172.25666 
L 109.240396 169.679392 
L 109.328832 172.759494 
L 109.505706 171.377305 
L 109.594142 174.593203 
L 109.682579 171.428257 
L 109.859452 174.172859 
L 109.947889 174.123997 
L 110.036326 171.506549 
L 110.124762 175.531041 
L 110.213199 171.727435 
L 110.301636 175.834939 
L 110.566946 169.034833 
L 110.655382 174.555205 
L 110.743819 167.891913 
L 110.832256 174.616457 
L 110.920692 173.94952 
L 111.009129 170.710678 
L 111.097566 171.783071 
L 111.186002 170.686628 
L 111.451312 174.315633 
L 111.539749 172.440298 
L 111.628186 173.546982 
L 111.716622 171.114702 
L 111.893496 174.548778 
L 111.981932 172.9462 
L 112.070369 177.723109 
L 112.247242 172.886108 
L 112.600989 177.503927 
L 112.689426 171.263356 
L 112.866299 177.203444 
L 112.954736 169.069671 
L 113.043172 174.822224 
L 113.131609 174.074481 
L 113.220046 171.005885 
L 113.308482 175.997028 
L 113.485356 169.411232 
L 113.573792 174.086459 
L 113.662229 171.828862 
L 113.750666 172.445524 
L 113.839102 172.074866 
L 113.927539 174.672266 
L 114.104412 169.926448 
L 114.281286 174.229227 
L 114.369722 172.821107 
L 114.458159 175.455875 
L 114.546596 174.637177 
L 114.635032 171.658718 
L 114.723469 175.532125 
L 114.811906 171.769021 
L 114.900342 175.420942 
L 115.077216 173.224026 
L 115.165652 175.605223 
L 115.254089 171.934539 
L 115.430962 174.632066 
L 115.519399 170.366251 
L 115.607836 177.439253 
L 115.784709 170.492244 
L 115.873146 175.572491 
L 115.961582 174.585781 
L 116.050019 169.108161 
L 116.138456 173.512915 
L 116.226892 170.731705 
L 116.403766 176.479259 
L 116.580639 171.325493 
L 116.669076 171.566041 
L 116.845949 175.055884 
L 116.934386 173.196692 
L 117.022822 173.789927 
L 117.111259 172.551418 
L 117.199696 172.656756 
L 117.376569 176.831553 
L 117.553442 170.157454 
L 117.730316 176.477895 
L 117.818752 169.764733 
L 117.907189 174.807128 
L 118.172499 168.021819 
L 118.260936 174.278347 
L 118.349372 169.065894 
L 118.526246 177.33654 
L 118.614682 171.114945 
L 118.703119 172.496393 
L 118.791556 176.41705 
L 118.879992 175.232265 
L 119.056866 170.485339 
L 119.145302 177.33885 
L 119.233739 176.237918 
L 119.322176 177.335708 
L 119.410612 173.456169 
L 119.499049 174.628577 
L 119.587486 173.982908 
L 119.675922 177.45481 
L 119.764359 176.684082 
L 119.852796 173.420052 
L 119.941232 180.891269 
L 120.206542 172.970501 
L 120.294979 172.680137 
L 120.383416 172.772284 
L 120.471852 173.439062 
L 120.560289 180.636009 
L 120.737162 174.209374 
L 120.825599 180.382707 
L 120.914036 173.189541 
L 121.002472 173.515416 
L 121.179346 178.941098 
L 121.267782 175.555466 
L 121.356219 177.429339 
L 121.444656 171.227909 
L 121.621529 179.245115 
L 121.709966 173.884548 
L 121.798402 178.027812 
L 121.886839 175.764663 
L 121.975276 177.24201 
L 122.063712 174.713172 
L 122.152149 180.588833 
L 122.240586 175.177601 
L 122.329022 176.914519 
L 122.505896 184.326447 
L 122.594332 176.702046 
L 122.682769 179.734865 
L 122.859642 176.815957 
L 122.948079 182.692363 
L 123.036516 172.798472 
L 123.124952 174.58849 
L 123.213389 183.548022 
L 123.301826 178.462528 
L 123.390262 180.914258 
L 123.478699 175.091783 
L 123.744009 180.263401 
L 123.832446 175.129282 
L 124.009319 180.790753 
L 124.097756 178.503733 
L 124.186192 181.671002 
L 124.363066 179.074197 
L 124.628376 182.876496 
L 124.716812 179.65858 
L 124.805249 180.699227 
L 124.893686 170.422305 
L 124.982122 178.081176 
L 125.070559 177.346856 
L 125.158996 179.688674 
L 125.247432 179.612059 
L 125.335869 179.939076 
L 125.424306 185.064386 
L 125.689616 174.659793 
L 125.778052 179.810519 
L 125.866489 175.03781 
L 125.954926 182.510912 
L 126.131799 176.246676 
L 126.308672 178.587829 
L 126.397109 176.207402 
L 126.573983 182.549425 
L 126.662419 183.236976 
L 126.839293 177.719815 
L 126.927729 179.348171 
L 127.016166 174.830186 
L 127.193039 178.390397 
L 127.369913 180.766904 
L 127.458349 180.980395 
L 127.635223 178.120402 
L 127.723659 180.736072 
L 127.812096 179.120834 
L 127.900533 179.667182 
L 127.988969 181.484886 
L 128.077406 173.767947 
L 128.254279 183.206911 
L 128.342716 173.742228 
L 128.519589 177.333323 
L 128.608026 173.685088 
L 128.696463 183.422537 
L 128.784899 172.156232 
L 128.961773 179.514957 
L 129.050209 181.070311 
L 129.138646 178.953223 
L 129.227083 179.730491 
L 129.315519 177.077369 
L 129.492393 180.983492 
L 129.580829 180.630253 
L 129.669266 176.665585 
L 129.757703 177.419261 
L 129.846139 173.783553 
L 130.111449 179.149257 
L 130.199886 178.489347 
L 130.288323 181.017864 
L 130.376759 180.544434 
L 130.553633 175.967363 
L 130.730506 182.995061 
L 130.818943 175.42187 
L 130.907379 175.45483 
L 130.995816 179.938324 
L 131.084253 177.487139 
L 131.172689 180.516182 
L 131.261126 180.06551 
L 131.437999 180.588191 
L 131.526436 181.091856 
L 131.614873 178.81871 
L 131.703309 181.093251 
L 131.791746 176.620053 
L 131.880183 178.579042 
L 131.968619 176.647678 
L 132.057056 177.207215 
L 132.322366 183.346815 
L 132.410803 183.080518 
L 132.499239 177.444198 
L 132.587676 183.227679 
L 132.676113 183.172572 
L 132.852986 180.67741 
L 132.941423 176.460412 
L 133.029859 179.393337 
L 133.118296 174.889351 
L 133.206733 181.320928 
L 133.295169 178.306381 
L 133.383606 179.47008 
L 133.560479 176.082616 
L 133.737353 179.095712 
L 133.825789 179.232942 
L 133.914226 171.993856 
L 134.002663 179.042031 
L 134.179536 176.857061 
L 134.267973 181.645237 
L 134.444846 177.859518 
L 134.533283 183.142069 
L 134.621719 175.975617 
L 134.710156 185.83179 
L 134.975466 175.68459 
L 135.063903 176.005835 
L 135.152339 181.26164 
L 135.329213 177.659146 
L 135.417649 182.602348 
L 135.506086 180.227173 
L 135.594523 180.984504 
L 135.682959 184.083547 
L 135.771396 180.818199 
L 135.859833 181.496299 
L 136.036706 180.131596 
L 136.125143 183.361203 
L 136.213579 175.908234 
L 136.478889 184.212747 
L 136.655763 173.007188 
L 136.744199 174.538937 
L 136.832636 178.40845 
L 137.009509 175.029866 
L 137.097946 180.20875 
L 137.186383 172.577583 
L 137.363256 180.190933 
L 137.451693 174.467907 
L 137.628566 179.970653 
L 137.717003 174.95324 
L 137.805439 179.999881 
L 137.893876 174.185948 
L 137.982313 181.609967 
L 138.070749 180.06932 
L 138.159186 178.940073 
L 138.247623 173.420612 
L 138.424496 179.917022 
L 138.512933 180.664854 
L 138.601369 183.369403 
L 138.689806 181.453031 
L 138.778243 173.428523 
L 138.955116 182.695035 
L 139.043553 174.596746 
L 139.220426 179.935037 
L 139.397299 177.6553 
L 139.485736 179.395591 
L 139.574173 174.208319 
L 139.662609 180.118334 
L 139.751046 176.667269 
L 139.839483 180.831604 
L 139.927919 178.586929 
L 140.016356 181.113719 
L 140.104793 177.735011 
L 140.193229 181.027717 
L 140.281666 177.980214 
L 140.370103 178.706484 
L 140.458539 181.427101 
L 140.546976 173.748675 
L 140.812286 181.061305 
L 140.900723 181.170133 
L 140.989159 183.601232 
L 141.077596 179.670423 
L 141.166033 183.817683 
L 141.254469 181.514917 
L 141.342906 170.445203 
L 141.519779 175.235745 
L 141.608216 175.0137 
L 141.696653 169.595234 
L 141.785089 183.347031 
L 141.961963 171.224159 
L 142.050399 178.647297 
L 142.138836 178.498405 
L 142.227273 178.291223 
L 142.315709 171.918403 
L 142.404146 184.10308 
L 142.492583 175.00284 
L 142.581019 180.46528 
L 142.846329 172.613639 
L 143.111639 183.717911 
L 143.288513 177.852449 
L 143.465386 171.620113 
L 143.553823 178.664281 
L 143.642259 178.606303 
L 143.730696 179.38049 
L 143.819133 177.620125 
L 143.907569 182.630976 
L 143.996006 172.012343 
L 144.084443 176.432171 
L 144.172879 171.503414 
L 144.349753 174.929168 
L 144.526626 182.339761 
L 144.615063 175.249945 
L 144.703499 177.344565 
L 144.791936 168.885114 
L 144.968809 180.67277 
L 145.057246 172.74901 
L 145.234119 181.372301 
L 145.322556 178.850702 
L 145.410993 168.610813 
L 145.676303 180.260623 
L 145.764739 175.589972 
L 146.030049 182.850869 
L 146.118486 171.894953 
L 146.206923 174.127098 
L 146.472233 181.357879 
L 146.560669 180.445497 
L 146.649106 182.411199 
L 146.737543 172.297352 
L 146.914416 181.112585 
L 147.002853 176.56929 
L 147.091289 181.120786 
L 147.179726 177.956881 
L 147.268163 179.162582 
L 147.356599 184.68264 
L 147.445036 179.233185 
L 147.533473 183.508244 
L 147.621909 175.50529 
L 147.710346 185.879698 
L 147.798783 174.407165 
L 147.887219 174.764044 
L 147.975656 176.991431 
L 148.064093 175.932902 
L 148.152529 172.622471 
L 148.240966 187.069734 
L 148.417839 176.948898 
L 148.506276 180.804076 
L 148.771586 174.773079 
L 148.860023 179.159217 
L 148.948459 176.568035 
L 149.036896 180.806767 
L 149.125333 178.058393 
L 149.213769 178.23397 
L 149.302206 176.513494 
L 149.390643 181.385688 
L 149.479079 179.700245 
L 149.567516 188.81628 
L 149.74439 176.567413 
L 149.832826 179.776425 
L 149.921263 179.257032 
L 150.0097 178.650572 
L 150.098136 176.048636 
L 150.186573 181.515365 
L 150.451883 177.108725 
L 150.54032 180.321495 
L 150.80563 177.426092 
L 150.894066 185.400848 
L 151.07094 174.608851 
L 151.247813 179.575178 
L 151.33625 179.105487 
L 151.424686 175.831601 
L 151.60156 182.406072 
L 151.689996 181.929542 
L 151.778433 178.670346 
L 151.86687 180.262022 
L 151.955306 179.162867 
L 152.043743 175.884638 
L 152.220616 181.023577 
L 152.39749 177.304217 
L 152.574363 183.296372 
L 152.6628 175.880949 
L 152.751236 181.169879 
L 152.839673 179.051906 
L 152.92811 179.39797 
L 153.016546 179.282153 
L 153.19342 175.244574 
L 153.370293 182.973223 
L 153.45873 180.95634 
L 153.547166 183.447728 
L 153.635603 173.870038 
L 153.72404 184.208928 
L 153.812476 183.640058 
L 153.900913 178.211103 
L 153.98935 185.769345 
L 154.077786 179.789058 
L 154.166223 180.578691 
L 154.25466 179.354499 
L 154.343096 180.355062 
L 154.431533 178.66986 
L 154.51997 179.674472 
L 154.608406 182.189917 
L 154.696843 181.824396 
L 154.78528 183.42736 
L 154.873716 180.066892 
L 154.962153 181.059362 
L 155.05059 180.799591 
L 155.139026 186.139469 
L 155.227463 176.372833 
L 155.404336 182.286903 
L 155.492773 176.475214 
L 155.58121 183.438718 
L 155.669646 180.312277 
L 155.758083 181.092277 
L 155.84652 183.117802 
L 155.934956 179.431682 
L 156.11183 182.821811 
L 156.200266 182.551625 
L 156.465576 178.393289 
L 156.64245 182.005427 
L 156.730886 182.582337 
L 156.819323 179.798648 
L 156.90776 180.086107 
L 157.17307 181.323711 
L 157.261506 184.41251 
L 157.349943 176.386504 
L 157.526816 182.1115 
L 157.615253 179.960866 
L 157.70369 181.43241 
L 157.792126 178.548269 
L 157.969 184.104034 
L 158.057436 178.821191 
L 158.145873 183.451084 
L 158.322746 178.860115 
L 158.49962 182.872849 
L 158.588056 182.887442 
L 158.676493 184.716092 
L 158.76493 182.508911 
L 158.853366 186.994703 
L 158.941803 178.074811 
L 159.118676 185.413509 
L 159.207113 182.390002 
L 159.29555 185.935107 
L 159.383986 180.817149 
L 159.472423 186.32696 
L 159.56086 184.925981 
L 159.914606 178.67582 
L 160.003043 179.070795 
L 160.09148 187.036945 
L 160.179916 180.94389 
L 160.268353 187.343872 
L 160.35679 174.951251 
L 160.6221 188.284649 
L 160.975846 180.149465 
L 161.064283 187.801651 
L 161.15272 178.12119 
L 161.241156 188.680995 
L 161.41803 182.192559 
L 161.506466 189.003445 
L 161.594903 182.963691 
L 161.68334 183.451786 
L 161.771776 183.734868 
L 161.860213 190.417366 
L 161.94865 183.616382 
L 162.037086 184.532517 
L 162.125523 187.180207 
L 162.21396 186.002079 
L 162.302396 182.978791 
L 162.390833 190.905216 
L 162.47927 189.793056 
L 162.656143 183.69438 
L 162.833016 189.4833 
L 162.921453 187.445059 
L 163.00989 191.964806 
L 163.098326 183.429332 
L 163.2752 191.321041 
L 163.363636 181.737825 
L 163.452073 192.527472 
L 163.54051 183.413946 
L 163.628946 193.104519 
L 163.717383 192.110806 
L 163.80582 192.645182 
L 163.894256 188.963977 
L 163.982693 190.277649 
L 164.07113 184.789128 
L 164.159566 185.778591 
L 164.248003 189.640947 
L 164.33644 189.026545 
L 164.424876 186.520851 
L 164.513313 195.503642 
L 164.690186 188.928119 
L 164.86706 193.011375 
L 165.043933 188.838379 
L 165.13237 193.275381 
L 165.220806 190.330791 
L 165.309243 193.614749 
L 165.39768 191.493234 
L 165.486116 186.417259 
L 165.751426 198.08294 
L 165.839863 186.707674 
L 165.9283 188.246481 
L 166.016736 189.15502 
L 166.105173 193.502996 
L 166.19361 185.198235 
L 166.282046 194.657849 
L 166.370483 191.327062 
L 166.45892 196.637341 
L 166.635793 182.332726 
L 166.72423 199.722684 
L 166.812666 186.6428 
L 166.901103 189.232716 
L 166.98954 188.796808 
L 167.077976 203.273058 
L 167.166413 202.717238 
L 167.343286 189.738328 
L 167.431723 198.692381 
L 167.52016 196.050072 
L 167.608596 198.226709 
L 167.697033 186.780171 
L 167.78547 189.440571 
L 167.873906 202.637313 
L 167.962343 190.808936 
L 168.139216 194.623592 
L 168.227653 194.44664 
L 168.31609 190.333026 
L 168.404526 198.15106 
L 168.492963 193.42716 
L 168.669836 202.919696 
L 168.84671 195.776865 
L 169.023583 194.60157 
L 169.11202 199.397015 
L 169.200456 185.34584 
L 169.37733 196.929843 
L 169.554203 191.562144 
L 169.64264 208.106464 
L 169.819513 188.473807 
L 169.90795 202.020908 
L 169.996386 193.145534 
L 170.084823 195.436224 
L 170.17326 205.307179 
L 170.350133 188.50667 
L 170.527006 197.136875 
L 170.615443 192.241307 
L 170.70388 200.990089 
L 170.792316 192.311223 
L 170.880753 203.328017 
L 170.96919 202.7595 
L 171.146063 186.874653 
L 171.322936 200.61882 
L 171.411373 199.501591 
L 171.588246 204.364535 
L 171.676683 197.468162 
L 171.76512 198.092546 
L 171.853556 200.602902 
L 171.941993 197.032063 
L 172.384176 209.263032 
L 172.472613 199.744512 
L 172.56105 208.614682 
L 172.737923 189.923341 
L 172.82636 194.90568 
L 172.914797 201.490715 
L 173.003233 200.840662 
L 173.09167 202.370859 
L 173.268543 209.283581 
L 173.35698 198.663946 
L 173.533853 209.645463 
L 173.62229 209.63762 
L 173.710727 206.505844 
L 173.799163 206.638717 
L 173.8876 204.803128 
L 173.976037 206.177551 
L 174.064473 203.66122 
L 174.15291 213.379947 
L 174.241347 201.917591 
L 174.41822 211.965335 
L 174.595093 202.940095 
L 174.68353 210.822291 
L 174.771967 206.620976 
L 174.860403 213.081975 
L 175.037277 205.020041 
L 175.125713 209.934365 
L 175.21415 206.251853 
L 175.302587 215.447427 
L 175.391023 213.908607 
L 175.47946 202.983356 
L 175.567897 223.949029 
L 175.74477 206.691474 
L 175.921643 209.950855 
L 176.186953 204.320133 
L 176.27539 216.233901 
L 176.363827 212.490822 
L 176.452263 203.532593 
L 176.717573 213.16891 
L 176.80601 205.780955 
L 177.07132 210.731753 
L 177.159757 209.704537 
L 177.513503 222.468353 
L 177.60194 215.156128 
L 177.690377 217.023047 
L 177.778813 210.457246 
L 177.86725 222.929934 
L 177.955687 208.306723 
L 178.13256 219.710502 
L 178.220997 223.505555 
L 178.309433 214.407017 
L 178.39787 217.621088 
L 178.486307 213.792028 
L 178.574743 221.530533 
L 178.751617 215.819551 
L 179.016927 226.813371 
L 179.1938 214.599363 
L 179.282237 216.65361 
L 179.370673 215.767893 
L 179.45911 216.626608 
L 179.547547 228.15827 
L 179.812857 214.070266 
L 179.98973 218.476103 
L 180.078167 218.140339 
L 180.166603 218.780132 
L 180.25504 215.132621 
L 180.431913 217.711468 
L 180.52035 215.40065 
L 180.697223 221.921767 
L 180.874097 216.993863 
L 180.962533 225.27692 
L 181.05097 219.873134 
L 181.139407 220.985707 
L 181.227843 226.459953 
L 181.31628 215.671755 
L 181.493153 220.849212 
L 181.670027 223.823747 
L 181.758463 231.794056 
L 181.8469 214.593335 
L 181.935337 223.72544 
L 182.023773 221.40694 
L 182.11221 230.090284 
L 182.200647 221.462027 
L 182.289083 222.341695 
L 182.37752 225.522309 
L 182.465957 225.439556 
L 182.554393 225.614221 
L 182.64283 220.474116 
L 182.731267 228.243475 
L 182.90814 222.547388 
L 182.996577 223.647075 
L 183.085013 222.043147 
L 183.261887 223.482602 
L 183.350323 236.19013 
L 183.43876 221.676715 
L 183.527197 229.408422 
L 183.615633 224.022998 
L 183.70407 226.088804 
L 183.880943 223.448915 
L 184.146253 231.392713 
L 184.23469 228.295217 
L 184.323127 233.435651 
L 184.5 230.578284 
L 184.588437 231.675591 
L 184.676873 225.002077 
L 184.76531 228.254077 
L 184.853747 225.448798 
L 184.942183 225.729864 
L 185.03062 233.646073 
L 185.119057 227.858552 
L 185.207493 236.157607 
L 185.29593 231.970597 
L 185.384367 238.141369 
L 185.56124 227.279056 
L 185.649677 229.875932 
L 185.914987 226.411124 
L 186.003423 229.772224 
L 186.09186 228.1968 
L 186.35717 234.194845 
L 186.445607 232.018957 
L 186.534043 234.301451 
L 186.710917 232.661834 
L 186.799353 233.667942 
L 186.88779 232.65798 
L 186.976227 240.184912 
L 187.064663 231.345717 
L 187.1531 234.327073 
L 187.241537 231.549572 
L 187.329973 238.312834 
L 187.41841 232.845632 
L 187.506847 236.603343 
L 187.595283 231.689527 
L 187.68372 235.354469 
L 187.772157 231.687816 
L 187.860593 233.053258 
L 188.125903 230.998539 
L 188.21434 231.271448 
L 188.302777 234.310897 
L 188.391213 230.397216 
L 188.47965 230.95074 
L 188.568087 231.08114 
L 188.656523 231.665611 
L 188.74496 226.07608 
L 188.921833 234.195968 
L 189.01027 231.234583 
L 189.098707 233.266844 
L 189.187143 231.360362 
L 189.27558 233.964878 
L 189.452453 225.557612 
L 189.629327 234.456181 
L 189.717763 228.370544 
L 189.983073 233.481066 
L 190.159947 234.534672 
L 190.248383 230.452286 
L 190.33682 231.487101 
L 190.513693 233.380063 
L 190.779003 229.723485 
L 190.86744 236.571217 
L 190.955877 229.24555 
L 191.13275 233.326813 
L 191.221187 228.933384 
L 191.309623 236.600291 
L 191.39806 231.98493 
L 191.486497 237.065896 
L 191.66337 231.602176 
L 191.840243 233.648308 
L 191.92868 233.771412 
L 192.017117 234.298128 
L 192.19399 230.177642 
L 192.282427 230.242808 
L 192.4593 236.532429 
L 192.547737 236.749421 
L 192.636173 231.699758 
L 192.72461 231.850037 
L 192.901483 232.481292 
L 193.078357 230.467627 
L 193.25523 235.228012 
L 193.343667 237.504024 
L 193.52054 232.375581 
L 193.608977 230.082233 
L 193.697413 235.12684 
L 193.874287 229.513021 
L 193.962723 239.090102 
L 194.139597 236.444136 
L 194.228033 235.323245 
L 194.31647 235.828256 
L 194.404907 235.63647 
L 194.493343 231.253148 
L 194.58178 232.434072 
L 194.670217 231.63695 
L 194.758653 240.116674 
L 194.935527 233.77443 
L 195.023963 235.76342 
L 195.1124 232.87734 
L 195.200837 232.991364 
L 195.289273 233.772486 
L 195.37771 231.388035 
L 195.466147 235.408291 
L 195.554583 228.765179 
L 195.90833 237.87996 
L 195.996767 236.642608 
L 196.085203 237.082042 
L 196.17364 232.797786 
L 196.262077 234.508932 
L 196.350514 231.850645 
L 196.43895 232.993993 
L 196.527387 231.677951 
L 196.70426 236.297491 
L 196.881134 228.980661 
L 197.146444 238.018818 
L 197.323317 233.335381 
L 197.411754 237.289485 
L 197.50019 234.377878 
L 197.588627 235.072929 
L 197.677064 234.517704 
L 197.7655 235.556374 
L 197.853937 235.257882 
L 197.942374 237.656089 
L 198.119247 235.157299 
L 198.207684 239.180032 
L 198.29612 237.461702 
L 198.384557 232.728032 
L 198.472994 233.301791 
L 198.649867 236.342434 
L 198.738304 243.143551 
L 198.82674 234.439073 
L 198.915177 234.544419 
L 199.003614 233.066096 
L 199.09205 235.782189 
L 199.180487 235.279888 
L 199.35736 233.388907 
L 199.62267 237.237993 
L 199.711107 232.906065 
L 199.799544 235.393464 
L 199.88798 234.935105 
L 199.976417 233.836017 
L 200.064854 238.100052 
L 200.15329 228.574493 
L 200.241727 237.642659 
L 200.330164 230.346513 
L 200.4186 231.14018 
L 200.507037 234.18036 
L 200.595474 231.584142 
L 200.68391 239.392817 
L 200.860784 231.54664 
L 200.94922 232.426214 
L 201.126094 234.644483 
L 201.21453 232.979827 
L 201.302967 235.067316 
L 201.391404 233.885554 
L 201.47984 236.585938 
L 201.568277 232.642246 
L 201.74515 236.143362 
L 201.833587 233.841776 
L 201.922024 234.771533 
L 202.01046 238.33959 
L 202.098897 230.790495 
L 202.187334 234.234845 
L 202.27577 232.426889 
L 202.364207 239.30601 
L 202.54108 234.360958 
L 202.629517 232.662216 
L 202.717954 238.141017 
L 202.80639 235.384455 
L 202.894827 236.346039 
L 202.983264 236.096046 
L 203.0717 236.608705 
L 203.248574 229.957126 
L 203.33701 234.102808 
L 203.425447 229.845105 
L 203.60232 235.296286 
L 203.779194 230.346942 
L 203.86763 234.528257 
L 203.956067 233.767016 
L 204.044504 231.522732 
L 204.13294 234.837969 
L 204.309814 230.590413 
L 204.39825 233.337143 
L 204.486687 230.042246 
L 204.751997 237.244995 
L 205.017307 232.527255 
L 205.105744 234.493337 
L 205.19418 239.992443 
L 205.282617 231.819669 
L 205.371054 236.008493 
L 205.547927 232.822339 
L 205.636364 233.818843 
L 205.7248 236.977815 
L 205.813237 232.918673 
L 205.901674 233.690805 
L 205.99011 234.91444 
L 206.078547 238.316624 
L 206.25542 232.016628 
L 206.343857 232.304353 
L 206.432294 235.248015 
L 206.52073 229.77851 
L 206.697604 236.723225 
L 206.874477 232.274089 
L 207.05135 236.246885 
L 207.228224 233.253042 
L 207.31666 231.48536 
L 207.493534 238.157476 
L 207.670407 232.459127 
L 207.84728 234.163259 
L 207.935717 234.384922 
L 208.11259 231.85444 
L 208.201027 236.636266 
L 208.289464 234.506179 
L 208.3779 229.650861 
L 208.731647 239.598625 
L 208.820084 228.818438 
L 208.90852 239.976581 
L 208.996957 230.138714 
L 209.085394 239.10482 
L 209.17383 234.533711 
L 209.350704 235.886432 
L 209.527577 228.466744 
L 209.792887 237.607803 
L 209.881324 232.998209 
L 210.058197 238.220392 
L 210.146634 231.34258 
L 210.23507 233.699343 
L 210.323507 230.229106 
L 210.411944 232.161868 
L 210.50038 237.067681 
L 210.588817 236.464305 
L 210.677254 228.761673 
L 210.854127 233.939284 
L 210.942564 229.260754 
L 211.119437 236.586552 
L 211.207874 232.169995 
L 211.29631 235.804885 
L 211.473184 227.684343 
L 211.56162 238.271844 
L 211.650057 228.302904 
L 211.738494 234.791053 
L 211.82693 227.927353 
L 211.915367 235.525059 
L 212.269114 228.659228 
L 212.445987 236.067317 
L 212.62286 230.495016 
L 212.711297 235.121407 
L 212.799734 227.173543 
L 212.88817 236.411201 
L 212.976607 226.563861 
L 213.065044 230.350878 
L 213.241917 227.166394 
L 213.41879 233.274678 
L 213.507227 234.739131 
L 213.595664 231.773228 
L 213.6841 233.20344 
L 213.772537 231.098312 
L 213.860974 233.996299 
L 213.94941 230.35964 
L 214.037847 235.643681 
L 214.126284 232.493303 
L 214.21472 236.006 
L 214.391594 226.567891 
L 214.568467 238.05516 
L 214.74534 231.05296 
L 214.833777 231.25554 
L 214.922214 232.75594 
L 215.187524 231.580789 
L 215.27596 235.41206 
L 215.452834 231.906544 
L 215.54127 230.286741 
L 215.629707 232.765965 
L 215.80658 229.36019 
L 215.895017 230.538657 
L 215.983454 229.410416 
L 216.07189 229.585786 
L 216.160327 233.250294 
L 216.248764 232.954188 
L 216.3372 232.337343 
L 216.425637 229.673806 
L 216.60251 233.679436 
L 216.690947 233.444982 
L 216.779384 227.702349 
L 216.86782 234.894569 
L 216.956257 223.986492 
L 217.13313 228.828983 
L 217.221567 225.979496 
L 217.310004 233.387507 
L 217.39844 231.051301 
L 217.486877 235.928326 
L 217.575314 234.195336 
L 217.66375 229.470915 
L 217.752187 230.511114 
L 217.840624 231.29258 
L 217.92906 224.60825 
L 218.017497 234.515589 
L 218.105934 226.671302 
L 218.19437 234.974296 
L 218.371244 226.137052 
L 218.45968 234.208794 
L 218.548117 230.977763 
L 218.636554 234.91466 
L 218.72499 230.495215 
L 218.813427 231.215 
L 218.901864 230.900022 
L 218.9903 227.077065 
L 219.167174 233.775104 
L 219.25561 234.893856 
L 219.344047 228.852781 
L 219.432484 230.291877 
L 219.520921 231.78966 
L 219.697794 228.928716 
L 219.786231 230.026508 
L 219.963104 225.96786 
L 220.139977 233.533835 
L 220.228414 228.747452 
L 220.316851 233.214575 
L 220.405287 228.268097 
L 220.493724 231.512188 
L 220.582161 227.797315 
L 220.759034 234.697653 
L 220.935907 228.556967 
L 221.024344 232.18952 
L 221.112781 226.997128 
L 221.201217 233.6432 
L 221.554964 225.510813 
L 221.731837 235.534066 
L 221.997147 227.934723 
L 222.085584 234.881424 
L 222.262457 227.998237 
L 222.350894 234.238045 
L 222.439331 229.725241 
L 222.616204 234.124101 
L 222.704641 231.427222 
L 222.793077 235.097722 
L 222.881514 227.50558 
L 222.969951 227.670266 
L 223.058387 232.8047 
L 223.146824 229.936813 
L 223.235261 231.396864 
L 223.323697 227.946795 
L 223.412134 235.932701 
L 223.589007 226.890261 
L 223.677444 233.986113 
L 223.854317 222.518708 
L 224.031191 230.297112 
L 224.119627 231.173803 
L 224.208064 235.15599 
L 224.296501 229.566825 
L 224.384937 231.292764 
L 224.473374 231.096074 
L 224.561811 229.152351 
L 224.650247 229.546838 
L 224.738684 229.26944 
L 224.827121 227.66468 
L 224.915557 231.486011 
L 225.003994 227.035694 
L 225.092431 229.706995 
L 225.269304 227.108504 
L 225.623051 232.176986 
L 225.888361 227.035349 
L 225.976797 228.55239 
L 226.065234 224.120567 
L 226.242107 230.75091 
L 226.330544 231.18976 
L 226.595854 227.869499 
L 226.772727 232.213441 
L 226.861164 227.406616 
L 226.949601 228.219906 
L 227.038037 233.117655 
L 227.126474 228.616923 
L 227.214911 231.709201 
L 227.303347 231.002807 
L 227.391784 227.864278 
L 227.480221 231.616288 
L 227.657094 229.333899 
L 227.745531 231.821137 
L 227.833967 230.593883 
L 227.922404 226.31176 
L 228.010841 228.832678 
L 228.099277 227.579549 
L 228.187714 227.845199 
L 228.276151 229.549496 
L 228.364587 234.067791 
L 228.541461 225.496024 
L 228.718334 233.820771 
L 228.806771 228.94307 
L 228.895207 232.568725 
L 228.983644 229.318572 
L 229.072081 232.155867 
L 229.160517 227.963445 
L 229.248954 232.151865 
L 229.337391 225.584136 
L 229.514264 232.381889 
L 229.602701 231.492551 
L 229.691137 228.282142 
L 229.779574 234.23303 
L 229.868011 230.777059 
L 229.956447 231.352094 
L 230.044884 230.951791 
L 230.133321 231.452905 
L 230.221757 229.653691 
L 230.310194 230.778837 
L 230.398631 225.974527 
L 230.487067 229.185083 
L 230.575504 226.604621 
L 230.663941 229.835662 
L 230.840814 222.18998 
L 231.017687 231.163623 
L 231.106124 232.815188 
L 231.194561 228.153193 
L 231.282997 229.270315 
L 231.371434 233.124131 
L 231.548307 225.264742 
L 231.636744 227.441578 
L 231.725181 232.998121 
L 231.813617 227.519599 
L 231.990491 229.993223 
L 232.167364 228.225597 
L 232.255801 232.72627 
L 232.432674 227.643608 
L 232.521111 232.282873 
L 232.609547 226.267152 
L 232.786421 233.541323 
L 232.874857 233.687591 
L 232.963294 227.015974 
L 233.140167 230.599746 
L 233.228604 230.119768 
L 233.317041 228.66533 
L 233.405477 231.195038 
L 233.493914 230.69919 
L 233.670787 225.549369 
L 233.759224 225.596733 
L 233.936097 233.007526 
L 234.112971 228.418553 
L 234.289844 227.250845 
L 234.378281 223.905691 
L 234.466717 231.579966 
L 234.732027 225.591818 
L 234.820464 233.355811 
L 234.997337 224.96913 
L 235.085774 230.128646 
L 235.174211 226.019146 
L 235.262647 229.335057 
L 235.351084 226.000952 
L 235.439521 231.106618 
L 235.527957 226.324451 
L 235.616394 230.096851 
L 235.704831 223.177403 
L 235.793267 228.969255 
L 235.881704 224.228413 
L 236.058577 231.608379 
L 236.147014 231.269703 
L 236.235451 228.126757 
L 236.412324 230.401505 
L 236.854507 223.73129 
L 236.942944 229.405694 
L 237.031381 228.018398 
L 237.119817 233.213922 
L 237.208254 228.627795 
L 237.296691 230.221096 
L 237.385127 223.305695 
L 237.562001 231.490188 
L 237.650437 227.731689 
L 237.738874 228.145814 
L 237.827311 232.160765 
L 238.092621 223.823955 
L 238.269494 230.352188 
L 238.357931 231.40138 
L 238.446367 230.433137 
L 238.534804 231.266049 
L 238.711677 229.872962 
L 238.800114 227.740762 
L 238.976987 234.446384 
L 239.065424 226.646429 
L 239.153861 232.345354 
L 239.242297 230.117821 
L 239.330734 231.263337 
L 239.419171 230.15218 
L 239.507607 231.376003 
L 239.596044 226.649131 
L 239.684481 227.66684 
L 239.772917 231.154683 
L 239.949791 227.42201 
L 240.038227 226.029917 
L 240.126664 234.217689 
L 240.215101 223.026597 
L 240.391974 232.605695 
L 240.480411 228.268272 
L 240.568847 228.444679 
L 240.657284 229.064668 
L 240.745721 228.987666 
L 240.834157 228.748511 
L 240.922594 225.042079 
L 241.187904 234.016238 
L 241.276341 228.345252 
L 241.453214 230.972861 
L 241.541651 231.71249 
L 241.630087 226.847531 
L 241.806961 231.574777 
L 241.895397 229.149895 
L 242.072271 233.19842 
L 242.160707 229.700926 
L 242.249144 231.049328 
L 242.337581 227.362197 
L 242.514454 230.352787 
L 242.602891 230.379957 
L 242.779764 232.701214 
L 242.868201 228.740936 
L 243.045074 230.878685 
L 243.133511 230.558944 
L 243.310384 232.610571 
L 243.487258 225.514045 
L 243.664131 230.552749 
L 243.752568 231.178979 
L 243.929441 228.762483 
L 244.017878 232.917919 
L 244.106314 231.25468 
L 244.194751 232.248619 
L 244.283188 226.608394 
L 244.371624 233.306763 
L 244.460061 226.294319 
L 244.548498 229.8939 
L 244.636934 228.207441 
L 244.725371 230.668053 
L 244.813808 227.981648 
L 244.902244 233.513085 
L 244.990681 226.636616 
L 245.079118 230.696347 
L 245.167554 228.312211 
L 245.255991 230.772214 
L 245.344428 226.612897 
L 245.521301 232.683278 
L 245.786611 229.259731 
L 246.051921 232.791842 
L 246.140358 232.696104 
L 246.228794 227.549488 
L 246.317231 228.289133 
L 246.494104 231.058824 
L 246.582541 227.289883 
L 246.759414 231.958006 
L 246.847851 231.597939 
L 246.936288 231.700683 
L 247.024724 231.5272 
L 247.113161 235.62331 
L 247.201598 231.420185 
L 247.290034 232.5284 
L 247.378471 231.245734 
L 247.466908 233.66628 
L 247.555344 231.103666 
L 247.643781 231.513565 
L 247.732218 231.74339 
L 247.820654 229.174541 
L 247.909091 229.835514 
L 247.997528 233.390645 
L 248.085964 230.841324 
L 248.174401 231.905711 
L 248.262838 230.58602 
L 248.351274 233.359492 
L 248.439711 230.019052 
L 248.705021 234.573257 
L 248.881894 229.188602 
L 248.970331 232.043622 
L 249.058768 230.514134 
L 249.147204 232.874075 
L 249.235641 229.545432 
L 249.412514 233.695849 
L 249.500951 229.054622 
L 249.677824 233.646977 
L 249.766261 226.60457 
L 249.854698 233.622306 
L 249.943134 229.712856 
L 250.031571 230.625704 
L 250.120008 230.288574 
L 250.208444 231.708296 
L 250.296881 237.718989 
L 250.385318 230.466297 
L 250.473754 231.561402 
L 250.562191 230.414418 
L 250.650628 232.020559 
L 250.739064 230.767311 
L 250.827501 231.372282 
L 251.004374 226.365058 
L 251.269684 233.017118 
L 251.358121 232.551094 
L 251.446558 230.683804 
L 251.623431 234.412992 
L 251.711868 230.254546 
L 251.800304 231.174949 
L 251.888741 234.00148 
L 251.977178 227.350414 
L 252.065614 229.282163 
L 252.154051 235.21193 
L 252.242488 228.54389 
L 252.330924 229.429382 
L 252.507798 234.985892 
L 252.684671 228.542839 
L 252.773108 234.886664 
L 252.949981 228.15998 
L 253.126854 232.78749 
L 253.215291 229.09733 
L 253.303728 234.213701 
L 253.392164 229.947285 
L 253.480601 233.118162 
L 253.657474 227.268144 
L 253.834348 231.405062 
L 254.099658 229.665529 
L 254.188094 230.805106 
L 254.276531 226.208585 
L 254.364968 229.501831 
L 254.453404 228.8507 
L 254.541841 231.650405 
L 254.630278 231.074029 
L 254.718714 232.20481 
L 254.807151 230.318208 
L 254.895588 231.164971 
L 254.984024 230.908679 
L 255.160898 234.631882 
L 255.249334 231.346693 
L 255.337771 236.068887 
L 255.426208 227.616335 
L 255.514644 235.326596 
L 255.603081 232.602483 
L 255.691518 233.323461 
L 255.779954 227.433273 
L 255.868391 235.072874 
L 256.045264 225.287925 
L 256.133701 225.683801 
L 256.222138 229.959766 
L 256.310574 229.767555 
L 256.399011 230.045696 
L 256.487448 230.874561 
L 256.575884 229.445583 
L 256.752758 234.239228 
L 256.841194 231.143321 
L 256.929631 233.958182 
L 257.018068 229.825892 
L 257.194941 237.824372 
L 257.283378 229.716428 
L 257.371814 230.812919 
L 257.460251 231.119316 
L 257.548688 235.296787 
L 257.637124 234.915131 
L 257.725561 235.57829 
L 257.813998 230.671112 
L 257.902434 231.667387 
L 257.990871 228.182756 
L 258.079308 233.826444 
L 258.344618 228.897999 
L 258.433054 232.672036 
L 258.521491 230.981372 
L 258.609928 231.692284 
L 258.698364 226.055467 
L 258.875238 231.866079 
L 258.963674 224.366251 
L 259.140548 236.569212 
L 259.228984 227.257733 
L 259.405858 232.83344 
L 259.494294 234.702775 
L 259.671168 228.807015 
L 259.759604 229.048096 
L 259.848041 233.841915 
L 260.024914 231.428102 
L 260.290224 235.070959 
L 260.467098 230.587203 
L 260.555534 227.198586 
L 260.643971 233.518834 
L 260.732408 230.8672 
L 260.997718 235.388562 
L 261.174591 229.665792 
L 261.263028 229.200661 
L 261.351464 232.818195 
L 261.439901 231.105745 
L 261.528338 231.79832 
L 261.616774 235.291496 
L 261.705211 228.794027 
L 261.793648 234.967318 
L 261.970521 227.790113 
L 262.058958 232.450026 
L 262.147394 231.308279 
L 262.412704 226.990713 
L 262.501141 234.502742 
L 262.589578 233.852361 
L 262.766451 227.966892 
L 262.943324 234.422181 
L 263.120198 228.255603 
L 263.208634 230.859473 
L 263.297071 230.584316 
L 263.385508 228.927965 
L 263.562381 234.03288 
L 263.650818 230.850693 
L 263.739254 234.111785 
L 263.827691 231.172569 
L 264.004564 234.064272 
L 264.093001 227.849004 
L 264.181438 231.149219 
L 264.269874 230.248165 
L 264.535184 235.301738 
L 264.712058 230.12166 
L 264.800494 230.625236 
L 264.888931 232.848076 
L 264.977368 232.070358 
L 265.065804 225.674252 
L 265.154241 228.556302 
L 265.242678 226.847728 
L 265.331114 231.662598 
L 265.419551 227.303962 
L 265.507988 231.404334 
L 265.596424 230.802296 
L 265.684861 232.050737 
L 265.773298 231.684104 
L 265.950171 229.071857 
L 266.038608 232.724488 
L 266.215481 228.133374 
L 266.392355 233.854644 
L 266.569228 229.424165 
L 266.834538 232.578821 
L 266.922975 228.331366 
L 267.011411 238.524073 
L 267.188285 230.969327 
L 267.365158 236.816867 
L 267.453595 229.10431 
L 267.542031 237.168744 
L 267.630468 235.091333 
L 267.718905 223.528519 
L 267.807341 229.827919 
L 267.895778 228.783076 
L 267.984215 233.416108 
L 268.072651 229.965003 
L 268.161088 230.210777 
L 268.249525 231.857335 
L 268.337961 228.740688 
L 268.426398 232.889627 
L 268.514835 224.960396 
L 268.603271 231.540467 
L 268.691708 230.129265 
L 268.780145 235.152466 
L 269.045455 230.644508 
L 269.133891 232.765616 
L 269.222328 230.272172 
L 269.399201 232.909979 
L 269.487638 230.247968 
L 269.576075 230.675324 
L 269.664511 230.129282 
L 269.752948 232.635233 
L 269.841385 226.902352 
L 270.018258 233.077028 
L 270.106695 230.218238 
L 270.195131 234.74987 
L 270.283568 233.836935 
L 270.460441 233.221386 
L 270.548878 227.773407 
L 270.725751 232.312345 
L 270.814188 229.888082 
L 270.991061 232.262731 
L 271.079498 226.352307 
L 271.344808 234.314207 
L 271.521681 231.153373 
L 271.610118 234.1674 
L 271.786991 225.639504 
L 271.963865 231.087563 
L 272.052301 231.666716 
L 272.140738 231.645441 
L 272.406048 226.618066 
L 272.494485 230.35951 
L 272.582921 229.857426 
L 272.671358 232.2655 
L 272.759795 227.939756 
L 272.936668 231.098607 
L 273.025105 229.534515 
L 273.113541 232.304175 
L 273.290415 225.343035 
L 273.555725 232.419789 
L 273.732598 227.285343 
L 273.821035 231.019349 
L 273.909471 229.090823 
L 274.086345 231.024113 
L 274.174781 230.124321 
L 274.263218 231.035747 
L 274.351655 230.569337 
L 274.440091 232.205209 
L 274.528528 226.507574 
L 274.616965 231.41518 
L 274.705401 228.060224 
L 274.793838 228.823151 
L 274.882275 233.638186 
L 274.970711 226.325969 
L 275.236021 235.239664 
L 275.324458 228.15852 
L 275.412895 229.284774 
L 275.501331 226.473304 
L 275.678205 231.812322 
L 275.766641 228.983421 
L 275.855078 229.157761 
L 276.031951 226.504641 
L 276.120388 233.594333 
L 276.208825 229.686823 
L 276.297261 231.080196 
L 276.385698 230.41495 
L 276.474135 225.825027 
L 276.651008 227.910712 
L 276.739445 232.231469 
L 277.004755 226.302147 
L 277.093191 231.735606 
L 277.181628 226.824083 
L 277.270065 231.230794 
L 277.358501 230.772158 
L 277.446938 227.229748 
L 277.535375 230.127531 
L 277.623811 226.716327 
L 277.889121 231.589785 
L 277.977558 229.566806 
L 278.065995 231.149884 
L 278.154431 226.941123 
L 278.331305 232.728146 
L 278.508178 227.123497 
L 278.596615 229.263891 
L 278.685051 227.057155 
L 278.773488 230.987187 
L 278.861925 230.533358 
L 278.950361 229.953054 
L 279.038798 226.537106 
L 279.215671 231.738584 
L 279.304108 225.077605 
L 279.569418 235.3194 
L 279.746291 224.429781 
L 279.834728 230.186853 
L 279.923165 227.860716 
L 280.011601 230.96216 
L 280.100038 227.179164 
L 280.188475 229.537745 
L 280.365348 226.678201 
L 280.453785 227.810903 
L 280.542221 227.006506 
L 280.630658 228.982029 
L 280.807531 225.788512 
L 280.984405 230.632885 
L 281.072841 230.573129 
L 281.338151 225.904575 
L 281.515025 232.363127 
L 281.691898 227.613206 
L 281.780335 229.373488 
L 281.868771 227.589466 
L 281.957208 230.581311 
L 282.045645 225.124261 
L 282.134081 227.261977 
L 282.222518 225.640841 
L 282.399391 228.676863 
L 282.487828 228.767022 
L 282.576265 230.971053 
L 282.664701 230.2206 
L 282.753138 227.74587 
L 282.841575 230.48921 
L 283.018448 225.767675 
L 283.106885 229.111416 
L 283.195321 228.885715 
L 283.372195 230.799336 
L 283.460631 230.094997 
L 283.549068 226.107338 
L 283.725941 231.59386 
L 283.814378 225.670383 
L 283.902815 230.428071 
L 283.991251 225.314683 
L 284.079688 230.113868 
L 284.168125 229.280906 
L 284.344998 226.856878 
L 284.610308 225.288581 
L 284.875618 229.906711 
L 284.964055 228.970613 
L 285.052491 229.621256 
L 285.140928 227.520289 
L 285.229365 228.456058 
L 285.406238 227.674611 
L 285.494675 230.733676 
L 285.671548 228.966756 
L 285.759985 226.487792 
L 285.848421 227.234655 
L 286.025295 226.433756 
L 286.113731 230.883499 
L 286.202168 224.736536 
L 286.379041 229.646393 
L 286.555915 224.860045 
L 286.644351 227.666475 
L 286.732788 225.488264 
L 286.821225 225.937073 
L 287.086535 229.428618 
L 287.174971 225.791562 
L 287.263408 230.100848 
L 287.351845 227.935837 
L 287.440281 229.491076 
L 287.528718 227.793558 
L 287.617155 223.677529 
L 287.794028 229.823499 
L 287.882465 229.823982 
L 287.970901 228.855246 
L 288.059338 225.012134 
L 288.236211 231.42098 
L 288.324648 226.655021 
L 288.413085 227.614012 
L 288.501521 226.484257 
L 288.589958 229.594768 
L 288.678395 220.93034 
L 288.855268 228.172732 
L 288.943705 225.962792 
L 289.032141 226.312764 
L 289.120578 230.610913 
L 289.209015 226.104266 
L 289.297452 226.860464 
L 289.385888 226.633544 
L 289.474325 227.531078 
L 289.562762 232.712687 
L 289.651198 231.665132 
L 289.739635 225.64094 
L 289.828072 230.370405 
L 289.916508 226.514794 
L 290.004945 227.483445 
L 290.093382 228.445095 
L 290.181818 224.128522 
L 290.270255 229.506828 
L 290.358692 226.202412 
L 290.447128 232.376901 
L 290.624002 225.861634 
L 290.712438 229.78329 
L 290.800875 228.958883 
L 290.889312 226.755421 
L 290.977748 229.189112 
L 291.154622 224.769858 
L 291.243058 232.336311 
L 291.331495 226.488998 
L 291.419932 226.686843 
L 291.508368 224.081152 
L 291.596805 228.248736 
L 291.685242 227.354966 
L 291.773678 226.604241 
L 291.862115 230.315134 
L 291.950552 226.394587 
L 292.127425 231.745876 
L 292.215862 228.613873 
L 292.304298 230.627476 
L 292.481172 229.30331 
L 292.569608 229.041791 
L 292.746482 229.843329 
L 292.834918 225.148572 
L 293.011792 233.126439 
L 293.100228 224.58526 
L 293.188665 230.012137 
L 293.277102 225.481076 
L 293.542412 229.06528 
L 293.630848 226.970723 
L 293.719285 228.552299 
L 293.807722 233.875786 
L 293.896158 225.690109 
L 293.984595 226.072609 
L 294.073032 223.359592 
L 294.161468 226.733261 
L 294.338342 224.623881 
L 294.426778 228.968332 
L 294.515215 227.694269 
L 294.603652 224.283875 
L 294.868962 229.043126 
L 294.957398 228.456614 
L 295.045835 224.110106 
L 295.222708 229.856651 
L 295.399582 220.919677 
L 295.576455 231.101166 
L 295.664892 231.587318 
L 295.753328 226.088733 
L 295.841765 227.254991 
L 295.930202 225.636626 
L 296.018638 228.118554 
L 296.107075 227.80098 
L 296.283948 225.229793 
L 296.372385 231.983084 
L 296.549258 224.618862 
L 296.637695 224.960366 
L 296.726132 224.602989 
L 296.903005 232.809822 
L 296.991442 226.291412 
L 297.079878 227.269467 
L 297.168315 227.454919 
L 297.256752 226.548774 
L 297.345188 223.647909 
L 297.433625 231.043694 
L 297.698935 225.417059 
L 297.787372 228.235561 
L 297.875808 224.574462 
L 297.964245 228.350339 
L 298.052682 222.806944 
L 298.141118 222.983059 
L 298.317992 231.10731 
L 298.406428 227.36081 
L 298.494865 228.379582 
L 298.583302 224.814034 
L 298.671738 229.390259 
L 298.760175 228.701538 
L 298.848612 224.177778 
L 299.025485 232.08505 
L 299.202358 224.737465 
L 299.290795 225.301318 
L 299.379232 228.883598 
L 299.467668 228.232627 
L 299.556105 227.149522 
L 299.644542 227.821684 
L 299.732978 226.393663 
L 299.821415 226.626146 
L 299.909852 226.098733 
L 299.998288 230.170196 
L 300.263598 224.479812 
L 300.440472 227.916927 
L 300.528908 225.473032 
L 300.617345 229.343492 
L 300.705782 224.527709 
L 300.794218 225.351149 
L 300.882655 227.882152 
L 300.971092 224.216464 
L 301.147965 227.911797 
L 301.236402 225.104163 
L 301.324838 228.628252 
L 301.413275 227.418049 
L 301.501712 229.796186 
L 301.590148 229.52673 
L 301.678585 224.85238 
L 301.767022 228.131347 
L 301.855458 226.903415 
L 301.943895 231.270366 
L 302.120768 224.61553 
L 302.297642 225.273719 
L 302.386078 223.946561 
L 302.474515 228.70395 
L 302.828262 222.351544 
L 303.005135 230.603045 
L 303.093572 224.65799 
L 303.182008 92.538239 
L 303.270445 199.9024 
L 303.358882 94.351407 
L 303.447318 198.917532 
L 303.535755 96.04568 
L 303.624192 208.782315 
L 303.712628 95.221454 
L 303.801065 217.36675 
L 303.889502 97.045424 
L 303.977938 198.457015 
L 304.066375 97.205742 
L 304.154812 198.0427 
L 304.243248 100.082613 
L 304.331685 199.30319 
L 304.420122 99.027632 
L 304.508558 195.560616 
L 304.596995 98.984156 
L 304.685432 245.924998 
L 304.773868 101.65766 
L 304.862305 201.568546 
L 304.950742 103.438752 
L 305.039178 180.512069 
L 305.127615 104.151438 
L 305.216052 229.394555 
L 305.304488 105.435677 
L 305.392925 203.104277 
L 305.481362 105.647374 
L 305.569798 207.599035 
L 305.658235 108.852938 
L 305.746672 209.777086 
L 305.835108 107.938185 
L 305.923545 201.274392 
L 306.011982 110.17713 
L 306.100418 196.165991 
L 306.188855 112.353722 
L 306.277292 229.321827 
L 306.365728 112.781928 
L 306.454165 187.393503 
L 306.542602 114.148506 
L 306.631038 178.302284 
L 306.719475 114.934812 
L 306.807912 205.245583 
L 306.896348 114.070609 
L 306.984785 179.160956 
L 307.073222 116.512136 
L 307.161658 205.208502 
L 307.250095 118.067312 
L 307.338532 192.535913 
L 307.426968 119.919274 
L 307.515405 187.209036 
L 307.603842 119.594162 
L 307.692278 185.750549 
L 307.780715 122.389634 
L 307.869152 184.016001 
L 307.957588 122.787402 
L 308.046025 216.75497 
L 308.134462 132.681391 
L 308.2048 289 
L 308.2048 289 
" style="fill:none;stroke:#ff0000;stroke-linecap:round;stroke-width:1.5;"/>
   </g>
   <g id="patch_3">
    <path d="M 45 252 
L 45 34.56 
" style="fill:none;stroke:#262626;stroke-linecap:square;stroke-linejoin:miter;stroke-width:1.25;"/>
   </g>
   <g id="patch_4">
    <path d="M 324 252 
L 324 34.56 
" style="fill:none;stroke:#262626;stroke-linecap:square;stroke-linejoin:miter;stroke-width:1.25;"/>
   </g>
   <g id="patch_5">
    <path d="M 45 252 
L 324 252 
" style="fill:none;stroke:#262626;stroke-linecap:square;stroke-linejoin:miter;stroke-width:1.25;"/>
   </g>
   <g id="patch_6">
    <path d="M 45 34.56 
L 324 34.56 
" style="fill:none;stroke:#262626;stroke-linecap:square;stroke-linejoin:miter;stroke-width:1.25;"/>
   </g>
  </g>
 </g>
 <defs>
  <clipPath id="p20264440f1">
   <rect height="217.44" width="279" x="45" y="34.56"/>
  </clipPath>
 </defs>
</svg>
