<?xml version="1.0" encoding="utf-8" standalone="no"?>
<!DOCTYPE svg PUBLIC "-//W3C//DTD SVG 1.1//EN"
  "http://www.w3.org/Graphics/SVG/1.1/DTD/svg11.dtd">
<!-- Created with matplotlib (http://matplotlib.org/) -->
<svg height="288pt" version="1.1" viewBox="0 0 360 288" width="360pt" xmlns="http://www.w3.org/2000/svg" xmlns:xlink="http://www.w3.org/1999/xlink">
 <defs>
  <style type="text/css">
*{stroke-linecap:butt;stroke-linejoin:round;}
  </style>
 </defs>
 <g id="figure_1">
  <g id="patch_1">
   <path d="M 0 288 
L 360 288 
L 360 0 
L 0 0 
z
" style="fill:#ffffff;"/>
  </g>
  <g id="axes_1">
   <g id="patch_2">
    <path d="M 45 252 
L 324 252 
L 324 34.56 
L 45 34.56 
z
" style="fill:#ffffff;"/>
   </g>
   <g id="matplotlib.axis_1">
    <g id="xtick_1">
     <g id="line2d_1">
      <path clip-path="url(#pd826cd1fef)" d="M 57.681818 252 
L 57.681818 34.56 
" style="fill:none;stroke:#cccccc;stroke-linecap:round;stroke-width:0.8;"/>
     </g>
     <g id="line2d_2"/>
     <g id="text_1">
      <!-- 0 -->
      <defs>
       <path d="M 3.609375 32.71875 
Q 3.609375 44.046875 7.03125 52.21875 
Q 10.453125 60.40625 16.109375 64.40625 
Q 20.515625 67.578125 25.203125 67.578125 
Q 32.8125 67.578125 38.875 59.8125 
Q 46.4375 50.203125 46.4375 33.734375 
Q 46.4375 22.21875 43.109375 14.15625 
Q 39.796875 6.109375 34.640625 2.46875 
Q 29.5 -1.171875 24.703125 -1.171875 
Q 15.234375 -1.171875 8.9375 10.015625 
Q 3.609375 19.4375 3.609375 32.71875 
z
M 13.1875 31.5 
Q 13.1875 17.828125 16.546875 9.1875 
Q 19.34375 1.90625 24.859375 1.90625 
Q 27.484375 1.90625 30.3125 4.265625 
Q 33.15625 6.640625 34.625 12.203125 
Q 36.859375 20.609375 36.859375 35.890625 
Q 36.859375 47.21875 34.515625 54.78125 
Q 32.765625 60.40625 29.984375 62.75 
Q 27.984375 64.359375 25.140625 64.359375 
Q 21.828125 64.359375 19.234375 61.375 
Q 15.71875 57.328125 14.453125 48.625 
Q 13.1875 39.9375 13.1875 31.5 
z
" id="TimesNewRomanPSMT-30"/>
      </defs>
      <g style="fill:#262626;" transform="translate(55.181818 262.44375)scale(0.1 -0.1)">
       <use xlink:href="#TimesNewRomanPSMT-30"/>
      </g>
     </g>
    </g>
    <g id="xtick_2">
     <g id="line2d_3">
      <path clip-path="url(#pd826cd1fef)" d="M 91.635816 252 
L 91.635816 34.56 
" style="fill:none;stroke:#cccccc;stroke-linecap:round;stroke-width:0.8;"/>
     </g>
     <g id="line2d_4"/>
     <g id="text_2">
      <!-- 100 -->
      <defs>
       <path d="M 11.71875 59.71875 
L 27.828125 67.578125 
L 29.4375 67.578125 
L 29.4375 11.671875 
Q 29.4375 6.109375 29.90625 4.734375 
Q 30.375 3.375 31.828125 2.640625 
Q 33.296875 1.90625 37.796875 1.8125 
L 37.796875 0 
L 12.890625 0 
L 12.890625 1.8125 
Q 17.578125 1.90625 18.9375 2.609375 
Q 20.3125 3.328125 20.84375 4.515625 
Q 21.390625 5.71875 21.390625 11.671875 
L 21.390625 47.40625 
Q 21.390625 54.640625 20.90625 56.6875 
Q 20.5625 58.25 19.65625 58.984375 
Q 18.75 59.71875 17.484375 59.71875 
Q 15.671875 59.71875 12.453125 58.203125 
z
" id="TimesNewRomanPSMT-31"/>
      </defs>
      <g style="fill:#262626;" transform="translate(84.135816 262.44375)scale(0.1 -0.1)">
       <use xlink:href="#TimesNewRomanPSMT-31"/>
       <use x="50" xlink:href="#TimesNewRomanPSMT-30"/>
       <use x="100" xlink:href="#TimesNewRomanPSMT-30"/>
      </g>
     </g>
    </g>
    <g id="xtick_3">
     <g id="line2d_5">
      <path clip-path="url(#pd826cd1fef)" d="M 125.589814 252 
L 125.589814 34.56 
" style="fill:none;stroke:#cccccc;stroke-linecap:round;stroke-width:0.8;"/>
     </g>
     <g id="line2d_6"/>
     <g id="text_3">
      <!-- 200 -->
      <defs>
       <path d="M 45.84375 12.75 
L 41.21875 0 
L 2.15625 0 
L 2.15625 1.8125 
Q 19.390625 17.53125 26.421875 27.484375 
Q 33.453125 37.453125 33.453125 45.703125 
Q 33.453125 52 29.59375 56.046875 
Q 25.734375 60.109375 20.359375 60.109375 
Q 15.484375 60.109375 11.59375 57.25 
Q 7.71875 54.390625 5.859375 48.875 
L 4.046875 48.875 
Q 5.28125 57.90625 10.328125 62.734375 
Q 15.375 67.578125 22.953125 67.578125 
Q 31 67.578125 36.390625 62.40625 
Q 41.796875 57.234375 41.796875 50.203125 
Q 41.796875 45.171875 39.453125 40.140625 
Q 35.84375 32.234375 27.734375 23.390625 
Q 15.578125 10.109375 12.546875 7.375 
L 29.828125 7.375 
Q 35.109375 7.375 37.234375 7.765625 
Q 39.359375 8.15625 41.0625 9.34375 
Q 42.78125 10.546875 44.046875 12.75 
z
" id="TimesNewRomanPSMT-32"/>
      </defs>
      <g style="fill:#262626;" transform="translate(118.089814 262.44375)scale(0.1 -0.1)">
       <use xlink:href="#TimesNewRomanPSMT-32"/>
       <use x="50" xlink:href="#TimesNewRomanPSMT-30"/>
       <use x="100" xlink:href="#TimesNewRomanPSMT-30"/>
      </g>
     </g>
    </g>
    <g id="xtick_4">
     <g id="line2d_7">
      <path clip-path="url(#pd826cd1fef)" d="M 159.543812 252 
L 159.543812 34.56 
" style="fill:none;stroke:#cccccc;stroke-linecap:round;stroke-width:0.8;"/>
     </g>
     <g id="line2d_8"/>
     <g id="text_4">
      <!-- 300 -->
      <defs>
       <path d="M 5.078125 53.609375 
Q 7.90625 60.296875 12.21875 63.9375 
Q 16.546875 67.578125 23 67.578125 
Q 30.953125 67.578125 35.203125 62.40625 
Q 38.421875 58.546875 38.421875 54.15625 
Q 38.421875 46.921875 29.34375 39.203125 
Q 35.453125 36.8125 38.578125 32.375 
Q 41.703125 27.9375 41.703125 21.921875 
Q 41.703125 13.328125 36.234375 7.03125 
Q 29.109375 -1.171875 15.578125 -1.171875 
Q 8.890625 -1.171875 6.46875 0.484375 
Q 4.046875 2.15625 4.046875 4.046875 
Q 4.046875 5.46875 5.1875 6.546875 
Q 6.34375 7.625 7.953125 7.625 
Q 9.1875 7.625 10.453125 7.234375 
Q 11.28125 6.984375 14.203125 5.4375 
Q 17.140625 3.90625 18.265625 3.609375 
Q 20.0625 3.078125 22.125 3.078125 
Q 27.09375 3.078125 30.78125 6.9375 
Q 34.46875 10.796875 34.46875 16.0625 
Q 34.46875 19.921875 32.765625 23.578125 
Q 31.5 26.3125 29.984375 27.734375 
Q 27.875 29.6875 24.21875 31.265625 
Q 20.5625 32.859375 16.75 32.859375 
L 15.1875 32.859375 
L 15.1875 34.328125 
Q 19.046875 34.8125 22.921875 37.109375 
Q 26.8125 39.40625 28.5625 42.625 
Q 30.328125 45.84375 30.328125 49.703125 
Q 30.328125 54.734375 27.171875 57.828125 
Q 24.03125 60.9375 19.34375 60.9375 
Q 11.765625 60.9375 6.6875 52.828125 
z
" id="TimesNewRomanPSMT-33"/>
      </defs>
      <g style="fill:#262626;" transform="translate(152.043812 262.44375)scale(0.1 -0.1)">
       <use xlink:href="#TimesNewRomanPSMT-33"/>
       <use x="50" xlink:href="#TimesNewRomanPSMT-30"/>
       <use x="100" xlink:href="#TimesNewRomanPSMT-30"/>
      </g>
     </g>
    </g>
    <g id="xtick_5">
     <g id="line2d_9">
      <path clip-path="url(#pd826cd1fef)" d="M 193.497809 252 
L 193.497809 34.56 
" style="fill:none;stroke:#cccccc;stroke-linecap:round;stroke-width:0.8;"/>
     </g>
     <g id="line2d_10"/>
     <g id="text_5">
      <!-- 400 -->
      <defs>
       <path d="M 46.53125 24.421875 
L 46.53125 17.484375 
L 37.640625 17.484375 
L 37.640625 0 
L 29.59375 0 
L 29.59375 17.484375 
L 1.5625 17.484375 
L 1.5625 23.734375 
L 32.28125 67.578125 
L 37.640625 67.578125 
L 37.640625 24.421875 
z
M 29.59375 24.421875 
L 29.59375 57.28125 
L 6.34375 24.421875 
z
" id="TimesNewRomanPSMT-34"/>
      </defs>
      <g style="fill:#262626;" transform="translate(185.997809 262.44375)scale(0.1 -0.1)">
       <use xlink:href="#TimesNewRomanPSMT-34"/>
       <use x="50" xlink:href="#TimesNewRomanPSMT-30"/>
       <use x="100" xlink:href="#TimesNewRomanPSMT-30"/>
      </g>
     </g>
    </g>
    <g id="xtick_6">
     <g id="line2d_11">
      <path clip-path="url(#pd826cd1fef)" d="M 227.451807 252 
L 227.451807 34.56 
" style="fill:none;stroke:#cccccc;stroke-linecap:round;stroke-width:0.8;"/>
     </g>
     <g id="line2d_12"/>
     <g id="text_6">
      <!-- 500 -->
      <defs>
       <path d="M 43.40625 66.21875 
L 39.59375 57.90625 
L 19.671875 57.90625 
L 15.328125 49.03125 
Q 28.265625 47.125 35.84375 39.40625 
Q 42.328125 32.765625 42.328125 23.78125 
Q 42.328125 18.5625 40.203125 14.109375 
Q 38.09375 9.671875 34.859375 6.546875 
Q 31.640625 3.421875 27.6875 1.515625 
Q 22.078125 -1.171875 16.15625 -1.171875 
Q 10.203125 -1.171875 7.484375 0.84375 
Q 4.78125 2.875 4.78125 5.328125 
Q 4.78125 6.6875 5.90625 7.734375 
Q 7.03125 8.796875 8.734375 8.796875 
Q 10.015625 8.796875 10.96875 8.40625 
Q 11.921875 8.015625 14.203125 6.390625 
Q 17.875 3.859375 21.625 3.859375 
Q 27.34375 3.859375 31.65625 8.171875 
Q 35.984375 12.5 35.984375 18.703125 
Q 35.984375 24.703125 32.125 29.90625 
Q 28.265625 35.109375 21.484375 37.9375 
Q 16.15625 40.140625 6.984375 40.484375 
L 19.671875 66.21875 
z
" id="TimesNewRomanPSMT-35"/>
      </defs>
      <g style="fill:#262626;" transform="translate(219.951807 262.44375)scale(0.1 -0.1)">
       <use xlink:href="#TimesNewRomanPSMT-35"/>
       <use x="50" xlink:href="#TimesNewRomanPSMT-30"/>
       <use x="100" xlink:href="#TimesNewRomanPSMT-30"/>
      </g>
     </g>
    </g>
    <g id="xtick_7">
     <g id="line2d_13">
      <path clip-path="url(#pd826cd1fef)" d="M 261.405805 252 
L 261.405805 34.56 
" style="fill:none;stroke:#cccccc;stroke-linecap:round;stroke-width:0.8;"/>
     </g>
     <g id="line2d_14"/>
     <g id="text_7">
      <!-- 600 -->
      <defs>
       <path d="M 44.828125 67.578125 
L 44.828125 65.765625 
Q 38.375 65.140625 34.296875 63.203125 
Q 30.21875 61.28125 26.234375 57.328125 
Q 22.265625 53.375 19.65625 48.515625 
Q 17.046875 43.65625 15.28125 36.96875 
Q 22.3125 41.796875 29.390625 41.796875 
Q 36.1875 41.796875 41.15625 36.328125 
Q 46.140625 30.859375 46.140625 22.265625 
Q 46.140625 13.96875 41.109375 7.125 
Q 35.0625 -1.171875 25.09375 -1.171875 
Q 18.3125 -1.171875 13.578125 3.328125 
Q 4.296875 12.0625 4.296875 25.984375 
Q 4.296875 34.859375 7.859375 42.859375 
Q 11.421875 50.875 18.03125 57.078125 
Q 24.65625 63.28125 30.703125 65.421875 
Q 36.765625 67.578125 42 67.578125 
z
M 14.453125 33.40625 
Q 13.578125 26.8125 13.578125 22.75 
Q 13.578125 18.0625 15.3125 12.5625 
Q 17.046875 7.078125 20.453125 3.859375 
Q 22.953125 1.5625 26.515625 1.5625 
Q 30.765625 1.5625 34.109375 5.5625 
Q 37.453125 9.578125 37.453125 17 
Q 37.453125 25.34375 34.125 31.4375 
Q 30.8125 37.546875 24.703125 37.546875 
Q 22.859375 37.546875 20.734375 36.765625 
Q 18.609375 35.984375 14.453125 33.40625 
z
" id="TimesNewRomanPSMT-36"/>
      </defs>
      <g style="fill:#262626;" transform="translate(253.905805 262.44375)scale(0.1 -0.1)">
       <use xlink:href="#TimesNewRomanPSMT-36"/>
       <use x="50" xlink:href="#TimesNewRomanPSMT-30"/>
       <use x="100" xlink:href="#TimesNewRomanPSMT-30"/>
      </g>
     </g>
    </g>
    <g id="xtick_8">
     <g id="line2d_15">
      <path clip-path="url(#pd826cd1fef)" d="M 295.359803 252 
L 295.359803 34.56 
" style="fill:none;stroke:#cccccc;stroke-linecap:round;stroke-width:0.8;"/>
     </g>
     <g id="line2d_16"/>
     <g id="text_8">
      <!-- 700 -->
      <defs>
       <path d="M 10.0625 66.21875 
L 45.5625 66.21875 
L 45.5625 64.359375 
L 23.484375 -1.375 
L 18.015625 -1.375 
L 37.796875 58.25 
L 19.578125 58.25 
Q 14.0625 58.25 11.71875 56.9375 
Q 7.625 54.6875 5.125 50 
L 3.71875 50.53125 
z
" id="TimesNewRomanPSMT-37"/>
      </defs>
      <g style="fill:#262626;" transform="translate(287.859803 262.44375)scale(0.1 -0.1)">
       <use xlink:href="#TimesNewRomanPSMT-37"/>
       <use x="50" xlink:href="#TimesNewRomanPSMT-30"/>
       <use x="100" xlink:href="#TimesNewRomanPSMT-30"/>
      </g>
     </g>
    </g>
    <g id="text_9">
     <!-- Cycle No. -->
     <defs>
      <path d="M 60.203125 67.71875 
L 61.71875 45.21875 
L 60.203125 45.21875 
Q 57.171875 55.328125 51.5625 59.765625 
Q 45.953125 64.203125 38.09375 64.203125 
Q 31.5 64.203125 26.171875 60.859375 
Q 20.84375 57.515625 17.796875 50.1875 
Q 14.75 42.875 14.75 31.984375 
Q 14.75 23 17.625 16.40625 
Q 20.515625 9.8125 26.296875 6.296875 
Q 32.078125 2.78125 39.5 2.78125 
Q 45.953125 2.78125 50.875 5.53125 
Q 55.8125 8.296875 61.71875 16.5 
L 63.234375 15.53125 
Q 58.25 6.6875 51.609375 2.578125 
Q 44.96875 -1.515625 35.84375 -1.515625 
Q 19.390625 -1.515625 10.359375 10.6875 
Q 3.609375 19.78125 3.609375 32.078125 
Q 3.609375 42 8.046875 50.296875 
Q 12.5 58.59375 20.28125 63.15625 
Q 28.078125 67.71875 37.3125 67.71875 
Q 44.484375 67.71875 51.46875 64.203125 
Q 53.515625 63.140625 54.390625 63.140625 
Q 55.71875 63.140625 56.6875 64.0625 
Q 57.953125 65.375 58.5 67.71875 
z
" id="TimesNewRomanPSMT-43"/>
      <path d="M 0.59375 44.734375 
L 21.4375 44.734375 
L 21.4375 42.921875 
L 20.40625 42.921875 
Q 18.21875 42.921875 17.109375 41.96875 
Q 16.015625 41.015625 16.015625 39.59375 
Q 16.015625 37.703125 17.625 34.328125 
L 28.515625 11.765625 
L 38.53125 36.46875 
Q 39.359375 38.484375 39.359375 40.4375 
Q 39.359375 41.3125 39.015625 41.75 
Q 38.625 42.28125 37.796875 42.59375 
Q 36.96875 42.921875 34.859375 42.921875 
L 34.859375 44.734375 
L 49.421875 44.734375 
L 49.421875 42.921875 
Q 47.609375 42.71875 46.625 42.125 
Q 45.65625 41.546875 44.484375 39.9375 
Q 44.046875 39.265625 42.828125 36.1875 
L 24.609375 -8.453125 
Q 21.96875 -14.9375 17.6875 -18.25 
Q 13.421875 -21.578125 9.46875 -21.578125 
Q 6.59375 -21.578125 4.734375 -19.921875 
Q 2.875 -18.265625 2.875 -16.109375 
Q 2.875 -14.0625 4.21875 -12.8125 
Q 5.5625 -11.578125 7.90625 -11.578125 
Q 9.515625 -11.578125 12.3125 -12.640625 
Q 14.265625 -13.375 14.75 -13.375 
Q 16.21875 -13.375 17.9375 -11.859375 
Q 19.671875 -10.359375 21.4375 -6 
L 24.609375 1.765625 
L 8.546875 35.5 
Q 7.8125 37.015625 6.203125 39.265625 
Q 4.984375 40.96875 4.203125 41.546875 
Q 3.078125 42.328125 0.59375 42.921875 
z
" id="TimesNewRomanPSMT-79"/>
      <path d="M 41.109375 17 
Q 39.3125 8.15625 34.03125 3.390625 
Q 28.765625 -1.375 22.359375 -1.375 
Q 14.75 -1.375 9.078125 5.015625 
Q 3.421875 11.421875 3.421875 22.3125 
Q 3.421875 32.859375 9.6875 39.453125 
Q 15.96875 46.046875 24.75 46.046875 
Q 31.34375 46.046875 35.59375 42.546875 
Q 39.84375 39.0625 39.84375 35.296875 
Q 39.84375 33.453125 38.640625 32.296875 
Q 37.453125 31.15625 35.296875 31.15625 
Q 32.421875 31.15625 30.953125 33.015625 
Q 30.125 34.03125 29.859375 36.90625 
Q 29.59375 39.796875 27.875 41.3125 
Q 26.171875 42.78125 23.140625 42.78125 
Q 18.265625 42.78125 15.28125 39.15625 
Q 11.328125 34.375 11.328125 26.515625 
Q 11.328125 18.5 15.25 12.375 
Q 19.1875 6.25 25.875 6.25 
Q 30.671875 6.25 34.46875 9.515625 
Q 37.15625 11.765625 39.703125 17.671875 
z
" id="TimesNewRomanPSMT-63"/>
      <path d="M 18.5 69.4375 
L 18.5 10.109375 
Q 18.5 5.90625 19.109375 4.53125 
Q 19.734375 3.171875 21 2.46875 
Q 22.265625 1.765625 25.734375 1.765625 
L 25.734375 0 
L 3.8125 0 
L 3.8125 1.765625 
Q 6.890625 1.765625 8 2.390625 
Q 9.125 3.03125 9.765625 4.484375 
Q 10.40625 5.953125 10.40625 10.109375 
L 10.40625 50.734375 
Q 10.40625 58.296875 10.0625 60.03125 
Q 9.71875 61.765625 8.953125 62.390625 
Q 8.203125 63.03125 7.03125 63.03125 
Q 5.765625 63.03125 3.8125 62.25 
L 2.984375 63.96875 
L 16.3125 69.4375 
z
" id="TimesNewRomanPSMT-6c"/>
      <path d="M 10.640625 27.875 
Q 10.59375 17.921875 15.484375 12.25 
Q 20.359375 6.59375 26.953125 6.59375 
Q 31.34375 6.59375 34.59375 9 
Q 37.84375 11.421875 40.046875 17.28125 
L 41.546875 16.3125 
Q 40.53125 9.625 35.59375 4.125 
Q 30.671875 -1.375 23.25 -1.375 
Q 15.1875 -1.375 9.453125 4.90625 
Q 3.71875 11.1875 3.71875 21.78125 
Q 3.71875 33.25 9.59375 39.671875 
Q 15.484375 46.09375 24.359375 46.09375 
Q 31.890625 46.09375 36.71875 41.140625 
Q 41.546875 36.1875 41.546875 27.875 
z
M 10.640625 30.71875 
L 31.34375 30.71875 
Q 31.109375 35.015625 30.328125 36.765625 
Q 29.109375 39.5 26.6875 41.0625 
Q 24.265625 42.625 21.625 42.625 
Q 17.578125 42.625 14.375 39.46875 
Q 11.1875 36.328125 10.640625 30.71875 
z
" id="TimesNewRomanPSMT-65"/>
      <path id="TimesNewRomanPSMT-20"/>
      <path d="M -1.3125 66.21875 
L 16.65625 66.21875 
L 57.125 16.546875 
L 57.125 54.734375 
Q 57.125 60.84375 55.765625 62.359375 
Q 53.953125 64.40625 50.046875 64.40625 
L 47.75 64.40625 
L 47.75 66.21875 
L 70.796875 66.21875 
L 70.796875 64.40625 
L 68.453125 64.40625 
Q 64.265625 64.40625 62.5 61.859375 
Q 61.421875 60.296875 61.421875 54.734375 
L 61.421875 -1.078125 
L 59.671875 -1.078125 
L 16.015625 52.25 
L 16.015625 11.46875 
Q 16.015625 5.375 17.328125 3.859375 
Q 19.1875 1.8125 23.046875 1.8125 
L 25.390625 1.8125 
L 25.390625 0 
L 2.34375 0 
L 2.34375 1.8125 
L 4.640625 1.8125 
Q 8.890625 1.8125 10.640625 4.34375 
Q 11.71875 5.90625 11.71875 11.46875 
L 11.71875 57.515625 
Q 8.84375 60.890625 7.34375 61.953125 
Q 5.859375 63.03125 2.984375 63.96875 
Q 1.5625 64.40625 -1.3125 64.40625 
z
" id="TimesNewRomanPSMT-4e"/>
      <path d="M 25 46.046875 
Q 35.15625 46.046875 41.3125 38.328125 
Q 46.53125 31.734375 46.53125 23.1875 
Q 46.53125 17.1875 43.640625 11.03125 
Q 40.765625 4.890625 35.71875 1.75 
Q 30.671875 -1.375 24.46875 -1.375 
Q 14.359375 -1.375 8.40625 6.6875 
Q 3.375 13.484375 3.375 21.921875 
Q 3.375 28.078125 6.421875 34.15625 
Q 9.46875 40.234375 14.453125 43.140625 
Q 19.4375 46.046875 25 46.046875 
z
M 23.484375 42.875 
Q 20.90625 42.875 18.28125 41.328125 
Q 15.671875 39.796875 14.0625 35.9375 
Q 12.453125 32.078125 12.453125 26.03125 
Q 12.453125 16.265625 16.328125 9.171875 
Q 20.21875 2.09375 26.5625 2.09375 
Q 31.296875 2.09375 34.375 6 
Q 37.453125 9.90625 37.453125 19.4375 
Q 37.453125 31.34375 32.328125 38.1875 
Q 28.859375 42.875 23.484375 42.875 
z
" id="TimesNewRomanPSMT-6f"/>
      <path d="M 12.5 9.46875 
Q 14.796875 9.46875 16.359375 7.875 
Q 17.921875 6.296875 17.921875 4.046875 
Q 17.921875 1.8125 16.328125 0.21875 
Q 14.75 -1.375 12.5 -1.375 
Q 10.25 -1.375 8.65625 0.21875 
Q 7.078125 1.8125 7.078125 4.046875 
Q 7.078125 6.34375 8.65625 7.90625 
Q 10.25 9.46875 12.5 9.46875 
z
" id="TimesNewRomanPSMT-2e"/>
     </defs>
     <g style="fill:#262626;" transform="translate(164.225781 275.526563)scale(0.1 -0.1)">
      <use xlink:href="#TimesNewRomanPSMT-43"/>
      <use x="66.699219" xlink:href="#TimesNewRomanPSMT-79"/>
      <use x="116.699219" xlink:href="#TimesNewRomanPSMT-63"/>
      <use x="161.083984" xlink:href="#TimesNewRomanPSMT-6c"/>
      <use x="188.867188" xlink:href="#TimesNewRomanPSMT-65"/>
      <use x="233.251953" xlink:href="#TimesNewRomanPSMT-20"/>
      <use x="258.251953" xlink:href="#TimesNewRomanPSMT-4e"/>
      <use x="330.46875" xlink:href="#TimesNewRomanPSMT-6f"/>
      <use x="380.46875" xlink:href="#TimesNewRomanPSMT-2e"/>
     </g>
    </g>
   </g>
   <g id="matplotlib.axis_2">
    <g id="ytick_1">
     <g id="line2d_17">
      <path clip-path="url(#pd826cd1fef)" d="M 45 229.506207 
L 324 229.506207 
" style="fill:none;stroke:#cccccc;stroke-linecap:round;stroke-width:0.8;"/>
     </g>
     <g id="line2d_18"/>
     <g id="text_10">
      <!-- 0.014 -->
      <g style="fill:#262626;" transform="translate(19 232.978082)scale(0.1 -0.1)">
       <use xlink:href="#TimesNewRomanPSMT-30"/>
       <use x="50" xlink:href="#TimesNewRomanPSMT-2e"/>
       <use x="75" xlink:href="#TimesNewRomanPSMT-30"/>
       <use x="125" xlink:href="#TimesNewRomanPSMT-31"/>
       <use x="175" xlink:href="#TimesNewRomanPSMT-34"/>
      </g>
     </g>
    </g>
    <g id="ytick_2">
     <g id="line2d_19">
      <path clip-path="url(#pd826cd1fef)" d="M 45 199.514483 
L 324 199.514483 
" style="fill:none;stroke:#cccccc;stroke-linecap:round;stroke-width:0.8;"/>
     </g>
     <g id="line2d_20"/>
     <g id="text_11">
      <!-- 0.016 -->
      <g style="fill:#262626;" transform="translate(19 202.986358)scale(0.1 -0.1)">
       <use xlink:href="#TimesNewRomanPSMT-30"/>
       <use x="50" xlink:href="#TimesNewRomanPSMT-2e"/>
       <use x="75" xlink:href="#TimesNewRomanPSMT-30"/>
       <use x="125" xlink:href="#TimesNewRomanPSMT-31"/>
       <use x="175" xlink:href="#TimesNewRomanPSMT-36"/>
      </g>
     </g>
    </g>
    <g id="ytick_3">
     <g id="line2d_21">
      <path clip-path="url(#pd826cd1fef)" d="M 45 169.522759 
L 324 169.522759 
" style="fill:none;stroke:#cccccc;stroke-linecap:round;stroke-width:0.8;"/>
     </g>
     <g id="line2d_22"/>
     <g id="text_12">
      <!-- 0.018 -->
      <defs>
       <path d="M 19.1875 33.34375 
Q 11.328125 39.796875 9.046875 43.703125 
Q 6.78125 47.609375 6.78125 51.8125 
Q 6.78125 58.25 11.765625 62.90625 
Q 16.75 67.578125 25 67.578125 
Q 33.015625 67.578125 37.890625 63.234375 
Q 42.78125 58.890625 42.78125 53.328125 
Q 42.78125 49.609375 40.140625 45.75 
Q 37.5 41.890625 29.15625 36.671875 
Q 37.75 30.03125 40.53125 26.21875 
Q 44.234375 21.234375 44.234375 15.71875 
Q 44.234375 8.734375 38.90625 3.78125 
Q 33.59375 -1.171875 24.953125 -1.171875 
Q 15.53125 -1.171875 10.25 4.734375 
Q 6.0625 9.46875 6.0625 15.09375 
Q 6.0625 19.484375 9.015625 23.796875 
Q 11.96875 28.125 19.1875 33.34375 
z
M 26.859375 38.578125 
Q 32.71875 43.84375 34.28125 46.890625 
Q 35.84375 49.953125 35.84375 53.8125 
Q 35.84375 58.9375 32.953125 61.84375 
Q 30.078125 64.75 25.09375 64.75 
Q 20.125 64.75 17 61.859375 
Q 13.875 58.984375 13.875 55.125 
Q 13.875 52.59375 15.15625 50.046875 
Q 16.453125 47.515625 18.84375 45.21875 
z
M 21.484375 31.5 
Q 17.4375 28.078125 15.484375 24.046875 
Q 13.53125 20.015625 13.53125 15.328125 
Q 13.53125 9.03125 16.96875 5.25 
Q 20.40625 1.46875 25.734375 1.46875 
Q 31 1.46875 34.171875 4.4375 
Q 37.359375 7.421875 37.359375 11.671875 
Q 37.359375 15.1875 35.5 17.96875 
Q 32.03125 23.140625 21.484375 31.5 
z
" id="TimesNewRomanPSMT-38"/>
      </defs>
      <g style="fill:#262626;" transform="translate(19 172.994634)scale(0.1 -0.1)">
       <use xlink:href="#TimesNewRomanPSMT-30"/>
       <use x="50" xlink:href="#TimesNewRomanPSMT-2e"/>
       <use x="75" xlink:href="#TimesNewRomanPSMT-30"/>
       <use x="125" xlink:href="#TimesNewRomanPSMT-31"/>
       <use x="175" xlink:href="#TimesNewRomanPSMT-38"/>
      </g>
     </g>
    </g>
    <g id="ytick_4">
     <g id="line2d_23">
      <path clip-path="url(#pd826cd1fef)" d="M 45 139.531034 
L 324 139.531034 
" style="fill:none;stroke:#cccccc;stroke-linecap:round;stroke-width:0.8;"/>
     </g>
     <g id="line2d_24"/>
     <g id="text_13">
      <!-- 0.020 -->
      <g style="fill:#262626;" transform="translate(19 143.002909)scale(0.1 -0.1)">
       <use xlink:href="#TimesNewRomanPSMT-30"/>
       <use x="50" xlink:href="#TimesNewRomanPSMT-2e"/>
       <use x="75" xlink:href="#TimesNewRomanPSMT-30"/>
       <use x="125" xlink:href="#TimesNewRomanPSMT-32"/>
       <use x="175" xlink:href="#TimesNewRomanPSMT-30"/>
      </g>
     </g>
    </g>
    <g id="ytick_5">
     <g id="line2d_25">
      <path clip-path="url(#pd826cd1fef)" d="M 45 109.53931 
L 324 109.53931 
" style="fill:none;stroke:#cccccc;stroke-linecap:round;stroke-width:0.8;"/>
     </g>
     <g id="line2d_26"/>
     <g id="text_14">
      <!-- 0.022 -->
      <g style="fill:#262626;" transform="translate(19 113.011185)scale(0.1 -0.1)">
       <use xlink:href="#TimesNewRomanPSMT-30"/>
       <use x="50" xlink:href="#TimesNewRomanPSMT-2e"/>
       <use x="75" xlink:href="#TimesNewRomanPSMT-30"/>
       <use x="125" xlink:href="#TimesNewRomanPSMT-32"/>
       <use x="175" xlink:href="#TimesNewRomanPSMT-32"/>
      </g>
     </g>
    </g>
    <g id="ytick_6">
     <g id="line2d_27">
      <path clip-path="url(#pd826cd1fef)" d="M 45 79.547586 
L 324 79.547586 
" style="fill:none;stroke:#cccccc;stroke-linecap:round;stroke-width:0.8;"/>
     </g>
     <g id="line2d_28"/>
     <g id="text_15">
      <!-- 0.024 -->
      <g style="fill:#262626;" transform="translate(19 83.019461)scale(0.1 -0.1)">
       <use xlink:href="#TimesNewRomanPSMT-30"/>
       <use x="50" xlink:href="#TimesNewRomanPSMT-2e"/>
       <use x="75" xlink:href="#TimesNewRomanPSMT-30"/>
       <use x="125" xlink:href="#TimesNewRomanPSMT-32"/>
       <use x="175" xlink:href="#TimesNewRomanPSMT-34"/>
      </g>
     </g>
    </g>
    <g id="ytick_7">
     <g id="line2d_29">
      <path clip-path="url(#pd826cd1fef)" d="M 45 49.555862 
L 324 49.555862 
" style="fill:none;stroke:#cccccc;stroke-linecap:round;stroke-width:0.8;"/>
     </g>
     <g id="line2d_30"/>
     <g id="text_16">
      <!-- 0.026 -->
      <g style="fill:#262626;" transform="translate(19 53.027737)scale(0.1 -0.1)">
       <use xlink:href="#TimesNewRomanPSMT-30"/>
       <use x="50" xlink:href="#TimesNewRomanPSMT-2e"/>
       <use x="75" xlink:href="#TimesNewRomanPSMT-30"/>
       <use x="125" xlink:href="#TimesNewRomanPSMT-32"/>
       <use x="175" xlink:href="#TimesNewRomanPSMT-36"/>
      </g>
     </g>
    </g>
    <g id="text_17">
     <!-- RSE -->
     <defs>
      <path d="M 67.578125 0 
L 49.90625 0 
L 27.484375 30.953125 
Q 25 30.859375 23.4375 30.859375 
Q 22.796875 30.859375 22.0625 30.875 
Q 21.34375 30.90625 20.5625 30.953125 
L 20.5625 11.71875 
Q 20.5625 5.46875 21.921875 3.953125 
Q 23.78125 1.8125 27.484375 1.8125 
L 30.078125 1.8125 
L 30.078125 0 
L 1.703125 0 
L 1.703125 1.8125 
L 4.203125 1.8125 
Q 8.40625 1.8125 10.203125 4.546875 
Q 11.234375 6.0625 11.234375 11.71875 
L 11.234375 54.5 
Q 11.234375 60.75 9.859375 62.25 
Q 7.953125 64.40625 4.203125 64.40625 
L 1.703125 64.40625 
L 1.703125 66.21875 
L 25.828125 66.21875 
Q 36.375 66.21875 41.375 64.671875 
Q 46.390625 63.140625 49.875 59.015625 
Q 53.375 54.890625 53.375 49.171875 
Q 53.375 43.0625 49.390625 38.5625 
Q 45.40625 34.078125 37.0625 32.234375 
L 50.734375 13.234375 
Q 55.421875 6.6875 58.78125 4.53125 
Q 62.15625 2.390625 67.578125 1.8125 
z
M 20.5625 34.03125 
Q 21.484375 34.03125 22.171875 34 
Q 22.859375 33.984375 23.296875 33.984375 
Q 32.765625 33.984375 37.578125 38.078125 
Q 42.390625 42.1875 42.390625 48.53125 
Q 42.390625 54.734375 38.5 58.609375 
Q 34.625 62.5 28.21875 62.5 
Q 25.390625 62.5 20.5625 61.578125 
z
" id="TimesNewRomanPSMT-52"/>
      <path d="M 45.84375 67.71875 
L 45.84375 44.828125 
L 44.046875 44.828125 
Q 43.171875 51.421875 40.890625 55.328125 
Q 38.625 59.234375 34.421875 61.515625 
Q 30.21875 63.8125 25.734375 63.8125 
Q 20.65625 63.8125 17.328125 60.71875 
Q 14.015625 57.625 14.015625 53.65625 
Q 14.015625 50.640625 16.109375 48.140625 
Q 19.140625 44.484375 30.515625 38.375 
Q 39.796875 33.40625 43.1875 30.734375 
Q 46.578125 28.078125 48.40625 24.453125 
Q 50.25 20.84375 50.25 16.890625 
Q 50.25 9.375 44.40625 3.921875 
Q 38.578125 -1.515625 29.390625 -1.515625 
Q 26.515625 -1.515625 23.96875 -1.078125 
Q 22.46875 -0.828125 17.703125 0.703125 
Q 12.9375 2.25 11.671875 2.25 
Q 10.453125 2.25 9.734375 1.515625 
Q 9.03125 0.78125 8.6875 -1.515625 
L 6.890625 -1.515625 
L 6.890625 21.1875 
L 8.6875 21.1875 
Q 9.96875 14.0625 12.109375 10.515625 
Q 14.265625 6.984375 18.671875 4.640625 
Q 23.09375 2.296875 28.375 2.296875 
Q 34.46875 2.296875 38 5.515625 
Q 41.546875 8.734375 41.546875 13.140625 
Q 41.546875 15.578125 40.203125 18.0625 
Q 38.875 20.5625 36.03125 22.703125 
Q 34.125 24.171875 25.625 28.921875 
Q 17.140625 33.6875 13.546875 36.515625 
Q 9.96875 39.359375 8.109375 42.765625 
Q 6.25 46.1875 6.25 50.296875 
Q 6.25 57.421875 11.71875 62.5625 
Q 17.1875 67.71875 25.640625 67.71875 
Q 30.90625 67.71875 36.8125 65.140625 
Q 39.546875 63.921875 40.671875 63.921875 
Q 41.9375 63.921875 42.75 64.671875 
Q 43.5625 65.4375 44.046875 67.71875 
z
" id="TimesNewRomanPSMT-53"/>
      <path d="M 20.90625 62.59375 
L 20.90625 36.421875 
L 35.453125 36.421875 
Q 41.109375 36.421875 43.015625 38.140625 
Q 45.5625 40.375 45.84375 46.046875 
L 47.65625 46.046875 
L 47.65625 23 
L 45.84375 23 
Q 45.171875 27.828125 44.484375 29.203125 
Q 43.609375 30.90625 41.59375 31.875 
Q 39.59375 32.859375 35.453125 32.859375 
L 20.90625 32.859375 
L 20.90625 11.03125 
Q 20.90625 6.640625 21.296875 5.6875 
Q 21.6875 4.734375 22.65625 4.171875 
Q 23.640625 3.609375 26.375 3.609375 
L 37.59375 3.609375 
Q 43.21875 3.609375 45.75 4.390625 
Q 48.296875 5.171875 50.640625 7.46875 
Q 53.65625 10.5 56.84375 16.609375 
L 58.796875 16.609375 
L 53.078125 0 
L 2.046875 0 
L 2.046875 1.8125 
L 4.390625 1.8125 
Q 6.734375 1.8125 8.84375 2.9375 
Q 10.40625 3.71875 10.96875 5.28125 
Q 11.53125 6.84375 11.53125 11.671875 
L 11.53125 54.6875 
Q 11.53125 60.984375 10.25 62.453125 
Q 8.5 64.40625 4.390625 64.40625 
L 2.046875 64.40625 
L 2.046875 66.21875 
L 53.078125 66.21875 
L 53.8125 51.703125 
L 51.90625 51.703125 
Q 50.875 56.9375 49.625 58.890625 
Q 48.390625 60.84375 45.953125 61.859375 
Q 44 62.59375 39.0625 62.59375 
z
" id="TimesNewRomanPSMT-45"/>
     </defs>
     <g style="fill:#262626;" transform="translate(12.860938 152.449531)rotate(-90)scale(0.1 -0.1)">
      <use xlink:href="#TimesNewRomanPSMT-52"/>
      <use x="66.699219" xlink:href="#TimesNewRomanPSMT-53"/>
      <use x="122.314453" xlink:href="#TimesNewRomanPSMT-45"/>
     </g>
    </g>
   </g>
   <g id="line2d_31">
    <path clip-path="url(#pd826cd1fef)" d="M 57.681818 48.752654 
L 58.021358 59.075591 
L 58.360898 60.011812 
L 58.700438 60.112712 
L 59.379518 61.344464 
L 59.719058 61.397992 
L 60.058598 62.529916 
L 60.398138 62.740138 
L 60.737678 63.14497 
L 61.077218 64.010492 
L 61.756298 64.81184 
L 62.095838 66.133155 
L 62.435378 65.994979 
L 62.774918 66.17164 
L 63.114458 66.58688 
L 63.453998 67.608045 
L 63.793538 67.393361 
L 64.133078 68.581071 
L 64.472618 68.797376 
L 64.812158 68.438172 
L 65.830778 70.973056 
L 66.170318 70.387805 
L 66.509858 71.923092 
L 66.849398 70.892045 
L 67.528478 72.929204 
L 67.868018 72.823358 
L 68.207558 72.931401 
L 68.547097 73.795149 
L 68.886637 73.814225 
L 69.226177 75.361168 
L 69.565717 74.678443 
L 69.905257 76.430338 
L 70.244797 75.974238 
L 70.923877 77.47073 
L 71.263417 76.926543 
L 71.942497 77.752552 
L 72.282037 77.67262 
L 72.621577 78.738488 
L 72.961117 80.54111 
L 73.300657 80.391985 
L 73.640197 81.126841 
L 73.979737 81.034408 
L 74.319277 81.858371 
L 74.658817 83.387709 
L 74.998357 82.294405 
L 75.337897 84.597801 
L 75.677437 81.920439 
L 76.696057 84.932998 
L 77.035597 83.135546 
L 77.375137 85.745301 
L 77.714677 86.111546 
L 78.054217 87.188276 
L 78.393757 87.437432 
L 79.072837 89.89926 
L 79.412377 89.578245 
L 79.751917 88.836209 
L 80.091457 90.01409 
L 80.430997 89.682452 
L 80.770537 89.099316 
L 81.449617 90.798092 
L 81.789157 90.062797 
L 82.128697 92.703828 
L 82.468237 92.949841 
L 82.807777 90.403277 
L 83.147317 94.677182 
L 83.486857 94.51669 
L 83.826396 92.968526 
L 84.165936 93.525095 
L 84.505476 94.489748 
L 84.845016 94.184818 
L 85.184556 95.026497 
L 85.524096 97.049617 
L 86.203176 96.763942 
L 86.542716 95.485831 
L 86.882256 98.889713 
L 87.221796 98.198107 
L 87.561336 99.701652 
L 87.900876 95.604926 
L 88.240416 99.451009 
L 88.579956 97.989655 
L 88.919496 102.952267 
L 89.259036 97.435969 
L 89.598576 99.913132 
L 89.938116 101.483824 
L 90.277656 99.071056 
L 90.617196 103.485033 
L 90.956736 101.955769 
L 91.296276 101.175715 
L 91.635816 103.026124 
L 91.975356 103.718514 
L 92.314896 101.415541 
L 92.654436 104.979012 
L 92.993976 102.793385 
L 93.673056 104.850856 
L 94.012596 103.117266 
L 94.352136 101.966563 
L 94.691676 102.844564 
L 95.031216 107.407864 
L 95.370756 104.244256 
L 95.710296 104.203999 
L 96.049836 105.283196 
L 96.389376 108.756067 
L 96.728916 104.909267 
L 97.068456 107.694251 
L 97.407996 107.972714 
L 97.747536 107.687236 
L 98.087076 105.10423 
L 98.426616 108.917494 
L 98.766156 105.928086 
L 99.445235 109.214725 
L 99.784775 106.795224 
L 100.124315 110.701583 
L 100.463855 108.793511 
L 100.803395 114.01669 
L 101.142935 110.082364 
L 101.482475 112.140405 
L 101.822015 109.976841 
L 102.161555 110.288731 
L 102.501095 106.425545 
L 102.840635 108.495511 
L 103.180175 112.517943 
L 103.519715 109.486228 
L 103.859255 112.42165 
L 104.198795 114.369029 
L 104.538335 106.830251 
L 104.877875 113.844278 
L 105.217415 108.374587 
L 105.556955 109.597299 
L 105.896495 112.656161 
L 106.236035 114.281724 
L 106.575575 114.145759 
L 106.915115 114.888369 
L 107.254655 113.632838 
L 107.594195 111.022075 
L 107.933735 109.38573 
L 108.273275 114.414442 
L 108.612815 116.032223 
L 108.952355 112.166219 
L 109.291895 112.763726 
L 109.631435 118.106954 
L 109.970975 113.876017 
L 110.310515 111.201494 
L 110.650055 116.023608 
L 110.989595 113.480036 
L 111.329135 117.322134 
L 111.668675 113.156087 
L 112.008215 114.958462 
L 112.347755 113.64651 
L 112.687295 113.576911 
L 113.026835 115.74408 
L 113.366375 115.549923 
L 113.705915 114.864231 
L 114.045455 112.623813 
L 114.384995 112.618942 
L 114.724535 117.281523 
L 115.064074 114.83486 
L 115.403614 115.302539 
L 115.743154 117.557994 
L 116.082694 117.583053 
L 116.422234 115.02562 
L 116.761774 114.518223 
L 117.101314 118.400959 
L 117.440854 112.768657 
L 117.780394 115.904095 
L 118.119934 115.374544 
L 118.459474 113.799818 
L 118.799014 114.875025 
L 119.138554 112.922157 
L 119.478094 115.487165 
L 119.817634 115.481625 
L 120.157174 120.615009 
L 120.496714 118.229235 
L 120.836254 113.660551 
L 121.175794 114.975314 
L 121.515334 119.389069 
L 121.854874 117.895092 
L 122.194414 122.613556 
L 122.533954 117.632159 
L 122.873494 120.3789 
L 123.213034 115.622803 
L 123.552574 115.434855 
L 123.892114 122.04071 
L 124.231654 117.444199 
L 124.571194 116.769242 
L 124.910734 116.859284 
L 125.589814 119.819959 
L 125.929354 116.959802 
L 126.268894 118.77732 
L 126.608434 115.587538 
L 126.947974 116.798123 
L 127.287514 117.142443 
L 127.627054 119.116486 
L 127.966594 117.515487 
L 128.306134 118.691 
L 128.645674 120.458043 
L 128.985214 115.355557 
L 129.324754 114.920362 
L 129.664294 116.806017 
L 130.003834 123.429046 
L 130.343373 122.019775 
L 130.682913 116.831767 
L 131.022453 120.273233 
L 131.361993 119.890121 
L 131.701533 121.601615 
L 132.041073 116.759099 
L 132.380613 122.949271 
L 132.720153 120.545978 
L 133.059693 122.355204 
L 133.738773 115.75891 
L 134.078313 116.150194 
L 134.417853 120.156906 
L 134.757393 120.260364 
L 135.096933 124.268082 
L 135.436473 120.389022 
L 135.776013 117.848673 
L 136.115553 119.202421 
L 136.455093 121.981948 
L 136.794633 119.747424 
L 137.134173 124.589497 
L 137.473713 121.828175 
L 138.152793 124.648572 
L 138.492333 119.66325 
L 138.831873 122.215921 
L 139.171413 122.721054 
L 139.510953 121.503898 
L 139.850493 123.454681 
L 140.190033 121.240925 
L 140.529573 120.096794 
L 140.869113 121.096333 
L 141.208653 124.032617 
L 141.548193 123.667165 
L 141.887733 119.82409 
L 142.227273 120.033522 
L 142.566813 118.793811 
L 142.906353 123.44192 
L 143.245893 124.397699 
L 143.585433 121.607672 
L 143.924973 121.565971 
L 144.264513 123.246884 
L 144.604053 120.958446 
L 144.943593 121.636009 
L 145.283133 125.129781 
L 145.622673 123.735277 
L 145.962212 119.908666 
L 146.301752 123.85508 
L 146.641292 121.594693 
L 146.980832 124.546219 
L 147.320372 125.211872 
L 147.659912 123.52428 
L 147.999452 123.153463 
L 148.338992 120.675958 
L 148.678532 124.633821 
L 149.018072 125.998339 
L 149.357612 122.882542 
L 149.697152 123.780167 
L 150.036692 120.860577 
L 150.376232 123.416154 
L 150.715772 123.527608 
L 151.055312 124.271749 
L 151.394852 122.527428 
L 151.734392 123.170063 
L 152.073932 124.944578 
L 152.413472 122.964587 
L 152.753012 124.574016 
L 153.092552 124.305023 
L 153.432092 121.084485 
L 154.111172 127.17445 
L 154.450712 127.45939 
L 154.790252 124.729694 
L 155.129792 126.203399 
L 155.469332 125.137899 
L 155.808872 126.103172 
L 156.487952 122.193547 
L 156.827492 122.846949 
L 157.167032 129.480065 
L 157.506572 123.820493 
L 157.846112 128.748167 
L 158.185652 127.269564 
L 158.525192 126.414108 
L 158.864732 126.473695 
L 159.204272 125.492414 
L 159.543812 126.74123 
L 159.883352 128.739378 
L 160.222892 126.604611 
L 160.562432 122.388208 
L 160.901972 122.670068 
L 161.241512 125.274222 
L 161.581051 125.723083 
L 161.920591 125.193226 
L 162.260131 125.698835 
L 162.599671 125.859076 
L 162.939211 124.122051 
L 163.278751 126.292975 
L 163.618291 126.098126 
L 163.957831 124.235928 
L 164.297371 126.438114 
L 164.636911 125.17969 
L 164.976451 126.091753 
L 165.315991 124.278274 
L 165.655531 123.463457 
L 165.995071 125.496006 
L 166.334611 123.995769 
L 166.674151 127.356393 
L 167.013691 126.785402 
L 167.353231 128.851162 
L 167.692771 128.227119 
L 168.032311 126.442967 
L 168.371851 125.316303 
L 168.711391 129.96433 
L 169.050931 126.065734 
L 169.390471 128.625941 
L 169.730011 127.528942 
L 170.069551 128.334634 
L 170.409091 128.061674 
L 171.427711 130.7147 
L 171.767251 129.926342 
L 172.106791 128.651581 
L 172.446331 133.560128 
L 172.785871 128.633209 
L 173.125411 130.182938 
L 173.464951 129.73298 
L 174.144031 130.42506 
L 174.483571 129.782911 
L 174.823111 129.583909 
L 175.162651 129.970015 
L 175.502191 130.992799 
L 175.841731 130.733472 
L 176.181271 132.118816 
L 176.520811 134.52784 
L 176.86035 131.598144 
L 177.19989 132.636651 
L 177.53943 133.159025 
L 177.87897 127.416218 
L 178.21851 132.642963 
L 178.55805 131.783804 
L 178.89759 131.473529 
L 179.23713 133.130148 
L 179.57667 132.663078 
L 179.91621 132.975569 
L 180.25575 131.917234 
L 180.59529 132.90165 
L 180.93483 132.65209 
L 181.27437 129.850115 
L 181.61391 132.412385 
L 181.95345 132.796393 
L 182.29299 134.963747 
L 182.63253 133.480473 
L 182.97207 132.847351 
L 183.31161 133.493992 
L 183.65115 137.05833 
L 183.99069 133.691667 
L 184.33023 135.35763 
L 184.66977 138.279931 
L 185.34885 130.954943 
L 185.68839 136.405365 
L 186.02793 137.797689 
L 186.70701 135.702383 
L 187.04655 135.977304 
L 187.38609 136.811506 
L 187.72563 133.715955 
L 188.06517 137.475893 
L 188.40471 138.792352 
L 188.74425 135.707433 
L 189.08379 136.548441 
L 189.42333 134.865472 
L 189.76287 137.641775 
L 190.10241 136.512615 
L 190.44195 136.819805 
L 190.78149 138.699692 
L 191.12103 138.840796 
L 191.46057 137.887909 
L 191.80011 133.831591 
L 192.13965 137.904122 
L 192.479189 136.798398 
L 192.818729 138.421691 
L 193.158269 137.197016 
L 193.497809 139.352918 
L 194.176889 133.996431 
L 194.516429 142.229068 
L 194.855969 140.105152 
L 195.195509 140.631418 
L 196.553669 138.564337 
L 196.893209 139.674474 
L 197.572289 143.956211 
L 197.911829 136.718819 
L 198.251369 141.412829 
L 198.590909 142.156523 
L 198.930449 141.020804 
L 199.269989 141.149024 
L 199.609529 141.580309 
L 199.949069 138.46899 
L 200.288609 139.913114 
L 200.628149 143.140089 
L 200.967689 144.943369 
L 201.307229 142.226581 
L 201.646769 142.97936 
L 201.986309 144.97759 
L 202.325849 141.6933 
L 202.665389 140.305521 
L 203.004929 142.384271 
L 203.344469 140.727035 
L 204.023549 142.80753 
L 204.363089 143.062485 
L 204.702629 141.5364 
L 205.042169 142.552747 
L 205.381709 144.270381 
L 205.721249 144.750607 
L 206.060789 150.581364 
L 206.739869 143.834481 
L 207.418949 147.8167 
L 208.098028 141.382994 
L 208.437568 143.077997 
L 208.777108 143.818584 
L 209.456188 144.361872 
L 209.795728 144.186167 
L 210.135268 148.622135 
L 210.474808 146.518996 
L 210.814348 148.440104 
L 211.153888 147.580178 
L 211.493428 144.829082 
L 211.832968 143.282255 
L 212.851588 148.857441 
L 213.191128 148.201116 
L 213.530668 146.717975 
L 213.870208 148.468039 
L 214.209748 147.292271 
L 214.549288 146.764945 
L 214.888828 148.65796 
L 215.228368 145.501263 
L 215.567908 147.132099 
L 215.907448 145.931363 
L 216.246988 145.77401 
L 216.926068 149.119945 
L 217.265608 149.117774 
L 217.605148 149.34461 
L 217.944688 149.010447 
L 218.284228 150.134465 
L 218.623768 146.946929 
L 219.302848 148.209962 
L 219.981928 149.997235 
L 220.321468 150.112331 
L 220.661008 150.800403 
L 221.000548 153.30553 
L 221.340088 151.220917 
L 221.679628 150.089784 
L 222.019168 150.592123 
L 222.358708 147.690686 
L 222.698248 151.229693 
L 223.037788 149.795025 
L 223.377327 147.164977 
L 223.716867 154.749413 
L 224.395947 151.638059 
L 224.735487 145.993885 
L 225.075027 152.242922 
L 225.414567 152.731823 
L 225.754107 150.898639 
L 226.093647 152.036685 
L 226.433187 154.020262 
L 226.772727 153.084761 
L 227.112267 154.732135 
L 227.451807 153.378709 
L 227.791347 153.24363 
L 228.130887 152.721548 
L 228.470427 149.788637 
L 228.809967 153.566448 
L 229.149507 154.618763 
L 229.489047 153.851442 
L 229.828587 154.559993 
L 230.507667 150.60503 
L 231.526287 156.974217 
L 231.865827 150.402412 
L 232.205367 152.841628 
L 232.544907 152.103808 
L 232.884447 154.767024 
L 233.223987 153.462569 
L 233.563527 155.008069 
L 233.903067 154.736861 
L 234.242607 153.549593 
L 234.582147 156.324903 
L 234.921687 152.8395 
L 235.261227 154.768368 
L 235.940307 156.466649 
L 236.279847 156.496405 
L 236.958927 152.579904 
L 237.298467 155.51546 
L 237.638007 156.630805 
L 237.977547 155.783694 
L 238.317087 155.44364 
L 238.656627 159.682995 
L 238.996166 156.660232 
L 239.335706 157.238869 
L 240.014786 156.622367 
L 240.354326 157.803345 
L 240.693866 156.965214 
L 241.033406 158.648754 
L 241.372946 160.965009 
L 241.712486 159.811321 
L 242.052026 160.828242 
L 242.391566 158.842727 
L 242.731106 154.205622 
L 243.070646 159.461687 
L 243.410186 152.342202 
L 243.749726 157.645793 
L 244.089266 159.090656 
L 244.428806 159.58442 
L 244.768346 158.984409 
L 245.107886 160.078886 
L 245.447426 156.956516 
L 245.786966 158.312553 
L 246.126506 157.626882 
L 246.466046 158.651029 
L 246.805586 156.119124 
L 247.145126 158.447911 
L 247.484666 157.220584 
L 247.824206 156.967205 
L 248.503286 159.73186 
L 248.842826 160.436994 
L 249.182366 160.021512 
L 249.521906 160.519087 
L 249.861446 160.190197 
L 250.880066 158.229932 
L 251.219606 158.95422 
L 251.559146 155.98095 
L 251.898686 160.113747 
L 252.238226 159.140151 
L 252.577766 158.828962 
L 252.917306 162.041065 
L 253.256846 162.823337 
L 253.596386 160.390211 
L 253.935926 163.590422 
L 254.275465 156.67032 
L 254.615005 156.144793 
L 254.954545 158.407895 
L 255.294085 157.951308 
L 255.633625 162.369546 
L 255.973165 165.177965 
L 256.312705 159.427945 
L 256.652245 161.379416 
L 256.991785 158.91484 
L 257.331325 162.92011 
L 257.670865 162.529838 
L 258.010405 165.934635 
L 258.349945 165.182147 
L 258.689485 164.813361 
L 259.029025 159.18611 
L 259.368565 165.497402 
L 259.708105 160.474976 
L 260.047645 164.955404 
L 260.387185 163.124142 
L 260.726725 166.227584 
L 261.066265 162.292253 
L 261.405805 163.507603 
L 261.745345 162.769935 
L 262.084885 166.864899 
L 262.424425 162.485661 
L 262.763965 165.927073 
L 263.103505 164.057935 
L 263.443045 166.566831 
L 263.782585 162.772425 
L 264.122125 165.463056 
L 264.461665 163.284048 
L 264.801205 167.306758 
L 265.140745 167.101241 
L 265.480285 169.054524 
L 265.819825 162.529562 
L 266.159365 163.582544 
L 266.498905 168.79878 
L 266.838445 163.897437 
L 267.177985 163.882297 
L 267.517525 169.174603 
L 267.857065 168.760576 
L 268.196605 166.512844 
L 268.536145 166.848524 
L 268.875685 166.549153 
L 269.215225 165.467719 
L 269.554765 166.102873 
L 269.894304 163.057068 
L 270.233844 169.774538 
L 270.573384 165.033921 
L 270.912924 171.737711 
L 271.252464 169.908239 
L 271.592004 169.991201 
L 271.931544 165.148205 
L 272.271084 169.177832 
L 272.610624 169.121153 
L 272.950164 169.378838 
L 273.629244 168.714056 
L 273.968784 163.528886 
L 274.308324 113.322254 
L 274.647864 228.418959 
L 274.987404 194.531695 
L 275.326944 231.82597 
L 275.666484 189.430638 
L 276.006024 234.261647 
L 276.345564 191.406616 
L 276.685104 233.099843 
L 277.024644 186.877621 
L 277.364184 233.66488 
L 277.703724 189.174757 
L 278.043264 233.238581 
L 278.382804 189.554513 
L 278.722344 233.317701 
L 279.061884 190.505211 
L 279.401424 234.066658 
L 279.740964 187.933933 
L 280.080504 233.073418 
L 280.420044 189.534443 
L 280.759584 232.499494 
L 281.099124 186.095644 
L 281.438664 232.324624 
L 281.778204 188.80588 
L 282.117744 236.861204 
L 282.457284 187.152986 
L 282.796824 236.537428 
L 283.136364 191.634291 
L 283.475904 236.170769 
L 283.815444 186.166414 
L 284.154984 236.146713 
L 284.494524 191.904624 
L 284.834064 239.434745 
L 285.173604 187.488198 
L 285.513143 236.937527 
L 285.852683 187.207168 
L 286.192223 236.355157 
L 286.531763 187.671061 
L 286.871303 239.887781 
L 287.210843 188.673371 
L 287.550383 238.627507 
L 287.889923 185.464315 
L 288.229463 239.313288 
L 288.569003 185.196077 
L 288.908543 239.865559 
L 289.248083 182.846032 
L 289.587623 238.413698 
L 289.927163 184.981308 
L 290.266703 234.667876 
L 290.606243 187.641277 
L 290.945783 237.534059 
L 291.285323 188.889778 
L 291.624863 242.380657 
L 291.964403 185.857114 
L 292.303943 239.141463 
L 292.643483 184.507554 
L 292.983023 240.973933 
L 293.322563 186.498912 
L 293.662103 236.94328 
L 294.001643 184.580653 
L 294.341183 240.135942 
L 294.680723 182.523946 
L 295.020263 240.998576 
L 295.359803 186.402121 
L 295.699343 239.350364 
L 296.038883 185.857044 
L 296.378423 238.960188 
L 296.717963 182.913173 
L 297.057503 239.968109 
L 297.397043 183.938453 
L 297.736583 237.935763 
L 298.076123 185.329256 
L 298.415663 239.804578 
L 298.755203 186.284331 
L 299.094743 241.113093 
L 299.434283 184.146081 
L 299.773823 242.31227 
L 300.113363 186.325533 
L 300.452903 241.890878 
L 300.792442 183.262054 
L 301.131982 237.852666 
L 301.471522 188.983641 
L 301.811062 239.8313 
L 302.150602 188.273211 
L 302.490142 242.459376 
L 302.829682 181.999707 
L 303.169222 237.667444 
L 303.508762 183.419005 
L 303.848302 243.317133 
L 304.187842 185.270714 
L 304.527382 243.123499 
L 304.866922 185.90096 
L 305.206462 240.188069 
L 305.546002 184.223103 
L 305.885542 242.282837 
L 306.225082 186.806609 
L 306.564622 243.724465 
L 306.904162 183.96095 
L 307.243702 242.212518 
L 307.583242 183.789126 
L 307.922782 239.583513 
L 308.262322 182.526664 
L 308.601862 242.545105 
L 308.941402 184.691621 
L 309.280942 242.657913 
L 309.620482 185.816043 
L 309.960022 242.028734 
L 310.299562 184.603035 
L 310.639102 244.960756 
L 310.978642 183.797871 
L 311.318182 243.263486 
L 311.318182 243.263486 
" style="fill:none;stroke:#ff0000;stroke-linecap:round;stroke-width:1.5;"/>
   </g>
   <g id="patch_3">
    <path d="M 45 252 
L 45 34.56 
" style="fill:none;stroke:#262626;stroke-linecap:square;stroke-linejoin:miter;stroke-width:1.25;"/>
   </g>
   <g id="patch_4">
    <path d="M 324 252 
L 324 34.56 
" style="fill:none;stroke:#262626;stroke-linecap:square;stroke-linejoin:miter;stroke-width:1.25;"/>
   </g>
   <g id="patch_5">
    <path d="M 45 252 
L 324 252 
" style="fill:none;stroke:#262626;stroke-linecap:square;stroke-linejoin:miter;stroke-width:1.25;"/>
   </g>
   <g id="patch_6">
    <path d="M 45 34.56 
L 324 34.56 
" style="fill:none;stroke:#262626;stroke-linecap:square;stroke-linejoin:miter;stroke-width:1.25;"/>
   </g>
  </g>
 </g>
 <defs>
  <clipPath id="pd826cd1fef">
   <rect height="217.44" width="279" x="45" y="34.56"/>
  </clipPath>
 </defs>
</svg>
