<?xml version="1.0" encoding="utf-8" standalone="no"?>
<!DOCTYPE svg PUBLIC "-//W3C//DTD SVG 1.1//EN"
  "http://www.w3.org/Graphics/SVG/1.1/DTD/svg11.dtd">
<!-- Created with matplotlib (http://matplotlib.org/) -->
<svg height="288pt" version="1.1" viewBox="0 0 360 288" width="360pt" xmlns="http://www.w3.org/2000/svg" xmlns:xlink="http://www.w3.org/1999/xlink">
 <defs>
  <style type="text/css">
*{stroke-linecap:butt;stroke-linejoin:round;}
  </style>
 </defs>
 <g id="figure_1">
  <g id="patch_1">
   <path d="M 0 288 
L 360 288 
L 360 0 
L 0 0 
z
" style="fill:#ffffff;"/>
  </g>
  <g id="axes_1">
   <g id="patch_2">
    <path d="M 45 252 
L 324 252 
L 324 34.56 
L 45 34.56 
z
" style="fill:#ffffff;"/>
   </g>
   <g id="matplotlib.axis_1">
    <g id="xtick_1">
     <g id="line2d_1">
      <path clip-path="url(#p224137f94f)" d="M 57.681818 252 
L 57.681818 34.56 
" style="fill:none;stroke:#cccccc;stroke-linecap:round;stroke-width:0.8;"/>
     </g>
     <g id="line2d_2"/>
     <g id="text_1">
      <!-- 0 -->
      <defs>
       <path d="M 3.609375 32.71875 
Q 3.609375 44.046875 7.03125 52.21875 
Q 10.453125 60.40625 16.109375 64.40625 
Q 20.515625 67.578125 25.203125 67.578125 
Q 32.8125 67.578125 38.875 59.8125 
Q 46.4375 50.203125 46.4375 33.734375 
Q 46.4375 22.21875 43.109375 14.15625 
Q 39.796875 6.109375 34.640625 2.46875 
Q 29.5 -1.171875 24.703125 -1.171875 
Q 15.234375 -1.171875 8.9375 10.015625 
Q 3.609375 19.4375 3.609375 32.71875 
z
M 13.1875 31.5 
Q 13.1875 17.828125 16.546875 9.1875 
Q 19.34375 1.90625 24.859375 1.90625 
Q 27.484375 1.90625 30.3125 4.265625 
Q 33.15625 6.640625 34.625 12.203125 
Q 36.859375 20.609375 36.859375 35.890625 
Q 36.859375 47.21875 34.515625 54.78125 
Q 32.765625 60.40625 29.984375 62.75 
Q 27.984375 64.359375 25.140625 64.359375 
Q 21.828125 64.359375 19.234375 61.375 
Q 15.71875 57.328125 14.453125 48.625 
Q 13.1875 39.9375 13.1875 31.5 
z
" id="TimesNewRomanPSMT-30"/>
      </defs>
      <g style="fill:#262626;" transform="translate(55.181818 262.44375)scale(0.1 -0.1)">
       <use xlink:href="#TimesNewRomanPSMT-30"/>
      </g>
     </g>
    </g>
    <g id="xtick_2">
     <g id="line2d_3">
      <path clip-path="url(#p224137f94f)" d="M 118.740163 252 
L 118.740163 34.56 
" style="fill:none;stroke:#cccccc;stroke-linecap:round;stroke-width:0.8;"/>
     </g>
     <g id="line2d_4"/>
     <g id="text_2">
      <!-- 500 -->
      <defs>
       <path d="M 43.40625 66.21875 
L 39.59375 57.90625 
L 19.671875 57.90625 
L 15.328125 49.03125 
Q 28.265625 47.125 35.84375 39.40625 
Q 42.328125 32.765625 42.328125 23.78125 
Q 42.328125 18.5625 40.203125 14.109375 
Q 38.09375 9.671875 34.859375 6.546875 
Q 31.640625 3.421875 27.6875 1.515625 
Q 22.078125 -1.171875 16.15625 -1.171875 
Q 10.203125 -1.171875 7.484375 0.84375 
Q 4.78125 2.875 4.78125 5.328125 
Q 4.78125 6.6875 5.90625 7.734375 
Q 7.03125 8.796875 8.734375 8.796875 
Q 10.015625 8.796875 10.96875 8.40625 
Q 11.921875 8.015625 14.203125 6.390625 
Q 17.875 3.859375 21.625 3.859375 
Q 27.34375 3.859375 31.65625 8.171875 
Q 35.984375 12.5 35.984375 18.703125 
Q 35.984375 24.703125 32.125 29.90625 
Q 28.265625 35.109375 21.484375 37.9375 
Q 16.15625 40.140625 6.984375 40.484375 
L 19.671875 66.21875 
z
" id="TimesNewRomanPSMT-35"/>
      </defs>
      <g style="fill:#262626;" transform="translate(111.240163 262.44375)scale(0.1 -0.1)">
       <use xlink:href="#TimesNewRomanPSMT-35"/>
       <use x="50" xlink:href="#TimesNewRomanPSMT-30"/>
       <use x="100" xlink:href="#TimesNewRomanPSMT-30"/>
      </g>
     </g>
    </g>
    <g id="xtick_3">
     <g id="line2d_5">
      <path clip-path="url(#p224137f94f)" d="M 179.798507 252 
L 179.798507 34.56 
" style="fill:none;stroke:#cccccc;stroke-linecap:round;stroke-width:0.8;"/>
     </g>
     <g id="line2d_6"/>
     <g id="text_3">
      <!-- 1000 -->
      <defs>
       <path d="M 11.71875 59.71875 
L 27.828125 67.578125 
L 29.4375 67.578125 
L 29.4375 11.671875 
Q 29.4375 6.109375 29.90625 4.734375 
Q 30.375 3.375 31.828125 2.640625 
Q 33.296875 1.90625 37.796875 1.8125 
L 37.796875 0 
L 12.890625 0 
L 12.890625 1.8125 
Q 17.578125 1.90625 18.9375 2.609375 
Q 20.3125 3.328125 20.84375 4.515625 
Q 21.390625 5.71875 21.390625 11.671875 
L 21.390625 47.40625 
Q 21.390625 54.640625 20.90625 56.6875 
Q 20.5625 58.25 19.65625 58.984375 
Q 18.75 59.71875 17.484375 59.71875 
Q 15.671875 59.71875 12.453125 58.203125 
z
" id="TimesNewRomanPSMT-31"/>
      </defs>
      <g style="fill:#262626;" transform="translate(169.798507 262.44375)scale(0.1 -0.1)">
       <use xlink:href="#TimesNewRomanPSMT-31"/>
       <use x="50" xlink:href="#TimesNewRomanPSMT-30"/>
       <use x="100" xlink:href="#TimesNewRomanPSMT-30"/>
       <use x="150" xlink:href="#TimesNewRomanPSMT-30"/>
      </g>
     </g>
    </g>
    <g id="xtick_4">
     <g id="line2d_7">
      <path clip-path="url(#p224137f94f)" d="M 240.856852 252 
L 240.856852 34.56 
" style="fill:none;stroke:#cccccc;stroke-linecap:round;stroke-width:0.8;"/>
     </g>
     <g id="line2d_8"/>
     <g id="text_4">
      <!-- 1500 -->
      <g style="fill:#262626;" transform="translate(230.856852 262.44375)scale(0.1 -0.1)">
       <use xlink:href="#TimesNewRomanPSMT-31"/>
       <use x="50" xlink:href="#TimesNewRomanPSMT-35"/>
       <use x="100" xlink:href="#TimesNewRomanPSMT-30"/>
       <use x="150" xlink:href="#TimesNewRomanPSMT-30"/>
      </g>
     </g>
    </g>
    <g id="xtick_5">
     <g id="line2d_9">
      <path clip-path="url(#p224137f94f)" d="M 301.915197 252 
L 301.915197 34.56 
" style="fill:none;stroke:#cccccc;stroke-linecap:round;stroke-width:0.8;"/>
     </g>
     <g id="line2d_10"/>
     <g id="text_5">
      <!-- 2000 -->
      <defs>
       <path d="M 45.84375 12.75 
L 41.21875 0 
L 2.15625 0 
L 2.15625 1.8125 
Q 19.390625 17.53125 26.421875 27.484375 
Q 33.453125 37.453125 33.453125 45.703125 
Q 33.453125 52 29.59375 56.046875 
Q 25.734375 60.109375 20.359375 60.109375 
Q 15.484375 60.109375 11.59375 57.25 
Q 7.71875 54.390625 5.859375 48.875 
L 4.046875 48.875 
Q 5.28125 57.90625 10.328125 62.734375 
Q 15.375 67.578125 22.953125 67.578125 
Q 31 67.578125 36.390625 62.40625 
Q 41.796875 57.234375 41.796875 50.203125 
Q 41.796875 45.171875 39.453125 40.140625 
Q 35.84375 32.234375 27.734375 23.390625 
Q 15.578125 10.109375 12.546875 7.375 
L 29.828125 7.375 
Q 35.109375 7.375 37.234375 7.765625 
Q 39.359375 8.15625 41.0625 9.34375 
Q 42.78125 10.546875 44.046875 12.75 
z
" id="TimesNewRomanPSMT-32"/>
      </defs>
      <g style="fill:#262626;" transform="translate(291.915197 262.44375)scale(0.1 -0.1)">
       <use xlink:href="#TimesNewRomanPSMT-32"/>
       <use x="50" xlink:href="#TimesNewRomanPSMT-30"/>
       <use x="100" xlink:href="#TimesNewRomanPSMT-30"/>
       <use x="150" xlink:href="#TimesNewRomanPSMT-30"/>
      </g>
     </g>
    </g>
    <g id="text_6">
     <!-- Cycle No. -->
     <defs>
      <path d="M 60.203125 67.71875 
L 61.71875 45.21875 
L 60.203125 45.21875 
Q 57.171875 55.328125 51.5625 59.765625 
Q 45.953125 64.203125 38.09375 64.203125 
Q 31.5 64.203125 26.171875 60.859375 
Q 20.84375 57.515625 17.796875 50.1875 
Q 14.75 42.875 14.75 31.984375 
Q 14.75 23 17.625 16.40625 
Q 20.515625 9.8125 26.296875 6.296875 
Q 32.078125 2.78125 39.5 2.78125 
Q 45.953125 2.78125 50.875 5.53125 
Q 55.8125 8.296875 61.71875 16.5 
L 63.234375 15.53125 
Q 58.25 6.6875 51.609375 2.578125 
Q 44.96875 -1.515625 35.84375 -1.515625 
Q 19.390625 -1.515625 10.359375 10.6875 
Q 3.609375 19.78125 3.609375 32.078125 
Q 3.609375 42 8.046875 50.296875 
Q 12.5 58.59375 20.28125 63.15625 
Q 28.078125 67.71875 37.3125 67.71875 
Q 44.484375 67.71875 51.46875 64.203125 
Q 53.515625 63.140625 54.390625 63.140625 
Q 55.71875 63.140625 56.6875 64.0625 
Q 57.953125 65.375 58.5 67.71875 
z
" id="TimesNewRomanPSMT-43"/>
      <path d="M 0.59375 44.734375 
L 21.4375 44.734375 
L 21.4375 42.921875 
L 20.40625 42.921875 
Q 18.21875 42.921875 17.109375 41.96875 
Q 16.015625 41.015625 16.015625 39.59375 
Q 16.015625 37.703125 17.625 34.328125 
L 28.515625 11.765625 
L 38.53125 36.46875 
Q 39.359375 38.484375 39.359375 40.4375 
Q 39.359375 41.3125 39.015625 41.75 
Q 38.625 42.28125 37.796875 42.59375 
Q 36.96875 42.921875 34.859375 42.921875 
L 34.859375 44.734375 
L 49.421875 44.734375 
L 49.421875 42.921875 
Q 47.609375 42.71875 46.625 42.125 
Q 45.65625 41.546875 44.484375 39.9375 
Q 44.046875 39.265625 42.828125 36.1875 
L 24.609375 -8.453125 
Q 21.96875 -14.9375 17.6875 -18.25 
Q 13.421875 -21.578125 9.46875 -21.578125 
Q 6.59375 -21.578125 4.734375 -19.921875 
Q 2.875 -18.265625 2.875 -16.109375 
Q 2.875 -14.0625 4.21875 -12.8125 
Q 5.5625 -11.578125 7.90625 -11.578125 
Q 9.515625 -11.578125 12.3125 -12.640625 
Q 14.265625 -13.375 14.75 -13.375 
Q 16.21875 -13.375 17.9375 -11.859375 
Q 19.671875 -10.359375 21.4375 -6 
L 24.609375 1.765625 
L 8.546875 35.5 
Q 7.8125 37.015625 6.203125 39.265625 
Q 4.984375 40.96875 4.203125 41.546875 
Q 3.078125 42.328125 0.59375 42.921875 
z
" id="TimesNewRomanPSMT-79"/>
      <path d="M 41.109375 17 
Q 39.3125 8.15625 34.03125 3.390625 
Q 28.765625 -1.375 22.359375 -1.375 
Q 14.75 -1.375 9.078125 5.015625 
Q 3.421875 11.421875 3.421875 22.3125 
Q 3.421875 32.859375 9.6875 39.453125 
Q 15.96875 46.046875 24.75 46.046875 
Q 31.34375 46.046875 35.59375 42.546875 
Q 39.84375 39.0625 39.84375 35.296875 
Q 39.84375 33.453125 38.640625 32.296875 
Q 37.453125 31.15625 35.296875 31.15625 
Q 32.421875 31.15625 30.953125 33.015625 
Q 30.125 34.03125 29.859375 36.90625 
Q 29.59375 39.796875 27.875 41.3125 
Q 26.171875 42.78125 23.140625 42.78125 
Q 18.265625 42.78125 15.28125 39.15625 
Q 11.328125 34.375 11.328125 26.515625 
Q 11.328125 18.5 15.25 12.375 
Q 19.1875 6.25 25.875 6.25 
Q 30.671875 6.25 34.46875 9.515625 
Q 37.15625 11.765625 39.703125 17.671875 
z
" id="TimesNewRomanPSMT-63"/>
      <path d="M 18.5 69.4375 
L 18.5 10.109375 
Q 18.5 5.90625 19.109375 4.53125 
Q 19.734375 3.171875 21 2.46875 
Q 22.265625 1.765625 25.734375 1.765625 
L 25.734375 0 
L 3.8125 0 
L 3.8125 1.765625 
Q 6.890625 1.765625 8 2.390625 
Q 9.125 3.03125 9.765625 4.484375 
Q 10.40625 5.953125 10.40625 10.109375 
L 10.40625 50.734375 
Q 10.40625 58.296875 10.0625 60.03125 
Q 9.71875 61.765625 8.953125 62.390625 
Q 8.203125 63.03125 7.03125 63.03125 
Q 5.765625 63.03125 3.8125 62.25 
L 2.984375 63.96875 
L 16.3125 69.4375 
z
" id="TimesNewRomanPSMT-6c"/>
      <path d="M 10.640625 27.875 
Q 10.59375 17.921875 15.484375 12.25 
Q 20.359375 6.59375 26.953125 6.59375 
Q 31.34375 6.59375 34.59375 9 
Q 37.84375 11.421875 40.046875 17.28125 
L 41.546875 16.3125 
Q 40.53125 9.625 35.59375 4.125 
Q 30.671875 -1.375 23.25 -1.375 
Q 15.1875 -1.375 9.453125 4.90625 
Q 3.71875 11.1875 3.71875 21.78125 
Q 3.71875 33.25 9.59375 39.671875 
Q 15.484375 46.09375 24.359375 46.09375 
Q 31.890625 46.09375 36.71875 41.140625 
Q 41.546875 36.1875 41.546875 27.875 
z
M 10.640625 30.71875 
L 31.34375 30.71875 
Q 31.109375 35.015625 30.328125 36.765625 
Q 29.109375 39.5 26.6875 41.0625 
Q 24.265625 42.625 21.625 42.625 
Q 17.578125 42.625 14.375 39.46875 
Q 11.1875 36.328125 10.640625 30.71875 
z
" id="TimesNewRomanPSMT-65"/>
      <path id="TimesNewRomanPSMT-20"/>
      <path d="M -1.3125 66.21875 
L 16.65625 66.21875 
L 57.125 16.546875 
L 57.125 54.734375 
Q 57.125 60.84375 55.765625 62.359375 
Q 53.953125 64.40625 50.046875 64.40625 
L 47.75 64.40625 
L 47.75 66.21875 
L 70.796875 66.21875 
L 70.796875 64.40625 
L 68.453125 64.40625 
Q 64.265625 64.40625 62.5 61.859375 
Q 61.421875 60.296875 61.421875 54.734375 
L 61.421875 -1.078125 
L 59.671875 -1.078125 
L 16.015625 52.25 
L 16.015625 11.46875 
Q 16.015625 5.375 17.328125 3.859375 
Q 19.1875 1.8125 23.046875 1.8125 
L 25.390625 1.8125 
L 25.390625 0 
L 2.34375 0 
L 2.34375 1.8125 
L 4.640625 1.8125 
Q 8.890625 1.8125 10.640625 4.34375 
Q 11.71875 5.90625 11.71875 11.46875 
L 11.71875 57.515625 
Q 8.84375 60.890625 7.34375 61.953125 
Q 5.859375 63.03125 2.984375 63.96875 
Q 1.5625 64.40625 -1.3125 64.40625 
z
" id="TimesNewRomanPSMT-4e"/>
      <path d="M 25 46.046875 
Q 35.15625 46.046875 41.3125 38.328125 
Q 46.53125 31.734375 46.53125 23.1875 
Q 46.53125 17.1875 43.640625 11.03125 
Q 40.765625 4.890625 35.71875 1.75 
Q 30.671875 -1.375 24.46875 -1.375 
Q 14.359375 -1.375 8.40625 6.6875 
Q 3.375 13.484375 3.375 21.921875 
Q 3.375 28.078125 6.421875 34.15625 
Q 9.46875 40.234375 14.453125 43.140625 
Q 19.4375 46.046875 25 46.046875 
z
M 23.484375 42.875 
Q 20.90625 42.875 18.28125 41.328125 
Q 15.671875 39.796875 14.0625 35.9375 
Q 12.453125 32.078125 12.453125 26.03125 
Q 12.453125 16.265625 16.328125 9.171875 
Q 20.21875 2.09375 26.5625 2.09375 
Q 31.296875 2.09375 34.375 6 
Q 37.453125 9.90625 37.453125 19.4375 
Q 37.453125 31.34375 32.328125 38.1875 
Q 28.859375 42.875 23.484375 42.875 
z
" id="TimesNewRomanPSMT-6f"/>
      <path d="M 12.5 9.46875 
Q 14.796875 9.46875 16.359375 7.875 
Q 17.921875 6.296875 17.921875 4.046875 
Q 17.921875 1.8125 16.328125 0.21875 
Q 14.75 -1.375 12.5 -1.375 
Q 10.25 -1.375 8.65625 0.21875 
Q 7.078125 1.8125 7.078125 4.046875 
Q 7.078125 6.34375 8.65625 7.90625 
Q 10.25 9.46875 12.5 9.46875 
z
" id="TimesNewRomanPSMT-2e"/>
     </defs>
     <g style="fill:#262626;" transform="translate(164.225781 275.526563)scale(0.1 -0.1)">
      <use xlink:href="#TimesNewRomanPSMT-43"/>
      <use x="66.699219" xlink:href="#TimesNewRomanPSMT-79"/>
      <use x="116.699219" xlink:href="#TimesNewRomanPSMT-63"/>
      <use x="161.083984" xlink:href="#TimesNewRomanPSMT-6c"/>
      <use x="188.867188" xlink:href="#TimesNewRomanPSMT-65"/>
      <use x="233.251953" xlink:href="#TimesNewRomanPSMT-20"/>
      <use x="258.251953" xlink:href="#TimesNewRomanPSMT-4e"/>
      <use x="330.46875" xlink:href="#TimesNewRomanPSMT-6f"/>
      <use x="380.46875" xlink:href="#TimesNewRomanPSMT-2e"/>
     </g>
    </g>
   </g>
   <g id="matplotlib.axis_2">
    <g id="ytick_1">
     <g id="line2d_11">
      <path clip-path="url(#p224137f94f)" d="M 45 229.506207 
L 324 229.506207 
" style="fill:none;stroke:#cccccc;stroke-linecap:round;stroke-width:0.8;"/>
     </g>
     <g id="line2d_12"/>
     <g id="text_7">
      <!-- 0.014 -->
      <defs>
       <path d="M 46.53125 24.421875 
L 46.53125 17.484375 
L 37.640625 17.484375 
L 37.640625 0 
L 29.59375 0 
L 29.59375 17.484375 
L 1.5625 17.484375 
L 1.5625 23.734375 
L 32.28125 67.578125 
L 37.640625 67.578125 
L 37.640625 24.421875 
z
M 29.59375 24.421875 
L 29.59375 57.28125 
L 6.34375 24.421875 
z
" id="TimesNewRomanPSMT-34"/>
      </defs>
      <g style="fill:#262626;" transform="translate(19 232.978082)scale(0.1 -0.1)">
       <use xlink:href="#TimesNewRomanPSMT-30"/>
       <use x="50" xlink:href="#TimesNewRomanPSMT-2e"/>
       <use x="75" xlink:href="#TimesNewRomanPSMT-30"/>
       <use x="125" xlink:href="#TimesNewRomanPSMT-31"/>
       <use x="175" xlink:href="#TimesNewRomanPSMT-34"/>
      </g>
     </g>
    </g>
    <g id="ytick_2">
     <g id="line2d_13">
      <path clip-path="url(#p224137f94f)" d="M 45 199.514483 
L 324 199.514483 
" style="fill:none;stroke:#cccccc;stroke-linecap:round;stroke-width:0.8;"/>
     </g>
     <g id="line2d_14"/>
     <g id="text_8">
      <!-- 0.016 -->
      <defs>
       <path d="M 44.828125 67.578125 
L 44.828125 65.765625 
Q 38.375 65.140625 34.296875 63.203125 
Q 30.21875 61.28125 26.234375 57.328125 
Q 22.265625 53.375 19.65625 48.515625 
Q 17.046875 43.65625 15.28125 36.96875 
Q 22.3125 41.796875 29.390625 41.796875 
Q 36.1875 41.796875 41.15625 36.328125 
Q 46.140625 30.859375 46.140625 22.265625 
Q 46.140625 13.96875 41.109375 7.125 
Q 35.0625 -1.171875 25.09375 -1.171875 
Q 18.3125 -1.171875 13.578125 3.328125 
Q 4.296875 12.0625 4.296875 25.984375 
Q 4.296875 34.859375 7.859375 42.859375 
Q 11.421875 50.875 18.03125 57.078125 
Q 24.65625 63.28125 30.703125 65.421875 
Q 36.765625 67.578125 42 67.578125 
z
M 14.453125 33.40625 
Q 13.578125 26.8125 13.578125 22.75 
Q 13.578125 18.0625 15.3125 12.5625 
Q 17.046875 7.078125 20.453125 3.859375 
Q 22.953125 1.5625 26.515625 1.5625 
Q 30.765625 1.5625 34.109375 5.5625 
Q 37.453125 9.578125 37.453125 17 
Q 37.453125 25.34375 34.125 31.4375 
Q 30.8125 37.546875 24.703125 37.546875 
Q 22.859375 37.546875 20.734375 36.765625 
Q 18.609375 35.984375 14.453125 33.40625 
z
" id="TimesNewRomanPSMT-36"/>
      </defs>
      <g style="fill:#262626;" transform="translate(19 202.986358)scale(0.1 -0.1)">
       <use xlink:href="#TimesNewRomanPSMT-30"/>
       <use x="50" xlink:href="#TimesNewRomanPSMT-2e"/>
       <use x="75" xlink:href="#TimesNewRomanPSMT-30"/>
       <use x="125" xlink:href="#TimesNewRomanPSMT-31"/>
       <use x="175" xlink:href="#TimesNewRomanPSMT-36"/>
      </g>
     </g>
    </g>
    <g id="ytick_3">
     <g id="line2d_15">
      <path clip-path="url(#p224137f94f)" d="M 45 169.522759 
L 324 169.522759 
" style="fill:none;stroke:#cccccc;stroke-linecap:round;stroke-width:0.8;"/>
     </g>
     <g id="line2d_16"/>
     <g id="text_9">
      <!-- 0.018 -->
      <defs>
       <path d="M 19.1875 33.34375 
Q 11.328125 39.796875 9.046875 43.703125 
Q 6.78125 47.609375 6.78125 51.8125 
Q 6.78125 58.25 11.765625 62.90625 
Q 16.75 67.578125 25 67.578125 
Q 33.015625 67.578125 37.890625 63.234375 
Q 42.78125 58.890625 42.78125 53.328125 
Q 42.78125 49.609375 40.140625 45.75 
Q 37.5 41.890625 29.15625 36.671875 
Q 37.75 30.03125 40.53125 26.21875 
Q 44.234375 21.234375 44.234375 15.71875 
Q 44.234375 8.734375 38.90625 3.78125 
Q 33.59375 -1.171875 24.953125 -1.171875 
Q 15.53125 -1.171875 10.25 4.734375 
Q 6.0625 9.46875 6.0625 15.09375 
Q 6.0625 19.484375 9.015625 23.796875 
Q 11.96875 28.125 19.1875 33.34375 
z
M 26.859375 38.578125 
Q 32.71875 43.84375 34.28125 46.890625 
Q 35.84375 49.953125 35.84375 53.8125 
Q 35.84375 58.9375 32.953125 61.84375 
Q 30.078125 64.75 25.09375 64.75 
Q 20.125 64.75 17 61.859375 
Q 13.875 58.984375 13.875 55.125 
Q 13.875 52.59375 15.15625 50.046875 
Q 16.453125 47.515625 18.84375 45.21875 
z
M 21.484375 31.5 
Q 17.4375 28.078125 15.484375 24.046875 
Q 13.53125 20.015625 13.53125 15.328125 
Q 13.53125 9.03125 16.96875 5.25 
Q 20.40625 1.46875 25.734375 1.46875 
Q 31 1.46875 34.171875 4.4375 
Q 37.359375 7.421875 37.359375 11.671875 
Q 37.359375 15.1875 35.5 17.96875 
Q 32.03125 23.140625 21.484375 31.5 
z
" id="TimesNewRomanPSMT-38"/>
      </defs>
      <g style="fill:#262626;" transform="translate(19 172.994634)scale(0.1 -0.1)">
       <use xlink:href="#TimesNewRomanPSMT-30"/>
       <use x="50" xlink:href="#TimesNewRomanPSMT-2e"/>
       <use x="75" xlink:href="#TimesNewRomanPSMT-30"/>
       <use x="125" xlink:href="#TimesNewRomanPSMT-31"/>
       <use x="175" xlink:href="#TimesNewRomanPSMT-38"/>
      </g>
     </g>
    </g>
    <g id="ytick_4">
     <g id="line2d_17">
      <path clip-path="url(#p224137f94f)" d="M 45 139.531034 
L 324 139.531034 
" style="fill:none;stroke:#cccccc;stroke-linecap:round;stroke-width:0.8;"/>
     </g>
     <g id="line2d_18"/>
     <g id="text_10">
      <!-- 0.020 -->
      <g style="fill:#262626;" transform="translate(19 143.002909)scale(0.1 -0.1)">
       <use xlink:href="#TimesNewRomanPSMT-30"/>
       <use x="50" xlink:href="#TimesNewRomanPSMT-2e"/>
       <use x="75" xlink:href="#TimesNewRomanPSMT-30"/>
       <use x="125" xlink:href="#TimesNewRomanPSMT-32"/>
       <use x="175" xlink:href="#TimesNewRomanPSMT-30"/>
      </g>
     </g>
    </g>
    <g id="ytick_5">
     <g id="line2d_19">
      <path clip-path="url(#p224137f94f)" d="M 45 109.53931 
L 324 109.53931 
" style="fill:none;stroke:#cccccc;stroke-linecap:round;stroke-width:0.8;"/>
     </g>
     <g id="line2d_20"/>
     <g id="text_11">
      <!-- 0.022 -->
      <g style="fill:#262626;" transform="translate(19 113.011185)scale(0.1 -0.1)">
       <use xlink:href="#TimesNewRomanPSMT-30"/>
       <use x="50" xlink:href="#TimesNewRomanPSMT-2e"/>
       <use x="75" xlink:href="#TimesNewRomanPSMT-30"/>
       <use x="125" xlink:href="#TimesNewRomanPSMT-32"/>
       <use x="175" xlink:href="#TimesNewRomanPSMT-32"/>
      </g>
     </g>
    </g>
    <g id="ytick_6">
     <g id="line2d_21">
      <path clip-path="url(#p224137f94f)" d="M 45 79.547586 
L 324 79.547586 
" style="fill:none;stroke:#cccccc;stroke-linecap:round;stroke-width:0.8;"/>
     </g>
     <g id="line2d_22"/>
     <g id="text_12">
      <!-- 0.024 -->
      <g style="fill:#262626;" transform="translate(19 83.019461)scale(0.1 -0.1)">
       <use xlink:href="#TimesNewRomanPSMT-30"/>
       <use x="50" xlink:href="#TimesNewRomanPSMT-2e"/>
       <use x="75" xlink:href="#TimesNewRomanPSMT-30"/>
       <use x="125" xlink:href="#TimesNewRomanPSMT-32"/>
       <use x="175" xlink:href="#TimesNewRomanPSMT-34"/>
      </g>
     </g>
    </g>
    <g id="ytick_7">
     <g id="line2d_23">
      <path clip-path="url(#p224137f94f)" d="M 45 49.555862 
L 324 49.555862 
" style="fill:none;stroke:#cccccc;stroke-linecap:round;stroke-width:0.8;"/>
     </g>
     <g id="line2d_24"/>
     <g id="text_13">
      <!-- 0.026 -->
      <g style="fill:#262626;" transform="translate(19 53.027737)scale(0.1 -0.1)">
       <use xlink:href="#TimesNewRomanPSMT-30"/>
       <use x="50" xlink:href="#TimesNewRomanPSMT-2e"/>
       <use x="75" xlink:href="#TimesNewRomanPSMT-30"/>
       <use x="125" xlink:href="#TimesNewRomanPSMT-32"/>
       <use x="175" xlink:href="#TimesNewRomanPSMT-36"/>
      </g>
     </g>
    </g>
    <g id="text_14">
     <!-- RSE -->
     <defs>
      <path d="M 67.578125 0 
L 49.90625 0 
L 27.484375 30.953125 
Q 25 30.859375 23.4375 30.859375 
Q 22.796875 30.859375 22.0625 30.875 
Q 21.34375 30.90625 20.5625 30.953125 
L 20.5625 11.71875 
Q 20.5625 5.46875 21.921875 3.953125 
Q 23.78125 1.8125 27.484375 1.8125 
L 30.078125 1.8125 
L 30.078125 0 
L 1.703125 0 
L 1.703125 1.8125 
L 4.203125 1.8125 
Q 8.40625 1.8125 10.203125 4.546875 
Q 11.234375 6.0625 11.234375 11.71875 
L 11.234375 54.5 
Q 11.234375 60.75 9.859375 62.25 
Q 7.953125 64.40625 4.203125 64.40625 
L 1.703125 64.40625 
L 1.703125 66.21875 
L 25.828125 66.21875 
Q 36.375 66.21875 41.375 64.671875 
Q 46.390625 63.140625 49.875 59.015625 
Q 53.375 54.890625 53.375 49.171875 
Q 53.375 43.0625 49.390625 38.5625 
Q 45.40625 34.078125 37.0625 32.234375 
L 50.734375 13.234375 
Q 55.421875 6.6875 58.78125 4.53125 
Q 62.15625 2.390625 67.578125 1.8125 
z
M 20.5625 34.03125 
Q 21.484375 34.03125 22.171875 34 
Q 22.859375 33.984375 23.296875 33.984375 
Q 32.765625 33.984375 37.578125 38.078125 
Q 42.390625 42.1875 42.390625 48.53125 
Q 42.390625 54.734375 38.5 58.609375 
Q 34.625 62.5 28.21875 62.5 
Q 25.390625 62.5 20.5625 61.578125 
z
" id="TimesNewRomanPSMT-52"/>
      <path d="M 45.84375 67.71875 
L 45.84375 44.828125 
L 44.046875 44.828125 
Q 43.171875 51.421875 40.890625 55.328125 
Q 38.625 59.234375 34.421875 61.515625 
Q 30.21875 63.8125 25.734375 63.8125 
Q 20.65625 63.8125 17.328125 60.71875 
Q 14.015625 57.625 14.015625 53.65625 
Q 14.015625 50.640625 16.109375 48.140625 
Q 19.140625 44.484375 30.515625 38.375 
Q 39.796875 33.40625 43.1875 30.734375 
Q 46.578125 28.078125 48.40625 24.453125 
Q 50.25 20.84375 50.25 16.890625 
Q 50.25 9.375 44.40625 3.921875 
Q 38.578125 -1.515625 29.390625 -1.515625 
Q 26.515625 -1.515625 23.96875 -1.078125 
Q 22.46875 -0.828125 17.703125 0.703125 
Q 12.9375 2.25 11.671875 2.25 
Q 10.453125 2.25 9.734375 1.515625 
Q 9.03125 0.78125 8.6875 -1.515625 
L 6.890625 -1.515625 
L 6.890625 21.1875 
L 8.6875 21.1875 
Q 9.96875 14.0625 12.109375 10.515625 
Q 14.265625 6.984375 18.671875 4.640625 
Q 23.09375 2.296875 28.375 2.296875 
Q 34.46875 2.296875 38 5.515625 
Q 41.546875 8.734375 41.546875 13.140625 
Q 41.546875 15.578125 40.203125 18.0625 
Q 38.875 20.5625 36.03125 22.703125 
Q 34.125 24.171875 25.625 28.921875 
Q 17.140625 33.6875 13.546875 36.515625 
Q 9.96875 39.359375 8.109375 42.765625 
Q 6.25 46.1875 6.25 50.296875 
Q 6.25 57.421875 11.71875 62.5625 
Q 17.1875 67.71875 25.640625 67.71875 
Q 30.90625 67.71875 36.8125 65.140625 
Q 39.546875 63.921875 40.671875 63.921875 
Q 41.9375 63.921875 42.75 64.671875 
Q 43.5625 65.4375 44.046875 67.71875 
z
" id="TimesNewRomanPSMT-53"/>
      <path d="M 20.90625 62.59375 
L 20.90625 36.421875 
L 35.453125 36.421875 
Q 41.109375 36.421875 43.015625 38.140625 
Q 45.5625 40.375 45.84375 46.046875 
L 47.65625 46.046875 
L 47.65625 23 
L 45.84375 23 
Q 45.171875 27.828125 44.484375 29.203125 
Q 43.609375 30.90625 41.59375 31.875 
Q 39.59375 32.859375 35.453125 32.859375 
L 20.90625 32.859375 
L 20.90625 11.03125 
Q 20.90625 6.640625 21.296875 5.6875 
Q 21.6875 4.734375 22.65625 4.171875 
Q 23.640625 3.609375 26.375 3.609375 
L 37.59375 3.609375 
Q 43.21875 3.609375 45.75 4.390625 
Q 48.296875 5.171875 50.640625 7.46875 
Q 53.65625 10.5 56.84375 16.609375 
L 58.796875 16.609375 
L 53.078125 0 
L 2.046875 0 
L 2.046875 1.8125 
L 4.390625 1.8125 
Q 6.734375 1.8125 8.84375 2.9375 
Q 10.40625 3.71875 10.96875 5.28125 
Q 11.53125 6.84375 11.53125 11.671875 
L 11.53125 54.6875 
Q 11.53125 60.984375 10.25 62.453125 
Q 8.5 64.40625 4.390625 64.40625 
L 2.046875 64.40625 
L 2.046875 66.21875 
L 53.078125 66.21875 
L 53.8125 51.703125 
L 51.90625 51.703125 
Q 50.875 56.9375 49.625 58.890625 
Q 48.390625 60.84375 45.953125 61.859375 
Q 44 62.59375 39.0625 62.59375 
z
" id="TimesNewRomanPSMT-45"/>
     </defs>
     <g style="fill:#262626;" transform="translate(12.860938 152.449531)rotate(-90)scale(0.1 -0.1)">
      <use xlink:href="#TimesNewRomanPSMT-52"/>
      <use x="66.699219" xlink:href="#TimesNewRomanPSMT-53"/>
      <use x="122.314453" xlink:href="#TimesNewRomanPSMT-45"/>
     </g>
    </g>
   </g>
   <g id="line2d_25">
    <path clip-path="url(#p224137f94f)" d="M 57.681818 129.839992 
L 57.803935 31.182467 
L 58.048168 39.139933 
L 59.025102 61.598747 
L 59.635685 70.802347 
L 60.368385 77.919826 
L 60.612619 79.208222 
L 61.223202 83.459403 
L 61.345319 83.863065 
L 61.833786 88.055073 
L 61.955902 88.091272 
L 62.688602 93.353437 
L 63.299186 96.931034 
L 63.421303 98.493327 
L 63.543419 98.376872 
L 63.909769 101.222509 
L 64.031886 101.710097 
L 64.276119 104.168075 
L 64.398236 104.241937 
L 64.642469 106.119055 
L 64.764586 106.283429 
L 64.886703 108.772736 
L 65.00882 108.609866 
L 65.253053 108.137966 
L 65.37517 110.675399 
L 65.497286 110.252301 
L 65.619403 111.692278 
L 65.74152 111.406727 
L 65.985753 114.521326 
L 66.10787 114.693738 
L 66.352103 116.221719 
L 66.47422 116.632238 
L 66.718453 117.779504 
L 66.84057 117.612517 
L 67.084803 120.447706 
L 67.20692 120.21058 
L 67.329037 121.265773 
L 67.451153 124.224304 
L 67.57327 122.55995 
L 67.695387 122.5294 
L 67.817503 123.625927 
L 67.93962 122.514154 
L 68.061737 126.278007 
L 68.183853 125.593043 
L 68.30597 126.240417 
L 68.428087 126.275004 
L 68.550204 126.022403 
L 68.794437 128.754242 
L 68.916554 130.244463 
L 69.03867 129.9267 
L 69.160787 130.497746 
L 69.282904 132.060529 
L 69.40502 132.003288 
L 69.527137 133.024513 
L 69.649254 132.38111 
L 69.77137 133.462747 
L 69.893487 133.317974 
L 70.015604 132.344113 
L 70.259837 134.438661 
L 70.504071 136.35577 
L 70.626187 136.330692 
L 70.748304 135.93909 
L 70.992537 138.327542 
L 71.114654 136.761561 
L 71.358887 139.481609 
L 71.481004 140.406724 
L 71.603121 139.729864 
L 71.725237 140.142378 
L 71.847354 142.076609 
L 71.969471 140.564176 
L 72.213704 141.864337 
L 72.335821 141.811355 
L 72.457938 142.563836 
L 72.580054 142.433794 
L 72.702171 143.860783 
L 72.824288 143.344031 
L 73.068521 143.83296 
L 73.312754 146.642896 
L 73.556988 144.614993 
L 73.679104 146.09936 
L 73.801221 145.253193 
L 73.923338 147.377649 
L 74.045455 145.148199 
L 74.167571 147.801266 
L 74.289688 146.086543 
L 74.411805 147.85298 
L 74.533921 147.233433 
L 74.778155 149.733521 
L 74.900271 149.572817 
L 75.022388 150.981806 
L 75.144505 149.708026 
L 75.510855 152.520937 
L 75.877205 151.135391 
L 75.999322 150.9455 
L 76.243555 152.865914 
L 76.365672 152.67287 
L 76.487788 154.862316 
L 76.609905 153.323464 
L 76.732022 153.793953 
L 76.854138 152.742872 
L 77.098372 154.563157 
L 77.220488 153.333946 
L 77.464722 154.982027 
L 77.708955 153.896564 
L 77.953189 156.599957 
L 78.441655 154.888446 
L 78.563772 158.125576 
L 78.685889 156.715479 
L 78.930122 158.69054 
L 79.052239 157.467949 
L 79.174355 157.602171 
L 79.296472 159.012706 
L 79.418589 156.875984 
L 79.784939 159.952686 
L 79.907056 159.45677 
L 80.029172 157.974604 
L 80.151289 159.677747 
L 80.273406 158.661743 
L 80.517639 159.345495 
L 80.639756 161.322669 
L 80.883989 159.729579 
L 81.006106 158.031418 
L 81.128223 161.912165 
L 81.250339 161.57391 
L 81.372456 162.415347 
L 81.738806 160.7897 
L 81.860923 161.121649 
L 81.983039 160.261219 
L 82.105156 162.390448 
L 82.227273 160.69175 
L 82.349389 162.030106 
L 82.471506 160.451312 
L 82.593623 163.7217 
L 82.715739 161.608517 
L 82.837856 163.604668 
L 83.08209 162.238134 
L 83.204206 162.926101 
L 83.326323 162.760138 
L 83.44844 161.125185 
L 83.570556 163.085471 
L 83.692673 163.226579 
L 83.81479 161.861493 
L 83.936906 161.828909 
L 84.059023 163.711024 
L 84.18114 163.856068 
L 84.303256 164.577852 
L 84.54749 162.470025 
L 84.669607 164.156447 
L 84.791723 163.374462 
L 84.91384 163.330078 
L 85.158073 164.448373 
L 85.402307 161.55933 
L 85.524423 165.585009 
L 85.64654 162.732161 
L 86.01289 167.026666 
L 86.135007 164.106601 
L 86.37924 165.115699 
L 86.623474 163.979014 
L 86.74559 165.222874 
L 86.867707 163.894443 
L 86.989824 164.737132 
L 87.11194 167.33867 
L 87.356174 165.513241 
L 87.47829 167.232914 
L 87.600407 166.116988 
L 87.722524 166.570294 
L 87.84464 165.532258 
L 87.966757 166.700216 
L 88.088874 166.080867 
L 88.210991 168.325523 
L 88.577341 165.113007 
L 88.699457 168.554448 
L 88.821574 168.40672 
L 89.065807 164.506334 
L 89.187924 167.788365 
L 89.432157 165.876715 
L 89.554274 166.257665 
L 89.676391 165.923557 
L 89.920624 168.387697 
L 90.164858 169.085751 
L 90.286974 168.401243 
L 90.531208 166.649845 
L 90.653324 169.386885 
L 90.775441 169.161873 
L 90.897558 169.23642 
L 91.141791 169.106951 
L 91.263908 166.689793 
L 91.508141 169.885209 
L 91.630258 169.316156 
L 91.874491 171.309645 
L 91.996608 168.058642 
L 92.118725 170.112071 
L 92.240841 169.18664 
L 92.362958 171.392979 
L 92.485075 170.803385 
L 92.729308 168.81727 
L 92.973541 166.158544 
L 93.095658 171.02403 
L 93.217775 169.909268 
L 93.462008 171.156137 
L 93.584125 168.496493 
L 93.706242 170.691838 
L 93.828358 169.579897 
L 93.950475 171.264521 
L 94.194708 169.850584 
L 94.316825 169.814007 
L 94.438942 169.108531 
L 94.561058 170.175798 
L 94.683175 169.349245 
L 94.805292 169.792797 
L 94.927408 169.560902 
L 95.049525 169.945582 
L 95.171642 169.022995 
L 95.293758 172.170326 
L 95.415875 172.101916 
L 95.537992 169.27688 
L 95.660109 169.484362 
L 95.782225 171.97831 
L 95.904342 171.307407 
L 96.026459 169.466741 
L 96.270692 172.874262 
L 96.392809 171.125457 
L 96.514925 172.463294 
L 96.759159 172.521943 
L 96.881275 170.787439 
L 97.003392 172.83427 
L 97.247626 168.889809 
L 97.491859 171.388573 
L 97.613976 168.562833 
L 97.736092 168.474485 
L 97.858209 174.076496 
L 97.980326 171.540132 
L 98.102442 173.43898 
L 98.224559 173.604036 
L 98.346676 173.168542 
L 98.468792 171.084471 
L 98.713026 173.708031 
L 98.957259 170.714364 
L 99.079376 170.99743 
L 99.201493 173.212848 
L 99.323609 171.123973 
L 99.445726 171.421401 
L 99.567843 170.327771 
L 99.812076 171.793404 
L 100.178426 173.597748 
L 100.300543 174.187465 
L 100.422659 171.738068 
L 100.544776 172.712957 
L 100.666893 175.231165 
L 100.911126 170.193925 
L 101.033243 173.005583 
L 101.15536 172.355895 
L 101.277476 175.027323 
L 101.52171 172.656582 
L 101.765943 174.891057 
L 101.88806 175.499041 
L 102.010176 172.131259 
L 102.132293 173.28611 
L 102.498643 171.427032 
L 102.864993 174.328853 
L 102.98711 173.648935 
L 103.109227 173.71095 
L 103.231343 171.796653 
L 103.35346 174.858432 
L 103.597693 171.917043 
L 103.71981 174.840512 
L 103.841927 173.643609 
L 103.964043 177.178426 
L 104.208277 173.444765 
L 104.330393 175.309244 
L 104.45251 172.998227 
L 104.574627 174.653828 
L 104.696744 174.251799 
L 104.81886 175.485095 
L 104.940977 173.676768 
L 105.063094 176.794097 
L 105.18521 171.558735 
L 105.307327 172.349605 
L 105.429444 171.523085 
L 105.55156 176.238627 
L 105.91791 172.208961 
L 106.040027 174.494052 
L 106.284261 171.222784 
L 106.406377 176.768668 
L 106.650611 174.483291 
L 106.772727 174.866759 
L 106.894844 176.067364 
L 107.016961 175.347521 
L 107.139077 173.603005 
L 107.261194 175.624049 
L 107.383311 174.989569 
L 107.505427 176.904787 
L 107.627544 176.502311 
L 107.871777 174.599928 
L 107.993894 175.498958 
L 108.238128 174.004155 
L 108.360244 177.983908 
L 108.604478 172.804083 
L 108.848711 176.180323 
L 109.092944 174.236976 
L 109.215061 176.339756 
L 109.337178 174.24195 
L 109.459294 174.574082 
L 109.581411 175.647711 
L 109.703528 174.977932 
L 109.825645 177.072765 
L 109.947761 174.856233 
L 110.069878 177.126394 
L 110.191995 175.019258 
L 110.314111 176.50145 
L 110.436228 176.016278 
L 110.558345 172.133629 
L 110.924695 178.076747 
L 111.046811 175.513036 
L 111.168928 177.000401 
L 111.291045 176.764837 
L 111.413161 178.293068 
L 111.657395 174.026804 
L 111.901628 175.826883 
L 112.145862 176.317661 
L 112.267978 176.143193 
L 112.390095 176.888605 
L 112.512212 174.433635 
L 112.634328 178.819576 
L 112.756445 172.954 
L 112.878562 177.18528 
L 113.122795 174.399146 
L 113.489145 178.739816 
L 113.611262 177.583182 
L 113.733379 178.052937 
L 113.855495 174.182245 
L 113.977612 174.514651 
L 114.099729 178.656101 
L 114.221845 174.022055 
L 114.343962 177.961785 
L 114.466079 175.956743 
L 114.588195 176.219068 
L 114.710312 175.689007 
L 114.832429 175.726975 
L 114.954545 175.556833 
L 115.076662 175.817724 
L 115.198779 176.827049 
L 115.320896 176.201943 
L 115.443012 171.951607 
L 115.687246 175.864521 
L 115.809362 176.639156 
L 115.931479 175.486969 
L 116.053596 172.578364 
L 116.175712 175.998595 
L 116.297829 172.29381 
L 116.419946 176.910592 
L 116.542062 174.364817 
L 116.786296 174.877204 
L 116.908412 174.550082 
L 117.030529 173.521803 
L 117.152646 176.86674 
L 117.274763 176.59282 
L 117.518996 173.112362 
L 117.641113 173.227397 
L 117.763229 172.084606 
L 118.007463 177.183988 
L 118.129579 175.24879 
L 118.251696 176.806721 
L 118.373813 176.661612 
L 118.495929 173.132715 
L 118.740163 176.022288 
L 118.86228 174.780168 
L 118.984396 176.6885 
L 119.106513 174.710051 
L 119.350746 175.211667 
L 119.472863 173.724727 
L 119.717096 177.420665 
L 119.839213 177.499603 
L 119.96133 175.374174 
L 120.083446 175.502512 
L 120.205563 178.836022 
L 120.449796 174.102743 
L 120.69403 178.483625 
L 120.816147 178.426492 
L 121.06038 174.480668 
L 121.182497 177.898511 
L 121.42673 176.612118 
L 121.548847 178.52997 
L 121.670963 175.755475 
L 121.79308 177.867465 
L 121.915197 173.880558 
L 122.15943 179.256649 
L 122.281547 180.225549 
L 122.403664 177.157525 
L 122.52578 179.490873 
L 122.647897 177.009185 
L 122.89213 179.896337 
L 123.014247 179.170386 
L 123.136364 173.593572 
L 123.380597 179.266219 
L 123.502714 179.801936 
L 123.62483 177.105158 
L 123.746947 178.255369 
L 123.99118 181.417585 
L 124.113297 180.032017 
L 124.235414 181.856717 
L 124.357531 175.221849 
L 124.479647 180.926218 
L 124.601764 181.160221 
L 124.723881 179.072134 
L 124.845997 179.211296 
L 125.090231 182.014558 
L 125.212347 182.404094 
L 125.334464 183.898557 
L 125.456581 179.283846 
L 125.578697 180.042792 
L 125.700814 177.956124 
L 125.822931 182.846208 
L 125.945047 180.904634 
L 126.067164 182.551331 
L 126.189281 182.557743 
L 126.555631 179.665409 
L 126.677748 182.838411 
L 126.799864 178.924789 
L 126.921981 179.173342 
L 127.044098 184.220584 
L 127.166214 181.643375 
L 127.288331 183.421243 
L 127.410448 180.703889 
L 127.532564 182.992543 
L 127.776798 182.352431 
L 127.898915 180.147962 
L 128.021031 180.284889 
L 128.265265 183.623795 
L 128.509498 181.327081 
L 128.631615 182.401448 
L 128.753731 182.305656 
L 128.875848 185.14819 
L 128.997965 182.406959 
L 129.120081 182.945951 
L 129.242198 182.859616 
L 129.486431 183.232467 
L 129.608548 181.853559 
L 129.852782 183.081866 
L 129.974898 183.451774 
L 130.097015 182.725256 
L 130.219132 183.231463 
L 130.341248 183.024542 
L 130.463365 180.674664 
L 130.585482 182.142038 
L 130.707598 181.319049 
L 130.829715 183.329448 
L 131.073948 180.381639 
L 131.196065 184.77696 
L 131.318182 183.420426 
L 131.440299 180.285099 
L 131.562415 183.792783 
L 131.806649 181.636395 
L 131.928765 182.712607 
L 132.050882 181.230478 
L 132.295115 182.348533 
L 132.539349 179.322999 
L 132.661465 183.350561 
L 132.783582 179.414668 
L 132.905699 179.538808 
L 133.027815 180.63722 
L 133.149932 180.168725 
L 133.272049 181.80261 
L 133.394166 179.578694 
L 133.516282 182.455448 
L 133.638399 181.927694 
L 133.760516 180.796081 
L 133.882632 177.337616 
L 134.004749 180.034283 
L 134.126866 177.573048 
L 134.248982 181.472189 
L 134.493216 178.924191 
L 134.615332 179.489127 
L 134.737449 182.150854 
L 134.981682 178.885227 
L 135.103799 180.681815 
L 135.225916 179.97639 
L 135.348033 178.107656 
L 135.470149 181.237822 
L 135.592266 180.11136 
L 135.714383 180.656624 
L 135.836499 179.8145 
L 135.958616 178.186679 
L 136.080733 181.838798 
L 136.202849 178.564752 
L 136.324966 181.115509 
L 136.447083 178.350116 
L 136.691316 181.078135 
L 136.813433 175.506481 
L 137.424016 180.746296 
L 137.66825 179.89186 
L 137.790366 179.72698 
L 137.912483 174.719687 
L 138.156716 179.219297 
L 138.278833 178.971872 
L 138.40095 178.69695 
L 138.523066 177.612219 
L 138.7673 180.854272 
L 138.889417 175.495949 
L 139.011533 179.039879 
L 139.13365 178.984653 
L 139.255767 181.072749 
L 139.377883 181.186116 
L 139.5 177.668965 
L 139.622117 177.396143 
L 139.744233 180.889729 
L 139.988467 176.799646 
L 140.110583 179.69604 
L 140.2327 179.827443 
L 140.354817 175.47357 
L 140.476934 179.669421 
L 140.59905 178.615049 
L 140.721167 179.470793 
L 140.9654 178.830998 
L 141.087517 179.895809 
L 141.209634 177.639781 
L 141.33175 179.240038 
L 141.453867 178.18805 
L 141.575984 178.913147 
L 141.6981 173.744041 
L 141.942334 179.045089 
L 142.06445 176.978577 
L 142.186567 179.671407 
L 142.430801 176.075657 
L 142.675034 177.115885 
L 142.797151 176.602589 
L 142.919267 178.262161 
L 143.163501 176.586667 
L 143.285617 180.151593 
L 143.407734 177.916957 
L 143.529851 180.2054 
L 143.651967 176.309478 
L 143.774084 177.558876 
L 143.896201 174.786661 
L 144.018318 174.769314 
L 144.140434 179.699682 
L 144.384668 177.068933 
L 144.506784 179.245925 
L 144.628901 177.503087 
L 144.751018 181.833965 
L 144.995251 176.178922 
L 145.117368 179.794741 
L 145.361601 176.718447 
L 145.483718 177.116471 
L 145.605834 176.999047 
L 145.850068 174.059471 
L 145.972185 178.503707 
L 146.094301 174.605804 
L 146.460651 177.386619 
L 146.704885 174.657995 
L 146.827001 175.087529 
L 146.949118 177.378768 
L 147.071235 175.761429 
L 147.315468 179.277109 
L 147.437585 174.617291 
L 147.681818 180.477825 
L 147.803935 177.406615 
L 147.926052 178.647653 
L 148.048168 177.588314 
L 148.170285 178.145721 
L 148.292402 178.130024 
L 148.414518 175.334121 
L 148.658752 177.753107 
L 148.780868 178.239261 
L 148.902985 176.429653 
L 149.025102 178.658078 
L 149.147218 178.445357 
L 149.269335 176.255702 
L 149.391452 176.636684 
L 149.513569 180.366717 
L 149.879919 175.413543 
L 150.002035 177.53613 
L 150.246269 174.196511 
L 150.368385 176.991655 
L 150.490502 175.214222 
L 150.612619 177.898207 
L 150.734735 175.557294 
L 150.856852 175.835866 
L 151.101085 175.128045 
L 151.223202 176.324819 
L 151.345319 174.962997 
L 151.589552 178.978569 
L 151.711669 173.827516 
L 151.833786 180.35768 
L 151.955902 177.96692 
L 152.200136 179.446737 
L 152.322252 173.325119 
L 152.444369 179.763769 
L 152.688602 177.425747 
L 152.810719 178.481577 
L 152.932836 174.442963 
L 153.054953 176.068746 
L 153.177069 173.442312 
L 153.299186 176.008829 
L 153.421303 174.238375 
L 153.665536 175.950207 
L 153.787653 172.566853 
L 153.909769 178.623492 
L 154.031886 173.776619 
L 154.154003 177.389736 
L 154.276119 176.047395 
L 154.398236 177.92083 
L 154.642469 172.944575 
L 154.764586 176.857473 
L 154.886703 177.202583 
L 155.00882 175.962672 
L 155.130936 176.366684 
L 155.253053 174.661989 
L 155.37517 176.096407 
L 155.497286 179.340007 
L 155.619403 173.315924 
L 155.74152 174.970087 
L 155.863636 174.968807 
L 155.985753 172.68284 
L 156.10787 173.968166 
L 156.229986 178.684518 
L 156.352103 176.751907 
L 156.47422 178.85395 
L 156.84057 172.626044 
L 157.084803 178.650418 
L 157.329037 173.015342 
L 157.451153 174.937565 
L 157.57327 174.867465 
L 157.695387 177.209358 
L 157.817503 176.89912 
L 157.93962 174.595888 
L 158.183853 178.471256 
L 158.30597 176.27995 
L 158.428087 177.160763 
L 158.550204 177.029113 
L 158.67232 176.497637 
L 158.794437 173.776174 
L 158.916554 176.665416 
L 159.03867 175.463771 
L 159.160787 175.397806 
L 159.282904 175.026553 
L 159.40502 175.929258 
L 159.649254 174.093664 
L 159.77137 176.051794 
L 159.893487 175.507721 
L 160.015604 176.863714 
L 160.13772 173.730233 
L 160.259837 176.439603 
L 160.504071 176.54691 
L 160.626187 177.461889 
L 160.748304 177.195729 
L 160.870421 173.590502 
L 161.114654 176.286743 
L 161.236771 175.828445 
L 161.358887 173.641033 
L 161.603121 178.9215 
L 161.725237 174.059386 
L 161.847354 178.677652 
L 161.969471 176.152005 
L 162.091588 176.955646 
L 162.335821 175.007475 
L 162.457938 173.305087 
L 162.580054 176.655113 
L 162.702171 172.293419 
L 162.946404 177.756267 
L 163.068521 176.650707 
L 163.190638 176.567675 
L 163.312754 178.302417 
L 163.434871 173.337876 
L 163.556988 174.036597 
L 163.679104 177.269974 
L 163.801221 174.589449 
L 163.923338 176.247777 
L 164.045455 174.743025 
L 164.167571 176.150605 
L 164.289688 173.20429 
L 164.411805 176.967973 
L 164.656038 173.503923 
L 164.778155 173.811937 
L 164.900271 176.959705 
L 165.022388 174.689209 
L 165.144505 175.347684 
L 165.266621 174.00268 
L 165.388738 175.856267 
L 165.510855 172.262665 
L 165.755088 176.498068 
L 165.877205 171.707131 
L 165.999322 176.76335 
L 166.243555 174.199564 
L 166.365672 174.783296 
L 166.487788 174.29585 
L 166.609905 175.94341 
L 166.854138 172.368001 
L 166.976255 175.409536 
L 167.220488 174.535337 
L 167.342605 172.869072 
L 167.586839 175.089729 
L 167.831072 173.928529 
L 167.953189 174.179453 
L 168.075305 176.081154 
L 168.197422 173.849917 
L 168.319539 177.367476 
L 168.563772 173.189899 
L 168.685889 177.058785 
L 168.808005 175.517872 
L 168.930122 175.669153 
L 169.052239 174.786561 
L 169.174355 172.985939 
L 169.540706 176.76553 
L 169.662822 171.901026 
L 169.784939 177.191241 
L 169.907056 172.90772 
L 170.151289 176.294153 
L 170.273406 175.752398 
L 170.395522 172.41033 
L 170.639756 175.780336 
L 170.761872 172.762628 
L 171.006106 174.588041 
L 171.128223 174.742182 
L 171.250339 175.13954 
L 171.372456 176.305236 
L 171.616689 174.628316 
L 171.738806 173.96509 
L 171.860923 175.839077 
L 171.983039 169.980913 
L 172.227273 176.88826 
L 172.349389 173.182153 
L 172.471506 177.433756 
L 172.593623 176.104933 
L 172.715739 176.065643 
L 172.959973 171.943073 
L 173.08209 173.208593 
L 173.204206 175.883985 
L 173.44844 173.387557 
L 173.570556 176.846887 
L 173.692673 173.36785 
L 173.81479 173.125352 
L 173.936906 171.048303 
L 174.059023 174.161854 
L 174.18114 171.389717 
L 174.303256 174.359379 
L 174.425373 173.153768 
L 174.54749 169.513477 
L 174.669607 170.192145 
L 174.91384 176.775314 
L 175.035957 174.433984 
L 175.158073 174.988058 
L 175.28019 170.976111 
L 175.402307 171.32572 
L 175.524423 173.620666 
L 175.64654 170.506083 
L 175.768657 171.108318 
L 175.890773 169.787987 
L 176.01289 173.521331 
L 176.135007 170.934166 
L 176.257123 172.515187 
L 176.37924 172.558144 
L 176.501357 171.84611 
L 176.623474 175.264886 
L 176.74559 171.891264 
L 176.867707 171.851201 
L 176.989824 172.831494 
L 177.11194 175.648192 
L 177.234057 175.513517 
L 177.356174 174.344128 
L 177.47829 176.71584 
L 177.600407 171.42587 
L 177.722524 171.648446 
L 177.84464 175.353642 
L 177.966757 171.705641 
L 178.210991 172.875853 
L 178.333107 174.288817 
L 178.577341 172.366627 
L 178.699457 174.558338 
L 178.821574 172.707591 
L 178.943691 175.285011 
L 179.187924 174.462881 
L 179.310041 174.540859 
L 179.432157 170.461211 
L 179.554274 174.21596 
L 179.920624 175.123245 
L 180.164858 172.210289 
L 180.286974 172.95438 
L 180.409091 171.262894 
L 180.531208 171.5847 
L 180.653324 169.931633 
L 180.775441 174.056375 
L 180.897558 172.186668 
L 181.019674 174.116521 
L 181.141791 173.115744 
L 181.263908 169.748128 
L 181.386024 172.963778 
L 181.630258 171.515361 
L 181.874491 173.356537 
L 181.996608 171.316611 
L 182.118725 174.214424 
L 182.362958 169.880076 
L 182.485075 170.306165 
L 182.607191 173.506825 
L 182.729308 170.256043 
L 182.851425 175.386726 
L 182.973541 170.358556 
L 183.095658 173.869681 
L 183.217775 173.615915 
L 183.462008 172.394576 
L 183.584125 175.484916 
L 183.828358 170.248774 
L 183.950475 171.752314 
L 184.072592 169.451578 
L 184.438942 175.782237 
L 184.561058 171.30134 
L 184.683175 174.429396 
L 184.927408 171.689111 
L 185.171642 174.805432 
L 185.415875 169.103514 
L 185.782225 174.119054 
L 185.904342 173.934083 
L 186.148575 171.241047 
L 186.270692 173.832065 
L 186.514925 170.461627 
L 186.637042 175.021003 
L 186.881275 171.114909 
L 187.003392 172.18018 
L 187.125509 171.939562 
L 187.247626 172.319813 
L 187.369742 171.415766 
L 187.491859 173.279353 
L 187.613976 173.207269 
L 187.736092 172.034222 
L 187.858209 174.35004 
L 187.980326 172.89483 
L 188.102442 172.830238 
L 188.224559 171.958647 
L 188.346676 172.096692 
L 188.468792 171.327343 
L 188.590909 172.266974 
L 188.713026 172.250955 
L 188.835142 171.511894 
L 188.957259 170.081431 
L 189.201493 174.739314 
L 189.567843 172.370323 
L 189.812076 176.379631 
L 189.934193 171.406689 
L 190.178426 174.341296 
L 190.300543 171.419144 
L 190.422659 173.238359 
L 190.544776 173.054357 
L 190.666893 175.495584 
L 190.789009 172.283232 
L 190.911126 174.998093 
L 191.033243 172.741877 
L 191.15536 172.786617 
L 191.277476 167.975197 
L 191.52171 177.201873 
L 191.643826 176.569669 
L 192.010176 171.897423 
L 192.132293 175.010406 
L 192.376526 172.808293 
L 192.498643 173.492826 
L 192.62076 171.850692 
L 192.742877 177.614549 
L 192.98711 176.243118 
L 193.109227 170.632044 
L 193.231343 171.581014 
L 193.475577 176.31128 
L 193.597693 170.508625 
L 193.841927 174.401564 
L 193.964043 173.095914 
L 194.08616 177.095932 
L 194.330393 173.85502 
L 194.45251 175.171514 
L 194.574627 170.703059 
L 194.696744 173.084881 
L 194.81886 172.856886 
L 194.940977 175.446347 
L 195.18521 172.091915 
L 195.307327 172.648787 
L 195.429444 175.564589 
L 195.673677 173.810268 
L 195.795794 174.320298 
L 195.91791 173.263367 
L 196.162144 174.268308 
L 196.406377 168.753924 
L 196.650611 176.999128 
L 196.894844 174.616415 
L 197.139077 175.81124 
L 197.261194 173.892536 
L 197.383311 174.014923 
L 197.627544 172.411099 
L 197.749661 174.638415 
L 197.871777 173.922452 
L 198.116011 176.610325 
L 198.238128 173.210148 
L 198.360244 173.744708 
L 198.482361 176.808957 
L 198.604478 174.271303 
L 198.726594 174.247938 
L 198.848711 177.022412 
L 198.970828 172.865863 
L 199.092944 176.048777 
L 199.459294 170.70759 
L 199.703528 177.293045 
L 199.825645 171.721327 
L 199.947761 175.489535 
L 200.069878 175.438338 
L 200.191995 175.544619 
L 200.314111 176.049008 
L 200.436228 174.194019 
L 200.558345 174.332191 
L 200.680461 174.929926 
L 200.802578 176.248476 
L 200.924695 170.881154 
L 201.046811 171.663493 
L 201.168928 175.410101 
L 201.291045 171.549854 
L 201.413161 175.394986 
L 201.535278 175.18023 
L 201.657395 173.173632 
L 201.779512 175.705613 
L 201.901628 172.478857 
L 202.145862 176.808017 
L 202.267978 170.792145 
L 202.512212 175.640815 
L 202.756445 173.038426 
L 202.878562 176.052333 
L 203.000678 169.525115 
L 203.122795 176.016536 
L 203.244912 173.70214 
L 203.367028 177.878595 
L 203.611262 172.351815 
L 203.733379 176.821146 
L 203.855495 174.824589 
L 203.977612 177.062087 
L 204.099729 173.316945 
L 204.221845 180.162563 
L 204.588195 173.561607 
L 204.710312 174.781583 
L 204.832429 173.132035 
L 205.076662 176.509597 
L 205.198779 177.692926 
L 205.320896 177.477328 
L 205.443012 178.831923 
L 205.565129 175.434204 
L 205.687246 176.699407 
L 205.809362 175.349393 
L 205.931479 176.758343 
L 206.175712 173.855868 
L 206.297829 174.009419 
L 206.419946 178.116196 
L 206.664179 172.165025 
L 206.786296 176.600145 
L 207.030529 175.563366 
L 207.152646 176.218394 
L 207.274763 179.165329 
L 207.518996 170.798596 
L 207.641113 177.339229 
L 207.763229 173.056453 
L 207.885346 177.191104 
L 208.007463 177.095687 
L 208.129579 177.45473 
L 208.251696 175.015139 
L 208.373813 176.215566 
L 208.495929 172.220776 
L 208.740163 181.04509 
L 208.86228 179.963442 
L 208.984396 176.56785 
L 209.106513 176.357329 
L 209.22863 174.314994 
L 209.472863 179.655032 
L 209.717096 173.286674 
L 209.96133 178.959692 
L 210.205563 175.895209 
L 210.32768 176.485104 
L 210.449796 173.915012 
L 210.571913 178.82756 
L 210.816147 174.551046 
L 210.938263 176.24314 
L 211.06038 174.363817 
L 211.182497 176.124675 
L 211.304613 171.523691 
L 211.548847 175.677218 
L 211.670963 173.914662 
L 211.79308 173.784397 
L 212.037313 180.004325 
L 212.15943 174.122856 
L 212.281547 176.9805 
L 212.403664 176.888105 
L 212.647897 177.780626 
L 212.770014 176.741861 
L 212.89213 178.254606 
L 213.014247 175.189086 
L 213.136364 179.302352 
L 213.502714 174.918831 
L 213.62483 175.527849 
L 213.746947 177.67765 
L 213.869064 177.588073 
L 213.99118 176.809284 
L 214.235414 179.260072 
L 214.357531 175.372324 
L 214.479647 177.331219 
L 214.723881 174.8863 
L 214.845997 174.835407 
L 214.968114 178.50134 
L 215.090231 178.782197 
L 215.212347 177.758635 
L 215.334464 178.256529 
L 215.456581 175.465723 
L 215.578697 177.358963 
L 215.700814 174.637869 
L 215.945047 177.080485 
L 216.189281 174.520566 
L 216.433514 178.093081 
L 216.555631 178.602353 
L 216.677748 175.533773 
L 216.799864 176.046415 
L 216.921981 177.335308 
L 217.044098 174.983938 
L 217.166214 176.492176 
L 217.288331 174.143727 
L 217.410448 177.014973 
L 217.654681 175.409899 
L 217.776798 178.605175 
L 217.898915 178.690157 
L 218.143148 175.666559 
L 218.265265 177.639677 
L 218.387381 175.402329 
L 218.509498 176.258674 
L 218.631615 175.711252 
L 218.753731 177.762783 
L 218.875848 173.50614 
L 218.997965 177.549455 
L 219.120081 177.149645 
L 219.242198 181.172322 
L 219.364315 176.271114 
L 219.486431 176.068313 
L 219.608548 175.620189 
L 219.852782 180.102813 
L 220.097015 178.068532 
L 220.219132 178.382452 
L 220.341248 181.597147 
L 220.463365 177.015541 
L 220.585482 180.359326 
L 220.829715 177.548491 
L 220.951832 180.65215 
L 221.073948 175.196136 
L 221.196065 178.148338 
L 221.318182 177.320993 
L 221.440299 177.348908 
L 221.562415 175.628935 
L 221.684532 175.533926 
L 221.806649 178.850876 
L 221.928765 174.342274 
L 222.050882 178.119391 
L 222.295115 176.082134 
L 222.417232 176.618934 
L 222.539349 173.62447 
L 223.027815 181.217098 
L 223.149932 178.945414 
L 223.272049 179.052734 
L 223.394166 176.101749 
L 223.516282 177.015905 
L 223.638399 176.076894 
L 223.760516 179.509562 
L 224.004749 174.67556 
L 224.126866 174.993998 
L 224.248982 179.360562 
L 224.371099 177.774821 
L 224.493216 178.285795 
L 224.737449 182.580824 
L 224.859566 176.275087 
L 224.981682 177.467231 
L 225.103799 181.104827 
L 225.348033 174.124995 
L 225.592266 180.470193 
L 225.714383 180.337383 
L 225.836499 181.767184 
L 225.958616 179.199601 
L 226.080733 179.723183 
L 226.202849 176.362243 
L 226.324966 176.849668 
L 226.569199 182.684157 
L 226.691316 176.844836 
L 226.813433 182.133112 
L 227.057666 178.492008 
L 227.179783 179.524987 
L 227.3019 183.44138 
L 227.424016 180.907266 
L 227.546133 183.183204 
L 227.66825 182.708134 
L 227.912483 176.194851 
L 228.156716 182.735284 
L 228.278833 178.334224 
L 228.40095 180.129928 
L 228.523066 179.207031 
L 228.645183 179.334611 
L 228.7673 181.738893 
L 228.889417 180.370397 
L 229.13365 181.406653 
L 229.255767 176.705869 
L 229.377883 180.047756 
L 229.5 179.728004 
L 229.622117 180.180913 
L 229.744233 178.093541 
L 229.86635 180.71972 
L 229.988467 177.517033 
L 230.110583 177.959464 
L 230.2327 181.673337 
L 230.354817 177.464722 
L 230.476934 180.065902 
L 230.843284 176.762402 
L 230.9654 180.366689 
L 231.209634 178.32587 
L 231.33175 179.217092 
L 231.453867 177.903529 
L 231.575984 180.086262 
L 231.820217 178.402619 
L 231.942334 178.46383 
L 232.06445 177.647157 
L 232.308684 182.690421 
L 232.552917 178.210626 
L 232.797151 181.148499 
L 232.919267 180.284044 
L 233.041384 180.923097 
L 233.163501 184.787641 
L 233.407734 177.712202 
L 233.529851 178.892499 
L 233.651967 182.872592 
L 233.774084 180.837236 
L 233.896201 181.229649 
L 234.140434 184.92896 
L 234.262551 180.497404 
L 234.384668 181.444611 
L 234.628901 176.808922 
L 234.751018 183.681308 
L 234.873134 181.687793 
L 234.995251 182.393875 
L 235.117368 185.915293 
L 235.361601 181.508976 
L 235.483718 182.99127 
L 235.605834 181.338252 
L 235.727951 183.872199 
L 235.850068 182.628765 
L 236.216418 187.251487 
L 236.460651 182.042766 
L 236.582768 187.176272 
L 236.827001 183.258996 
L 236.949118 183.623126 
L 237.193351 184.952085 
L 237.315468 183.903621 
L 237.437585 184.627755 
L 237.559701 182.98668 
L 237.681818 184.054311 
L 237.803935 183.637272 
L 237.926052 184.817545 
L 238.048168 182.599692 
L 238.170285 186.315282 
L 238.292402 186.192604 
L 238.536635 180.653967 
L 238.780868 186.575841 
L 238.902985 181.470786 
L 239.025102 185.865633 
L 239.147218 185.262208 
L 239.269335 188.892693 
L 239.391452 184.96663 
L 239.513569 184.976933 
L 239.635685 186.179598 
L 239.757802 185.726232 
L 239.879919 182.963209 
L 240.002035 186.889807 
L 240.246269 182.385683 
L 240.368385 182.544142 
L 240.490502 186.26689 
L 240.612619 186.45358 
L 240.734735 184.553151 
L 240.856852 185.634652 
L 240.978969 182.561032 
L 241.345319 184.896732 
L 241.467436 184.338483 
L 241.589552 185.220475 
L 241.833786 182.671323 
L 241.955902 187.292099 
L 242.078019 185.526693 
L 242.200136 185.572835 
L 242.322252 188.914313 
L 242.444369 186.536995 
L 242.566486 189.456001 
L 242.688602 188.728391 
L 242.810719 191.164004 
L 242.932836 186.051697 
L 243.054953 186.606005 
L 243.177069 189.156614 
L 243.299186 185.53817 
L 243.421303 186.531842 
L 243.665536 190.290167 
L 243.787653 188.177028 
L 243.909769 190.766722 
L 244.031886 190.884907 
L 244.154003 192.553279 
L 244.276119 185.983776 
L 244.398236 194.30672 
L 244.520353 189.15685 
L 244.642469 189.438285 
L 244.764586 190.685672 
L 244.886703 190.171802 
L 245.00882 190.638297 
L 245.130936 189.303181 
L 245.253053 190.837839 
L 245.37517 189.637338 
L 245.497286 192.618931 
L 245.74152 190.006101 
L 245.985753 193.089292 
L 246.10787 192.216328 
L 246.352103 187.580809 
L 246.47422 193.222748 
L 246.596336 190.644522 
L 246.718453 190.972129 
L 246.84057 193.950562 
L 246.962687 189.134138 
L 247.084803 189.854705 
L 247.329037 187.749629 
L 247.451153 194.154317 
L 247.57327 187.000018 
L 247.695387 192.76189 
L 247.817503 191.38215 
L 247.93962 188.205813 
L 248.183853 193.910742 
L 248.30597 190.275777 
L 248.428087 190.828453 
L 248.550204 192.522717 
L 248.67232 190.758059 
L 248.794437 197.076299 
L 248.916554 192.624276 
L 249.03867 194.46539 
L 249.160787 194.20226 
L 249.282904 195.407795 
L 249.40502 193.343729 
L 249.527137 194.498441 
L 249.649254 187.817921 
L 249.77137 192.532921 
L 249.893487 192.619717 
L 250.015604 195.489317 
L 250.259837 191.573877 
L 250.504071 194.006741 
L 250.626187 193.758948 
L 250.748304 197.251322 
L 250.870421 189.722405 
L 250.992537 194.603996 
L 251.114654 194.247304 
L 251.236771 197.961334 
L 251.481004 189.772412 
L 251.603121 193.459406 
L 251.725237 190.958449 
L 251.847354 191.593071 
L 251.969471 194.370498 
L 252.091588 191.9433 
L 252.213704 193.759497 
L 252.335821 192.75853 
L 252.457938 189.9794 
L 252.824288 198.037285 
L 252.946404 192.875453 
L 253.068521 192.412225 
L 253.312754 196.735941 
L 253.434871 195.725636 
L 253.556988 195.813076 
L 253.679104 190.544207 
L 253.801221 192.234332 
L 253.923338 199.577555 
L 254.045455 195.182766 
L 254.167571 198.068402 
L 254.289688 195.276496 
L 254.411805 195.955905 
L 254.533921 195.390227 
L 254.656038 198.659503 
L 254.778155 195.100408 
L 254.900271 197.108635 
L 255.022388 197.078843 
L 255.144505 196.728409 
L 255.266621 194.810295 
L 255.388738 195.001225 
L 255.632972 197.32378 
L 255.755088 191.672799 
L 255.877205 196.357281 
L 255.999322 195.596255 
L 256.121438 197.512307 
L 256.243555 194.14549 
L 256.487788 198.203515 
L 256.609905 194.822606 
L 256.732022 200.733305 
L 256.854138 197.648628 
L 257.098372 200.355404 
L 257.220488 197.702712 
L 257.342605 198.45392 
L 257.586839 197.505316 
L 257.708955 200.317178 
L 257.831072 198.653784 
L 257.953189 200.204917 
L 258.197422 193.836598 
L 258.319539 200.728428 
L 258.441655 199.365108 
L 258.563772 201.531366 
L 258.685889 196.547565 
L 258.808005 202.009927 
L 259.052239 195.571836 
L 259.174355 199.582538 
L 259.418589 196.554679 
L 259.540706 195.855131 
L 259.662822 199.287418 
L 259.784939 197.046773 
L 260.029172 203.177349 
L 260.151289 195.700727 
L 260.395522 198.790351 
L 260.639756 195.163742 
L 260.761872 203.113002 
L 260.883989 195.701289 
L 261.128223 198.517274 
L 261.250339 196.013519 
L 261.494573 202.178193 
L 261.616689 199.27587 
L 261.738806 203.728874 
L 261.983039 194.918833 
L 262.349389 203.377581 
L 262.471506 197.561161 
L 262.593623 201.306477 
L 262.715739 199.304584 
L 262.837856 200.474405 
L 262.959973 196.617072 
L 263.204206 201.283815 
L 263.326323 199.802113 
L 263.44844 199.904063 
L 263.570556 199.197969 
L 263.692673 196.385447 
L 263.81479 202.928393 
L 263.936906 198.17654 
L 264.059023 197.892536 
L 264.18114 196.933788 
L 264.425373 204.424294 
L 264.54749 197.359799 
L 265.035957 203.298043 
L 265.158073 198.808957 
L 265.28019 198.474761 
L 265.402307 199.289312 
L 265.64654 204.564523 
L 265.890773 199.447475 
L 266.01289 202.647361 
L 266.37924 198.967282 
L 266.501357 202.082637 
L 266.623474 200.175482 
L 266.74559 204.392018 
L 266.989824 197.075779 
L 267.11194 202.542885 
L 267.356174 198.278309 
L 267.47829 201.88937 
L 267.600407 202.19807 
L 267.722524 200.675536 
L 267.84464 202.517607 
L 267.966757 201.126619 
L 268.088874 204.953516 
L 268.210991 199.102415 
L 268.333107 199.30916 
L 268.577341 199.99858 
L 268.699457 201.689102 
L 268.821574 201.225819 
L 268.943691 203.320101 
L 269.065807 197.74657 
L 269.187924 203.979698 
L 269.310041 199.233224 
L 269.432157 201.091219 
L 269.554274 199.431638 
L 269.798507 202.152727 
L 270.042741 199.375866 
L 270.286974 200.972087 
L 270.409091 201.046214 
L 270.653324 202.437954 
L 270.775441 197.517809 
L 271.141791 201.742661 
L 271.263908 196.014527 
L 271.386024 202.012406 
L 271.630258 200.872639 
L 271.752374 197.393919 
L 271.996608 204.342442 
L 272.240841 199.226392 
L 272.485075 202.833355 
L 272.607191 205.397803 
L 272.851425 196.927602 
L 273.095658 204.427116 
L 273.217775 198.151217 
L 273.462008 200.8748 
L 273.584125 199.000024 
L 273.706242 199.7334 
L 273.828358 197.11115 
L 274.072592 206.939814 
L 274.316825 198.042389 
L 274.438942 203.485781 
L 274.561058 202.964654 
L 274.683175 204.330748 
L 274.805292 197.061546 
L 275.049525 206.887754 
L 275.171642 206.452632 
L 275.415875 197.292801 
L 275.660109 203.971239 
L 275.782225 198.134439 
L 275.904342 199.995148 
L 276.026459 197.974272 
L 276.270692 204.83014 
L 276.514925 197.193805 
L 276.637042 203.257969 
L 276.759159 200.945032 
L 276.881275 195.342977 
L 277.247626 202.646331 
L 277.369742 199.918281 
L 277.491859 203.110729 
L 277.613976 199.068047 
L 277.736092 205.815802 
L 277.858209 200.219767 
L 277.980326 202.191665 
L 278.102442 200.146228 
L 278.224559 203.202505 
L 278.713026 194.120318 
L 278.835142 200.161323 
L 278.957259 196.325254 
L 279.079376 198.8778 
L 279.201493 198.16791 
L 279.323609 199.14083 
L 279.445726 204.099098 
L 279.567843 200.298478 
L 279.812076 203.948194 
L 279.934193 199.818553 
L 280.056309 200.908155 
L 280.178426 198.250837 
L 280.300543 202.419217 
L 280.422659 198.507721 
L 280.666893 200.312938 
L 280.789009 197.352313 
L 281.033243 203.420376 
L 281.15536 197.254784 
L 281.643826 203.887603 
L 281.765943 199.029167 
L 281.88806 199.123854 
L 282.010176 198.007843 
L 282.132293 202.817147 
L 282.742877 195.934007 
L 282.98711 199.384929 
L 283.109227 200.066299 
L 283.231343 196.520966 
L 283.35346 199.545695 
L 283.475577 197.207004 
L 283.597693 199.013507 
L 283.841927 195.735261 
L 284.08616 201.595909 
L 284.208277 198.661041 
L 284.330393 204.826859 
L 284.45251 194.52245 
L 284.696744 203.48532 
L 284.940977 196.009672 
L 285.18521 200.461198 
L 285.307327 201.817214 
L 285.429444 200.917056 
L 285.55156 202.697678 
L 285.795794 199.479587 
L 285.91791 200.348635 
L 286.040027 200.083544 
L 286.162144 203.150753 
L 286.284261 200.991514 
L 286.406377 200.900517 
L 286.650611 196.482486 
L 286.772727 198.155699 
L 286.894844 196.545566 
L 287.139077 200.719223 
L 287.261194 198.232427 
L 287.505427 200.697261 
L 287.627544 197.696412 
L 287.749661 197.495958 
L 287.871777 201.794251 
L 287.993894 201.043587 
L 288.116011 203.308458 
L 288.238128 202.835722 
L 288.482361 201.032509 
L 288.604478 202.153807 
L 288.726594 196.698081 
L 289.092944 200.00986 
L 289.215061 200.758453 
L 289.337178 198.61393 
L 289.459294 201.891935 
L 289.581411 199.038495 
L 289.703528 199.532306 
L 289.825645 201.568301 
L 289.947761 201.295752 
L 290.069878 199.633389 
L 290.191995 200.735991 
L 290.314111 199.171327 
L 290.436228 204.301278 
L 290.558345 197.30837 
L 290.802578 202.641615 
L 290.924695 200.139676 
L 291.046811 200.364066 
L 291.168928 202.469727 
L 291.413161 196.798572 
L 291.535278 204.001136 
L 291.779512 196.325447 
L 292.023745 202.064974 
L 292.145862 200.751859 
L 292.267978 198.230964 
L 292.390095 200.926914 
L 292.512212 195.486013 
L 292.634328 198.284226 
L 292.756445 197.530499 
L 292.878562 197.97776 
L 293.122795 200.422623 
L 293.244912 198.230386 
L 293.367028 199.4054 
L 293.489145 204.459786 
L 293.611262 202.30663 
L 293.733379 202.595611 
L 293.855495 196.228112 
L 293.977612 198.051701 
L 294.099729 196.098158 
L 294.221845 202.259549 
L 294.343962 199.807023 
L 294.466079 201.157076 
L 294.588195 199.986814 
L 294.710312 203.427939 
L 294.832429 203.716555 
L 294.954545 197.834497 
L 295.076662 200.42737 
L 295.198779 198.954975 
L 295.320896 199.432719 
L 295.443012 194.699036 
L 295.565129 203.83928 
L 295.809362 196.315925 
L 295.931479 199.026891 
L 296.053596 199.108398 
L 296.175712 199.70479 
L 296.297829 197.779497 
L 296.542062 200.385205 
L 296.786296 195.410506 
L 297.030529 198.341111 
L 297.152646 204.241654 
L 297.274763 200.741608 
L 297.396879 203.209955 
L 297.518996 195.339433 
L 297.641113 196.660367 
L 297.763229 202.417844 
L 297.885346 197.267519 
L 298.007463 202.757916 
L 298.129579 200.576956 
L 298.251696 203.289267 
L 298.495929 199.735084 
L 298.618046 200.861748 
L 298.740163 193.555652 
L 298.86228 201.13961 
L 298.984396 130.709287 
L 299.083828 289 
M 299.129352 289 
L 299.22863 132.021548 
L 299.327999 289 
M 299.373755 289 
L 299.472863 134.208751 
L 299.571432 289 
M 299.618633 289 
L 299.717096 135.069558 
L 299.816746 289 
M 299.861771 289 
L 299.96133 135.827585 
L 300.059904 289 
M 300.106622 289 
L 300.205563 132.824836 
L 300.305518 289 
M 300.349759 289 
L 300.449796 132.115089 
L 300.550396 289 
M 300.593846 289 
L 300.69403 135.720096 
L 300.793784 289 
M 300.838179 289 
L 300.938263 132.904869 
L 301.038004 289 
M 301.083221 289 
L 301.182497 136.789087 
L 301.281893 289 
M 301.327081 289 
L 301.42673 134.681323 
L 301.526958 289 
M 301.57084 289 
L 301.670963 135.576657 
L 301.771928 289 
M 301.814111 289 
L 301.915197 134.506109 
L 302.014438 289 
M 302.060423 289 
L 302.15943 136.431798 
L 302.258089 289 
M 302.305097 289 
L 302.403664 137.177126 
L 302.502526 289 
M 302.549163 289 
L 302.647897 138.208823 
L 302.747522 289 
M 302.792539 289 
L 302.89213 138.488016 
L 302.99142 289 
M 303.03715 289 
L 303.136364 139.102898 
L 303.234957 289 
M 303.282008 289 
L 303.380597 139.135946 
L 303.479679 289 
M 303.525481 289 
L 303.62483 136.965919 
L 303.724879 289 
M 303.769228 289 
L 303.869064 138.736072 
L 303.968952 289 
M 304.013514 289 
L 304.113297 139.594912 
L 304.213022 289 
M 304.258146 289 
L 304.357531 142.330128 
L 304.456342 289 
M 304.502699 289 
L 304.601764 140.332561 
L 304.700396 289 
M 304.747665 289 
L 304.845997 142.655093 
L 304.943473 289 
M 304.991956 289 
L 305.090231 136.510369 
L 305.1906 289 
M 305.234604 289 
L 305.334464 140.755194 
L 305.433557 289 
M 305.479665 289 
L 305.578697 141.230101 
L 305.676814 289 
M 305.725044 289 
L 305.822931 142.975136 
L 305.920873 289 
M 305.969077 289 
L 306.067164 141.877221 
L 306.164889 289 
M 306.2142 289 
L 306.311398 145.76313 
L 306.410161 289 
M 306.45641 289 
L 306.555631 142.222778 
L 306.654527 289 
M 306.701293 289 
L 306.799864 144.721291 
L 306.897296 289 
M 306.946548 289 
L 307.044098 143.851687 
L 307.142812 289 
M 307.189813 289 
L 307.288331 145.345629 
L 307.38707 289 
M 307.433979 289 
L 307.532564 146.504685 
L 307.63074 289 
M 307.678794 289 
L 307.776798 147.767974 
L 307.873045 289 
M 307.924565 289 
L 308.021031 146.236465 
L 308.118722 289 
M 308.167511 289 
L 308.265265 145.780392 
L 308.362876 289 
M 308.412101 289 
L 308.509498 147.337934 
L 308.606073 289 
M 308.657484 289 
L 308.753731 149.607045 
L 308.850462 289 
M 308.900921 289 
L 308.997965 147.408822 
L 309.095695 289 
M 309.144812 289 
L 309.242198 149.875119 
L 309.338595 289 
M 309.390327 289 
L 309.486431 151.854602 
L 309.582479 289 
M 309.634926 289 
L 309.730665 153.897024 
L 309.829174 289 
M 309.876381 289 
L 309.974898 153.838989 
L 310.072203 289 
M 310.121658 289 
L 310.219132 152.681461 
L 310.315394 289 
L 310.315394 289 
" style="fill:none;stroke:#ff0000;stroke-linecap:round;stroke-width:1.5;"/>
   </g>
   <g id="patch_3">
    <path d="M 45 252 
L 45 34.56 
" style="fill:none;stroke:#262626;stroke-linecap:square;stroke-linejoin:miter;stroke-width:1.25;"/>
   </g>
   <g id="patch_4">
    <path d="M 324 252 
L 324 34.56 
" style="fill:none;stroke:#262626;stroke-linecap:square;stroke-linejoin:miter;stroke-width:1.25;"/>
   </g>
   <g id="patch_5">
    <path d="M 45 252 
L 324 252 
" style="fill:none;stroke:#262626;stroke-linecap:square;stroke-linejoin:miter;stroke-width:1.25;"/>
   </g>
   <g id="patch_6">
    <path d="M 45 34.56 
L 324 34.56 
" style="fill:none;stroke:#262626;stroke-linecap:square;stroke-linejoin:miter;stroke-width:1.25;"/>
   </g>
  </g>
 </g>
 <defs>
  <clipPath id="p224137f94f">
   <rect height="217.44" width="279" x="45" y="34.56"/>
  </clipPath>
 </defs>
</svg>
