<?xml version="1.0" encoding="utf-8" standalone="no"?>
<!DOCTYPE svg PUBLIC "-//W3C//DTD SVG 1.1//EN"
  "http://www.w3.org/Graphics/SVG/1.1/DTD/svg11.dtd">
<!-- Created with matplotlib (http://matplotlib.org/) -->
<svg height="432pt" version="1.1" viewBox="0 0 1080 432" width="1080pt" xmlns="http://www.w3.org/2000/svg" xmlns:xlink="http://www.w3.org/1999/xlink">
 <defs>
  <style type="text/css">
*{stroke-linecap:butt;stroke-linejoin:round;}
  </style>
 </defs>
 <g id="figure_1">
  <g id="patch_1">
   <path d="M 0 432 
L 1080 432 
L 1080 0 
L 0 0 
z
" style="fill:#ffffff;"/>
  </g>
  <g id="axes_1">
   <g id="patch_2">
    <path d="M 135 378 
L 972 378 
L 972 51.84 
L 135 51.84 
z
" style="fill:#ffffff;"/>
   </g>
   <g id="matplotlib.axis_1">
    <g id="xtick_1">
     <g id="line2d_1">
      <path clip-path="url(#p8e34288774)" d="M 135 378 
L 135 51.84 
" style="fill:none;stroke:#00ccff;stroke-linecap:round;stroke-width:0.8;"/>
     </g>
     <g id="line2d_2"/>
     <g id="text_1">
      <!-- 31610 -->
      <defs>
       <path d="M 5.078125 53.609375 
Q 7.90625 60.296875 12.21875 63.9375 
Q 16.546875 67.578125 23 67.578125 
Q 30.953125 67.578125 35.203125 62.40625 
Q 38.421875 58.546875 38.421875 54.15625 
Q 38.421875 46.921875 29.34375 39.203125 
Q 35.453125 36.8125 38.578125 32.375 
Q 41.703125 27.9375 41.703125 21.921875 
Q 41.703125 13.328125 36.234375 7.03125 
Q 29.109375 -1.171875 15.578125 -1.171875 
Q 8.890625 -1.171875 6.46875 0.484375 
Q 4.046875 2.15625 4.046875 4.046875 
Q 4.046875 5.46875 5.1875 6.546875 
Q 6.34375 7.625 7.953125 7.625 
Q 9.1875 7.625 10.453125 7.234375 
Q 11.28125 6.984375 14.203125 5.4375 
Q 17.140625 3.90625 18.265625 3.609375 
Q 20.0625 3.078125 22.125 3.078125 
Q 27.09375 3.078125 30.78125 6.9375 
Q 34.46875 10.796875 34.46875 16.0625 
Q 34.46875 19.921875 32.765625 23.578125 
Q 31.5 26.3125 29.984375 27.734375 
Q 27.875 29.6875 24.21875 31.265625 
Q 20.5625 32.859375 16.75 32.859375 
L 15.1875 32.859375 
L 15.1875 34.328125 
Q 19.046875 34.8125 22.921875 37.109375 
Q 26.8125 39.40625 28.5625 42.625 
Q 30.328125 45.84375 30.328125 49.703125 
Q 30.328125 54.734375 27.171875 57.828125 
Q 24.03125 60.9375 19.34375 60.9375 
Q 11.765625 60.9375 6.6875 52.828125 
z
" id="TimesNewRomanPSMT-33"/>
       <path d="M 11.71875 59.71875 
L 27.828125 67.578125 
L 29.4375 67.578125 
L 29.4375 11.671875 
Q 29.4375 6.109375 29.90625 4.734375 
Q 30.375 3.375 31.828125 2.640625 
Q 33.296875 1.90625 37.796875 1.8125 
L 37.796875 0 
L 12.890625 0 
L 12.890625 1.8125 
Q 17.578125 1.90625 18.9375 2.609375 
Q 20.3125 3.328125 20.84375 4.515625 
Q 21.390625 5.71875 21.390625 11.671875 
L 21.390625 47.40625 
Q 21.390625 54.640625 20.90625 56.6875 
Q 20.5625 58.25 19.65625 58.984375 
Q 18.75 59.71875 17.484375 59.71875 
Q 15.671875 59.71875 12.453125 58.203125 
z
" id="TimesNewRomanPSMT-31"/>
       <path d="M 44.828125 67.578125 
L 44.828125 65.765625 
Q 38.375 65.140625 34.296875 63.203125 
Q 30.21875 61.28125 26.234375 57.328125 
Q 22.265625 53.375 19.65625 48.515625 
Q 17.046875 43.65625 15.28125 36.96875 
Q 22.3125 41.796875 29.390625 41.796875 
Q 36.1875 41.796875 41.15625 36.328125 
Q 46.140625 30.859375 46.140625 22.265625 
Q 46.140625 13.96875 41.109375 7.125 
Q 35.0625 -1.171875 25.09375 -1.171875 
Q 18.3125 -1.171875 13.578125 3.328125 
Q 4.296875 12.0625 4.296875 25.984375 
Q 4.296875 34.859375 7.859375 42.859375 
Q 11.421875 50.875 18.03125 57.078125 
Q 24.65625 63.28125 30.703125 65.421875 
Q 36.765625 67.578125 42 67.578125 
z
M 14.453125 33.40625 
Q 13.578125 26.8125 13.578125 22.75 
Q 13.578125 18.0625 15.3125 12.5625 
Q 17.046875 7.078125 20.453125 3.859375 
Q 22.953125 1.5625 26.515625 1.5625 
Q 30.765625 1.5625 34.109375 5.5625 
Q 37.453125 9.578125 37.453125 17 
Q 37.453125 25.34375 34.125 31.4375 
Q 30.8125 37.546875 24.703125 37.546875 
Q 22.859375 37.546875 20.734375 36.765625 
Q 18.609375 35.984375 14.453125 33.40625 
z
" id="TimesNewRomanPSMT-36"/>
       <path d="M 3.609375 32.71875 
Q 3.609375 44.046875 7.03125 52.21875 
Q 10.453125 60.40625 16.109375 64.40625 
Q 20.515625 67.578125 25.203125 67.578125 
Q 32.8125 67.578125 38.875 59.8125 
Q 46.4375 50.203125 46.4375 33.734375 
Q 46.4375 22.21875 43.109375 14.15625 
Q 39.796875 6.109375 34.640625 2.46875 
Q 29.5 -1.171875 24.703125 -1.171875 
Q 15.234375 -1.171875 8.9375 10.015625 
Q 3.609375 19.4375 3.609375 32.71875 
z
M 13.1875 31.5 
Q 13.1875 17.828125 16.546875 9.1875 
Q 19.34375 1.90625 24.859375 1.90625 
Q 27.484375 1.90625 30.3125 4.265625 
Q 33.15625 6.640625 34.625 12.203125 
Q 36.859375 20.609375 36.859375 35.890625 
Q 36.859375 47.21875 34.515625 54.78125 
Q 32.765625 60.40625 29.984375 62.75 
Q 27.984375 64.359375 25.140625 64.359375 
Q 21.828125 64.359375 19.234375 61.375 
Q 15.71875 57.328125 14.453125 48.625 
Q 13.1875 39.9375 13.1875 31.5 
z
" id="TimesNewRomanPSMT-30"/>
      </defs>
      <g style="fill:#262626;" transform="translate(122.5 388.44375)scale(0.1 -0.1)">
       <use xlink:href="#TimesNewRomanPSMT-33"/>
       <use x="50" xlink:href="#TimesNewRomanPSMT-31"/>
       <use x="100" xlink:href="#TimesNewRomanPSMT-36"/>
       <use x="150" xlink:href="#TimesNewRomanPSMT-31"/>
       <use x="200" xlink:href="#TimesNewRomanPSMT-30"/>
      </g>
     </g>
    </g>
    <g id="xtick_2">
     <g id="line2d_3">
      <path clip-path="url(#p8e34288774)" d="M 261.818182 378 
L 261.818182 51.84 
" style="fill:none;stroke:#00ccff;stroke-linecap:round;stroke-width:0.8;"/>
     </g>
     <g id="line2d_4"/>
     <g id="text_2">
      <!-- 31620 -->
      <defs>
       <path d="M 45.84375 12.75 
L 41.21875 0 
L 2.15625 0 
L 2.15625 1.8125 
Q 19.390625 17.53125 26.421875 27.484375 
Q 33.453125 37.453125 33.453125 45.703125 
Q 33.453125 52 29.59375 56.046875 
Q 25.734375 60.109375 20.359375 60.109375 
Q 15.484375 60.109375 11.59375 57.25 
Q 7.71875 54.390625 5.859375 48.875 
L 4.046875 48.875 
Q 5.28125 57.90625 10.328125 62.734375 
Q 15.375 67.578125 22.953125 67.578125 
Q 31 67.578125 36.390625 62.40625 
Q 41.796875 57.234375 41.796875 50.203125 
Q 41.796875 45.171875 39.453125 40.140625 
Q 35.84375 32.234375 27.734375 23.390625 
Q 15.578125 10.109375 12.546875 7.375 
L 29.828125 7.375 
Q 35.109375 7.375 37.234375 7.765625 
Q 39.359375 8.15625 41.0625 9.34375 
Q 42.78125 10.546875 44.046875 12.75 
z
" id="TimesNewRomanPSMT-32"/>
      </defs>
      <g style="fill:#262626;" transform="translate(249.318182 388.44375)scale(0.1 -0.1)">
       <use xlink:href="#TimesNewRomanPSMT-33"/>
       <use x="50" xlink:href="#TimesNewRomanPSMT-31"/>
       <use x="100" xlink:href="#TimesNewRomanPSMT-36"/>
       <use x="150" xlink:href="#TimesNewRomanPSMT-32"/>
       <use x="200" xlink:href="#TimesNewRomanPSMT-30"/>
      </g>
     </g>
    </g>
    <g id="xtick_3">
     <g id="line2d_5">
      <path clip-path="url(#p8e34288774)" d="M 388.636364 378 
L 388.636364 51.84 
" style="fill:none;stroke:#00ccff;stroke-linecap:round;stroke-width:0.8;"/>
     </g>
     <g id="line2d_6"/>
     <g id="text_3">
      <!-- 31630 -->
      <g style="fill:#262626;" transform="translate(376.136364 388.44375)scale(0.1 -0.1)">
       <use xlink:href="#TimesNewRomanPSMT-33"/>
       <use x="50" xlink:href="#TimesNewRomanPSMT-31"/>
       <use x="100" xlink:href="#TimesNewRomanPSMT-36"/>
       <use x="150" xlink:href="#TimesNewRomanPSMT-33"/>
       <use x="200" xlink:href="#TimesNewRomanPSMT-30"/>
      </g>
     </g>
    </g>
    <g id="xtick_4">
     <g id="line2d_7">
      <path clip-path="url(#p8e34288774)" d="M 515.454545 378 
L 515.454545 51.84 
" style="fill:none;stroke:#00ccff;stroke-linecap:round;stroke-width:0.8;"/>
     </g>
     <g id="line2d_8"/>
     <g id="text_4">
      <!-- 31640 -->
      <defs>
       <path d="M 46.53125 24.421875 
L 46.53125 17.484375 
L 37.640625 17.484375 
L 37.640625 0 
L 29.59375 0 
L 29.59375 17.484375 
L 1.5625 17.484375 
L 1.5625 23.734375 
L 32.28125 67.578125 
L 37.640625 67.578125 
L 37.640625 24.421875 
z
M 29.59375 24.421875 
L 29.59375 57.28125 
L 6.34375 24.421875 
z
" id="TimesNewRomanPSMT-34"/>
      </defs>
      <g style="fill:#262626;" transform="translate(502.954545 388.44375)scale(0.1 -0.1)">
       <use xlink:href="#TimesNewRomanPSMT-33"/>
       <use x="50" xlink:href="#TimesNewRomanPSMT-31"/>
       <use x="100" xlink:href="#TimesNewRomanPSMT-36"/>
       <use x="150" xlink:href="#TimesNewRomanPSMT-34"/>
       <use x="200" xlink:href="#TimesNewRomanPSMT-30"/>
      </g>
     </g>
    </g>
    <g id="xtick_5">
     <g id="line2d_9">
      <path clip-path="url(#p8e34288774)" d="M 642.272727 378 
L 642.272727 51.84 
" style="fill:none;stroke:#00ccff;stroke-linecap:round;stroke-width:0.8;"/>
     </g>
     <g id="line2d_10"/>
     <g id="text_5">
      <!-- 31650 -->
      <defs>
       <path d="M 43.40625 66.21875 
L 39.59375 57.90625 
L 19.671875 57.90625 
L 15.328125 49.03125 
Q 28.265625 47.125 35.84375 39.40625 
Q 42.328125 32.765625 42.328125 23.78125 
Q 42.328125 18.5625 40.203125 14.109375 
Q 38.09375 9.671875 34.859375 6.546875 
Q 31.640625 3.421875 27.6875 1.515625 
Q 22.078125 -1.171875 16.15625 -1.171875 
Q 10.203125 -1.171875 7.484375 0.84375 
Q 4.78125 2.875 4.78125 5.328125 
Q 4.78125 6.6875 5.90625 7.734375 
Q 7.03125 8.796875 8.734375 8.796875 
Q 10.015625 8.796875 10.96875 8.40625 
Q 11.921875 8.015625 14.203125 6.390625 
Q 17.875 3.859375 21.625 3.859375 
Q 27.34375 3.859375 31.65625 8.171875 
Q 35.984375 12.5 35.984375 18.703125 
Q 35.984375 24.703125 32.125 29.90625 
Q 28.265625 35.109375 21.484375 37.9375 
Q 16.15625 40.140625 6.984375 40.484375 
L 19.671875 66.21875 
z
" id="TimesNewRomanPSMT-35"/>
      </defs>
      <g style="fill:#262626;" transform="translate(629.772727 388.44375)scale(0.1 -0.1)">
       <use xlink:href="#TimesNewRomanPSMT-33"/>
       <use x="50" xlink:href="#TimesNewRomanPSMT-31"/>
       <use x="100" xlink:href="#TimesNewRomanPSMT-36"/>
       <use x="150" xlink:href="#TimesNewRomanPSMT-35"/>
       <use x="200" xlink:href="#TimesNewRomanPSMT-30"/>
      </g>
     </g>
    </g>
    <g id="xtick_6">
     <g id="line2d_11">
      <path clip-path="url(#p8e34288774)" d="M 769.090909 378 
L 769.090909 51.84 
" style="fill:none;stroke:#00ccff;stroke-linecap:round;stroke-width:0.8;"/>
     </g>
     <g id="line2d_12"/>
     <g id="text_6">
      <!-- 31660 -->
      <g style="fill:#262626;" transform="translate(756.590909 388.44375)scale(0.1 -0.1)">
       <use xlink:href="#TimesNewRomanPSMT-33"/>
       <use x="50" xlink:href="#TimesNewRomanPSMT-31"/>
       <use x="100" xlink:href="#TimesNewRomanPSMT-36"/>
       <use x="150" xlink:href="#TimesNewRomanPSMT-36"/>
       <use x="200" xlink:href="#TimesNewRomanPSMT-30"/>
      </g>
     </g>
    </g>
    <g id="xtick_7">
     <g id="line2d_13">
      <path clip-path="url(#p8e34288774)" d="M 895.909091 378 
L 895.909091 51.84 
" style="fill:none;stroke:#00ccff;stroke-linecap:round;stroke-width:0.8;"/>
     </g>
     <g id="line2d_14"/>
     <g id="text_7">
      <!-- 31670 -->
      <defs>
       <path d="M 10.0625 66.21875 
L 45.5625 66.21875 
L 45.5625 64.359375 
L 23.484375 -1.375 
L 18.015625 -1.375 
L 37.796875 58.25 
L 19.578125 58.25 
Q 14.0625 58.25 11.71875 56.9375 
Q 7.625 54.6875 5.125 50 
L 3.71875 50.53125 
z
" id="TimesNewRomanPSMT-37"/>
      </defs>
      <g style="fill:#262626;" transform="translate(883.409091 388.44375)scale(0.1 -0.1)">
       <use xlink:href="#TimesNewRomanPSMT-33"/>
       <use x="50" xlink:href="#TimesNewRomanPSMT-31"/>
       <use x="100" xlink:href="#TimesNewRomanPSMT-36"/>
       <use x="150" xlink:href="#TimesNewRomanPSMT-37"/>
       <use x="200" xlink:href="#TimesNewRomanPSMT-30"/>
      </g>
     </g>
    </g>
    <g id="text_8">
     <!-- Time (s) -->
     <defs>
      <path d="M 57.859375 66.21875 
L 58.59375 50.6875 
L 56.734375 50.6875 
Q 56.203125 54.78125 55.28125 56.546875 
Q 53.765625 59.375 51.25 60.71875 
Q 48.734375 62.0625 44.625 62.0625 
L 35.296875 62.0625 
L 35.296875 11.46875 
Q 35.296875 5.375 36.625 3.859375 
Q 38.484375 1.8125 42.328125 1.8125 
L 44.625 1.8125 
L 44.625 0 
L 16.546875 0 
L 16.546875 1.8125 
L 18.890625 1.8125 
Q 23.09375 1.8125 24.859375 4.34375 
Q 25.921875 5.90625 25.921875 11.46875 
L 25.921875 62.0625 
L 17.96875 62.0625 
Q 13.328125 62.0625 11.375 61.375 
Q 8.84375 60.453125 7.03125 57.8125 
Q 5.21875 55.171875 4.890625 50.6875 
L 3.03125 50.6875 
L 3.8125 66.21875 
z
" id="TimesNewRomanPSMT-54"/>
      <path d="M 14.5 69.4375 
Q 16.546875 69.4375 17.984375 67.984375 
Q 19.4375 66.546875 19.4375 64.5 
Q 19.4375 62.453125 17.984375 60.984375 
Q 16.546875 59.515625 14.5 59.515625 
Q 12.453125 59.515625 10.984375 60.984375 
Q 9.515625 62.453125 9.515625 64.5 
Q 9.515625 66.546875 10.953125 67.984375 
Q 12.40625 69.4375 14.5 69.4375 
z
M 18.5625 46.046875 
L 18.5625 10.109375 
Q 18.5625 5.90625 19.171875 4.515625 
Q 19.78125 3.125 20.96875 2.4375 
Q 22.171875 1.765625 25.34375 1.765625 
L 25.34375 0 
L 3.609375 0 
L 3.609375 1.765625 
Q 6.890625 1.765625 8 2.390625 
Q 9.125 3.03125 9.78125 4.484375 
Q 10.453125 5.953125 10.453125 10.109375 
L 10.453125 27.34375 
Q 10.453125 34.625 10.015625 36.765625 
Q 9.671875 38.328125 8.9375 38.9375 
Q 8.203125 39.546875 6.9375 39.546875 
Q 5.5625 39.546875 3.609375 38.8125 
L 2.9375 40.578125 
L 16.40625 46.046875 
z
" id="TimesNewRomanPSMT-69"/>
      <path d="M 16.40625 36.53125 
Q 21.296875 41.40625 22.171875 42.140625 
Q 24.359375 44 26.890625 45.015625 
Q 29.4375 46.046875 31.9375 46.046875 
Q 36.140625 46.046875 39.15625 43.59375 
Q 42.1875 41.15625 43.21875 36.53125 
Q 48.25 42.390625 51.703125 44.21875 
Q 55.171875 46.046875 58.84375 46.046875 
Q 62.40625 46.046875 65.15625 44.21875 
Q 67.921875 42.390625 69.53125 38.234375 
Q 70.609375 35.40625 70.609375 29.34375 
L 70.609375 10.109375 
Q 70.609375 5.90625 71.234375 4.34375 
Q 71.734375 3.265625 73.046875 2.515625 
Q 74.359375 1.765625 77.34375 1.765625 
L 77.34375 0 
L 55.28125 0 
L 55.28125 1.765625 
L 56.203125 1.765625 
Q 59.078125 1.765625 60.6875 2.875 
Q 61.8125 3.65625 62.3125 5.375 
Q 62.5 6.203125 62.5 10.109375 
L 62.5 29.34375 
Q 62.5 34.8125 61.1875 37.0625 
Q 59.28125 40.1875 55.078125 40.1875 
Q 52.484375 40.1875 49.875 38.890625 
Q 47.265625 37.59375 43.5625 34.078125 
L 43.453125 33.546875 
L 43.5625 31.453125 
L 43.5625 10.109375 
Q 43.5625 5.515625 44.0625 4.390625 
Q 44.578125 3.265625 45.984375 2.515625 
Q 47.40625 1.765625 50.828125 1.765625 
L 50.828125 0 
L 28.21875 0 
L 28.21875 1.765625 
Q 31.9375 1.765625 33.328125 2.640625 
Q 34.71875 3.515625 35.25 5.28125 
Q 35.5 6.109375 35.5 10.109375 
L 35.5 29.34375 
Q 35.5 34.8125 33.890625 37.203125 
Q 31.734375 40.328125 27.875 40.328125 
Q 25.25 40.328125 22.65625 38.921875 
Q 18.609375 36.765625 16.40625 34.078125 
L 16.40625 10.109375 
Q 16.40625 5.71875 17.015625 4.390625 
Q 17.625 3.078125 18.8125 2.421875 
Q 20.015625 1.765625 23.6875 1.765625 
L 23.6875 0 
L 1.5625 0 
L 1.5625 1.765625 
Q 4.640625 1.765625 5.859375 2.421875 
Q 7.078125 3.078125 7.703125 4.515625 
Q 8.34375 5.953125 8.34375 10.109375 
L 8.34375 27.203125 
Q 8.34375 34.578125 7.90625 36.71875 
Q 7.5625 38.328125 6.828125 38.9375 
Q 6.109375 39.546875 4.828125 39.546875 
Q 3.46875 39.546875 1.5625 38.8125 
L 0.828125 40.578125 
L 14.3125 46.046875 
L 16.40625 46.046875 
z
" id="TimesNewRomanPSMT-6d"/>
      <path d="M 10.640625 27.875 
Q 10.59375 17.921875 15.484375 12.25 
Q 20.359375 6.59375 26.953125 6.59375 
Q 31.34375 6.59375 34.59375 9 
Q 37.84375 11.421875 40.046875 17.28125 
L 41.546875 16.3125 
Q 40.53125 9.625 35.59375 4.125 
Q 30.671875 -1.375 23.25 -1.375 
Q 15.1875 -1.375 9.453125 4.90625 
Q 3.71875 11.1875 3.71875 21.78125 
Q 3.71875 33.25 9.59375 39.671875 
Q 15.484375 46.09375 24.359375 46.09375 
Q 31.890625 46.09375 36.71875 41.140625 
Q 41.546875 36.1875 41.546875 27.875 
z
M 10.640625 30.71875 
L 31.34375 30.71875 
Q 31.109375 35.015625 30.328125 36.765625 
Q 29.109375 39.5 26.6875 41.0625 
Q 24.265625 42.625 21.625 42.625 
Q 17.578125 42.625 14.375 39.46875 
Q 11.1875 36.328125 10.640625 30.71875 
z
" id="TimesNewRomanPSMT-65"/>
      <path id="TimesNewRomanPSMT-20"/>
      <path d="M 31.0625 -19.578125 
L 31.0625 -21.390625 
Q 23.6875 -17.671875 18.75 -12.703125 
Q 11.71875 -5.609375 7.90625 4 
Q 4.109375 13.625 4.109375 23.96875 
Q 4.109375 39.109375 11.578125 51.578125 
Q 19.046875 64.0625 31.0625 69.4375 
L 31.0625 67.390625 
Q 25.046875 64.0625 21.1875 58.296875 
Q 17.328125 52.546875 15.421875 43.703125 
Q 13.53125 34.859375 13.53125 25.25 
Q 13.53125 14.796875 15.140625 6.25 
Q 16.40625 -0.484375 18.203125 -4.5625 
Q 20.015625 -8.640625 23.0625 -12.390625 
Q 26.125 -16.15625 31.0625 -19.578125 
z
" id="TimesNewRomanPSMT-28"/>
      <path d="M 32.03125 46.046875 
L 32.03125 30.8125 
L 30.421875 30.8125 
Q 28.5625 37.984375 25.65625 40.578125 
Q 22.75 43.171875 18.265625 43.171875 
Q 14.84375 43.171875 12.734375 41.359375 
Q 10.640625 39.546875 10.640625 37.359375 
Q 10.640625 34.625 12.203125 32.671875 
Q 13.71875 30.671875 18.359375 28.421875 
L 25.484375 24.953125 
Q 35.40625 20.125 35.40625 12.203125 
Q 35.40625 6.109375 30.78125 2.359375 
Q 26.171875 -1.375 20.453125 -1.375 
Q 16.359375 -1.375 11.078125 0.09375 
Q 9.46875 0.59375 8.453125 0.59375 
Q 7.328125 0.59375 6.6875 -0.6875 
L 5.078125 -0.6875 
L 5.078125 15.28125 
L 6.6875 15.28125 
Q 8.0625 8.453125 11.90625 4.984375 
Q 15.765625 1.515625 20.5625 1.515625 
Q 23.921875 1.515625 26.046875 3.484375 
Q 28.171875 5.46875 28.171875 8.25 
Q 28.171875 11.625 25.796875 13.921875 
Q 23.4375 16.21875 16.359375 19.734375 
Q 9.28125 23.25 7.078125 26.078125 
Q 4.890625 28.859375 4.890625 33.109375 
Q 4.890625 38.625 8.671875 42.328125 
Q 12.453125 46.046875 18.453125 46.046875 
Q 21.09375 46.046875 24.859375 44.921875 
Q 27.34375 44.1875 28.171875 44.1875 
Q 28.953125 44.1875 29.390625 44.53125 
Q 29.828125 44.875 30.421875 46.046875 
z
" id="TimesNewRomanPSMT-73"/>
      <path d="M 2.25 67.390625 
L 2.25 69.4375 
Q 9.671875 65.765625 14.59375 60.796875 
Q 21.578125 53.65625 25.390625 44.0625 
Q 29.203125 34.46875 29.203125 24.078125 
Q 29.203125 8.9375 21.75 -3.53125 
Q 14.3125 -16.015625 2.25 -21.390625 
L 2.25 -19.578125 
Q 8.25 -16.21875 12.125 -10.46875 
Q 16.015625 -4.734375 17.890625 4.125 
Q 19.78125 12.984375 19.78125 22.609375 
Q 19.78125 33.015625 18.171875 41.609375 
Q 16.9375 48.34375 15.109375 52.390625 
Q 13.28125 56.453125 10.25 60.203125 
Q 7.234375 63.96875 2.25 67.390625 
z
" id="TimesNewRomanPSMT-29"/>
     </defs>
     <g style="fill:#262626;" transform="translate(536.425 401.526563)scale(0.1 -0.1)">
      <use xlink:href="#TimesNewRomanPSMT-54"/>
      <use x="61.037109" xlink:href="#TimesNewRomanPSMT-69"/>
      <use x="88.820312" xlink:href="#TimesNewRomanPSMT-6d"/>
      <use x="166.603516" xlink:href="#TimesNewRomanPSMT-65"/>
      <use x="210.988281" xlink:href="#TimesNewRomanPSMT-20"/>
      <use x="235.988281" xlink:href="#TimesNewRomanPSMT-28"/>
      <use x="269.289062" xlink:href="#TimesNewRomanPSMT-73"/>
      <use x="308.205078" xlink:href="#TimesNewRomanPSMT-29"/>
     </g>
    </g>
   </g>
   <g id="matplotlib.axis_2">
    <g id="ytick_1">
     <g id="line2d_15">
      <path clip-path="url(#p8e34288774)" d="M 135 378 
L 972 378 
" style="fill:none;stroke:#00ccff;stroke-linecap:round;stroke-width:0.8;"/>
     </g>
     <g id="line2d_16"/>
     <g id="text_9">
      <!-- −0.4 -->
      <defs>
       <path d="M 54.4375 31.25 
L 1.8125 31.25 
L 1.8125 35.25 
L 54.4375 35.25 
z
" id="TimesNewRomanPSMT-2212"/>
       <path d="M 12.5 9.46875 
Q 14.796875 9.46875 16.359375 7.875 
Q 17.921875 6.296875 17.921875 4.046875 
Q 17.921875 1.8125 16.328125 0.21875 
Q 14.75 -1.375 12.5 -1.375 
Q 10.25 -1.375 8.65625 0.21875 
Q 7.078125 1.8125 7.078125 4.046875 
Q 7.078125 6.34375 8.65625 7.90625 
Q 10.25 9.46875 12.5 9.46875 
z
" id="TimesNewRomanPSMT-2e"/>
      </defs>
      <g style="fill:#262626;" transform="translate(113.360938 381.471875)scale(0.1 -0.1)">
       <use xlink:href="#TimesNewRomanPSMT-2212"/>
       <use x="56.396484" xlink:href="#TimesNewRomanPSMT-30"/>
       <use x="106.396484" xlink:href="#TimesNewRomanPSMT-2e"/>
       <use x="131.396484" xlink:href="#TimesNewRomanPSMT-34"/>
      </g>
     </g>
    </g>
    <g id="ytick_2">
     <g id="line2d_17">
      <path clip-path="url(#p8e34288774)" d="M 135 334.512 
L 972 334.512 
" style="fill:none;stroke:#00ccff;stroke-linecap:round;stroke-width:0.8;"/>
     </g>
     <g id="line2d_18"/>
     <g id="text_10">
      <!-- −0.2 -->
      <g style="fill:#262626;" transform="translate(113.360938 337.983875)scale(0.1 -0.1)">
       <use xlink:href="#TimesNewRomanPSMT-2212"/>
       <use x="56.396484" xlink:href="#TimesNewRomanPSMT-30"/>
       <use x="106.396484" xlink:href="#TimesNewRomanPSMT-2e"/>
       <use x="131.396484" xlink:href="#TimesNewRomanPSMT-32"/>
      </g>
     </g>
    </g>
    <g id="ytick_3">
     <g id="line2d_19">
      <path clip-path="url(#p8e34288774)" d="M 135 291.024 
L 972 291.024 
" style="fill:none;stroke:#00ccff;stroke-linecap:round;stroke-width:0.8;"/>
     </g>
     <g id="line2d_20"/>
     <g id="text_11">
      <!-- 0.0 -->
      <g style="fill:#262626;" transform="translate(119 294.495875)scale(0.1 -0.1)">
       <use xlink:href="#TimesNewRomanPSMT-30"/>
       <use x="50" xlink:href="#TimesNewRomanPSMT-2e"/>
       <use x="75" xlink:href="#TimesNewRomanPSMT-30"/>
      </g>
     </g>
    </g>
    <g id="ytick_4">
     <g id="line2d_21">
      <path clip-path="url(#p8e34288774)" d="M 135 247.536 
L 972 247.536 
" style="fill:none;stroke:#00ccff;stroke-linecap:round;stroke-width:0.8;"/>
     </g>
     <g id="line2d_22"/>
     <g id="text_12">
      <!-- 0.2 -->
      <g style="fill:#262626;" transform="translate(119 251.007875)scale(0.1 -0.1)">
       <use xlink:href="#TimesNewRomanPSMT-30"/>
       <use x="50" xlink:href="#TimesNewRomanPSMT-2e"/>
       <use x="75" xlink:href="#TimesNewRomanPSMT-32"/>
      </g>
     </g>
    </g>
    <g id="ytick_5">
     <g id="line2d_23">
      <path clip-path="url(#p8e34288774)" d="M 135 204.048 
L 972 204.048 
" style="fill:none;stroke:#00ccff;stroke-linecap:round;stroke-width:0.8;"/>
     </g>
     <g id="line2d_24"/>
     <g id="text_13">
      <!-- 0.4 -->
      <g style="fill:#262626;" transform="translate(119 207.519875)scale(0.1 -0.1)">
       <use xlink:href="#TimesNewRomanPSMT-30"/>
       <use x="50" xlink:href="#TimesNewRomanPSMT-2e"/>
       <use x="75" xlink:href="#TimesNewRomanPSMT-34"/>
      </g>
     </g>
    </g>
    <g id="ytick_6">
     <g id="line2d_25">
      <path clip-path="url(#p8e34288774)" d="M 135 160.56 
L 972 160.56 
" style="fill:none;stroke:#00ccff;stroke-linecap:round;stroke-width:0.8;"/>
     </g>
     <g id="line2d_26"/>
     <g id="text_14">
      <!-- 0.6 -->
      <g style="fill:#262626;" transform="translate(119 164.031875)scale(0.1 -0.1)">
       <use xlink:href="#TimesNewRomanPSMT-30"/>
       <use x="50" xlink:href="#TimesNewRomanPSMT-2e"/>
       <use x="75" xlink:href="#TimesNewRomanPSMT-36"/>
      </g>
     </g>
    </g>
    <g id="ytick_7">
     <g id="line2d_27">
      <path clip-path="url(#p8e34288774)" d="M 135 117.072 
L 972 117.072 
" style="fill:none;stroke:#00ccff;stroke-linecap:round;stroke-width:0.8;"/>
     </g>
     <g id="line2d_28"/>
     <g id="text_15">
      <!-- 0.8 -->
      <defs>
       <path d="M 19.1875 33.34375 
Q 11.328125 39.796875 9.046875 43.703125 
Q 6.78125 47.609375 6.78125 51.8125 
Q 6.78125 58.25 11.765625 62.90625 
Q 16.75 67.578125 25 67.578125 
Q 33.015625 67.578125 37.890625 63.234375 
Q 42.78125 58.890625 42.78125 53.328125 
Q 42.78125 49.609375 40.140625 45.75 
Q 37.5 41.890625 29.15625 36.671875 
Q 37.75 30.03125 40.53125 26.21875 
Q 44.234375 21.234375 44.234375 15.71875 
Q 44.234375 8.734375 38.90625 3.78125 
Q 33.59375 -1.171875 24.953125 -1.171875 
Q 15.53125 -1.171875 10.25 4.734375 
Q 6.0625 9.46875 6.0625 15.09375 
Q 6.0625 19.484375 9.015625 23.796875 
Q 11.96875 28.125 19.1875 33.34375 
z
M 26.859375 38.578125 
Q 32.71875 43.84375 34.28125 46.890625 
Q 35.84375 49.953125 35.84375 53.8125 
Q 35.84375 58.9375 32.953125 61.84375 
Q 30.078125 64.75 25.09375 64.75 
Q 20.125 64.75 17 61.859375 
Q 13.875 58.984375 13.875 55.125 
Q 13.875 52.59375 15.15625 50.046875 
Q 16.453125 47.515625 18.84375 45.21875 
z
M 21.484375 31.5 
Q 17.4375 28.078125 15.484375 24.046875 
Q 13.53125 20.015625 13.53125 15.328125 
Q 13.53125 9.03125 16.96875 5.25 
Q 20.40625 1.46875 25.734375 1.46875 
Q 31 1.46875 34.171875 4.4375 
Q 37.359375 7.421875 37.359375 11.671875 
Q 37.359375 15.1875 35.5 17.96875 
Q 32.03125 23.140625 21.484375 31.5 
z
" id="TimesNewRomanPSMT-38"/>
      </defs>
      <g style="fill:#262626;" transform="translate(119 120.543875)scale(0.1 -0.1)">
       <use xlink:href="#TimesNewRomanPSMT-30"/>
       <use x="50" xlink:href="#TimesNewRomanPSMT-2e"/>
       <use x="75" xlink:href="#TimesNewRomanPSMT-38"/>
      </g>
     </g>
    </g>
    <g id="ytick_8">
     <g id="line2d_29">
      <path clip-path="url(#p8e34288774)" d="M 135 73.584 
L 972 73.584 
" style="fill:none;stroke:#00ccff;stroke-linecap:round;stroke-width:0.8;"/>
     </g>
     <g id="line2d_30"/>
     <g id="text_16">
      <!-- 1.0 -->
      <g style="fill:#262626;" transform="translate(119 77.055875)scale(0.1 -0.1)">
       <use xlink:href="#TimesNewRomanPSMT-31"/>
       <use x="50" xlink:href="#TimesNewRomanPSMT-2e"/>
       <use x="75" xlink:href="#TimesNewRomanPSMT-30"/>
      </g>
     </g>
    </g>
    <g id="text_17">
     <!-- Normalized Eye Velocity -->
     <defs>
      <path d="M -1.3125 66.21875 
L 16.65625 66.21875 
L 57.125 16.546875 
L 57.125 54.734375 
Q 57.125 60.84375 55.765625 62.359375 
Q 53.953125 64.40625 50.046875 64.40625 
L 47.75 64.40625 
L 47.75 66.21875 
L 70.796875 66.21875 
L 70.796875 64.40625 
L 68.453125 64.40625 
Q 64.265625 64.40625 62.5 61.859375 
Q 61.421875 60.296875 61.421875 54.734375 
L 61.421875 -1.078125 
L 59.671875 -1.078125 
L 16.015625 52.25 
L 16.015625 11.46875 
Q 16.015625 5.375 17.328125 3.859375 
Q 19.1875 1.8125 23.046875 1.8125 
L 25.390625 1.8125 
L 25.390625 0 
L 2.34375 0 
L 2.34375 1.8125 
L 4.640625 1.8125 
Q 8.890625 1.8125 10.640625 4.34375 
Q 11.71875 5.90625 11.71875 11.46875 
L 11.71875 57.515625 
Q 8.84375 60.890625 7.34375 61.953125 
Q 5.859375 63.03125 2.984375 63.96875 
Q 1.5625 64.40625 -1.3125 64.40625 
z
" id="TimesNewRomanPSMT-4e"/>
      <path d="M 25 46.046875 
Q 35.15625 46.046875 41.3125 38.328125 
Q 46.53125 31.734375 46.53125 23.1875 
Q 46.53125 17.1875 43.640625 11.03125 
Q 40.765625 4.890625 35.71875 1.75 
Q 30.671875 -1.375 24.46875 -1.375 
Q 14.359375 -1.375 8.40625 6.6875 
Q 3.375 13.484375 3.375 21.921875 
Q 3.375 28.078125 6.421875 34.15625 
Q 9.46875 40.234375 14.453125 43.140625 
Q 19.4375 46.046875 25 46.046875 
z
M 23.484375 42.875 
Q 20.90625 42.875 18.28125 41.328125 
Q 15.671875 39.796875 14.0625 35.9375 
Q 12.453125 32.078125 12.453125 26.03125 
Q 12.453125 16.265625 16.328125 9.171875 
Q 20.21875 2.09375 26.5625 2.09375 
Q 31.296875 2.09375 34.375 6 
Q 37.453125 9.90625 37.453125 19.4375 
Q 37.453125 31.34375 32.328125 38.1875 
Q 28.859375 42.875 23.484375 42.875 
z
" id="TimesNewRomanPSMT-6f"/>
      <path d="M 16.21875 46.046875 
L 16.21875 35.984375 
Q 21.828125 46.046875 27.734375 46.046875 
Q 30.421875 46.046875 32.171875 44.40625 
Q 33.9375 42.78125 33.9375 40.625 
Q 33.9375 38.71875 32.65625 37.390625 
Q 31.390625 36.078125 29.640625 36.078125 
Q 27.9375 36.078125 25.8125 37.765625 
Q 23.6875 39.453125 22.65625 39.453125 
Q 21.78125 39.453125 20.75 38.484375 
Q 18.5625 36.46875 16.21875 31.890625 
L 16.21875 10.453125 
Q 16.21875 6.734375 17.140625 4.828125 
Q 17.78125 3.515625 19.390625 2.640625 
Q 21 1.765625 24.03125 1.765625 
L 24.03125 0 
L 1.125 0 
L 1.125 1.765625 
Q 4.546875 1.765625 6.203125 2.828125 
Q 7.421875 3.609375 7.90625 5.328125 
Q 8.15625 6.15625 8.15625 10.0625 
L 8.15625 27.390625 
Q 8.15625 35.203125 7.828125 36.6875 
Q 7.515625 38.1875 6.65625 38.859375 
Q 5.8125 39.546875 4.546875 39.546875 
Q 3.03125 39.546875 1.125 38.8125 
L 0.640625 40.578125 
L 14.15625 46.046875 
z
" id="TimesNewRomanPSMT-72"/>
      <path d="M 28.46875 6.453125 
Q 21.578125 1.125 19.828125 0.296875 
Q 17.1875 -0.921875 14.203125 -0.921875 
Q 9.578125 -0.921875 6.5625 2.25 
Q 3.5625 5.421875 3.5625 10.59375 
Q 3.5625 13.875 5.03125 16.265625 
Q 7.03125 19.578125 11.984375 22.5 
Q 16.9375 25.4375 28.46875 29.640625 
L 28.46875 31.390625 
Q 28.46875 38.09375 26.34375 40.578125 
Q 24.21875 43.0625 20.171875 43.0625 
Q 17.09375 43.0625 15.28125 41.40625 
Q 13.421875 39.75 13.421875 37.59375 
L 13.53125 34.765625 
Q 13.53125 32.515625 12.375 31.296875 
Q 11.234375 30.078125 9.375 30.078125 
Q 7.5625 30.078125 6.421875 31.34375 
Q 5.28125 32.625 5.28125 34.8125 
Q 5.28125 39.015625 9.578125 42.53125 
Q 13.875 46.046875 21.625 46.046875 
Q 27.59375 46.046875 31.390625 44.046875 
Q 34.28125 42.53125 35.640625 39.3125 
Q 36.53125 37.203125 36.53125 30.71875 
L 36.53125 15.53125 
Q 36.53125 9.125 36.765625 7.6875 
Q 37.015625 6.25 37.578125 5.765625 
Q 38.140625 5.28125 38.875 5.28125 
Q 39.65625 5.28125 40.234375 5.609375 
Q 41.265625 6.25 44.1875 9.1875 
L 44.1875 6.453125 
Q 38.71875 -0.875 33.734375 -0.875 
Q 31.34375 -0.875 29.921875 0.78125 
Q 28.515625 2.4375 28.46875 6.453125 
z
M 28.46875 9.625 
L 28.46875 26.65625 
Q 21.09375 23.734375 18.953125 22.515625 
Q 15.09375 20.359375 13.421875 18.015625 
Q 11.765625 15.671875 11.765625 12.890625 
Q 11.765625 9.375 13.859375 7.046875 
Q 15.96875 4.734375 18.703125 4.734375 
Q 22.40625 4.734375 28.46875 9.625 
z
" id="TimesNewRomanPSMT-61"/>
      <path d="M 18.5 69.4375 
L 18.5 10.109375 
Q 18.5 5.90625 19.109375 4.53125 
Q 19.734375 3.171875 21 2.46875 
Q 22.265625 1.765625 25.734375 1.765625 
L 25.734375 0 
L 3.8125 0 
L 3.8125 1.765625 
Q 6.890625 1.765625 8 2.390625 
Q 9.125 3.03125 9.765625 4.484375 
Q 10.40625 5.953125 10.40625 10.109375 
L 10.40625 50.734375 
Q 10.40625 58.296875 10.0625 60.03125 
Q 9.71875 61.765625 8.953125 62.390625 
Q 8.203125 63.03125 7.03125 63.03125 
Q 5.765625 63.03125 3.8125 62.25 
L 2.984375 63.96875 
L 16.3125 69.4375 
z
" id="TimesNewRomanPSMT-6c"/>
      <path d="M 42 13.71875 
L 41.453125 0 
L 2 0 
L 2 1.765625 
L 31.6875 41.3125 
L 17.046875 41.3125 
Q 12.3125 41.3125 10.84375 40.703125 
Q 9.375 40.09375 8.453125 38.375 
Q 7.125 35.9375 6.9375 32.328125 
L 4.984375 32.328125 
L 5.28125 44.734375 
L 42.78125 44.734375 
L 42.78125 42.921875 
L 12.796875 3.265625 
L 29.109375 3.265625 
Q 34.234375 3.265625 36.0625 4.125 
Q 37.890625 4.984375 39.015625 7.125 
Q 39.796875 8.6875 40.328125 13.71875 
z
" id="TimesNewRomanPSMT-7a"/>
      <path d="M 34.71875 5.03125 
Q 31.453125 1.609375 28.328125 0.109375 
Q 25.203125 -1.375 21.578125 -1.375 
Q 14.265625 -1.375 8.796875 4.75 
Q 3.328125 10.890625 3.328125 20.515625 
Q 3.328125 30.125 9.375 38.109375 
Q 15.4375 46.09375 24.953125 46.09375 
Q 30.859375 46.09375 34.71875 42.328125 
L 34.71875 50.59375 
Q 34.71875 58.25 34.34375 60 
Q 33.984375 61.765625 33.203125 62.390625 
Q 32.421875 63.03125 31.25 63.03125 
Q 29.984375 63.03125 27.875 62.25 
L 27.25 63.96875 
L 40.578125 69.4375 
L 42.78125 69.4375 
L 42.78125 17.71875 
Q 42.78125 9.859375 43.140625 8.125 
Q 43.5 6.390625 44.3125 5.703125 
Q 45.125 5.03125 46.1875 5.03125 
Q 47.515625 5.03125 49.703125 5.859375 
L 50.25 4.15625 
L 36.96875 -1.375 
L 34.71875 -1.375 
z
M 34.71875 8.453125 
L 34.71875 31.5 
Q 34.421875 34.8125 32.953125 37.546875 
Q 31.5 40.28125 29.078125 41.671875 
Q 26.65625 43.0625 24.359375 43.0625 
Q 20.0625 43.0625 16.703125 39.203125 
Q 12.25 34.125 12.25 24.359375 
Q 12.25 14.5 16.546875 9.25 
Q 20.84375 4 26.125 4 
Q 30.5625 4 34.71875 8.453125 
z
" id="TimesNewRomanPSMT-64"/>
      <path d="M 20.90625 62.59375 
L 20.90625 36.421875 
L 35.453125 36.421875 
Q 41.109375 36.421875 43.015625 38.140625 
Q 45.5625 40.375 45.84375 46.046875 
L 47.65625 46.046875 
L 47.65625 23 
L 45.84375 23 
Q 45.171875 27.828125 44.484375 29.203125 
Q 43.609375 30.90625 41.59375 31.875 
Q 39.59375 32.859375 35.453125 32.859375 
L 20.90625 32.859375 
L 20.90625 11.03125 
Q 20.90625 6.640625 21.296875 5.6875 
Q 21.6875 4.734375 22.65625 4.171875 
Q 23.640625 3.609375 26.375 3.609375 
L 37.59375 3.609375 
Q 43.21875 3.609375 45.75 4.390625 
Q 48.296875 5.171875 50.640625 7.46875 
Q 53.65625 10.5 56.84375 16.609375 
L 58.796875 16.609375 
L 53.078125 0 
L 2.046875 0 
L 2.046875 1.8125 
L 4.390625 1.8125 
Q 6.734375 1.8125 8.84375 2.9375 
Q 10.40625 3.71875 10.96875 5.28125 
Q 11.53125 6.84375 11.53125 11.671875 
L 11.53125 54.6875 
Q 11.53125 60.984375 10.25 62.453125 
Q 8.5 64.40625 4.390625 64.40625 
L 2.046875 64.40625 
L 2.046875 66.21875 
L 53.078125 66.21875 
L 53.8125 51.703125 
L 51.90625 51.703125 
Q 50.875 56.9375 49.625 58.890625 
Q 48.390625 60.84375 45.953125 61.859375 
Q 44 62.59375 39.0625 62.59375 
z
" id="TimesNewRomanPSMT-45"/>
      <path d="M 0.59375 44.734375 
L 21.4375 44.734375 
L 21.4375 42.921875 
L 20.40625 42.921875 
Q 18.21875 42.921875 17.109375 41.96875 
Q 16.015625 41.015625 16.015625 39.59375 
Q 16.015625 37.703125 17.625 34.328125 
L 28.515625 11.765625 
L 38.53125 36.46875 
Q 39.359375 38.484375 39.359375 40.4375 
Q 39.359375 41.3125 39.015625 41.75 
Q 38.625 42.28125 37.796875 42.59375 
Q 36.96875 42.921875 34.859375 42.921875 
L 34.859375 44.734375 
L 49.421875 44.734375 
L 49.421875 42.921875 
Q 47.609375 42.71875 46.625 42.125 
Q 45.65625 41.546875 44.484375 39.9375 
Q 44.046875 39.265625 42.828125 36.1875 
L 24.609375 -8.453125 
Q 21.96875 -14.9375 17.6875 -18.25 
Q 13.421875 -21.578125 9.46875 -21.578125 
Q 6.59375 -21.578125 4.734375 -19.921875 
Q 2.875 -18.265625 2.875 -16.109375 
Q 2.875 -14.0625 4.21875 -12.8125 
Q 5.5625 -11.578125 7.90625 -11.578125 
Q 9.515625 -11.578125 12.3125 -12.640625 
Q 14.265625 -13.375 14.75 -13.375 
Q 16.21875 -13.375 17.9375 -11.859375 
Q 19.671875 -10.359375 21.4375 -6 
L 24.609375 1.765625 
L 8.546875 35.5 
Q 7.8125 37.015625 6.203125 39.265625 
Q 4.984375 40.96875 4.203125 41.546875 
Q 3.078125 42.328125 0.59375 42.921875 
z
" id="TimesNewRomanPSMT-79"/>
      <path d="M 71 66.21875 
L 71 64.40625 
Q 67.484375 63.765625 65.671875 62.15625 
Q 63.09375 59.765625 61.078125 54.828125 
L 37.984375 -1.515625 
L 36.1875 -1.515625 
L 11.375 55.5625 
Q 9.46875 59.96875 8.6875 60.9375 
Q 7.46875 62.453125 5.6875 63.296875 
Q 3.90625 64.15625 0.875 64.40625 
L 0.875 66.21875 
L 27.9375 66.21875 
L 27.9375 64.40625 
Q 23.34375 63.96875 21.96875 62.84375 
Q 20.609375 61.71875 20.609375 59.96875 
Q 20.609375 57.515625 22.859375 52.34375 
L 39.703125 13.53125 
L 55.328125 51.859375 
Q 57.625 57.515625 57.625 59.71875 
Q 57.625 61.140625 56.203125 62.421875 
Q 54.78125 63.71875 51.421875 64.265625 
Q 51.171875 64.3125 50.59375 64.40625 
L 50.59375 66.21875 
z
" id="TimesNewRomanPSMT-56"/>
      <path d="M 41.109375 17 
Q 39.3125 8.15625 34.03125 3.390625 
Q 28.765625 -1.375 22.359375 -1.375 
Q 14.75 -1.375 9.078125 5.015625 
Q 3.421875 11.421875 3.421875 22.3125 
Q 3.421875 32.859375 9.6875 39.453125 
Q 15.96875 46.046875 24.75 46.046875 
Q 31.34375 46.046875 35.59375 42.546875 
Q 39.84375 39.0625 39.84375 35.296875 
Q 39.84375 33.453125 38.640625 32.296875 
Q 37.453125 31.15625 35.296875 31.15625 
Q 32.421875 31.15625 30.953125 33.015625 
Q 30.125 34.03125 29.859375 36.90625 
Q 29.59375 39.796875 27.875 41.3125 
Q 26.171875 42.78125 23.140625 42.78125 
Q 18.265625 42.78125 15.28125 39.15625 
Q 11.328125 34.375 11.328125 26.515625 
Q 11.328125 18.5 15.25 12.375 
Q 19.1875 6.25 25.875 6.25 
Q 30.671875 6.25 34.46875 9.515625 
Q 37.15625 11.765625 39.703125 17.671875 
z
" id="TimesNewRomanPSMT-63"/>
      <path d="M 16.109375 59.421875 
L 16.109375 44.734375 
L 26.5625 44.734375 
L 26.5625 41.3125 
L 16.109375 41.3125 
L 16.109375 12.3125 
Q 16.109375 7.953125 17.359375 6.4375 
Q 18.609375 4.9375 20.5625 4.9375 
Q 22.171875 4.9375 23.6875 5.9375 
Q 25.203125 6.9375 26.03125 8.890625 
L 27.9375 8.890625 
Q 26.21875 4.109375 23.09375 1.6875 
Q 19.96875 -0.734375 16.65625 -0.734375 
Q 14.40625 -0.734375 12.25 0.515625 
Q 10.109375 1.765625 9.078125 4.078125 
Q 8.0625 6.390625 8.0625 11.234375 
L 8.0625 41.3125 
L 0.984375 41.3125 
L 0.984375 42.921875 
Q 3.65625 44 6.46875 46.5625 
Q 9.28125 49.125 11.46875 52.640625 
Q 12.59375 54.5 14.59375 59.421875 
z
" id="TimesNewRomanPSMT-74"/>
     </defs>
     <g style="fill:#262626;" transform="translate(107.203125 266.002813)rotate(-90)scale(0.1 -0.1)">
      <use xlink:href="#TimesNewRomanPSMT-4e"/>
      <use x="72.216797" xlink:href="#TimesNewRomanPSMT-6f"/>
      <use x="122.216797" xlink:href="#TimesNewRomanPSMT-72"/>
      <use x="155.517578" xlink:href="#TimesNewRomanPSMT-6d"/>
      <use x="233.300781" xlink:href="#TimesNewRomanPSMT-61"/>
      <use x="277.685547" xlink:href="#TimesNewRomanPSMT-6c"/>
      <use x="305.46875" xlink:href="#TimesNewRomanPSMT-69"/>
      <use x="333.251953" xlink:href="#TimesNewRomanPSMT-7a"/>
      <use x="377.636719" xlink:href="#TimesNewRomanPSMT-65"/>
      <use x="422.021484" xlink:href="#TimesNewRomanPSMT-64"/>
      <use x="472.021484" xlink:href="#TimesNewRomanPSMT-20"/>
      <use x="497.021484" xlink:href="#TimesNewRomanPSMT-45"/>
      <use x="558.105469" xlink:href="#TimesNewRomanPSMT-79"/>
      <use x="608.105469" xlink:href="#TimesNewRomanPSMT-65"/>
      <use x="652.490234" xlink:href="#TimesNewRomanPSMT-20"/>
      <use x="677.474609" xlink:href="#TimesNewRomanPSMT-56"/>
      <use x="749.519531" xlink:href="#TimesNewRomanPSMT-65"/>
      <use x="793.904297" xlink:href="#TimesNewRomanPSMT-6c"/>
      <use x="821.6875" xlink:href="#TimesNewRomanPSMT-6f"/>
      <use x="871.6875" xlink:href="#TimesNewRomanPSMT-63"/>
      <use x="916.072266" xlink:href="#TimesNewRomanPSMT-69"/>
      <use x="943.855469" xlink:href="#TimesNewRomanPSMT-74"/>
      <use x="971.638672" xlink:href="#TimesNewRomanPSMT-79"/>
     </g>
    </g>
   </g>
   <g id="line2d_31">
    <path clip-path="url(#p8e34288774)" d="M 134.93738 290.433846 
L 136.205566 289.844867 
L 137.473751 290.352508 
L 138.741937 290.009442 
L 140.010123 290.316028 
L 141.278308 289.734394 
L 142.546494 290.298983 
L 143.814679 289.960755 
L 145.082865 290.334123 
L 146.351051 290.323268 
L 148.887422 289.984043 
L 150.155608 290.200144 
L 151.423793 290.075398 
L 152.691979 290.33542 
L 153.960164 290.173973 
L 155.22835 290.239681 
L 156.496536 290.090077 
L 157.764721 290.259819 
L 159.032907 289.747506 
L 160.301093 290.340425 
L 161.569278 290.003478 
L 162.837464 290.351372 
L 164.10565 289.984165 
L 165.373835 290.341108 
L 166.642021 290.088678 
L 167.910206 290.332999 
L 169.178392 289.950526 
L 170.446578 290.36949 
L 172.982949 290.026382 
L 174.251135 290.020837 
L 175.51932 290.2481 
L 176.787506 289.973096 
L 178.055691 290.269755 
L 179.323877 290.118315 
L 180.592063 290.431524 
L 181.860248 290.039935 
L 183.128434 290.245586 
L 184.39662 289.970537 
L 186.932991 290.352952 
L 188.201177 289.783489 
L 189.469362 290.451804 
L 190.737548 290.0847 
L 192.005733 290.309192 
L 193.273919 290.10871 
L 197.078476 290.108116 
L 198.346662 290.450967 
L 199.614847 289.833247 
L 200.883033 290.421879 
L 202.151218 289.87722 
L 203.419404 290.461208 
L 204.68759 289.826672 
L 207.223961 290.405197 
L 208.492147 290.314096 
L 209.760332 290.604132 
L 211.028518 290.666721 
L 213.564889 247.534258 
L 214.833075 228.614551 
L 216.10126 212.067443 
L 217.369446 199.402651 
L 218.637632 173.657738 
L 219.905817 158.465101 
L 221.174003 147.498036 
L 222.442189 132.033393 
L 223.710374 122.497942 
L 224.97856 96.94987 
L 226.246746 103.511207 
L 227.514931 99.419837 
L 228.783117 91.510775 
L 230.051302 89.642831 
L 231.319488 90.94482 
L 232.587674 106.582371 
L 233.855859 103.526771 
L 235.124045 112.628427 
L 236.392231 81.708761 
L 237.660416 76.196561 
L 238.928602 102.899971 
L 240.196787 93.242963 
L 241.464973 90.112953 
L 242.733159 98.219025 
L 244.001344 84.561475 
L 245.26953 77.614331 
L 246.537716 96.696019 
L 247.805901 107.540342 
L 249.074087 93.489669 
L 250.342273 95.70139 
L 251.610458 98.686238 
L 252.878644 91.669451 
L 254.146829 95.77072 
L 255.415015 97.377133 
L 256.683201 75.680974 
L 257.951386 81.98601 
L 259.219572 93.376283 
L 260.487758 91.223276 
L 261.755943 94.206343 
L 263.024129 82.409715 
L 264.292314 97.904814 
L 265.5605 101.751721 
L 266.828686 82.635223 
L 268.096871 69.20421 
L 269.365057 75.48781 
L 270.633243 112.72224 
L 271.901428 98.641283 
L 273.169614 77.649974 
L 274.4378 76.719638 
L 275.705985 94.573827 
L 276.974171 87.391142 
L 278.242356 100.223373 
L 279.510542 96.729788 
L 280.778728 72.272026 
L 282.046913 86.897562 
L 283.315099 77.624892 
L 284.583285 104.978674 
L 285.85147 89.727432 
L 287.119656 89.943548 
L 288.387841 79.691634 
L 289.656027 78.777894 
L 290.924213 80.305141 
L 293.460584 93.372 
L 294.72877 105.503345 
L 295.996955 98.374994 
L 297.265141 97.125345 
L 298.533327 91.192794 
L 299.801512 73.715313 
L 301.069698 75.855875 
L 302.337883 90.704514 
L 303.606069 67.292339 
L 304.874255 63.240857 
L 306.14244 63.540135 
L 307.410626 76.926301 
L 308.678812 103.340596 
L 309.946997 119.822317 
L 311.215183 113.122712 
L 312.483368 85.864983 
L 313.751554 85.47695 
L 315.01974 118.827893 
L 316.287925 132.437841 
L 317.556111 133.861706 
L 318.824297 124.393921 
L 320.092482 135.740607 
L 321.360668 135.847982 
L 322.628854 124.04044 
L 323.897039 135.711298 
L 325.165225 140.70786 
L 326.43341 121.613374 
L 327.701596 127.716111 
L 328.969782 138.90395 
L 330.237967 133.818807 
L 331.506153 129.346564 
L 332.774339 138.433416 
L 334.042524 140.844917 
L 335.31071 126.082715 
L 336.578895 118.954167 
L 337.847081 133.542183 
L 339.115267 138.984491 
L 340.383452 136.162219 
L 341.651638 133.665279 
L 342.919824 138.155201 
L 344.188009 135.528824 
L 345.456195 119.211618 
L 346.724381 123.813269 
L 347.992566 141.624049 
L 349.260752 127.702792 
L 350.528937 129.833367 
L 351.797123 133.689478 
L 353.065309 139.968517 
L 355.60168 121.394184 
L 356.869866 126.781896 
L 358.138051 138.862829 
L 359.406237 137.538668 
L 360.674423 138.113558 
L 361.942608 132.19165 
L 363.210794 130.972614 
L 364.478979 133.992232 
L 365.747165 126.606953 
L 367.015351 136.203815 
L 368.283536 137.313661 
L 369.551722 137.717099 
L 370.819908 126.22281 
L 372.088093 135.55247 
L 373.356279 137.708916 
L 374.624464 133.48913 
L 375.89265 128.298817 
L 377.160836 131.180317 
L 378.429021 132.066568 
L 379.697207 139.869708 
L 380.965393 128.053541 
L 382.233578 134.716418 
L 383.501764 134.09327 
L 384.76995 139.034818 
L 386.038135 133.078821 
L 387.306321 136.235222 
L 388.574506 125.216949 
L 389.842692 138.406768 
L 391.110878 139.645155 
L 392.379063 136.164467 
L 393.647249 134.903785 
L 394.915435 132.775393 
L 396.18362 126.243624 
L 397.451806 129.751825 
L 398.719991 141.655466 
L 399.988177 127.134939 
L 401.256363 138.850085 
L 402.524548 140.541244 
L 403.792734 132.604807 
L 405.06092 128.580828 
L 406.329105 139.074904 
L 407.597291 137.279032 
L 408.865477 133.001304 
L 410.133662 125.074834 
L 411.401848 142.505357 
L 412.670033 146.090802 
L 413.938219 140.212026 
L 415.206405 176.646431 
L 416.47459 192.018215 
L 417.742776 209.617186 
L 419.010962 222.774143 
L 421.547333 242.49393 
L 422.815518 250.103012 
L 424.083704 255.457777 
L 425.35189 261.437831 
L 426.620075 264.855299 
L 427.888261 265.598164 
L 429.156447 272.79745 
L 430.424632 272.680093 
L 431.692818 277.264483 
L 432.961004 278.355248 
L 434.229189 277.527498 
L 436.76556 283.425564 
L 438.033746 282.921977 
L 439.301932 281.851099 
L 440.570117 285.586172 
L 441.838303 285.851569 
L 443.106489 284.458087 
L 444.374674 286.951801 
L 445.64286 286.507013 
L 446.911045 284.301412 
L 448.179231 286.996647 
L 449.447417 288.225769 
L 450.715602 286.497366 
L 453.251974 287.10235 
L 454.520159 288.543834 
L 455.788345 287.736202 
L 457.056531 285.755211 
L 458.324716 288.677077 
L 459.592902 287.41723 
L 460.861087 287.140566 
L 462.129273 287.777183 
L 463.397459 288.588997 
L 464.665644 285.787598 
L 465.93383 288.511452 
L 467.202016 288.524741 
L 468.470201 287.844707 
L 469.738387 286.440137 
L 471.006572 288.996106 
L 472.274758 288.722819 
L 473.542944 286.679547 
L 474.811129 289.04073 
L 476.079315 287.197896 
L 477.347501 286.644931 
L 478.615686 289.140232 
L 479.883872 286.301197 
L 481.152058 289.428502 
L 482.420243 287.911024 
L 483.688429 288.089672 
L 484.956614 287.087676 
L 486.2248 288.996191 
L 487.492986 288.277073 
L 488.761171 285.454424 
L 490.029357 289.472048 
L 492.565728 287.280453 
L 493.833914 287.571115 
L 495.1021 288.718342 
L 496.370285 287.409869 
L 497.638471 289.100644 
L 498.906656 286.713867 
L 500.174842 287.77317 
L 501.443028 287.679037 
L 502.711213 287.03108 
L 503.979399 289.371482 
L 505.247585 285.725015 
L 506.51577 289.147823 
L 507.783956 287.891868 
L 509.052141 285.190108 
L 510.320327 287.759117 
L 511.588513 288.106164 
L 512.856698 285.596059 
L 514.124884 284.779033 
L 515.39307 285.744062 
L 516.661255 285.737538 
L 517.929441 288.028766 
L 519.197627 286.868905 
L 520.465812 286.736229 
L 521.733998 288.750687 
L 523.002183 288.779455 
L 524.270369 289.493888 
L 525.538555 290.016744 
L 526.80674 289.811176 
L 528.074926 290.446931 
L 529.343112 289.768207 
L 530.611297 290.378261 
L 531.879483 289.789888 
L 533.147668 290.369152 
L 534.415854 289.980475 
L 535.68404 290.139516 
L 536.952225 290.13351 
L 538.220411 290.533215 
L 539.488597 289.403714 
L 540.756782 290.331367 
L 542.024968 290.369415 
L 543.293154 289.758353 
L 544.561339 290.245233 
L 545.829525 290.234613 
L 547.09771 289.992787 
L 548.365896 290.455184 
L 549.634082 290.063756 
L 550.902267 289.817129 
L 552.170453 290.426037 
L 553.438639 290.102085 
L 554.706824 290.295347 
L 557.243195 289.977107 
L 559.779567 290.340351 
L 562.315938 289.952765 
L 563.584124 290.183176 
L 564.852309 290.069545 
L 566.120495 290.436689 
L 567.388681 289.786362 
L 568.656866 290.42238 
L 569.925052 289.99303 
L 571.193237 290.431908 
L 572.461423 290.123227 
L 573.729609 290.130575 
L 574.997794 289.805118 
L 576.26598 290.357335 
L 577.534166 289.90129 
L 578.802351 290.283233 
L 581.338722 290.316719 
L 582.606908 289.998349 
L 583.875094 290.288116 
L 585.143279 289.826333 
L 586.411465 290.478387 
L 587.679651 290.071391 
L 588.947836 290.267308 
L 592.752393 289.96503 
L 594.020579 290.424602 
L 595.288764 289.880864 
L 596.55695 290.201353 
L 597.825136 290.355717 
L 599.093321 290.217155 
L 600.361507 289.868738 
L 601.629693 290.363948 
L 602.897878 290.147578 
L 604.166064 290.364247 
L 605.434249 289.626484 
L 606.702435 290.415345 
L 607.970621 290.294816 
L 609.238806 289.943503 
L 610.506992 290.075699 
L 611.775178 290.445291 
L 613.043363 289.834686 
L 614.311549 290.541891 
L 615.579735 290.025668 
L 616.84792 290.220363 
L 618.116106 269.267609 
L 619.384291 244.261705 
L 620.652477 230.18202 
L 621.920663 211.27548 
L 623.188848 185.538736 
L 624.457034 181.339836 
L 625.72522 174.46687 
L 628.261591 114.301988 
L 629.529777 106.411217 
L 630.797962 111.153375 
L 632.066148 122.122185 
L 633.334333 104.594276 
L 634.602519 89.315636 
L 635.870705 82.044809 
L 637.13889 104.653244 
L 638.407076 99.343397 
L 639.675262 106.35712 
L 640.943447 106.530693 
L 642.211633 107.227835 
L 643.479818 88.676109 
L 644.748004 80.165498 
L 646.01619 83.238447 
L 647.284375 104.938291 
L 648.552561 115.036398 
L 651.088932 95.176116 
L 652.357118 89.132387 
L 653.625304 77.915417 
L 654.893489 77.464375 
L 656.161675 88.876119 
L 657.42986 96.929244 
L 658.698046 107.926792 
L 659.966232 90.275052 
L 661.234417 80.840076 
L 662.502603 72.404599 
L 663.770789 94.748149 
L 665.038974 105.61674 
L 666.30716 100.762534 
L 667.575345 98.699571 
L 668.843531 69.830287 
L 670.111717 78.687875 
L 671.379902 107.458505 
L 672.648088 98.639939 
L 673.916274 85.51346 
L 675.184459 74.529076 
L 676.452645 88.898013 
L 677.720831 96.3706 
L 678.989016 99.791478 
L 680.257202 88.594824 
L 681.525387 83.643856 
L 682.793573 72.112249 
L 684.061759 105.123176 
L 685.329944 91.178964 
L 686.59813 98.575673 
L 687.866316 87.604857 
L 689.134501 98.959637 
L 690.402687 72.839882 
L 691.670872 72.227526 
L 692.939058 78.526278 
L 694.207244 92.201211 
L 695.475429 98.402532 
L 698.011801 86.127624 
L 699.279986 78.854492 
L 700.548172 74.416012 
L 701.816358 106.977632 
L 703.084543 94.584891 
L 704.352729 86.074751 
L 705.620914 66.502866 
L 706.8891 83.313177 
L 708.157286 106.445141 
L 709.425471 100.30239 
L 710.693657 55.612412 
L 713.230028 90.336827 
L 714.498214 100.482741 
L 715.766399 88.896473 
L 717.034585 83.6872 
L 718.302771 89.833478 
L 719.570956 108.224747 
L 720.839142 120.126038 
L 722.107328 134.922896 
L 723.375513 125.220185 
L 724.643699 120.055298 
L 725.911885 125.197726 
L 727.18007 141.72999 
L 728.448256 137.488977 
L 729.716441 135.455538 
L 730.984627 133.076462 
L 732.252813 139.951706 
L 733.520998 131.589342 
L 734.789184 131.93137 
L 736.05737 136.147208 
L 738.593741 136.103334 
L 739.861926 134.951155 
L 741.130112 124.342135 
L 742.398298 123.93513 
L 743.666483 130.829087 
L 744.934669 141.680009 
L 746.202855 129.413133 
L 747.47104 124.708065 
L 748.739226 130.350356 
L 751.275597 127.619583 
L 752.543783 142.070881 
L 753.811968 129.973704 
L 755.080154 139.2937 
L 756.34834 128.430308 
L 757.616525 135.569588 
L 758.884711 128.09507 
L 760.152897 124.932414 
L 761.421082 135.317064 
L 762.689268 141.64162 
L 765.225639 123.178336 
L 766.493825 125.375739 
L 767.76201 141.896978 
L 769.030196 129.445621 
L 770.298382 135.368491 
L 771.566567 138.956563 
L 772.834753 126.572135 
L 774.102939 136.815183 
L 775.371124 126.445613 
L 776.63931 129.211508 
L 777.907495 138.927362 
L 779.175681 141.047528 
L 780.443867 121.174716 
L 781.712052 125.079521 
L 782.980238 139.795336 
L 784.248424 139.76988 
L 785.516609 132.888837 
L 786.784795 134.414711 
L 788.052981 137.005469 
L 789.321166 133.495211 
L 790.589352 133.948618 
L 791.857537 122.370664 
L 793.125723 140.107687 
L 794.393909 135.990197 
L 795.662094 129.350819 
L 796.93028 138.388459 
L 798.198466 130.816114 
L 799.466651 127.899698 
L 800.734837 140.964023 
L 802.003022 135.452332 
L 803.271208 123.388779 
L 804.539394 128.699999 
L 805.807579 135.605652 
L 807.075765 141.085364 
L 808.343951 134.656313 
L 809.612136 124.155038 
L 810.880322 135.558401 
L 812.148508 135.809631 
L 813.416693 137.490824 
L 814.684879 130.138434 
L 815.953064 124.480014 
L 817.22125 137.680699 
L 818.489436 139.824934 
L 819.757621 138.953953 
L 821.025807 176.729421 
L 822.293993 192.208345 
L 823.562178 209.555974 
L 824.830364 222.259219 
L 826.098549 233.479824 
L 827.366735 242.676827 
L 829.903106 256.88428 
L 831.171292 261.573827 
L 832.439478 263.270839 
L 833.707663 267.969088 
L 834.975849 271.531558 
L 836.244035 273.289059 
L 837.51222 275.239986 
L 838.780406 279.163807 
L 840.048591 280.483431 
L 841.316777 280.843558 
L 842.584963 282.281687 
L 843.853148 284.096517 
L 845.121334 283.560671 
L 846.38952 282.863128 
L 847.657705 286.446508 
L 848.925891 284.979474 
L 850.194076 286.890756 
L 851.462262 285.116686 
L 852.730448 285.414551 
L 853.998633 287.852757 
L 855.266819 285.220743 
L 856.535005 288.392069 
L 857.80319 284.91454 
L 859.071376 289.049968 
L 861.607747 285.770544 
L 862.875933 288.329493 
L 864.144118 286.444028 
L 865.412304 288.84427 
L 867.948675 286.531573 
L 869.216861 289.378323 
L 870.485047 288.020292 
L 871.753232 288.18087 
L 873.021418 288.749862 
L 874.289603 286.349131 
L 875.557789 287.766707 
L 876.825975 287.034916 
L 878.09416 288.719961 
L 879.362346 287.995861 
L 880.630532 288.149488 
L 881.898717 286.88347 
L 883.166903 288.184882 
L 884.435089 288.459778 
L 885.703274 286.458199 
L 886.97146 288.475729 
L 888.239645 287.026064 
L 889.507831 287.846297 
L 890.776017 287.501656 
L 892.044202 288.465107 
L 893.312388 288.526703 
L 894.580574 288.040112 
L 895.848759 287.291175 
L 897.116945 289.163686 
L 898.38513 288.690704 
L 899.653316 287.383657 
L 900.921502 289.089875 
L 902.189687 285.375503 
L 903.457873 288.914461 
L 905.994244 287.587108 
L 907.26243 287.953926 
L 908.530616 287.821117 
L 909.798801 287.850427 
L 911.066987 287.674592 
L 913.603358 286.990493 
L 914.871544 287.31451 
L 916.139729 288.972893 
L 918.676101 287.210524 
L 919.944286 285.850373 
L 921.212472 286.914384 
L 922.480658 285.918553 
L 923.748843 282.839477 
L 925.017029 287.537493 
L 926.285214 284.915884 
L 927.5534 288.658325 
L 928.821586 288.720183 
L 930.089771 285.921328 
L 931.357957 289.891375 
L 932.626143 288.631695 
L 933.894328 290.012888 
L 935.162514 290.27331 
L 936.430699 290.289175 
L 937.698885 290.027618 
L 940.235256 290.336528 
L 941.503442 290.000919 
L 942.771628 290.397974 
L 944.039813 289.89173 
L 945.307999 290.335969 
L 946.576185 289.799247 
L 947.84437 290.488127 
L 949.112556 289.519588 
L 950.380741 290.466253 
L 951.648927 289.897067 
L 952.917113 290.372279 
L 954.185298 290.204717 
L 955.453484 289.913867 
L 956.72167 290.311382 
L 957.989855 290.012029 
L 959.258041 290.280239 
L 961.794412 290.255788 
L 964.330783 289.959119 
L 965.598969 290.298957 
L 966.867155 289.889071 
L 968.13534 290.352043 
L 970.671712 290.203569 
L 971.939897 289.937997 
L 973.208083 290.229636 
L 973.208083 290.229636 
" style="fill:none;stroke:#0000ff;stroke-linecap:round;stroke-width:1.5;"/>
   </g>
   <g id="line2d_32">
    <path clip-path="url(#p8e34288774)" d="M 134.93738 291.024 
L 211.028518 291.024 
L 212.296704 73.584 
L 413.938219 73.584 
L 415.206405 291.024 
L 616.84792 291.024 
L 618.116106 73.584 
L 819.757621 73.584 
L 821.025807 291.024 
L 973.208083 291.024 
L 973.208083 291.024 
" style="fill:none;stroke:#808080;stroke-linecap:round;stroke-width:1.5;"/>
   </g>
   <g id="line2d_33">
    <path clip-path="url(#p8e34288774)" d="M 134.93738 290.43499 
L 136.205566 289.845829 
L 137.473751 290.353315 
L 138.741937 290.01012 
L 140.010123 290.316598 
L 141.278308 289.734873 
L 142.546494 290.299385 
L 143.814679 289.961093 
L 145.082865 290.334406 
L 146.351051 290.323506 
L 148.887422 289.984211 
L 150.155608 290.200285 
L 151.423793 290.075517 
L 152.691979 290.33552 
L 153.960164 290.174057 
L 155.22835 290.239752 
L 156.496536 290.090136 
L 157.764721 290.259869 
L 159.032907 289.747548 
L 160.301093 290.34046 
L 161.569278 290.003507 
L 162.837464 290.351397 
L 164.10565 289.984186 
L 165.373835 290.341125 
L 166.642021 290.088693 
L 167.910206 290.333012 
L 169.178392 289.950537 
L 170.446578 290.369498 
L 172.982949 290.026388 
L 174.251135 290.020843 
L 175.51932 290.248104 
L 176.787506 289.9731 
L 178.055691 290.269759 
L 179.323877 290.118318 
L 180.592063 290.431526 
L 181.860248 290.039937 
L 183.128434 290.245588 
L 184.39662 289.970539 
L 186.932991 290.352952 
L 188.201177 289.783489 
L 189.469362 290.451804 
L 190.737548 290.084701 
L 192.005733 290.309192 
L 193.273919 290.108711 
L 197.078476 290.108116 
L 198.346662 290.450967 
L 199.614847 289.833247 
L 200.883033 290.421879 
L 202.151218 289.87722 
L 203.419404 290.461209 
L 204.68759 289.826672 
L 207.223961 290.405197 
L 208.492147 290.314096 
L 209.760332 290.604132 
L 211.028518 290.666721 
L 212.296704 290.936365 
L 214.833075 283.966078 
L 216.10126 280.306725 
L 217.369446 278.467648 
L 218.637632 261.816335 
L 219.905817 254.262323 
L 221.174003 249.711703 
L 222.442189 239.636872 
L 223.710374 234.628865 
L 224.97856 212.883846 
L 226.246746 222.639746 
L 227.514931 221.23181 
L 228.783117 215.576832 
L 230.051302 215.602319 
L 231.319488 218.49479 
L 232.587674 235.468346 
L 233.855859 233.53499 
L 235.124045 243.579331 
L 236.392231 213.45152 
L 237.660416 208.604479 
L 238.928602 235.866622 
L 240.196787 226.67895 
L 241.464973 223.943182 
L 242.733159 232.380418 
L 244.001344 219.001045 
L 245.26953 212.287569 
L 246.537716 231.565539 
L 247.805901 242.574739 
L 249.074087 228.662562 
L 250.342273 230.990621 
L 251.610458 234.073192 
L 252.878644 227.138492 
L 254.146829 231.308714 
L 255.415015 232.973048 
L 256.683201 211.325543 
L 257.951386 217.671448 
L 259.219572 229.09605 
L 260.487758 226.971881 
L 261.755943 229.979171 
L 263.024129 218.20289 
L 264.292314 233.715082 
L 265.5605 237.576345 
L 266.828686 218.471908 
L 268.096871 205.051025 
L 269.365057 211.343135 
L 270.633243 248.584713 
L 271.901428 234.50976 
L 273.169614 213.523494 
L 274.4378 212.597396 
L 275.705985 230.455143 
L 276.974171 223.275447 
L 278.242356 236.11019 
L 279.510542 232.618714 
L 280.778728 208.162724 
L 282.046913 222.789748 
L 283.315099 213.518328 
L 284.583285 240.87316 
L 285.85147 225.622801 
L 287.119656 225.839658 
L 288.387841 215.588366 
L 289.656027 214.675149 
L 290.924213 216.202835 
L 293.460584 229.270373 
L 294.72877 241.401979 
L 295.996955 234.273846 
L 297.265141 233.02438 
L 298.533327 227.091984 
L 299.801512 209.614632 
L 301.069698 211.755304 
L 302.337883 226.604034 
L 303.606069 203.191936 
L 304.874255 199.140518 
L 306.14244 199.439851 
L 307.410626 212.826062 
L 308.678812 239.240396 
L 309.946997 255.722149 
L 311.215183 249.022571 
L 312.483368 221.764864 
L 313.751554 221.37685 
L 315.01974 254.727809 
L 316.287925 268.337771 
L 317.556111 269.761647 
L 318.824297 260.293871 
L 320.092482 271.640565 
L 321.360668 271.747947 
L 322.628854 259.94041 
L 323.897039 271.611273 
L 325.165225 276.607839 
L 326.43341 257.513356 
L 327.701596 263.616096 
L 328.969782 274.803938 
L 330.237967 269.718797 
L 331.506153 265.246556 
L 332.774339 274.333409 
L 334.042524 276.74491 
L 335.31071 261.982709 
L 336.578895 254.854163 
L 337.847081 269.44218 
L 339.115267 274.884488 
L 340.383452 272.062216 
L 341.651638 269.565277 
L 342.919824 274.055199 
L 344.188009 271.428822 
L 345.456195 255.111616 
L 346.724381 259.713268 
L 347.992566 277.524048 
L 349.260752 263.602791 
L 350.528937 265.733367 
L 351.797123 269.589478 
L 353.065309 275.868516 
L 355.60168 257.294184 
L 356.869866 262.681896 
L 358.138051 274.762829 
L 359.406237 273.438668 
L 360.674423 274.013558 
L 361.942608 268.09165 
L 363.210794 266.872614 
L 364.478979 269.892231 
L 365.747165 262.506953 
L 367.015351 272.103815 
L 368.283536 273.213661 
L 369.551722 273.617099 
L 370.819908 262.12281 
L 372.088093 271.45247 
L 373.356279 273.608916 
L 374.624464 269.38913 
L 375.89265 264.198817 
L 377.160836 267.080317 
L 378.429021 267.966568 
L 379.697207 275.769707 
L 380.965393 263.953541 
L 382.233578 270.616418 
L 383.501764 269.99327 
L 384.76995 274.934818 
L 386.038135 268.978821 
L 387.306321 272.135222 
L 388.574506 261.116949 
L 389.842692 274.306768 
L 391.110878 275.545155 
L 392.379063 272.064467 
L 393.647249 270.803785 
L 394.915435 268.675393 
L 396.18362 262.143624 
L 397.451806 265.651825 
L 398.719991 277.555466 
L 399.988177 263.034939 
L 401.256363 274.750085 
L 402.524548 276.441244 
L 403.792734 268.504807 
L 405.06092 264.480828 
L 406.329105 274.974904 
L 407.597291 273.179032 
L 408.865477 268.901304 
L 410.133662 260.974834 
L 411.401848 278.405357 
L 412.670033 281.990802 
L 413.938219 276.112026 
L 415.206405 290.802431 
L 416.47459 287.909255 
L 417.742776 290.165659 
L 419.010962 290.434861 
L 420.279147 289.747326 
L 421.547333 290.235332 
L 422.815518 290.20579 
L 424.083704 289.144111 
L 425.35189 289.734352 
L 426.620075 288.624376 
L 427.888261 285.564189 
L 429.156447 289.568911 
L 430.424632 286.76812 
L 431.692818 289.098426 
L 432.961004 288.29576 
L 434.229189 285.877528 
L 435.497375 287.448109 
L 436.76556 289.317345 
L 438.033746 287.871073 
L 439.301932 286.00834 
L 440.570117 289.078254 
L 441.838303 288.784918 
L 443.106489 286.9221 
L 444.374674 289.021572 
L 445.64286 288.24562 
L 446.911045 285.761842 
L 448.179231 288.223409 
L 449.447417 289.256249 
L 450.715602 287.362969 
L 453.251974 287.713119 
L 454.520159 289.05688 
L 455.788345 288.167161 
L 457.056531 286.117217 
L 458.324716 288.981162 
L 459.592902 287.672661 
L 460.861087 287.355128 
L 462.129273 287.957415 
L 463.397459 288.740392 
L 464.665644 285.91477 
L 465.93383 288.618276 
L 467.202016 288.614474 
L 468.470201 287.920082 
L 469.738387 286.503453 
L 471.006572 289.049291 
L 472.274758 288.767494 
L 473.542944 286.717074 
L 474.811129 289.072253 
L 476.079315 287.224375 
L 477.347501 286.667174 
L 478.615686 289.158915 
L 479.883872 286.316891 
L 481.152058 289.441685 
L 482.420243 287.922098 
L 483.688429 288.098974 
L 484.956614 287.095489 
L 486.2248 289.002754 
L 487.492986 288.282587 
L 488.761171 285.459055 
L 490.029357 289.475939 
L 492.565728 287.283198 
L 493.833914 287.57342 
L 495.1021 288.720279 
L 496.370285 287.411496 
L 497.638471 289.102011 
L 498.906656 286.715015 
L 500.174842 287.774134 
L 501.443028 287.679847 
L 502.711213 287.031761 
L 503.979399 289.372054 
L 505.247585 285.725495 
L 506.51577 289.148226 
L 507.783956 287.892207 
L 509.052141 285.190393 
L 510.320327 287.759356 
L 511.588513 288.106365 
L 512.856698 285.596227 
L 514.124884 284.779175 
L 515.39307 285.744181 
L 516.661255 285.737638 
L 517.929441 288.02885 
L 519.197627 286.868976 
L 520.465812 286.736289 
L 521.733998 288.750737 
L 523.002183 288.779497 
L 524.270369 289.493923 
L 525.538555 290.016774 
L 526.80674 289.811201 
L 528.074926 290.446952 
L 529.343112 289.768224 
L 530.611297 290.378276 
L 531.879483 289.7899 
L 533.147668 290.369162 
L 534.415854 289.980483 
L 535.68404 290.139523 
L 536.952225 290.133516 
L 538.220411 290.53322 
L 539.488597 289.403719 
L 540.756782 290.331371 
L 542.024968 290.369418 
L 543.293154 289.758355 
L 544.561339 290.245235 
L 545.829525 290.234615 
L 547.09771 289.992789 
L 548.365896 290.455185 
L 549.634082 290.063757 
L 550.902267 289.81713 
L 552.170453 290.426038 
L 553.438639 290.102086 
L 554.706824 290.295348 
L 557.243195 289.977107 
L 559.779567 290.340352 
L 562.315938 289.952765 
L 563.584124 290.183176 
L 564.852309 290.069545 
L 566.120495 290.436689 
L 567.388681 289.786362 
L 568.656866 290.42238 
L 569.925052 289.99303 
L 571.193237 290.431908 
L 572.461423 290.123227 
L 573.729609 290.130575 
L 574.997794 289.805118 
L 576.26598 290.357335 
L 577.534166 289.90129 
L 578.802351 290.283233 
L 581.338722 290.316719 
L 582.606908 289.998349 
L 583.875094 290.288116 
L 585.143279 289.826333 
L 586.411465 290.478387 
L 587.679651 290.071391 
L 588.947836 290.267308 
L 592.752393 289.96503 
L 594.020579 290.424602 
L 595.288764 289.880864 
L 596.55695 290.201353 
L 597.825136 290.355717 
L 599.093321 290.217155 
L 600.361507 289.868738 
L 601.629693 290.363948 
L 602.897878 290.147578 
L 604.166064 290.364247 
L 605.434249 289.626484 
L 606.702435 290.415345 
L 607.970621 290.294816 
L 609.238806 289.943503 
L 610.506992 290.075699 
L 611.775178 290.445291 
L 613.043363 289.834686 
L 614.311549 290.541891 
L 615.579735 290.025668 
L 616.84792 290.220363 
L 618.116106 291.011609 
L 619.384291 284.270665 
L 620.652477 285.533546 
L 621.920663 279.514762 
L 623.188848 264.603733 
L 624.457034 269.498433 
L 625.72522 270.264092 
L 628.261591 221.905468 
L 629.529777 218.54214 
L 630.797962 227.08735 
L 632.066148 241.250724 
L 633.334333 226.406249 
L 634.602519 213.381694 
L 635.870705 208.004297 
L 637.13889 232.203214 
L 638.407076 228.229372 
L 639.675262 236.365339 
L 640.943447 237.481597 
L 642.211633 238.970594 
L 643.479818 221.084027 
L 644.748004 213.132149 
L 646.01619 216.674434 
L 647.284375 238.76852 
L 648.552561 249.19779 
L 651.088932 229.849354 
L 652.357118 224.001907 
L 653.625304 212.949814 
L 654.893489 212.637269 
L 656.161675 224.16535 
L 657.42986 232.316198 
L 658.698046 243.395833 
L 659.966232 225.813047 
L 661.234417 216.435991 
L 662.502603 208.049167 
L 663.770789 230.433587 
L 665.038974 241.336508 
L 666.30716 236.511139 
L 667.575345 234.472399 
L 668.843531 205.623462 
L 670.111717 214.498142 
L 671.379902 243.28313 
L 672.648088 234.476624 
L 673.916274 221.360275 
L 675.184459 210.3844 
L 676.452645 224.760486 
L 677.720831 232.239077 
L 678.989016 235.664999 
L 680.257202 224.472581 
L 681.525387 219.525173 
L 682.793573 207.996554 
L 684.061759 241.009993 
L 685.329944 227.06789 
L 686.59813 234.466371 
L 687.866316 223.497043 
L 689.134501 234.853074 
L 690.402687 208.734368 
L 691.670872 208.122895 
L 692.939058 214.422388 
L 694.207244 228.097944 
L 695.475429 234.299787 
L 698.011801 222.025687 
L 699.279986 214.752865 
L 700.548172 210.314645 
L 701.816358 242.876484 
L 703.084543 230.483926 
L 704.352729 221.973941 
L 705.620914 202.402186 
L 706.8891 219.212605 
L 708.157286 242.344661 
L 709.425471 236.201987 
L 710.693657 191.512074 
L 713.230028 226.236588 
L 714.498214 236.38254 
L 715.766399 224.796304 
L 717.034585 219.587059 
L 718.302771 225.733359 
L 719.570956 244.124647 
L 720.839142 256.025954 
L 722.107328 270.822826 
L 723.375513 261.120126 
L 724.643699 255.955248 
L 725.911885 261.097684 
L 727.18007 277.629955 
L 728.448256 273.388947 
L 729.716441 271.355513 
L 730.984627 268.976441 
L 732.252813 275.851689 
L 733.520998 267.489328 
L 734.789184 267.831358 
L 736.05737 272.047198 
L 738.593741 272.003327 
L 739.861926 270.851149 
L 741.130112 260.242129 
L 742.398298 259.835126 
L 743.666483 266.729083 
L 744.934669 277.580006 
L 746.202855 265.31313 
L 747.47104 260.608063 
L 748.739226 266.250354 
L 751.275597 263.519581 
L 752.543783 277.97088 
L 753.811968 265.873703 
L 755.080154 275.193699 
L 756.34834 264.330308 
L 757.616525 271.469588 
L 758.884711 263.995069 
L 760.152897 260.832414 
L 761.421082 271.217064 
L 762.689268 277.541619 
L 765.225639 259.078336 
L 766.493825 261.275739 
L 767.76201 277.796978 
L 769.030196 265.34562 
L 770.298382 271.268491 
L 771.566567 274.856563 
L 772.834753 262.472135 
L 774.102939 272.715183 
L 775.371124 262.345613 
L 776.63931 265.111508 
L 777.907495 274.827362 
L 779.175681 276.947528 
L 780.443867 257.074716 
L 781.712052 260.979521 
L 782.980238 275.695336 
L 784.248424 275.66988 
L 785.516609 268.788837 
L 786.784795 270.314711 
L 788.052981 272.905469 
L 789.321166 269.395211 
L 790.589352 269.848618 
L 791.857537 258.270664 
L 793.125723 276.007687 
L 794.393909 271.890197 
L 795.662094 265.250819 
L 796.93028 274.288459 
L 798.198466 266.716114 
L 799.466651 263.799698 
L 800.734837 276.864023 
L 802.003022 271.352332 
L 803.271208 259.288779 
L 804.539394 264.599999 
L 805.807579 271.505652 
L 807.075765 276.985364 
L 808.343951 270.556313 
L 809.612136 260.055038 
L 810.880322 271.458401 
L 812.148508 271.709631 
L 813.416693 273.390824 
L 814.684879 266.038434 
L 815.953064 260.380014 
L 817.22125 273.580699 
L 818.489436 275.724934 
L 819.757621 274.853953 
L 821.025807 290.885421 
L 822.293993 288.099385 
L 823.562178 290.104448 
L 824.830364 289.919936 
L 826.098549 290.314827 
L 827.366735 290.418229 
L 828.634921 290.085588 
L 829.903106 290.570614 
L 831.171292 289.870347 
L 832.439478 287.039916 
L 833.707663 287.935113 
L 834.975849 288.303019 
L 836.244035 287.377086 
L 837.51222 287.073928 
L 838.780406 289.104319 
L 840.048591 288.833461 
L 841.316777 287.857583 
L 842.584963 288.173468 
L 843.853148 289.045613 
L 846.38952 286.35521 
L 847.657705 289.379857 
L 848.925891 287.443487 
L 850.194076 288.960528 
L 851.462262 286.855294 
L 852.730448 286.874981 
L 853.998633 289.079519 
L 855.266819 286.251223 
L 856.535005 289.257672 
L 857.80319 285.641646 
L 859.071376 289.660738 
L 861.607747 286.201503 
L 862.875933 288.691498 
L 864.144118 286.748112 
L 865.412304 289.099701 
L 867.948675 286.711805 
L 869.216861 289.529718 
L 870.485047 288.147464 
L 871.753232 288.287694 
L 873.021418 288.839594 
L 874.289603 286.424506 
L 875.557789 287.830022 
L 876.825975 287.088101 
L 878.09416 288.764636 
L 879.362346 288.033389 
L 880.630532 288.181011 
L 881.898717 286.909949 
L 883.166903 288.207124 
L 884.435089 288.478462 
L 885.703274 286.473893 
L 886.97146 288.488912 
L 888.239645 287.037138 
L 889.507831 287.855599 
L 890.776017 287.50947 
L 892.044202 288.471671 
L 893.312388 288.532217 
L 894.580574 288.044743 
L 895.848759 287.295066 
L 897.116945 289.166954 
L 898.38513 288.693449 
L 899.653316 287.385963 
L 900.921502 289.091812 
L 902.189687 285.37713 
L 903.457873 288.915828 
L 905.994244 287.588073 
L 907.26243 287.954736 
L 908.530616 287.821797 
L 909.798801 287.850999 
L 911.066987 287.675072 
L 913.603358 286.990832 
L 914.871544 287.314795 
L 916.139729 288.973132 
L 918.676101 287.210693 
L 919.944286 285.850515 
L 921.212472 286.914503 
L 922.480658 285.918653 
L 923.748843 282.839561 
L 925.017029 287.537563 
L 926.285214 284.915943 
L 927.5534 288.658375 
L 928.821586 288.720225 
L 930.089771 285.921363 
L 931.357957 289.891405 
L 932.626143 288.63172 
L 933.894328 290.012908 
L 935.162514 290.273327 
L 936.430699 290.28919 
L 937.698885 290.02763 
L 940.235256 290.336536 
L 941.503442 290.000927 
L 942.771628 290.397981 
L 944.039813 289.891735 
L 945.307999 290.335973 
L 946.576185 289.799251 
L 947.84437 290.48813 
L 949.112556 289.519591 
L 950.380741 290.466255 
L 951.648927 289.897069 
L 952.917113 290.372281 
L 954.185298 290.204719 
L 955.453484 289.913868 
L 956.72167 290.311383 
L 957.989855 290.01203 
L 959.258041 290.28024 
L 961.794412 290.255789 
L 964.330783 289.959119 
L 965.598969 290.298957 
L 966.867155 289.889072 
L 968.13534 290.352044 
L 970.671712 290.203569 
L 971.939897 289.937997 
L 973.208083 290.229636 
L 973.208083 290.229636 
" style="fill:none;stroke:#ff0000;stroke-linecap:round;stroke-width:1.5;"/>
   </g>
   <g id="line2d_34">
    <path clip-path="url(#p8e34288774)" d="M 134.93738 292.031438 
L 136.205566 291.614154 
L 137.473751 292.203133 
L 138.741937 291.695492 
L 140.010123 292.038558 
L 141.278308 291.731972 
L 142.546494 292.313606 
L 143.814679 291.749017 
L 145.082865 292.087245 
L 146.351051 291.713877 
L 147.619236 291.724732 
L 150.155608 292.063957 
L 151.423793 291.847856 
L 152.691979 291.972602 
L 153.960164 291.71258 
L 155.22835 291.874027 
L 156.496536 291.808319 
L 157.764721 291.957923 
L 159.032907 291.788181 
L 160.301093 292.300494 
L 161.569278 291.707575 
L 162.837464 292.044522 
L 164.10565 291.696628 
L 165.373835 292.063835 
L 166.642021 291.706892 
L 167.910206 291.959322 
L 169.178392 291.715001 
L 170.446578 292.097474 
L 171.714763 291.67851 
L 174.251135 292.021618 
L 175.51932 292.027163 
L 176.787506 291.7999 
L 178.055691 292.074904 
L 179.323877 291.778245 
L 180.592063 291.929685 
L 181.860248 291.616476 
L 183.128434 292.008065 
L 184.39662 291.802414 
L 185.664805 292.077463 
L 188.201177 291.695048 
L 189.469362 292.264511 
L 190.737548 291.596196 
L 192.005733 291.9633 
L 193.273919 291.738808 
L 194.542105 291.93929 
L 198.346662 291.939884 
L 199.614847 291.597033 
L 200.883033 292.214753 
L 202.151218 291.626121 
L 203.419404 292.17078 
L 204.68759 291.586792 
L 205.955775 292.221328 
L 208.492147 291.642803 
L 209.760332 291.733904 
L 211.028518 291.443868 
L 212.296704 73.941279 
L 214.833075 117.073742 
L 216.10126 135.993449 
L 217.369446 152.540557 
L 218.637632 165.205349 
L 219.905817 190.950262 
L 221.174003 206.142899 
L 222.442189 217.109964 
L 223.710374 232.574607 
L 224.97856 242.110058 
L 226.246746 267.65813 
L 227.514931 261.096793 
L 228.783117 265.188163 
L 230.051302 273.097225 
L 231.319488 274.965169 
L 232.587674 273.66318 
L 233.855859 258.025629 
L 235.124045 261.081229 
L 236.392231 251.979573 
L 237.660416 282.899239 
L 238.928602 288.411439 
L 240.196787 261.708029 
L 241.464973 271.365037 
L 242.733159 274.495047 
L 244.001344 266.388975 
L 245.26953 280.046525 
L 246.537716 286.993669 
L 247.805901 267.911981 
L 249.074087 257.067658 
L 250.342273 271.118331 
L 251.610458 268.90661 
L 252.878644 265.921762 
L 254.146829 272.938549 
L 255.415015 268.83728 
L 256.683201 267.230867 
L 257.951386 288.927026 
L 259.219572 282.62199 
L 260.487758 271.231717 
L 261.755943 273.384724 
L 263.024129 270.401657 
L 264.292314 282.198285 
L 265.5605 266.703186 
L 266.828686 262.856279 
L 268.096871 281.972777 
L 269.365057 295.40379 
L 270.633243 289.12019 
L 271.901428 251.88576 
L 273.169614 265.966717 
L 274.4378 286.958026 
L 275.705985 287.888362 
L 276.974171 270.034173 
L 278.242356 277.216858 
L 279.510542 264.384627 
L 280.778728 267.878212 
L 282.046913 292.335974 
L 283.315099 277.710438 
L 284.583285 286.983108 
L 285.85147 259.629326 
L 287.119656 274.880568 
L 288.387841 274.664452 
L 289.656027 284.916366 
L 290.924213 285.830106 
L 292.192398 284.302859 
L 294.72877 271.236 
L 295.996955 259.104655 
L 297.265141 266.233006 
L 298.533327 267.482655 
L 299.801512 273.415206 
L 301.069698 290.892687 
L 302.337883 288.752125 
L 303.606069 273.903486 
L 304.874255 297.315661 
L 306.14244 301.367143 
L 307.410626 301.067865 
L 308.678812 287.681699 
L 309.946997 261.267404 
L 311.215183 244.785683 
L 312.483368 251.485288 
L 313.751554 278.743017 
L 315.01974 279.13105 
L 316.287925 245.780107 
L 317.556111 232.170159 
L 318.824297 230.746294 
L 320.092482 240.214079 
L 321.360668 228.867393 
L 322.628854 228.760018 
L 323.897039 240.56756 
L 325.165225 228.896702 
L 326.43341 223.90014 
L 327.701596 242.994626 
L 328.969782 236.891889 
L 330.237967 225.70405 
L 331.506153 230.789193 
L 332.774339 235.261436 
L 334.042524 226.174584 
L 335.31071 223.763083 
L 336.578895 238.525285 
L 337.847081 245.653833 
L 339.115267 231.065817 
L 340.383452 225.623509 
L 341.651638 228.445781 
L 342.919824 230.942721 
L 344.188009 226.452799 
L 345.456195 229.079176 
L 346.724381 245.396382 
L 347.992566 240.794731 
L 349.260752 222.983951 
L 350.528937 236.905208 
L 351.797123 234.774633 
L 353.065309 230.918522 
L 354.333494 224.639483 
L 356.869866 243.213816 
L 358.138051 237.826104 
L 359.406237 225.745171 
L 360.674423 227.069332 
L 361.942608 226.494442 
L 363.210794 232.41635 
L 364.478979 233.635386 
L 365.747165 230.615768 
L 367.015351 238.001047 
L 368.283536 228.404185 
L 369.551722 227.294339 
L 370.819908 226.890901 
L 372.088093 238.38519 
L 373.356279 229.05553 
L 374.624464 226.899084 
L 375.89265 231.11887 
L 377.160836 236.309183 
L 378.429021 233.427683 
L 379.697207 232.541432 
L 380.965393 224.738292 
L 382.233578 236.554459 
L 383.501764 229.891582 
L 384.76995 230.51473 
L 386.038135 225.573182 
L 387.306321 231.529179 
L 388.574506 228.372778 
L 389.842692 239.391051 
L 391.110878 226.201232 
L 392.379063 224.962845 
L 393.647249 228.443533 
L 394.915435 229.704215 
L 396.18362 231.832607 
L 397.451806 238.364376 
L 398.719991 234.856175 
L 399.988177 222.952534 
L 401.256363 237.473061 
L 402.524548 225.757915 
L 403.792734 224.066756 
L 405.06092 232.003193 
L 406.329105 236.027172 
L 407.597291 225.533096 
L 408.865477 227.328968 
L 410.133662 231.606696 
L 411.401848 239.533166 
L 412.670033 222.102643 
L 413.938219 218.517198 
L 415.156227 433 
M 415.513962 433 
L 416.47459 405.401569 
L 417.742776 390.029785 
L 419.010962 372.430814 
L 420.279147 359.273857 
L 422.815518 339.55407 
L 424.083704 331.944988 
L 425.35189 326.590223 
L 426.620075 320.610169 
L 427.888261 317.192701 
L 429.156447 316.449836 
L 430.424632 309.25055 
L 431.692818 309.367907 
L 432.961004 304.783517 
L 434.229189 303.692752 
L 435.497375 304.520502 
L 438.033746 298.622436 
L 439.301932 299.126023 
L 440.570117 300.196901 
L 441.838303 296.461828 
L 443.106489 296.196431 
L 444.374674 297.589913 
L 445.64286 295.096199 
L 446.911045 295.540987 
L 448.179231 297.746588 
L 449.447417 295.051353 
L 450.715602 293.822231 
L 451.983788 295.550634 
L 454.520159 294.94565 
L 455.788345 293.504166 
L 457.056531 294.311798 
L 458.324716 296.292789 
L 459.592902 293.370923 
L 460.861087 294.63077 
L 462.129273 294.907434 
L 463.397459 294.270817 
L 464.665644 293.459003 
L 465.93383 296.260402 
L 467.202016 293.536548 
L 468.470201 293.523259 
L 469.738387 294.203293 
L 471.006572 295.607863 
L 472.274758 293.051894 
L 473.542944 293.325181 
L 474.811129 295.368453 
L 476.079315 293.00727 
L 477.347501 294.850104 
L 478.615686 295.403069 
L 479.883872 292.907768 
L 481.152058 295.746803 
L 482.420243 292.619498 
L 483.688429 294.136976 
L 484.956614 293.958328 
L 486.2248 294.960324 
L 487.492986 293.051809 
L 488.761171 293.770927 
L 490.029357 296.593576 
L 491.297543 292.575952 
L 493.833914 294.767547 
L 495.1021 294.476885 
L 496.370285 293.329658 
L 497.638471 294.638131 
L 498.906656 292.947356 
L 500.174842 295.334133 
L 501.443028 294.27483 
L 502.711213 294.368963 
L 503.979399 295.01692 
L 505.247585 292.676518 
L 506.51577 296.322985 
L 507.783956 292.900177 
L 509.052141 294.156132 
L 510.320327 296.857892 
L 511.588513 294.288883 
L 512.856698 293.941836 
L 514.124884 296.451941 
L 515.39307 297.268967 
L 516.661255 296.303938 
L 517.929441 296.310462 
L 519.197627 294.019234 
L 520.465812 295.179095 
L 521.733998 295.311771 
L 523.002183 293.297313 
L 524.270369 293.268545 
L 525.538555 292.554112 
L 526.80674 292.031256 
L 528.074926 292.236824 
L 529.343112 291.601069 
L 530.611297 292.279793 
L 531.879483 291.669739 
L 533.147668 292.258112 
L 534.415854 291.678848 
L 535.68404 292.067525 
L 536.952225 291.908484 
L 538.220411 291.91449 
L 539.488597 291.514785 
L 540.756782 292.644286 
L 542.024968 291.716633 
L 543.293154 291.678585 
L 544.561339 292.289647 
L 545.829525 291.802767 
L 547.09771 291.813387 
L 548.365896 292.055213 
L 549.634082 291.592816 
L 550.902267 291.984244 
L 552.170453 292.230871 
L 553.438639 291.621963 
L 554.706824 291.945915 
L 555.97501 291.752653 
L 558.511381 292.070893 
L 561.047752 291.707649 
L 563.584124 292.095235 
L 564.852309 291.864824 
L 566.120495 291.978455 
L 567.388681 291.611311 
L 568.656866 292.261638 
L 569.925052 291.62562 
L 571.193237 292.05497 
L 572.461423 291.616092 
L 573.729609 291.924773 
L 574.997794 291.917425 
L 576.26598 292.242882 
L 577.534166 291.690665 
L 578.802351 292.14671 
L 580.070537 291.764767 
L 582.606908 291.731281 
L 583.875094 292.049651 
L 585.143279 291.759884 
L 586.411465 292.221667 
L 587.679651 291.569613 
L 588.947836 291.976609 
L 590.216022 291.780692 
L 594.020579 292.08297 
L 595.288764 291.623398 
L 596.55695 292.167136 
L 597.825136 291.846647 
L 599.093321 291.692283 
L 600.361507 291.830845 
L 601.629693 292.179262 
L 602.897878 291.684052 
L 604.166064 291.900422 
L 605.434249 291.683753 
L 606.702435 292.421516 
L 607.970621 291.632655 
L 609.238806 291.753184 
L 610.506992 292.104497 
L 611.775178 291.972301 
L 613.043363 291.602709 
L 614.311549 292.213314 
L 615.579735 291.506109 
L 616.84792 292.022332 
L 618.116106 74.387637 
L 619.384291 95.340391 
L 620.652477 120.346295 
L 621.920663 134.42598 
L 623.188848 153.33252 
L 624.457034 179.069264 
L 625.72522 183.268164 
L 626.993405 190.14113 
L 629.529777 250.306012 
L 630.797962 258.196783 
L 632.066148 253.454625 
L 633.334333 242.485815 
L 634.602519 260.013724 
L 635.870705 275.292364 
L 637.13889 282.563191 
L 638.407076 259.954756 
L 639.675262 265.264603 
L 640.943447 258.25088 
L 642.211633 258.077307 
L 643.479818 257.380165 
L 644.748004 275.931891 
L 646.01619 284.442502 
L 647.284375 281.369553 
L 648.552561 259.669709 
L 649.820747 249.571602 
L 652.357118 269.431884 
L 653.625304 275.475613 
L 654.893489 286.692583 
L 656.161675 287.143625 
L 657.42986 275.731881 
L 658.698046 267.678756 
L 659.966232 256.681208 
L 661.234417 274.332948 
L 662.502603 283.767924 
L 663.770789 292.203401 
L 665.038974 269.859851 
L 666.30716 258.99126 
L 667.575345 263.845466 
L 668.843531 265.908429 
L 670.111717 294.777713 
L 671.379902 285.920125 
L 672.648088 257.149495 
L 673.916274 265.968061 
L 675.184459 279.09454 
L 676.452645 290.078924 
L 677.720831 275.709987 
L 678.989016 268.2374 
L 680.257202 264.816522 
L 681.525387 276.013176 
L 682.793573 280.964144 
L 684.061759 292.495751 
L 685.329944 259.484824 
L 686.59813 273.429036 
L 687.866316 266.032327 
L 689.134501 277.003143 
L 690.402687 265.648363 
L 691.670872 291.768118 
L 692.939058 292.380474 
L 694.207244 286.081722 
L 695.475429 272.406789 
L 696.743615 266.205468 
L 699.279986 278.480376 
L 700.548172 285.753508 
L 701.816358 290.191988 
L 703.084543 257.630368 
L 704.352729 270.023109 
L 705.620914 278.533249 
L 706.8891 298.105134 
L 708.157286 281.294823 
L 709.425471 258.162859 
L 710.693657 264.30561 
L 711.961843 308.995588 
L 714.498214 274.271173 
L 715.766399 264.125259 
L 717.034585 275.711527 
L 718.302771 280.9208 
L 719.570956 274.774522 
L 720.839142 256.383253 
L 722.107328 244.481962 
L 723.375513 229.685104 
L 724.643699 239.387815 
L 725.911885 244.552702 
L 727.18007 239.410274 
L 728.448256 222.87801 
L 729.716441 227.119023 
L 730.984627 229.152462 
L 732.252813 231.531538 
L 733.520998 224.656294 
L 734.789184 233.018658 
L 736.05737 232.67663 
L 737.325555 228.460792 
L 739.861926 228.504666 
L 741.130112 229.656845 
L 742.398298 240.265865 
L 743.666483 240.67287 
L 744.934669 233.778913 
L 746.202855 222.927991 
L 747.47104 235.194867 
L 748.739226 239.899935 
L 750.007412 234.257644 
L 752.543783 236.988417 
L 753.811968 222.537119 
L 755.080154 234.634296 
L 756.34834 225.3143 
L 757.616525 236.177692 
L 758.884711 229.038412 
L 760.152897 236.51293 
L 761.421082 239.675586 
L 762.689268 229.290936 
L 763.957453 222.96638 
L 766.493825 241.429664 
L 767.76201 239.232261 
L 769.030196 222.711022 
L 770.298382 235.162379 
L 771.566567 229.239509 
L 772.834753 225.651437 
L 774.102939 238.035865 
L 775.371124 227.792817 
L 776.63931 238.162387 
L 777.907495 235.396492 
L 779.175681 225.680638 
L 780.443867 223.560472 
L 781.712052 243.433284 
L 782.980238 239.528479 
L 784.248424 224.812664 
L 785.516609 224.83812 
L 786.784795 231.719163 
L 788.052981 230.193289 
L 789.321166 227.602531 
L 790.589352 231.112789 
L 791.857537 230.659382 
L 793.125723 242.237336 
L 794.393909 224.500313 
L 795.662094 228.617803 
L 796.93028 235.257181 
L 798.198466 226.219541 
L 799.466651 233.791886 
L 800.734837 236.708302 
L 802.003022 223.643977 
L 803.271208 229.155668 
L 804.539394 241.219221 
L 805.807579 235.908001 
L 807.075765 229.002348 
L 808.343951 223.522636 
L 809.612136 229.951687 
L 810.880322 240.452962 
L 812.148508 229.049599 
L 813.416693 228.798369 
L 814.684879 227.117176 
L 815.953064 234.469566 
L 817.22125 240.127986 
L 818.489436 226.927301 
L 819.757621 224.783066 
L 820.96717 433 
M 821.364681 433 
L 822.293993 405.318579 
L 823.562178 389.839655 
L 824.830364 372.492026 
L 826.098549 359.788781 
L 827.366735 348.568176 
L 828.634921 339.371173 
L 831.171292 325.16372 
L 832.439478 320.474173 
L 833.707663 318.777161 
L 834.975849 314.078912 
L 836.244035 310.516442 
L 837.51222 308.758941 
L 838.780406 306.808014 
L 840.048591 302.884193 
L 841.316777 301.564569 
L 842.584963 301.204442 
L 843.853148 299.766313 
L 845.121334 297.951483 
L 846.38952 298.487329 
L 847.657705 299.184872 
L 848.925891 295.601492 
L 850.194076 297.068526 
L 851.462262 295.157244 
L 852.730448 296.931314 
L 853.998633 296.633449 
L 855.266819 294.195243 
L 856.535005 296.827257 
L 857.80319 293.655931 
L 859.071376 297.13346 
L 860.339562 292.998032 
L 862.875933 296.277456 
L 864.144118 293.718507 
L 865.412304 295.603972 
L 866.68049 293.20373 
L 869.216861 295.516427 
L 870.485047 292.669677 
L 871.753232 294.027708 
L 873.021418 293.86713 
L 874.289603 293.298138 
L 875.557789 295.698869 
L 876.825975 294.281293 
L 878.09416 295.013084 
L 879.362346 293.328039 
L 880.630532 294.052139 
L 881.898717 293.898512 
L 883.166903 295.16453 
L 884.435089 293.863118 
L 885.703274 293.588222 
L 886.97146 295.589801 
L 888.239645 293.572271 
L 889.507831 295.021936 
L 890.776017 294.201703 
L 892.044202 294.546344 
L 893.312388 293.582893 
L 894.580574 293.521297 
L 895.848759 294.007888 
L 897.116945 294.756825 
L 898.38513 292.884314 
L 899.653316 293.357296 
L 900.921502 294.664343 
L 902.189687 292.958125 
L 903.457873 296.672497 
L 904.726059 293.133539 
L 907.26243 294.460892 
L 908.530616 294.094074 
L 909.798801 294.226883 
L 911.066987 294.197573 
L 912.335172 294.373408 
L 914.871544 295.057507 
L 916.139729 294.73349 
L 917.407915 293.075107 
L 919.944286 294.837476 
L 921.212472 296.197627 
L 922.480658 295.133616 
L 923.748843 296.129447 
L 925.017029 299.208523 
L 926.285214 294.510507 
L 927.5534 297.132116 
L 928.821586 293.389675 
L 930.089771 293.327817 
L 931.357957 296.126672 
L 932.626143 292.156625 
L 933.894328 293.416305 
L 935.162514 292.035112 
L 936.430699 291.77469 
L 937.698885 291.758825 
L 938.967071 292.020382 
L 941.503442 291.711472 
L 942.771628 292.047081 
L 944.039813 291.650026 
L 945.307999 292.15627 
L 946.576185 291.712031 
L 947.84437 292.248753 
L 949.112556 291.559873 
L 950.380741 292.528412 
L 951.648927 291.581747 
L 952.917113 292.150933 
L 954.185298 291.675721 
L 955.453484 291.843283 
L 956.72167 292.134133 
L 957.989855 291.736618 
L 959.258041 292.035971 
L 960.526226 291.767761 
L 963.062598 291.792212 
L 965.598969 292.088881 
L 966.867155 291.749043 
L 968.13534 292.158929 
L 969.403526 291.695957 
L 971.939897 291.844431 
L 973.208083 292.110003 
L 973.208083 292.110003 
" style="fill:none;stroke:#8dd35f;stroke-linecap:round;stroke-width:1.5;"/>
   </g>
   <g id="patch_3">
    <path d="M 135 378 
L 135 51.84 
" style="fill:none;stroke:#262626;stroke-linecap:square;stroke-linejoin:miter;stroke-width:1.25;"/>
   </g>
   <g id="patch_4">
    <path d="M 972 378 
L 972 51.84 
" style="fill:none;stroke:#262626;stroke-linecap:square;stroke-linejoin:miter;stroke-width:1.25;"/>
   </g>
   <g id="patch_5">
    <path d="M 135 378 
L 972 378 
" style="fill:none;stroke:#262626;stroke-linecap:square;stroke-linejoin:miter;stroke-width:1.25;"/>
   </g>
   <g id="patch_6">
    <path d="M 135 51.84 
L 972 51.84 
" style="fill:none;stroke:#262626;stroke-linecap:square;stroke-linejoin:miter;stroke-width:1.25;"/>
   </g>
  </g>
 </g>
 <defs>
  <clipPath id="p8e34288774">
   <rect height="326.16" width="837" x="135" y="51.84"/>
  </clipPath>
 </defs>
</svg>
